<?xml version="1.0" encoding="UTF-8"?>
<svg id="Layer_1" data-name="Layer 1" xmlns="http://www.w3.org/2000/svg" viewBox="0 0 376 323">
  <defs>
    <style>
      .cls-1 {
        fill: #f9cdcd;
      }

      .cls-2 {
        fill: #eddd9d;
      }

      .cls-3 {
        fill: #aac6e8;
      }

      .cls-4 {
        opacity: .56;
      }
    </style>
  </defs>
  <g class="cls-4">
    <path class="cls-1" d="m136.68,25.14c.23-.08.45-.18.68-.24,40.63-9.9,47.23-7.62,67.63-2.9,31.81,7.35,48.99,28.22,62.36,58s8.16,68.16-15.76,90.37c-13.51,12.54-31.71,19.31-50.05,21.16s-36.89-.94-54.73-5.59c-24.4-6.37-50.01-18.24-60.38-41.23-4.31-9.56-5.53-20.18-5.35-30.72.36-20.8,5.62-41.52,16.59-59.19,7.32-11.8,17.69-22.51,39-29.65Z"/>
    <path d="m137.48,28.04c2.75-1.02,5.84-1.48,8.7-2.14,2.62-.6,5.25-1.18,7.89-1.72,4.2-.87,8.43-1.65,12.68-2.26.24-.03.49-.07.73-.1.55-.08-.71.09.2-.03.42-.05.84-.11,1.25-.16.89-.11,1.78-.2,2.67-.29,1.59-.15,3.19-.26,4.78-.33,2.73-.11,5.46-.07,8.18.14.63.05,1.27.11,1.9.18.3.03.59.07.89.1.13.02.26.03.39.05.74.09-.06-.01.09.01,1.28.21,2.56.39,3.84.63,2.64.49,5.26,1.08,7.88,1.68,8.02,1.85,15.85,3.96,23.01,7.59,7.51,3.81,13.71,8.45,19.52,14.44s10.58,12.75,14.87,20.22c4.56,7.95,8.67,16.15,11.24,24.86s3.68,17.76,3.28,27.06c-.76,17.79-7.45,35.73-20.2,48.51-15.02,15.05-36.53,21.84-57.41,22.54-12.25.41-24.47-1.08-36.43-3.65-10.06-2.16-20.04-4.94-29.58-8.84-16.69-6.83-33.12-18.09-39.76-35.58-4.1-10.81-4.52-22.58-3.71-34s3.1-22.09,6.98-32.52c1.89-5.09,4.2-10.02,6.88-14.74,1.12-1.97,2.3-3.91,3.56-5.79.5-.76,1.02-1.5,1.55-2.24.66-.91.99-1.35,1.46-1.94,5.27-6.63,11.41-11.68,18.74-15.7,4.45-2.44,9.12-4.38,13.92-6,1.53-.52,2.54-2.06,2.1-3.69-.41-1.5-2.15-2.62-3.69-2.1-9.81,3.31-19.16,7.93-27.07,14.68-6.46,5.51-11.57,12.39-15.75,19.75-5.74,10.11-9.81,21.19-12.2,32.55s-3.5,23.72-2.41,35.51,4.41,22.22,11.23,31.37c5.86,7.85,13.47,14.13,21.89,19.08,8.61,5.06,17.99,8.79,27.52,11.69,11.59,3.53,23.56,6.06,35.6,7.38,23.01,2.52,47.31-.46,67.29-12.84,8.89-5.51,16.53-12.76,22.33-21.47,5.28-7.91,8.98-16.92,11.07-26.18s2.71-19.18,1.67-28.76-3.8-19.32-7.97-28.38c-7.55-16.41-17.43-32.06-31.96-43.15-7.15-5.46-15.26-9.53-23.81-12.29-6.5-2.1-13.34-3.59-20.06-4.84-5.58-1.03-11.22-1.55-16.89-1.32-8.11.33-16.17,1.77-24.1,3.41-2.57.53-5.14,1.1-7.7,1.68-2.86.65-5.95,1.11-8.7,2.14-1.52.56-2.55,2.03-2.1,3.69.4,1.46,2.16,2.66,3.69,2.1Z"/>
  </g>
  <g class="cls-4">
    <path class="cls-2" d="m222.68,100.14c.23-.08.45-.18.68-.24,40.63-9.9,47.23-7.62,67.63-2.9,31.81,7.35,48.99,28.22,62.36,58s8.16,68.16-15.76,90.37c-13.51,12.54-31.71,19.31-50.05,21.16s-36.89-.94-54.73-5.59c-24.4-6.37-50.01-18.24-60.38-41.23-4.31-9.56-5.53-20.18-5.35-30.72.36-20.8,5.62-41.52,16.59-59.19,7.32-11.8,17.69-22.51,39-29.65Z"/>
    <path d="m223.48,103.04c2.75-1.02,5.84-1.48,8.7-2.14,2.62-.6,5.25-1.18,7.89-1.72,4.2-.87,8.43-1.65,12.68-2.26.24-.03.49-.07.73-.1.55-.08-.71.09.2-.03.42-.05.84-.11,1.25-.16.89-.11,1.78-.2,2.67-.29,1.59-.15,3.19-.26,4.78-.33,2.73-.11,5.46-.07,8.18.14.63.05,1.27.11,1.9.18.3.03.59.07.89.1.13.02.26.03.39.05.74.09-.06-.01.09.01,1.28.21,2.56.39,3.84.63,2.64.49,5.26,1.08,7.88,1.68,8.02,1.85,15.85,3.96,23.01,7.59,7.51,3.81,13.71,8.45,19.52,14.44s10.58,12.75,14.87,20.22c4.56,7.95,8.67,16.15,11.24,24.86s3.68,17.76,3.28,27.06c-.76,17.79-7.45,35.73-20.2,48.51-15.02,15.05-36.53,21.84-57.41,22.54-12.25.41-24.47-1.08-36.43-3.65-10.06-2.16-20.04-4.94-29.58-8.84-16.69-6.83-33.12-18.09-39.76-35.58-4.1-10.81-4.52-22.58-3.71-34s3.1-22.09,6.98-32.52c1.89-5.09,4.2-10.02,6.88-14.74,1.12-1.97,2.3-3.91,3.56-5.79.5-.76,1.02-1.5,1.55-2.24.66-.91.99-1.35,1.46-1.94,5.27-6.63,11.41-11.68,18.74-15.7,4.45-2.44,9.12-4.38,13.92-6,1.53-.52,2.54-2.06,2.1-3.69-.41-1.5-2.15-2.62-3.69-2.1-9.81,3.31-19.16,7.93-27.07,14.68-6.46,5.51-11.57,12.39-15.75,19.75-5.74,10.11-9.81,21.19-12.2,32.55s-3.5,23.72-2.41,35.51,4.41,22.22,11.23,31.37c5.86,7.85,13.47,14.13,21.89,19.08s17.99,8.79,27.52,11.69c11.59,3.53,23.56,6.06,35.6,7.38,23.01,2.52,47.31-.46,67.29-12.84,8.89-5.51,16.53-12.76,22.33-21.47,5.28-7.91,8.98-16.92,11.07-26.18,2.12-9.4,2.71-19.18,1.67-28.76s-3.8-19.32-7.97-28.38c-7.55-16.41-17.43-32.06-31.96-43.15-7.15-5.46-15.26-9.53-23.81-12.29-6.5-2.1-13.34-3.59-20.06-4.84-5.58-1.03-11.22-1.55-16.89-1.32-8.11.33-16.17,1.77-24.1,3.41-2.57.53-5.14,1.1-7.7,1.68-2.86.65-5.95,1.11-8.7,2.14-1.52.56-2.55,2.03-2.1,3.69.4,1.46,2.16,2.66,3.69,2.1Z"/>
  </g>
  <g class="cls-4">
    <path class="cls-3" d="m80.68,138.14c.23-.08.45-.18.68-.24,40.63-9.9,47.23-7.62,67.63-2.9,31.81,7.35,48.99,28.22,62.36,58s8.16,68.16-15.76,90.37c-13.51,12.54-31.71,19.31-50.05,21.16s-36.89-.94-54.73-5.59c-24.4-6.37-50.01-18.24-60.38-41.23-4.31-9.56-5.53-20.18-5.35-30.72.36-20.8,5.62-41.52,16.59-59.19,7.32-11.8,17.69-22.51,39-29.65Z"/>
    <path d="m81.48,141.04c2.75-1.02,5.84-1.48,8.7-2.14,2.62-.6,5.25-1.18,7.89-1.72,4.2-.87,8.43-1.65,12.68-2.26.24-.03.49-.07.73-.1.55-.08-.71.09.2-.03.42-.05.84-.11,1.25-.16.89-.11,1.78-.2,2.67-.29,1.59-.15,3.19-.26,4.78-.33,2.73-.11,5.46-.07,8.18.14.63.05,1.27.11,1.9.18.3.03.59.07.89.1.13.02.26.03.39.05.74.09-.06-.01.09.01,1.28.21,2.56.39,3.84.63,2.64.49,5.26,1.08,7.88,1.68,8.02,1.85,15.85,3.96,23.01,7.59,7.51,3.81,13.71,8.45,19.52,14.44s10.58,12.75,14.87,20.22c4.56,7.95,8.67,16.15,11.24,24.86s3.68,17.76,3.28,27.06c-.76,17.79-7.45,35.73-20.2,48.51-15.02,15.05-36.53,21.84-57.41,22.54-12.25.41-24.47-1.08-36.43-3.65-10.06-2.16-20.04-4.94-29.58-8.84-16.69-6.83-33.12-18.09-39.76-35.58-4.1-10.81-4.52-22.58-3.71-34s3.1-22.09,6.98-32.52c1.89-5.09,4.2-10.02,6.88-14.74,1.12-1.97,2.3-3.91,3.56-5.79.5-.76,1.02-1.5,1.55-2.24.66-.91.99-1.35,1.46-1.94,5.27-6.63,11.41-11.68,18.74-15.7,4.45-2.44,9.12-4.38,13.92-6,1.53-.52,2.54-2.06,2.1-3.69-.41-1.5-2.15-2.62-3.69-2.1-9.81,3.31-19.16,7.93-27.07,14.68-6.46,5.51-11.57,12.39-15.75,19.75-5.74,10.11-9.81,21.19-12.2,32.55s-3.5,23.72-2.41,35.51,4.41,22.22,11.23,31.37c5.86,7.85,13.47,14.13,21.89,19.08s17.99,8.79,27.52,11.69c11.59,3.53,23.56,6.06,35.6,7.38,23.01,2.52,47.31-.46,67.29-12.84,8.89-5.51,16.53-12.76,22.33-21.47,5.28-7.91,8.98-16.92,11.07-26.18s2.71-19.18,1.67-28.76-3.8-19.32-7.97-28.38c-7.55-16.41-17.43-32.06-31.96-43.15-7.15-5.46-15.26-9.53-23.81-12.29-6.5-2.1-13.34-3.59-20.06-4.84-5.58-1.03-11.22-1.55-16.89-1.32-8.11.33-16.17,1.77-24.1,3.41-2.57.53-5.14,1.1-7.7,1.68-2.86.65-5.95,1.11-8.7,2.14-1.52.56-2.55,2.03-2.1,3.69.4,1.46,2.16,2.66,3.69,2.1Z"/>
  </g>
  <g class="cls-4">
    <path d="m137.48,28.04c2.75-1.02,5.84-1.48,8.7-2.14,2.62-.6,5.25-1.18,7.89-1.72,4.2-.87,8.43-1.65,12.68-2.26.24-.03.49-.07.73-.1.55-.08-.71.09.2-.03.42-.05.84-.11,1.25-.16.89-.11,1.78-.2,2.67-.29,1.59-.15,3.19-.26,4.78-.33,2.73-.11,5.46-.07,8.18.14.63.05,1.27.11,1.9.18.3.03.59.07.89.1.13.02.26.03.39.05.74.09-.06-.01.09.01,1.28.21,2.56.39,3.84.63,2.64.49,5.26,1.08,7.88,1.68,8.02,1.85,15.85,3.96,23.01,7.59,7.51,3.81,13.71,8.45,19.52,14.44s10.58,12.75,14.87,20.22c4.56,7.95,8.67,16.15,11.24,24.86s3.68,17.76,3.28,27.06c-.76,17.79-7.45,35.73-20.2,48.51-15.02,15.05-36.53,21.84-57.41,22.54-12.25.41-24.47-1.08-36.43-3.65-10.06-2.16-20.04-4.94-29.58-8.84-16.69-6.83-33.12-18.09-39.76-35.58-4.1-10.81-4.52-22.58-3.71-34s3.1-22.09,6.98-32.52c1.89-5.09,4.2-10.02,6.88-14.74,1.12-1.97,2.3-3.91,3.56-5.79.5-.76,1.02-1.5,1.55-2.24.66-.91.99-1.35,1.46-1.94,5.27-6.63,11.41-11.68,18.74-15.7,4.45-2.44,9.12-4.38,13.92-6,1.53-.52,2.54-2.06,2.1-3.69-.41-1.5-2.15-2.62-3.69-2.1-9.81,3.31-19.16,7.93-27.07,14.68-6.46,5.51-11.57,12.39-15.75,19.75-5.74,10.11-9.81,21.19-12.2,32.55s-3.5,23.72-2.41,35.51,4.41,22.22,11.23,31.37c5.86,7.85,13.47,14.13,21.89,19.08,8.61,5.06,17.99,8.79,27.52,11.69,11.59,3.53,23.56,6.06,35.6,7.38,23.01,2.52,47.31-.46,67.29-12.84,8.89-5.51,16.53-12.76,22.33-21.47,5.28-7.91,8.98-16.92,11.07-26.18s2.71-19.18,1.67-28.76-3.8-19.32-7.97-28.38c-7.55-16.41-17.43-32.06-31.96-43.15-7.15-5.46-15.26-9.53-23.81-12.29-6.5-2.1-13.34-3.59-20.06-4.84-5.58-1.03-11.22-1.55-16.89-1.32-8.11.33-16.17,1.77-24.1,3.41-2.57.53-5.14,1.1-7.7,1.68-2.86.65-5.95,1.11-8.7,2.14-1.52.56-2.55,2.03-2.1,3.69.4,1.46,2.16,2.66,3.69,2.1Z"/>
  </g>
  <g class="cls-4">
    <path d="m223.48,103.04c2.75-1.02,5.84-1.48,8.7-2.14,2.62-.6,5.25-1.18,7.89-1.72,4.2-.87,8.43-1.65,12.68-2.26.24-.03.49-.07.73-.1.55-.08-.71.09.2-.03.42-.05.84-.11,1.25-.16.89-.11,1.78-.2,2.67-.29,1.59-.15,3.19-.26,4.78-.33,2.73-.11,5.46-.07,8.18.14.63.05,1.27.11,1.9.18.3.03.59.07.89.1.13.02.26.03.39.05.74.09-.06-.01.09.01,1.28.21,2.56.39,3.84.63,2.64.49,5.26,1.08,7.88,1.68,8.02,1.85,15.85,3.96,23.01,7.59,7.51,3.81,13.71,8.45,19.52,14.44s10.58,12.75,14.87,20.22c4.56,7.95,8.67,16.15,11.24,24.86s3.68,17.76,3.28,27.06c-.76,17.79-7.45,35.73-20.2,48.51-15.02,15.05-36.53,21.84-57.41,22.54-12.25.41-24.47-1.08-36.43-3.65-10.06-2.16-20.04-4.94-29.58-8.84-16.69-6.83-33.12-18.09-39.76-35.58-4.1-10.81-4.52-22.58-3.71-34s3.1-22.09,6.98-32.52c1.89-5.09,4.2-10.02,6.88-14.74,1.12-1.97,2.3-3.91,3.56-5.79.5-.76,1.02-1.5,1.55-2.24.66-.91.99-1.35,1.46-1.94,5.27-6.63,11.41-11.68,18.74-15.7,4.45-2.44,9.12-4.38,13.92-6,1.53-.52,2.54-2.06,2.1-3.69-.41-1.5-2.15-2.62-3.69-2.1-9.81,3.31-19.16,7.93-27.07,14.68-6.46,5.51-11.57,12.39-15.75,19.75-5.74,10.11-9.81,21.19-12.2,32.55s-3.5,23.72-2.41,35.51,4.41,22.22,11.23,31.37c5.86,7.85,13.47,14.13,21.89,19.08s17.99,8.79,27.52,11.69c11.59,3.53,23.56,6.06,35.6,7.38,23.01,2.52,47.31-.46,67.29-12.84,8.89-5.51,16.53-12.76,22.33-21.47,5.28-7.91,8.98-16.92,11.07-26.18,2.12-9.4,2.71-19.18,1.67-28.76s-3.8-19.32-7.97-28.38c-7.55-16.41-17.43-32.06-31.96-43.15-7.15-5.46-15.26-9.53-23.81-12.29-6.5-2.1-13.34-3.59-20.06-4.84-5.58-1.03-11.22-1.55-16.89-1.32-8.11.33-16.17,1.77-24.1,3.41-2.57.53-5.14,1.1-7.7,1.68-2.86.65-5.95,1.11-8.7,2.14-1.52.56-2.55,2.03-2.1,3.69.4,1.46,2.16,2.66,3.69,2.1Z"/>
  </g>
  <g class="cls-4">
    <path d="m81.48,141.04c2.75-1.02,5.84-1.48,8.7-2.14,2.62-.6,5.25-1.18,7.89-1.72,4.2-.87,8.43-1.65,12.68-2.26.24-.03.49-.07.73-.1.55-.08-.71.09.2-.03.42-.05.84-.11,1.25-.16.89-.11,1.78-.2,2.67-.29,1.59-.15,3.19-.26,4.78-.33,2.73-.11,5.46-.07,8.18.14.63.05,1.27.11,1.9.18.3.03.59.07.89.1.13.02.26.03.39.05.74.09-.06-.01.09.01,1.28.21,2.56.39,3.84.63,2.64.49,5.26,1.08,7.88,1.68,8.02,1.85,15.85,3.96,23.01,7.59,7.51,3.81,13.71,8.45,19.52,14.44s10.58,12.75,14.87,20.22c4.56,7.95,8.67,16.15,11.24,24.86s3.68,17.76,3.28,27.06c-.76,17.79-7.45,35.73-20.2,48.51-15.02,15.05-36.53,21.84-57.41,22.54-12.25.41-24.47-1.08-36.43-3.65-10.06-2.16-20.04-4.94-29.58-8.84-16.69-6.83-33.12-18.09-39.76-35.58-4.1-10.81-4.52-22.58-3.71-34s3.1-22.09,6.98-32.52c1.89-5.09,4.2-10.02,6.88-14.74,1.12-1.97,2.3-3.91,3.56-5.79.5-.76,1.02-1.5,1.55-2.24.66-.91.99-1.35,1.46-1.94,5.27-6.63,11.41-11.68,18.74-15.7,4.45-2.44,9.12-4.38,13.92-6,1.53-.52,2.54-2.06,2.1-3.69-.41-1.5-2.15-2.62-3.69-2.1-9.81,3.31-19.16,7.93-27.07,14.68-6.46,5.51-11.57,12.39-15.75,19.75-5.74,10.11-9.81,21.19-12.2,32.55s-3.5,23.72-2.41,35.51,4.41,22.22,11.23,31.37c5.86,7.85,13.47,14.13,21.89,19.08s17.99,8.79,27.52,11.69c11.59,3.53,23.56,6.06,35.6,7.38,23.01,2.52,47.31-.46,67.29-12.84,8.89-5.51,16.53-12.76,22.33-21.47,5.28-7.91,8.98-16.92,11.07-26.18s2.71-19.18,1.67-28.76-3.8-19.32-7.97-28.38c-7.55-16.41-17.43-32.06-31.96-43.15-7.15-5.46-15.26-9.53-23.81-12.29-6.5-2.1-13.34-3.59-20.06-4.84-5.58-1.03-11.22-1.55-16.89-1.32-8.11.33-16.17,1.77-24.1,3.41-2.57.53-5.14,1.1-7.7,1.68-2.86.65-5.95,1.11-8.7,2.14-1.52.56-2.55,2.03-2.1,3.69.4,1.46,2.16,2.66,3.69,2.1Z"/>
  </g>
</svg>