<?xml version="1.0" encoding="UTF-8"?>
<svg id="Layer_1" data-name="Layer 1" xmlns="http://www.w3.org/2000/svg" viewBox="0 0 612 792">
  <defs>
    <style>
      .cls-1 {
        fill: #fff;
      }

      .cls-2, .cls-3, .cls-4, .cls-5, .cls-6, .cls-7, .cls-8, .cls-9, .cls-10, .cls-11, .cls-12 {
        fill: #231f20;
      }

      .cls-3, .cls-5 {
        font-family: SecularOne-Regular, 'Secular One';
      }

      .cls-3, .cls-11 {
        font-size: 22.79px;
      }

      .cls-4 {
        font-size: 43.58px;
        letter-spacing: -.02em;
      }

      .cls-4, .cls-6, .cls-8, .cls-11 {
        font-family: COCOGOOSE-DemiBold, COCOGOOSE;
        font-weight: 300;
      }

      .cls-13 {
        letter-spacing: .02em;
      }

      .cls-5 {
        font-size: 163.16px;
      }

      .cls-14 {
        letter-spacing: 0em;
      }

      .cls-6 {
        font-size: 50.63px;
        letter-spacing: -.02em;
      }

      .cls-7 {
        font-size: 41.47px;
      }

      .cls-7, .cls-9, .cls-10, .cls-12 {
        font-weight: 500;
      }

      .cls-7, .cls-12 {
        font-family: BigCaslon-Medium, 'Big Caslon';
      }

      .cls-8 {
        font-size: 19.94px;
      }

      .cls-9 {
        font-size: 11.5px;
      }

      .cls-9, .cls-10 {
        font-family: Avenir-Medium, Avenir;
      }

      .cls-15 {
        letter-spacing: 0em;
      }

      .cls-10 {
        font-size: 14px;
      }

      .cls-12 {
        font-size: 29.61px;
      }

      .cls-16 {
        fill: none;
        stroke: #231f20;
        stroke-linecap: round;
        stroke-linejoin: round;
        stroke-width: 6px;
      }
    </style>
  </defs>
  <path class="cls-2" d="m208.46,130.54c2.13-1.5,3.95-3.56,5.19-6.11,3.69-7.61.9-16.57-6.23-20.03-6.96-3.37-15.46-.24-19.3,6.98-7.37-3.85-15.82-6.04-24.81-6.04s-18.2,2.41-25.81,6.6c0,0,0-.02-.01-.02-3.69-7.61-12.46-10.97-19.59-7.51-7.13,3.46-9.92,12.43-6.23,20.03,1.42,2.92,3.58,5.2,6.11,6.73-4.1,7.14-6.45,15.34-6.45,24.08,0,5.92,1.08,11.59,3.05,16.86h97.82c1.97-5.27,3.05-10.94,3.05-16.86,0-8.99-2.49-17.41-6.81-24.69Z"/>
  <circle class="cls-1" cx="145.56" cy="140.69" r="3.13"/>
  <circle class="cls-1" cx="178.8" cy="140.69" r="3.13"/>
  <ellipse class="cls-1" cx="162.67" cy="147.55" rx="3.44" ry="2.41"/>
  <path class="cls-1" d="m196.98,160.7s-.63-3.54-2.7-6.16c-1.31-1.66-3.65-2.07-5.53-1.11-2.72,1.38-6.02,2.2-9.59,2.2-7.77,0-14.28-3.85-16.19-9.07-1.91,5.22-8.43,9.07-16.19,9.07-3.29,0-6.35-.69-8.93-1.89-1.98-.91-4.32-.81-6.14.4-1.76,1.17-3.1,2.96-3.4,5.65-.71,6.37,2.41,9.31,7.18,10.96,7.33,2.53,11.61-3.6,12.07-6.15,0,0,.02,5.63,3.84,6.93,4.03,1.37,7.73-.04,9.81-4.59l.91-1.3s-.24,6.05,4.03,6.93c5.66,1.17,8.65-4.26,9.43-6.21,0,0-.43,5.5,1.83,6.38,4.29,1.66,6.49-1.63,8.25-6.7,0,0-1.84,4.46,3.12,6.02,4.71,1.47,9.31-5.12,8.19-11.35Z"/>
  <path class="cls-2" d="m365.76,139.99c2.13-1.5,3.95-3.56,5.19-6.11,3.69-7.61.9-16.57-6.23-20.03-6.96-3.37-15.46-.24-19.3,6.98-7.37-3.85-15.82-6.04-24.81-6.04s-18.2,2.41-25.81,6.6c0,0,0-.02-.01-.02-3.69-7.61-12.46-10.97-19.59-7.51-7.13,3.46-9.92,12.43-6.23,20.03,1.42,2.92,3.58,5.2,6.11,6.73-4.1,7.14-6.45,15.34-6.45,24.08,0,5.92,1.08,11.59,3.05,16.86h97.82c1.97-5.27,3.05-10.94,3.05-16.86,0-8.99-2.49-17.41-6.81-24.69Z"/>
  <circle class="cls-1" cx="302.87" cy="150.14" r="3.13"/>
  <circle class="cls-1" cx="336.1" cy="150.14" r="3.13"/>
  <ellipse class="cls-1" cx="319.97" cy="156.99" rx="3.44" ry="2.41"/>
  <path class="cls-1" d="m354.28,170.14s-.63-3.54-2.7-6.16c-1.31-1.66-3.65-2.07-5.53-1.11-2.72,1.38-6.02,2.2-9.59,2.2-7.77,0-14.28-3.85-16.19-9.07-1.91,5.22-8.43,9.07-16.19,9.07-3.29,0-6.35-.69-8.93-1.89-1.98-.91-4.32-.81-6.14.4s-3.1,2.96-3.4,5.65c-.71,6.37,2.41,9.31,7.18,10.96,7.33,2.53,11.61-3.6,12.07-6.15,0,0,.02,5.63,3.84,6.93,4.03,1.37,7.73-.04,9.81-4.59l.91-1.3s-.24,6.05,4.03,6.93c5.66,1.17,8.65-4.26,9.43-6.21,0,0-.43,5.5,1.83,6.38,4.29,1.66,6.49-1.63,8.25-6.7,0,0-1.84,4.46,3.12,6.02,4.71,1.47,9.31-5.12,8.19-11.35Z"/>
  <text class="cls-12" transform="translate(114.84 198.84)"><tspan x="0" y="0">CoBear</tspan></text>
  <text class="cls-7" transform="translate(399.38 162.65)"><tspan x="0" y="0">CoBear</tspan></text>
  <path class="cls-16" d="m206.88,357c1.97-5.27,3.05-10.94,3.05-16.86,0-8.99-2.49-17.41-6.81-24.69,2.13-1.5,3.95-3.56,5.19-6.11,3.69-7.61.9-16.57-6.23-20.03-6.96-3.37-15.46-.24-19.3,6.98-7.37-3.85-15.82-6.04-24.81-6.04s-18.2,2.41-25.81,6.6c0,0,0-.02-.01-.02-3.69-7.61-12.46-10.97-19.59-7.51-7.13,3.46-9.92,12.43-6.23,20.03,1.42,2.92,3.58,5.2,6.11,6.73-4.1,7.14-6.45,15.34-6.45,24.08,0,5.92,1.08,11.59,3.05,16.86"/>
  <circle class="cls-2" cx="140.41" cy="325.6" r="3.13"/>
  <circle class="cls-2" cx="173.64" cy="325.6" r="3.13"/>
  <ellipse class="cls-2" cx="157.32" cy="332.46" rx="3.44" ry="2.41"/>
  <path class="cls-2" d="m191.62,345.6s-.63-3.54-2.7-6.16c-1.31-1.66-3.65-2.07-5.53-1.11-2.72,1.38-6.02,2.2-9.59,2.2-7.77,0-14.28-3.85-16.19-9.07-1.91,5.22-8.43,9.07-16.19,9.07-3.29,0-6.35-.69-8.93-1.89-1.98-.91-4.32-.81-6.14.4-1.76,1.17-3.1,2.96-3.4,5.65-.71,6.37,2.41,9.31,7.18,10.96,7.33,2.53,11.61-3.6,12.07-6.15,0,0,.02,5.63,3.84,6.93,4.03,1.37,7.73-.04,9.81-4.59l.91-1.3s-.24,6.05,4.03,6.93c5.66,1.17,8.65-4.26,9.43-6.21,0,0-.43,5.5,1.83,6.38,4.29,1.66,6.49-1.63,8.25-6.7,0,0-1.84,4.46,3.12,6.02,4.71,1.47,9.31-5.12,8.19-11.35Z"/>
  <path class="cls-2" d="m164.86,542.92s-.46-2.57-1.96-4.48c-.95-1.21-2.65-1.5-4.02-.81-1.98,1.01-4.38,1.6-6.97,1.6-5.64,0-10.38-2.8-11.77-6.59-1.39,3.79-6.13,6.59-11.77,6.59-2.39,0-4.61-.5-6.49-1.37-1.44-.66-3.14-.59-4.46.29s-2.26,2.15-2.47,4.11c-.51,4.63,1.75,6.77,5.22,7.97,5.33,1.84,8.43-2.61,8.77-4.47,0,0,.01,4.09,2.79,5.04,2.93.99,5.62-.03,7.13-3.33l.66-.95s-.17,4.4,2.93,5.04c4.12.85,6.29-3.1,6.85-4.52,0,0-.31,4,1.33,4.64,3.12,1.2,4.72-1.18,6-4.87,0,0-1.34,3.24,2.27,4.37,3.42,1.07,6.76-3.72,5.96-8.25Z"/>
  <text class="cls-11" transform="translate(98.96 373.62) rotate(27.87)"><tspan x="0" y="0"> </tspan></text>
  <text class="cls-11" transform="translate(106.92 377.98) rotate(17.45)"><tspan x="0" y="0">C</tspan></text>
  <text class="cls-11" transform="translate(124.4 383.23) rotate(8.16)"><tspan x="0" y="0">o</tspan></text>
  <text class="cls-11" transform="translate(142.99 385.73) rotate(1.1)"><tspan x="0" y="0">B</tspan></text>
  <text class="cls-11" transform="translate(160.41 386.01) rotate(-5.6)"><tspan x="0" y="0">e</tspan></text>
  <text class="cls-11" transform="translate(179.01 384.13) rotate(-14.15)"><tspan x="0" y="0">a</tspan></text>
  <text class="cls-11" transform="translate(198.4 378.87) rotate(-26.09)"><tspan x="0" y="0">r</tspan></text>
  <path class="cls-16" d="m367.93,366.45c1.97-5.27,3.05-10.94,3.05-16.86,0-8.99-2.49-17.41-6.81-24.69,2.13-1.5,3.95-3.56,5.19-6.11,3.69-7.61.9-16.57-6.23-20.03-6.96-3.37-15.46-.24-19.3,6.98-7.37-3.85-15.82-6.04-24.81-6.04s-18.2,2.41-25.81,6.6c0,0,0-.02-.01-.02-3.69-7.61-12.46-10.97-19.59-7.51-7.13,3.46-9.92,12.43-6.23,20.03,1.42,2.92,3.58,5.2,6.11,6.73-4.1,7.14-6.45,15.34-6.45,24.08,0,5.92,1.08,11.59,3.05,16.86"/>
  <circle class="cls-2" cx="301.45" cy="335.05" r="3.13"/>
  <circle class="cls-2" cx="334.69" cy="335.05" r="3.13"/>
  <ellipse class="cls-2" cx="318.37" cy="341.9" rx="3.44" ry="2.41"/>
  <path class="cls-2" d="m352.67,355.05s-.63-3.54-2.7-6.16c-1.31-1.66-3.65-2.07-5.53-1.11-2.72,1.38-6.02,2.2-9.59,2.2-7.77,0-14.28-3.85-16.19-9.07-1.91,5.22-8.43,9.07-16.19,9.07-3.29,0-6.35-.69-8.93-1.89-1.98-.91-4.32-.81-6.14.4s-3.1,2.96-3.4,5.65c-.71,6.37,2.41,9.31,7.18,10.96,7.33,2.53,11.61-3.6,12.07-6.15,0,0,.02,5.63,3.84,6.93,4.03,1.37,7.73-.04,9.81-4.59l.91-1.3s-.24,6.05,4.03,6.93c5.66,1.17,8.65-4.26,9.43-6.21,0,0-.43,5.5,1.83,6.38,4.29,1.66,6.49-1.63,8.25-6.7,0,0-1.84,4.46,3.12,6.02,4.71,1.47,9.31-5.12,8.19-11.35Z"/>
  <text class="cls-3" transform="translate(64.6 69.71)"><tspan x="0" y="0">Opt</tspan><tspan class="cls-15" x="39.63" y="0">i</tspan><tspan x="48.47" y="0">on 1 </tspan></text>
  <text class="cls-3" transform="translate(64.6 254.6)"><tspan x="0" y="0">Opt</tspan><tspan class="cls-15" x="39.63" y="0">i</tspan><tspan x="48.47" y="0">on 2</tspan></text>
  <text class="cls-3" transform="translate(64.6 451.59)"><tspan x="0" y="0">Opt</tspan><tspan class="cls-15" x="39.63" y="0">i</tspan><tspan x="48.47" y="0">on 3</tspan></text>
  <text class="cls-3" transform="translate(64.6 666.91)"><tspan x="0" y="0">Opt</tspan><tspan class="cls-15" x="39.63" y="0">i</tspan><tspan x="48.47" y="0">on 4</tspan></text>
  <path class="cls-2" d="m170.61,557.62c-7.48,11.13-20.46,18.13-34.81,17.29-21.6-1.26-38.1-19.79-36.84-41.39,1.26-21.6,19.79-38.1,41.39-36.84,11.63.68,21.77,6.36,28.46,14.83,7.78,1.79,6.72-4.85,6.72-4.85-8.04-10.17-20.22-17-34.18-17.81-25.94-1.51-48.19,18.3-49.7,44.24-1.51,25.94,18.3,48.19,44.24,49.7,17.23,1,32.83-7.41,41.81-20.77,0,0,.48-7.63-7.08-4.41Z"/>
  <circle class="cls-2" cx="125.24" cy="524.35" r="2.89"/>
  <circle class="cls-2" cx="153.88" cy="524.35" r="2.89"/>
  <ellipse class="cls-2" cx="139.93" cy="533.26" rx="5.04" ry="3.2"/>
  <text class="cls-6" transform="translate(171.95 551.31)"><tspan x="0" y="0">oBear</tspan></text>
  <text class="cls-4" transform="translate(394.73 352.41)"><tspan x="0" y="0">CoBear</tspan></text>
  <ellipse class="cls-2" cx="102.7" cy="496.44" rx="8.93" ry="10.46"/>
  <ellipse class="cls-2" cx="169.29" cy="494.09" rx="8.93" ry="10.46"/>
  <path class="cls-2" d="m492.02,543.66s-.51-2.85-2.17-4.96c-1.06-1.34-2.94-1.67-4.46-.89-2.19,1.11-4.85,1.77-7.73,1.77-6.26,0-11.51-3.1-13.05-7.31-1.54,4.21-6.79,7.31-13.05,7.31-2.65,0-5.11-.56-7.2-1.52-1.6-.74-3.48-.65-4.94.32s-2.5,2.39-2.74,4.56c-.57,5.13,1.94,7.5,5.79,8.83,5.91,2.04,9.35-2.9,9.72-4.95,0,0,.01,4.54,3.1,5.58,3.25,1.1,6.23-.03,7.91-3.7l.73-1.05s-.19,4.87,3.25,5.58c4.56.94,6.97-3.44,7.6-5.01,0,0-.35,4.43,1.48,5.14,3.46,1.33,5.23-1.31,6.65-5.4,0,0-1.48,3.6,2.51,4.85,3.8,1.19,7.5-4.12,6.6-9.14Z"/>
  <path class="cls-2" d="m498.39,559.96c-8.29,12.33-22.68,20.1-38.59,19.17-23.95-1.39-42.23-21.93-40.84-45.88,1.39-23.95,21.93-42.23,45.88-40.84,12.89.75,24.13,7.05,31.55,16.44,8.62,1.98,7.45-5.37,7.45-5.37-8.91-11.28-22.41-18.84-37.89-19.74-28.76-1.67-53.42,20.28-55.1,49.04-1.67,28.76,20.28,53.42,49.04,55.1,19.1,1.11,36.39-8.21,46.34-23.02,0,0,.53-8.45-7.85-4.89Z"/>
  <circle class="cls-2" cx="448.1" cy="523.07" r="3.2"/>
  <circle class="cls-2" cx="479.84" cy="523.07" r="3.2"/>
  <ellipse class="cls-2" cx="464.38" cy="532.95" rx="5.59" ry="3.54"/>
  <ellipse class="cls-2" cx="423.11" cy="492.14" rx="9.89" ry="11.6"/>
  <ellipse class="cls-2" cx="496.92" cy="489.53" rx="9.89" ry="11.6"/>
  <text class="cls-8" transform="translate(509.95 500.52) rotate(58.99)"><tspan x="0" y="0">C</tspan></text>
  <text class="cls-8" transform="translate(516.96 511.92) rotate(72.77)"><tspan x="0" y="0">o</tspan></text>
  <text class="cls-8" transform="translate(521.18 525.46) rotate(86.33)"><tspan x="0" y="0">B</tspan></text>
  <text class="cls-8" transform="translate(522.15 538.46) rotate(99.62)"><tspan x="0" y="0">e</tspan></text>
  <text class="cls-8" transform="translate(519.97 552.16) rotate(113.72)"><tspan x="0" y="0">a</tspan></text>
  <text class="cls-8" transform="translate(513.93 565.48) rotate(126.18)"><tspan x="0" y="0">r</tspan></text>
  <path class="cls-2" d="m326.84,688.8s-.51-2.85-2.17-4.96c-1.06-1.34-2.94-1.67-4.46-.89-2.19,1.11-4.85,1.77-7.73,1.77-6.26,0-11.51-3.1-13.05-7.31-1.54,4.21-6.79,7.31-13.05,7.31-2.65,0-5.11-.56-7.2-1.52-1.6-.74-3.48-.65-4.94.32-1.42.94-2.5,2.39-2.74,4.56-.57,5.13,1.94,7.5,5.79,8.83,5.91,2.04,9.35-2.9,9.72-4.95,0,0,.01,4.54,3.1,5.58,3.25,1.1,6.23-.03,7.91-3.7l.73-1.05s-.19,4.87,3.25,5.58c4.56.94,6.97-3.44,7.6-5.01,0,0-.35,4.43,1.48,5.14,3.46,1.33,5.23-1.31,6.65-5.4,0,0-1.48,3.6,2.51,4.85s7.5-4.12,6.6-9.14Z"/>
  <path class="cls-2" d="m333.21,705.09c-8.29,12.33-22.68,20.1-38.59,19.17-23.95-1.39-42.23-21.93-40.84-45.88,1.39-23.95,21.93-42.23,45.88-40.84,12.89.75,24.13,7.05,31.55,16.44,8.62,1.98,7.45-5.37,7.45-5.37-8.91-11.28-22.41-18.84-37.89-19.74-28.76-1.67-53.42,20.28-55.1,49.04-1.67,28.76,20.28,53.42,49.04,55.1,19.1,1.11,36.39-8.21,46.34-23.02,0,0,.53-8.45-7.85-4.89Z"/>
  <circle class="cls-2" cx="282.92" cy="668.2" r="3.2"/>
  <circle class="cls-2" cx="314.66" cy="668.2" r="3.2"/>
  <ellipse class="cls-2" cx="299.2" cy="678.08" rx="5.59" ry="3.54"/>
  <ellipse class="cls-2" cx="257.93" cy="637.27" rx="9.89" ry="11.6"/>
  <ellipse class="cls-2" cx="331.75" cy="634.67" rx="9.89" ry="11.6"/>
  <text class="cls-5" transform="translate(323.86 727.94)"><tspan x="0" y="0">B</tspan></text>
  <text class="cls-9" transform="translate(276.25 510.35)"><tspan class="cls-13" x="0" y="0">co</tspan><tspan class="cls-14" x="12.84" y="0">f</tspan><tspan class="cls-13" x="16.69" y="0">fee bear</tspan></text>
  <text class="cls-10" transform="translate(426.57 591.15) rotate(36.2)"><tspan x="0" y="0">c</tspan></text>
  <text class="cls-10" transform="translate(433.25 595.98) rotate(27.46)"><tspan x="0" y="0">o</tspan></text>
  <text class="cls-10" transform="translate(441.94 600.25) rotate(19.83)"><tspan x="0" y="0">f</tspan></text>
  <text class="cls-10" transform="translate(447.17 602.09) rotate(14.47)"><tspan x="0" y="0">f</tspan></text>
  <text class="cls-10" transform="translate(452.97 603.6) rotate(7.25)"><tspan x="0" y="0">e</tspan></text>
  <text class="cls-10" transform="translate(462.22 604.66) rotate(-1.63)"><tspan x="0" y="0">e</tspan></text>
  <text class="cls-10" transform="translate(471.28 604.21) rotate(-8.54)"><tspan x="0" y="0"> </tspan></text>
  <text class="cls-10" transform="translate(476.48 603.49) rotate(-15.89)"><tspan x="0" y="0">b</tspan></text>
  <text class="cls-10" transform="translate(486.19 600.56) rotate(-25.31)"><tspan x="0" y="0">e</tspan></text>
  <text class="cls-10" transform="translate(494.51 596.48) rotate(-33.96)"><tspan x="0" y="0">a</tspan></text>
  <text class="cls-10" transform="translate(501.57 591.54) rotate(-41.22)"><tspan x="0" y="0">r</tspan></text>
</svg>