<?xml version="1.0" encoding="UTF-8"?>
<svg id="Layer_1" data-name="Layer 1" xmlns="http://www.w3.org/2000/svg" xmlns:xlink="http://www.w3.org/1999/xlink" viewBox="0 0 612 792">
  <defs>
    <style>
      .cls-1 {
        fill: #7f5936;
      }

      .cls-2 {
        fill: #332e2b;
      }

      .cls-3 {
        fill: #bc7731;
      }

      .cls-4 {
        fill: #d6a47c;
      }

      .cls-5, .cls-6 {
        fill: #231f20;
      }

      .cls-7 {
        fill: #fff;
        font-size: 18.24px;
      }

      .cls-7, .cls-6 {
        font-family: Avenir-Medium, Avenir;
        font-weight: 500;
      }

      .cls-6 {
        font-size: 14.87px;
      }

      .cls-8 {
        fill: url(#New_Gradient_Swatch_1);
      }

      .cls-9 {
        fill: url(#New_Gradient_Swatch_1-2);
      }

      .cls-10 {
        fill: url(#New_Gradient_Swatch_1-3);
      }
    </style>
    <linearGradient id="New_Gradient_Swatch_1" data-name="New Gradient Swatch 1" x1="364.8" y1="37.33" x2="402.45" y2="37.33" gradientTransform="translate(39.35 695.48)" gradientUnits="userSpaceOnUse">
      <stop offset="0" stop-color="#bc7731"/>
      <stop offset=".49" stop-color="#d6a47c"/>
      <stop offset=".95" stop-color="#7f5936"/>
    </linearGradient>
    <linearGradient id="New_Gradient_Swatch_1-2" data-name="New Gradient Swatch 1" x1="67.14" y1="411.27" x2="127.99" y2="411.27" gradientTransform="matrix(1, 0, 0, 1, 0, 0)" xlink:href="#New_Gradient_Swatch_1"/>
    <linearGradient id="New_Gradient_Swatch_1-3" data-name="New Gradient Swatch 1" x1="449.02" y1="410.66" x2="546.29" y2="410.66" gradientTransform="matrix(1, 0, 0, 1, 0, 0)" xlink:href="#New_Gradient_Swatch_1"/>
  </defs>
  <g>
    <circle class="cls-3" cx="267.32" cy="733.1" r="19.11"/>
    <circle class="cls-1" cx="322.04" cy="733.1" r="19.11"/>
    <circle class="cls-4" cx="212.59" cy="733.1" r="19.11"/>
    <circle class="cls-2" cx="374.02" cy="733.1" r="19.11"/>
    <rect class="cls-8" x="404.15" y="713.99" width="37.65" height="37.65" rx="18.82" ry="18.82"/>
  </g>
  <rect class="cls-4" x="49.4" y="60.87" width="184.39" height="41.06"/>
  <rect class="cls-4" x="49.4" y="274.75" width="184.39" height="41.06"/>
  <text class="cls-7" transform="translate(76.26 88.19)"><tspan x="0" y="0">Black and white</tspan></text>
  <text class="cls-7" transform="translate(118.61 301.82)"><tspan x="0" y="0">Color</tspan></text>
  <g>
    <g>
      <circle class="cls-1" cx="90.98" cy="404.69" r="2.02"/>
      <circle class="cls-1" cx="110.97" cy="404.69" r="2.02"/>
      <path class="cls-1" d="m114.6,423.98c2.47.43,4.6-3.16,4.03-6.32,0,0-.32-1.8-1.37-3.12-.66-.84-1.85-1.05-2.81-.56-1.38.7-3.05,1.11-4.86,1.11-2.65,0-5-.88-6.56-2.26,1.02-.39,1.72-1.09,1.72-1.91,0-1.23-1.57-2.23-3.52-2.23s-3.52,1-3.52,2.23c0,.87.79,1.61,1.93,1.98-1.56,1.34-3.88,2.19-6.47,2.19-1.67,0-3.22-.35-4.53-.96-1-.46-2.19-.41-3.11.2-.89.59-1.57,1.5-1.73,2.87-.36,3.23,1.97,6.01,4.39,6.85,3.72,1.28,3.58-3.25,3.82-4.54,0,0,.92,3.08,3.15,4.22,2.22,1.14,4.23-.72,5.34-2.89l.34-1.16s0,3.57,2.16,4.02c2.87.59,3.84-2.66,4.24-3.65,0,0-.25,2.83,1.47,3.71,1.73.88,3.19-.16,4.18-3.38,0,0-.59,3.22,1.71,3.62Z"/>
      <path class="cls-9" d="m124.49,427.55c-1.15.03-2.22.62-2.9,1.55-5.62,7.62-15.08,12.16-25.33,10.92-13.48-1.63-23.84-13.16-24.01-26.73-.2-16.04,13.19-28.62,28.93-27.7,7.6.44,14.29,3.95,18.95,9.25.84.95,2.11,1.47,3.37,1.25,1.63-.29,2.11-1.49,2.24-2.42.08-.62-.09-1.24-.49-1.72-.57-.69-1.17-1.34-1.79-1.98,1.12-.56,2.16-1.41,2.98-2.54,2.36-3.27,2.02-7.55-.77-9.56-2.79-2.02-6.96-1-9.32,2.26-.8,1.1-1.28,2.32-1.47,3.52-4.27-2.18-9.09-3.46-14.23-3.57-7.12-.15-13.81,2.04-19.31,5.86-.04-1.01-.27-2.06-.72-3.07-1.65-3.68-5.53-5.52-8.67-4.11-3.14,1.41-4.35,5.53-2.7,9.21,1.06,2.37,3.05,3.97,5.17,4.44-4.12,5.11-6.75,11.48-7.19,18.45-1.14,18.17,12.71,33.78,30.86,34.83,11.5.67,21.95-4.67,28.32-13.29.77-1.04.98-2.45.36-3.59-.38-.7-1.06-1.28-2.25-1.25Z"/>
    </g>
    <g>
      <g>
        <path class="cls-2" d="m175.37,396.69c.19.11.35.25.48.41.13.16.19.35.19.57,0,.18-.05.36-.14.55l-2.32,3.95c-.27.37-.56.55-.86.55-.1,0-.21-.02-.34-.06-.13-.04-.26-.1-.38-.18-1.01-.72-2.08-1.28-3.23-1.68-1.15-.4-2.37-.6-3.66-.6-1.63,0-3.12.31-4.48.92-1.36.62-2.53,1.45-3.52,2.5-.99,1.05-1.76,2.29-2.31,3.71-.55,1.42-.83,2.95-.83,4.58s.28,3.13.83,4.54c.55,1.41,1.32,2.65,2.31,3.7.99,1.05,2.16,1.88,3.52,2.49,1.36.61,2.85.91,4.48.91,1.29,0,2.53-.2,3.7-.6,1.17-.4,2.26-.96,3.25-1.68.13-.1.26-.16.39-.19.14-.03.25-.06.35-.07.27,0,.55.18.84.53l2.37,4c.1.19.14.37.14.53,0,.22-.07.41-.2.55-.14.14-.29.28-.47.41-1.5,1.01-3.12,1.78-4.85,2.34-1.73.55-3.56.83-5.47.83-1.69,0-3.32-.22-4.88-.65-1.56-.43-3.01-1.05-4.37-1.84-1.36-.8-2.59-1.75-3.7-2.86-1.11-1.11-2.06-2.34-2.86-3.69-.8-1.35-1.41-2.8-1.84-4.36-.43-1.56-.65-3.18-.65-4.87s.22-3.32.65-4.88c.43-1.56,1.05-3.02,1.84-4.38.8-1.37,1.75-2.61,2.86-3.72,1.11-1.12,2.34-2.07,3.7-2.86,1.36-.79,2.81-1.4,4.37-1.84,1.56-.44,3.18-.66,4.88-.66,1.9,0,3.7.27,5.41.8,1.71.54,3.31,1.31,4.81,2.31Z"/>
        <path class="cls-2" d="m177,418.16c0-1.08.14-2.13.42-3.13s.67-1.94,1.19-2.81c.51-.87,1.12-1.66,1.84-2.36.71-.71,1.5-1.31,2.37-1.82.87-.51,1.8-.9,2.79-1.18.99-.28,2.03-.42,3.11-.42s2.1.14,3.1.42c1,.28,1.93.67,2.79,1.18.86.51,1.65,1.11,2.36,1.82.71.71,1.33,1.5,1.84,2.36.51.87.91,1.81,1.19,2.81.28,1.01.42,2.05.42,3.13s-.14,2.12-.42,3.12c-.28,1-.67,1.93-1.19,2.79-.51.86-1.12,1.65-1.84,2.36-.71.71-1.5,1.32-2.36,1.83-.86.51-1.79.9-2.79,1.18-1,.28-2.03.42-3.1.42s-2.12-.14-3.11-.42c-.99-.28-1.92-.67-2.79-1.18-.87-.51-1.66-1.12-2.37-1.83s-1.33-1.5-1.84-2.36c-.51-.86-.91-1.79-1.19-2.79s-.42-2.04-.42-3.12Zm5.03,0c0,.95.17,1.85.5,2.7.33.85.8,1.59,1.39,2.22.59.63,1.3,1.13,2.11,1.5.82.37,1.7.55,2.67.55s1.81-.18,2.61-.55c.8-.37,1.5-.87,2.08-1.5.58-.63,1.04-1.37,1.36-2.22.33-.85.49-1.75.49-2.7s-.16-1.84-.49-2.69c-.33-.86-.78-1.61-1.36-2.26-.58-.65-1.28-1.17-2.08-1.55-.8-.39-1.67-.58-2.61-.58s-1.85.19-2.67.58c-.81.39-1.52.9-2.11,1.55-.59.65-1.06,1.4-1.39,2.26s-.5,1.75-.5,2.69Z"/>
        <path class="cls-2" d="m203.44,395.12c0-.75.36-1.13,1.08-1.13h14.97c1.39,0,2.69.26,3.91.78s2.28,1.22,3.18,2.12c.9.89,1.61,1.95,2.13,3.16.52,1.21.78,2.52.78,3.93,0,1.29-.23,2.5-.69,3.61-.46,1.12-1.1,2.1-1.92,2.94.65.48,1.24,1.03,1.77,1.65s.98,1.29,1.36,2.01c.38.72.68,1.48.89,2.29s.32,1.63.32,2.48c0,1.42-.27,2.77-.8,4.05-.54,1.28-1.26,2.4-2.18,3.38-.92.97-2,1.74-3.24,2.31-1.24.57-2.58.85-4,.85h-16.47c-.32,0-.58-.08-.78-.25-.2-.17-.3-.43-.3-.78v-33.4Zm19.13,8.98c0-.61-.11-1.17-.32-1.7-.22-.53-.52-.98-.9-1.36-.38-.38-.84-.68-1.38-.9-.54-.22-1.12-.32-1.76-.32h-7.84v8.67h7.77c.64,0,1.23-.11,1.77-.34s1.01-.53,1.4-.92c.39-.39.7-.85.92-1.39.22-.53.34-1.11.34-1.74Zm1.56,14.68c0-.54-.1-1.07-.29-1.59-.19-.52-.46-.98-.79-1.4-.34-.41-.74-.76-1.2-1.04-.46-.28-.97-.47-1.51-.56-.32-.05-.64-.09-.97-.13-.33-.04-.66-.06-1-.06h-8.01v9.72h8.01c.34,0,.66-.01.98-.04s.64-.07.96-.13c.54-.08,1.05-.26,1.51-.55s.87-.65,1.21-1.08.61-.91.8-1.45c.19-.53.29-1.1.29-1.69Z"/>
        <path class="cls-2" d="m257.06,421.38c-.42,1.31-1.03,2.51-1.82,3.59-.79,1.09-1.82,2.02-3.09,2.8-1.37.84-2.82,1.38-4.37,1.62-1.54.24-3.05.19-4.53-.14s-2.86-.94-4.15-1.82c-1.29-.88-2.36-2.01-3.22-3.41-.56-.9-.98-1.84-1.28-2.82-.29-.98-.46-1.96-.5-2.95s.04-1.97.25-2.94.54-1.9,1-2.78c.46-.88,1.03-1.7,1.73-2.46.7-.76,1.52-1.43,2.46-2.01.77-.47,1.59-.85,2.45-1.12.86-.27,1.74-.45,2.63-.52.89-.07,1.77-.04,2.66.09.89.13,1.75.37,2.57.71,1.13.48,2.14,1.12,3.03,1.93s1.7,1.81,2.44,3c.18.29.32.55.42.76.1.21.13.41.1.6-.03.18-.12.37-.29.55-.17.18-.43.38-.8.61l-13.48,8.3c.58.65,1.23,1.14,1.94,1.47.72.33,1.45.54,2.19.62.75.08,1.48.03,2.2-.14.72-.17,1.38-.44,1.98-.81.46-.28.87-.6,1.23-.95.36-.35.68-.71.95-1.09s.5-.76.69-1.15c.19-.39.33-.76.43-1.12,0,0,0-.02,0-.02.05-.19.11-.35.19-.48.07-.13.17-.24.29-.31.09-.06.21-.09.37-.1.15-.01.33.02.53.09.48.17.88.3,1.21.41.33.1.6.2.82.27.21.08.38.15.51.23.12.08.22.17.29.28.18.28.16.69-.05,1.21Zm-15.18-9.55c-.6.37-1.11.84-1.55,1.4-.43.57-.77,1.18-1.01,1.85-.24.66-.38,1.36-.42,2.08-.04.72.04,1.43.24,2.11l10.76-6.62c-.54-.52-1.14-.93-1.78-1.24-.64-.31-1.31-.5-2.01-.59-.69-.08-1.4-.04-2.12.12-.72.17-1.43.46-2.12.88Z"/>
        <path class="cls-2" d="m283.36,428.02c0,.21-.04.39-.13.53-.09.14-.21.24-.35.32-.14.08-.31.13-.49.16s-.38.04-.58.04h-2.23c-.38,0-.65-.1-.79-.3-.15-.2-.26-.46-.33-.77l-.11-1.52c-.42.42-.88.81-1.38,1.17-.51.36-1.05.68-1.63.95-.58.27-1.2.48-1.86.62s-1.33.22-2.02.22c-1.07,0-2.1-.14-3.1-.42-.99-.28-1.92-.67-2.79-1.18-.87-.51-1.66-1.11-2.36-1.83s-1.31-1.5-1.82-2.37c-.51-.87-.9-1.8-1.18-2.8-.28-1-.42-2.04-.42-3.12s.14-2.12.42-3.12c.28-1,.67-1.93,1.18-2.8.5-.87,1.11-1.66,1.82-2.36.71-.71,1.5-1.31,2.36-1.82.87-.51,1.8-.9,2.79-1.18.99-.28,2.02-.42,3.1-.42.76,0,1.49.08,2.18.24.69.16,1.34.39,1.94.68s1.16.64,1.67,1.05.98.86,1.39,1.35l.25-1.91c.06-.21.12-.39.17-.53.05-.14.12-.25.2-.33.08-.08.18-.14.29-.17.12-.03.27-.04.45-.04h1.78c.19,0,.38.02.57.05.19.04.36.09.52.17.15.08.28.18.37.32.09.14.13.31.13.51v20.61Zm-18.56-10.29c0,.95.17,1.85.5,2.7.33.85.8,1.6,1.39,2.24.59.64,1.29,1.15,2.1,1.53s1.68.56,2.63.56,1.86-.19,2.7-.56c.84-.37,1.57-.88,2.19-1.53.62-.64,1.11-1.39,1.46-2.24.36-.85.54-1.75.54-2.7s-.18-1.83-.54-2.68c-.36-.85-.85-1.6-1.46-2.24-.62-.64-1.35-1.15-2.19-1.53-.84-.38-1.74-.57-2.7-.57s-1.83.19-2.63.57c-.8.38-1.5.89-2.1,1.53-.59.64-1.06,1.39-1.39,2.24-.33.85-.5,1.75-.5,2.68Z"/>
        <path class="cls-2" d="m286.75,407.98c0-.34.12-.61.35-.79.23-.18.49-.27.76-.27h2.27c.3,0,.53.09.68.27.16.18.27.4.36.66s.14.54.18.85.08.58.13.83c.26-.37.56-.73.88-1.08.33-.35.7-.66,1.12-.94.42-.27.89-.49,1.41-.66.52-.17,1.12-.25,1.78-.25.59,0,1.13.04,1.61.12.48.08.93.2,1.36.36s.86.37,1.28.62c.42.26.86.56,1.34.9.2.13.38.28.53.45.15.17.22.36.22.59-.01.1-.03.2-.05.3s-.07.21-.14.32l-1.46,2.32c-.1.12-.21.21-.33.26s-.23.08-.33.08c-.19,0-.37-.05-.55-.14-.39-.21-.75-.42-1.07-.61-.32-.19-.64-.35-.95-.49-.31-.14-.63-.24-.95-.32-.33-.08-.69-.12-1.1-.12-1.06,0-1.95.34-2.68,1.02-.73.68-1.22,1.61-1.47,2.8v13.45c0,.71-.37,1.07-1.11,1.07h-2.94c-.74,0-1.11-.36-1.11-1.07v-20.54Z"/>
      </g>
      <g>
        <path class="cls-2" d="m240.44,397.46c-.2-.21-.42-.37-.64-.48-.22-.11-.49-.16-.8-.16s-.56.05-.78.16c-.22.11-.41.26-.56.45-.15.19-.26.41-.34.66s-.11.51-.11.77.04.52.13.76.22.45.38.63c.16.18.36.32.58.42.23.1.48.15.77.15.31,0,.57-.05.79-.16.22-.11.42-.27.61-.48l.78.78c-.28.32-.61.54-.99.68-.38.14-.78.21-1.2.21-.45,0-.85-.07-1.22-.22-.37-.15-.69-.35-.96-.61-.27-.26-.47-.58-.62-.95-.15-.37-.22-.78-.22-1.22s.07-.86.22-1.23c.15-.37.35-.69.62-.96.26-.27.58-.48.95-.63.37-.15.78-.23,1.24-.23.42,0,.83.08,1.21.23.39.15.72.38,1,.69l-.83.76Z"/>
        <path class="cls-2" d="m241.9,398.81c0-.42.08-.82.24-1.18.16-.37.37-.69.65-.96s.6-.49.97-.65c.37-.16.78-.24,1.21-.24s.83.08,1.21.24c.37.16.7.38.97.65.28.28.49.6.65.96.16.36.24.76.24,1.18s-.08.82-.24,1.19c-.16.37-.38.69-.65.96-.28.27-.6.49-.97.65s-.78.24-1.21.24-.83-.08-1.21-.24-.7-.37-.97-.65c-.28-.27-.49-.59-.65-.96-.16-.37-.24-.77-.24-1.19Zm1.17,0c0,.29.04.56.13.81s.22.46.38.63c.16.17.36.31.6.41.23.1.5.15.79.15s.56-.05.79-.15c.24-.1.43-.24.6-.41s.29-.39.38-.63.13-.52.13-.81-.04-.56-.13-.81-.22-.46-.38-.63-.36-.31-.6-.41c-.23-.1-.5-.15-.79-.15s-.56.05-.79.15c-.24.1-.44.24-.6.41-.16.17-.29.39-.38.63s-.13.52-.13.81Z"/>
        <path class="cls-2" d="m249.84,396.87h-1.24v-.95h1.24v-1.29c0-.77.15-1.35.44-1.72s.81-.57,1.53-.57c.12,0,.25,0,.38.01.13,0,.28.03.43.07l-.12.97c-.11-.04-.21-.07-.3-.09-.1-.02-.2-.02-.32-.02-.2,0-.37.03-.49.09-.12.06-.22.15-.29.26-.07.11-.11.25-.13.41-.02.16-.03.34-.03.54v1.33h1.3v.95h-1.32v4.82h-1.1v-4.82Z"/>
        <path class="cls-2" d="m253.68,396.87h-1.24v-.95h1.24v-1.29c0-.77.15-1.35.44-1.72s.81-.57,1.53-.57c.12,0,.25,0,.38.01.13,0,.28.03.43.07l-.12.97c-.11-.04-.21-.07-.3-.09-.1-.02-.2-.02-.32-.02-.2,0-.37.03-.49.09-.12.06-.22.15-.29.26-.07.11-.11.25-.13.41-.02.16-.03.34-.03.54v1.33h1.3v.95h-1.32v4.82h-1.1v-4.82Z"/>
        <path class="cls-2" d="m258.14,399.21c0,.25.05.48.16.69.11.21.25.38.43.53.18.15.39.26.62.34.23.08.48.12.73.12.34,0,.64-.08.89-.24.25-.16.48-.37.69-.63l.83.63c-.61.79-1.46,1.18-2.56,1.18-.45,0-.87-.08-1.24-.23-.37-.15-.68-.37-.94-.64-.26-.27-.45-.59-.59-.96-.14-.37-.21-.77-.21-1.2s.07-.83.22-1.2c.15-.37.36-.69.62-.96.26-.27.58-.49.94-.64.36-.15.76-.23,1.19-.23.51,0,.94.09,1.3.27.35.18.64.41.87.7.23.29.39.61.49.97.1.36.15.73.15,1.1v.39h-4.63Zm3.46-.88c0-.24-.05-.47-.12-.67-.07-.2-.17-.38-.31-.53-.14-.15-.31-.27-.52-.35s-.45-.13-.72-.13-.51.05-.74.15c-.22.1-.41.23-.57.4-.15.16-.27.34-.36.54-.09.2-.13.4-.13.59h3.46Z"/>
        <path class="cls-2" d="m264.91,399.21c0,.25.05.48.16.69.11.21.25.38.43.53.18.15.39.26.62.34.23.08.48.12.73.12.34,0,.64-.08.89-.24.25-.16.48-.37.69-.63l.83.63c-.61.79-1.46,1.18-2.56,1.18-.45,0-.87-.08-1.24-.23-.37-.15-.68-.37-.94-.64-.26-.27-.45-.59-.59-.96-.14-.37-.21-.77-.21-1.2s.07-.83.22-1.2c.15-.37.36-.69.62-.96.26-.27.58-.49.94-.64.36-.15.76-.23,1.19-.23.51,0,.94.09,1.3.27.35.18.64.41.87.7.23.29.39.61.49.97.1.36.15.73.15,1.1v.39h-4.63Zm3.46-.88c0-.24-.05-.47-.12-.67-.07-.2-.17-.38-.31-.53-.14-.15-.31-.27-.52-.35s-.45-.13-.72-.13-.51.05-.74.15c-.22.1-.41.23-.57.4-.15.16-.27.34-.36.54-.09.2-.13.4-.13.59h3.46Z"/>
        <path class="cls-2" d="m274.24,392.49h1.1v4.26h.02c.2-.3.47-.54.84-.71s.76-.26,1.17-.26c.45,0,.85.08,1.21.23.36.15.67.37.93.64.26.27.45.59.59.96.14.37.21.77.21,1.2s-.07.83-.21,1.19-.33.69-.59.96c-.26.28-.56.49-.93.65-.36.15-.77.23-1.21.23-.39,0-.77-.09-1.14-.26-.37-.17-.66-.41-.87-.72h-.02v.83h-1.1v-9.21Zm3,8.33c.29,0,.56-.05.79-.15.24-.1.43-.24.6-.41s.29-.39.38-.63.13-.52.13-.81-.04-.56-.13-.81-.22-.46-.38-.63-.36-.31-.6-.41c-.24-.1-.5-.15-.79-.15s-.56.05-.79.15c-.24.1-.44.24-.6.41-.16.17-.29.39-.38.63-.09.25-.13.52-.13.81s.04.56.13.81c.09.25.22.46.38.63.16.17.36.31.6.41.23.1.5.15.79.15Z"/>
        <path class="cls-2" d="m282.51,399.21c0,.25.05.48.16.69.11.21.25.38.43.53.18.15.39.26.62.34.23.08.48.12.73.12.34,0,.64-.08.89-.24.25-.16.48-.37.69-.63l.83.63c-.61.79-1.46,1.18-2.56,1.18-.45,0-.87-.08-1.24-.23-.37-.15-.68-.37-.94-.64-.26-.27-.45-.59-.59-.96-.14-.37-.21-.77-.21-1.2s.07-.83.22-1.2c.15-.37.36-.69.62-.96.26-.27.58-.49.94-.64.36-.15.76-.23,1.19-.23.51,0,.94.09,1.3.27.35.18.64.41.87.7.23.29.39.61.49.97.1.36.15.73.15,1.1v.39h-4.63Zm3.46-.88c0-.24-.05-.47-.12-.67-.07-.2-.17-.38-.31-.53-.14-.15-.31-.27-.52-.35s-.45-.13-.72-.13-.51.05-.74.15c-.22.1-.41.23-.57.4-.15.16-.27.34-.36.54-.09.2-.13.4-.13.59h3.46Z"/>
        <path class="cls-2" d="m288.47,396.63c.31-.28.67-.5,1.07-.64.41-.14.81-.21,1.22-.21s.79.05,1.09.16c.3.11.55.25.75.43.19.18.34.38.43.61.09.23.14.47.14.73v2.95c0,.2,0,.39.01.56,0,.17.02.33.04.49h-.97c-.02-.29-.04-.58-.04-.88h-.02c-.24.37-.53.64-.86.79-.33.15-.72.23-1.16.23-.27,0-.52-.04-.77-.11s-.46-.18-.64-.33c-.18-.15-.33-.33-.43-.54-.11-.22-.16-.46-.16-.75,0-.37.08-.69.25-.94.17-.25.39-.46.68-.61s.63-.27,1.01-.34c.39-.07.8-.1,1.24-.1h.8v-.24c0-.15-.03-.29-.09-.44-.06-.15-.14-.28-.26-.4s-.26-.21-.43-.28c-.17-.07-.37-.1-.61-.1-.21,0-.4.02-.56.06-.16.04-.3.09-.43.15-.13.06-.25.13-.35.21-.11.08-.21.16-.3.23l-.66-.68Zm3.09,2.29c-.26,0-.53.01-.8.04-.27.03-.52.08-.74.16-.22.08-.41.2-.55.34-.14.15-.21.33-.21.56,0,.33.11.57.33.72.22.15.53.22.91.22.3,0,.56-.05.77-.15.21-.1.38-.23.51-.4s.22-.34.28-.54.09-.4.09-.59v-.37h-.58Z"/>
        <path class="cls-2" d="m294.77,395.92h1.1v.89h.02c.07-.15.17-.29.29-.42s.26-.23.41-.32c.15-.09.31-.16.49-.21s.36-.08.54-.08.34.02.49.07l-.05,1.18c-.09-.02-.18-.04-.27-.06-.09-.02-.18-.02-.27-.02-.54,0-.95.15-1.23.45-.28.3-.43.77-.43,1.4v2.9h-1.1v-5.77Z"/>
      </g>
    </g>
  </g>
  <g>
    <g>
      <path class="cls-2" d="m468.43,365.58c-1.64-.44-2.98-1.6-4.01-3.47-.7-1.28-1.07-2.55-1.1-3.81-.03-1.26.28-2.41.92-3.46.64-1.04,1.57-1.9,2.79-2.57.99-.55,2.05-.89,3.17-1.04l.79,2.58c-1.02.08-1.91.32-2.67.74-1.09.6-1.75,1.43-2,2.49-.24,1.06-.04,2.18.61,3.37.66,1.21,1.51,1.96,2.55,2.27,1.04.3,2.15.13,3.33-.52.78-.43,1.46-.97,2.05-1.62l1.61,1.99c-.69.81-1.59,1.53-2.7,2.14-1.91,1.05-3.69,1.36-5.33.92Z"/>
      <path class="cls-2" d="m479.75,361.36c-.91-.22-1.7-.67-2.36-1.35-.67-.68-1.15-1.55-1.46-2.61-.31-1.06-.36-2.06-.17-2.99s.62-1.73,1.27-2.4,1.49-1.16,2.51-1.45c1.02-.3,1.99-.34,2.89-.12.91.21,1.69.66,2.35,1.33.66.68,1.14,1.54,1.44,2.59.31,1.06.37,2.06.18,3.01-.19.94-.61,1.75-1.26,2.43-.65.68-1.48,1.16-2.49,1.45-1.02.3-1.99.33-2.9.11Zm3.65-3.81c.27-.67.27-1.45.02-2.34s-.68-1.54-1.26-1.95c-.58-.41-1.22-.51-1.93-.31-.71.2-1.2.63-1.47,1.29-.27.65-.28,1.43-.02,2.32.26.89.68,1.55,1.26,1.97.58.42,1.23.53,1.94.32.71-.2,1.2-.64,1.46-1.31Z"/>
      <path class="cls-2" d="m488.36,345.71l4.55-.28c1.32-.08,2.38.17,3.19.75.81.58,1.25,1.42,1.32,2.51.08,1.24-.4,2.23-1.44,2.96,1.47.48,2.24,1.45,2.33,2.89.05.82-.11,1.55-.48,2.21-.37.66-.91,1.19-1.61,1.59-.71.4-1.52.63-2.43.68l-4.59.29-.85-13.6Zm4.21,5.29c.68-.04,1.2-.23,1.55-.57.35-.34.52-.78.48-1.34-.06-1.01-.72-1.47-1.97-1.39l-1.29.08.21,3.29,1.02-.06Zm.65,5.78c.74-.05,1.3-.25,1.69-.62.39-.37.57-.83.54-1.41-.03-.52-.24-.91-.61-1.17-.37-.26-.89-.37-1.56-.33l-1.59.1.22,3.51,1.31-.08Z"/>
      <path class="cls-2" d="m501.18,357.84c-.82-1.11-1.1-2.54-.84-4.26.17-1.12.52-2.06,1.06-2.83.54-.77,1.23-1.32,2.06-1.65.83-.33,1.76-.42,2.78-.27,1.51.23,2.6.88,3.26,1.98.66,1.09.86,2.56.59,4.39-.05.31-.09.54-.12.69l-6.88-1.03c.03.74.26,1.32.69,1.77.43.44,1.06.73,1.88.85.5.07,1.03.09,1.59.04.56-.05,1.06-.15,1.49-.31l.13,2.36c-.58.2-1.21.33-1.89.39-.68.06-1.35.04-2.03-.06-1.69-.25-2.94-.93-3.76-2.05Zm6.39-4.51c.05-.59-.09-1.08-.4-1.48-.31-.4-.77-.64-1.38-.73-.58-.09-1.08.01-1.5.29-.42.28-.72.71-.91,1.29l4.19.62Z"/>
      <path class="cls-2" d="m511.65,359.82c-.28-1.09-.13-2.39.42-3.88.68-1.81,1.65-3.03,2.93-3.63,1.28-.61,2.78-.59,4.5.05.97.36,2.05.94,3.24,1.73l-3.62,9.68-2.57-.96.65-1.55-.08-.03c-.56.48-1.13.79-1.73.93-.6.14-1.2.1-1.8-.13-1.02-.38-1.67-1.12-1.95-2.21Zm4.81-.13c.54-.28,1.11-.71,1.7-1.29l1.2-3.22c-.37-.27-.75-.48-1.16-.63-.77-.29-1.44-.24-2.03.14s-1.07,1.08-1.45,2.1c-.3.8-.42,1.48-.37,2.04.06.55.29.91.7,1.06.4.15.86.08,1.41-.2Z"/>
      <path class="cls-2" d="m526.47,355.84l2.48,1.48-.88,1.48.14.08c.7-.39,1.3-.63,1.8-.71.5-.08,1,.03,1.51.33.21.13.37.25.48.39l-1.86,2.51c-.26-.26-.48-.45-.66-.56-.27-.16-.54-.25-.8-.27-.27-.02-.53.02-.8.1-.26.08-.65.22-1.16.4l-3.18,5.3-2.48-1.48,5.42-9.04Z"/>
    </g>
    <g>
      <path class="cls-10" d="m536.94,386.2c2.07-.85,4-2.39,5.4-4.52,3.28-4.99,2.5-11.3-1.76-14.1-4.26-2.8-10.37-1.03-13.65,3.96-.71,1.08-1.22,2.22-1.55,3.38-7.11-4.94-15.62-8.04-24.89-8.58-11.44-.67-22.17,2.69-30.85,8.82-.43-1.56-1.19-3.1-2.31-4.49-3.76-4.64-10.01-5.81-13.97-2.6-3.96,3.2-4.13,9.57-.37,14.21,1.52,1.88,3.45,3.18,5.47,3.86-5.37,7.31-8.78,16.2-9.34,25.94-.99,17.06,6.94,32.57,19.75,42,1.52,1.12,3.59,1.39,5.25.48,1.34-.73,2.37-2.19,1.58-5.06-.25-.92-.84-1.72-1.62-2.28-11.15-8.02-17.97-21.53-16.72-36.32,1.78-21.12,19.94-37.48,41.13-37.06,23.1.46,40.99,19.99,39.66,42.85-.65,11.24-5.84,21.14-13.68,28.04-1.45,1.28-2.23,3.21-1.86,5.11.29,1.49,1.11,2.31,2.02,2.76,1.52.75,3.35.38,4.64-.72,9.72-8.3,16.18-20.39,16.98-34.15.68-11.72-2.85-22.71-9.27-31.5Z"/>
      <circle class="cls-1" cx="483.55" cy="403.25" r="2.8"/>
      <circle class="cls-1" cx="511.35" cy="403.25" r="2.8"/>
      <path class="cls-1" d="m522.01,421.28s-.45-2.5-1.9-4.34c-.91-1.15-2.53-1.49-3.83-.82-1.93,1-4.29,1.59-6.84,1.59-3.68,0-6.96-1.23-9.13-3.15,1.42-.54,2.39-1.52,2.39-2.65,0-1.71-2.19-3.1-4.89-3.1s-4.89,1.39-4.89,3.1c0,1.21,1.1,2.24,2.68,2.75-2.17,1.86-5.39,3.05-9.01,3.05-2.32,0-4.48-.49-6.3-1.33-1.4-.64-3.05-.57-4.33.28-1.24.82-2.19,2.09-2.4,3.99-.5,4.49,2.74,8.36,6.1,9.53,5.17,1.79,4.98-4.52,5.31-6.32,0,0,1.29,4.28,4.38,5.86,3.09,1.58,5.88-1,7.43-4.02l.48-1.62s0,4.97,3.01,5.59c4,.82,5.35-3.69,5.9-5.07,0,0-.35,3.94,2.05,5.16,2.4,1.22,4.44-.23,5.82-4.71,0,0-.82,4.48,2.37,5.03,3.43.6,6.39-4.4,5.61-8.8Z"/>
    </g>
    <g>
      <path class="cls-5" d="m466.01,463.7c-.11-.32-.25-.6-.43-.83-.18-.23-.43-.42-.75-.57-.32-.15-.62-.23-.9-.22-.29,0-.56.06-.81.19-.25.12-.48.3-.69.52-.21.22-.37.47-.51.75-.13.28-.22.57-.24.86-.03.3,0,.58.08.85.08.27.21.51.4.73.19.22.43.4.73.54.32.16.63.23.91.23.29,0,.58-.07.88-.2l.42,1.21c-.46.19-.92.26-1.38.21s-.92-.17-1.36-.39c-.47-.23-.86-.51-1.17-.85-.31-.34-.54-.71-.69-1.12-.15-.41-.2-.85-.17-1.31.03-.46.16-.92.39-1.39.22-.47.51-.86.85-1.18.34-.32.72-.55,1.13-.7.41-.15.85-.21,1.31-.18.46.03.93.16,1.41.39.44.21.83.49,1.15.85.33.35.56.76.7,1.23l-1.25.37Z"/>
      <path class="cls-5" d="m467.65,466.15c.16-.46.4-.86.72-1.2.31-.34.68-.6,1.09-.8.41-.19.85-.3,1.32-.33.47-.03.94.04,1.41.21.47.17.88.41,1.22.73.35.32.62.68.81,1.09.19.41.31.84.34,1.31.03.46-.04.92-.2,1.38-.16.46-.41.86-.72,1.21s-.68.61-1.09.8c-.41.19-.85.3-1.32.33-.47.03-.94-.04-1.41-.21s-.88-.41-1.23-.73c-.35-.32-.62-.68-.81-1.09-.2-.4-.31-.84-.34-1.31-.03-.46.04-.93.2-1.39Zm1.28.46c-.11.32-.17.63-.17.94,0,.3.06.58.17.84s.27.48.49.68c.22.2.49.36.81.48s.63.16.93.14c.3-.02.57-.09.81-.22.24-.13.46-.31.66-.54.19-.24.35-.51.46-.83.11-.32.17-.63.17-.94,0-.31-.06-.59-.17-.84-.11-.25-.27-.48-.49-.68-.22-.2-.49-.36-.81-.47-.32-.12-.63-.16-.93-.14-.3.02-.57.09-.81.22-.25.13-.47.31-.66.55-.19.24-.35.51-.46.83Z"/>
      <path class="cls-5" d="m477.71,467.09l-1.4-.36.27-1.07,1.4.36.37-1.45c.22-.87.55-1.47.99-1.81.44-.34,1.07-.41,1.88-.2.14.03.28.08.43.12.15.05.3.12.47.21l-.42,1.06c-.11-.08-.21-.14-.32-.18-.1-.05-.22-.09-.35-.12-.23-.06-.42-.07-.57-.04-.15.03-.29.1-.4.21s-.2.25-.27.42c-.07.17-.13.37-.19.6l-.38,1.49,1.47.37-.27,1.07-1.48-.38-1.38,5.42-1.23-.32,1.38-5.42Z"/>
      <path class="cls-5" d="m482.63,468.23l-1.42-.26.2-1.08,1.42.26.27-1.47c.16-.88.45-1.5.87-1.87.42-.37,1.04-.48,1.86-.32.14.03.28.06.43.1s.31.1.48.18l-.35,1.08c-.11-.07-.22-.12-.33-.16-.11-.04-.23-.07-.36-.1-.23-.04-.42-.04-.58,0-.15.04-.28.12-.38.24-.1.12-.18.26-.24.44s-.11.38-.15.61l-.28,1.52,1.49.28-.2,1.08-1.5-.28-1.03,5.5-1.25-.23,1.02-5.5Z"/>
      <path class="cls-5" d="m488.06,471.86c-.03.29.01.56.11.81.1.25.25.47.44.66.19.19.42.34.68.46.26.12.54.19.83.22.39.04.74-.02,1.05-.18.31-.15.6-.37.87-.65l.89.82c-.79.84-1.82,1.2-3.08,1.08-.52-.05-.99-.18-1.4-.4-.41-.22-.75-.5-1.01-.84-.27-.34-.46-.73-.58-1.18-.12-.44-.16-.91-.11-1.41.05-.5.18-.95.39-1.36.21-.41.49-.76.82-1.04.34-.28.72-.5,1.16-.63.44-.14.91-.18,1.4-.14.59.06,1.08.21,1.47.45.39.25.7.55.93.91.23.36.38.75.46,1.18.08.43.1.86.06,1.29l-.04.45-5.35-.51Zm4.09-.63c.02-.28,0-.54-.06-.79-.06-.24-.16-.46-.3-.65-.14-.19-.33-.34-.56-.47-.23-.12-.5-.2-.82-.23-.31-.03-.6,0-.87.1-.27.09-.5.23-.7.4-.2.17-.35.37-.48.58-.12.22-.19.44-.21.67l4,.38Z"/>
      <path class="cls-5" d="m496.79,472.43c0,.29.07.56.2.79.13.24.3.44.51.61.21.17.45.29.73.38.27.09.56.13.85.13.4,0,.74-.1,1.03-.29.29-.19.55-.43.79-.74l.97.72c-.69.93-1.68,1.4-2.95,1.42-.53,0-1.01-.07-1.44-.25-.43-.17-.8-.41-1.1-.72-.3-.31-.54-.68-.7-1.11-.17-.43-.25-.89-.26-1.39,0-.5.07-.96.24-1.4.17-.43.4-.81.7-1.13.3-.32.66-.57,1.08-.76.42-.19.88-.28,1.38-.29.59,0,1.1.09,1.51.29.41.2.76.47,1.02.8.27.33.47.7.59,1.12.12.42.19.84.2,1.27v.45s-5.36.09-5.36.09Zm4-1.08c-.01-.28-.06-.54-.15-.77-.08-.23-.21-.44-.37-.61s-.37-.31-.61-.4c-.24-.09-.52-.14-.84-.13-.31,0-.59.07-.85.19-.26.12-.48.28-.65.47-.18.19-.31.4-.41.64s-.14.46-.14.69l4.01-.06Z"/>
      <path class="cls-5" d="m507.81,463.92l1.25-.22.88,4.87h.03c.16-.39.43-.72.81-.99.38-.27.81-.45,1.28-.54.51-.09.99-.09,1.43.02.44.1.84.28,1.19.54.35.26.64.58.87.98.23.39.39.83.48,1.33.09.49.09.96,0,1.41-.08.45-.24.85-.48,1.22s-.54.68-.92.93-.83.42-1.34.51c-.44.08-.9.06-1.35-.06-.46-.12-.84-.33-1.14-.64h-.03s.17.95.17.95l-1.25.23-1.89-10.52Zm5.13,8.9c.33-.06.62-.17.87-.34.25-.16.45-.36.6-.59.15-.23.25-.5.3-.8.05-.3.05-.62-.01-.95-.06-.33-.17-.63-.32-.9-.15-.26-.34-.48-.56-.65-.22-.17-.48-.28-.77-.35-.29-.07-.6-.07-.94-.01-.33.06-.62.17-.87.34s-.45.36-.6.59c-.15.23-.25.5-.3.8-.05.3-.05.62.01.95.06.33.17.63.32.9.15.26.34.48.56.65.22.17.48.28.77.35.29.07.6.07.94.01Z"/>
      <path class="cls-5" d="m519.45,469.4c.09.28.23.51.42.71s.41.34.66.44c.25.1.52.16.81.16.29,0,.57-.03.85-.12.38-.12.68-.31.9-.57.23-.26.41-.57.55-.93l1.14.42c-.41,1.08-1.22,1.81-2.43,2.19-.5.16-.99.21-1.45.17-.46-.04-.88-.17-1.26-.39-.38-.21-.7-.5-.99-.87-.28-.36-.49-.78-.64-1.26-.15-.48-.2-.95-.16-1.41.04-.46.16-.89.36-1.28.2-.39.48-.74.83-1.03.35-.3.77-.52,1.24-.67.57-.18,1.08-.22,1.53-.15.45.08.85.24,1.2.48.35.24.65.55.88.91.24.37.42.76.54,1.17l.13.43-5.13,1.58Zm3.54-2.16c-.09-.27-.21-.5-.36-.7-.15-.2-.32-.36-.53-.48-.2-.12-.44-.19-.69-.21-.26-.02-.54.01-.85.11-.3.09-.55.23-.76.42-.21.19-.38.4-.49.63-.11.23-.19.48-.21.72s0,.48.06.7l3.84-1.18Z"/>
      <path class="cls-5" d="m525.67,464.19c.2-.44.48-.83.85-1.17s.77-.6,1.2-.79c.45-.19.86-.3,1.24-.33.37-.03.7.01.99.11.29.1.54.25.74.46.21.2.37.44.48.71l1.35,3.14c.09.22.18.41.27.59.09.18.17.35.26.5l-1.04.45c-.16-.3-.31-.61-.44-.92h-.03c-.09.52-.27.93-.56,1.25-.29.32-.66.58-1.13.78-.29.12-.57.2-.87.23-.29.03-.57.01-.83-.06-.26-.07-.5-.2-.71-.38-.21-.18-.38-.42-.51-.73-.17-.4-.23-.77-.16-1.11.06-.35.21-.67.45-.97.23-.3.54-.57.92-.83.38-.25.8-.48,1.27-.68l.86-.37-.11-.26c-.07-.16-.16-.3-.29-.43-.13-.13-.28-.23-.45-.3-.18-.07-.37-.11-.58-.1-.21,0-.45.06-.7.17-.23.1-.41.2-.56.32-.15.12-.28.24-.39.36-.11.12-.2.25-.28.39-.07.13-.15.26-.22.39l-1.01-.43Zm4.35,1.03c-.28.12-.55.26-.83.41-.28.16-.52.33-.72.52-.2.19-.34.39-.43.62-.09.22-.07.45.03.69.15.35.38.56.69.61.31.05.66,0,1.07-.18.32-.14.57-.31.75-.51.18-.2.3-.42.37-.66s.08-.47.05-.71c-.03-.24-.09-.46-.18-.67l-.17-.39-.62.27Z"/>
      <path class="cls-5" d="m532.45,460.22l1.12-.6.49.91h.03c-.01-.21.01-.41.07-.6.05-.19.14-.38.24-.55.1-.17.23-.34.39-.49.15-.15.32-.28.5-.38.18-.1.36-.16.54-.19l.6,1.23c-.1.02-.21.05-.31.09-.1.03-.2.07-.29.12-.55.29-.88.68-1.01,1.14-.12.46-.01,1.02.34,1.66l1.6,2.96-1.12.6-3.18-5.9Z"/>
    </g>
  </g>
  <g>
    <g>
      <circle class="cls-3" cx="90.98" cy="604.41" r="2.02"/>
      <circle class="cls-3" cx="110.97" cy="604.41" r="2.02"/>
      <path class="cls-3" d="m114.6,623.7c2.47.43,4.6-3.16,4.03-6.32,0,0-.32-1.8-1.37-3.12-.66-.84-1.85-1.05-2.81-.56-1.38.7-3.05,1.11-4.86,1.11-2.65,0-5-.88-6.56-2.26,1.02-.39,1.72-1.09,1.72-1.91,0-1.23-1.57-2.23-3.52-2.23s-3.52,1-3.52,2.23c0,.87.79,1.61,1.93,1.98-1.56,1.34-3.88,2.19-6.47,2.19-1.67,0-3.22-.35-4.53-.96-1-.46-2.19-.41-3.11.2-.89.59-1.57,1.5-1.73,2.87-.36,3.23,1.97,6.01,4.39,6.85,3.72,1.28,3.58-3.25,3.82-4.54,0,0,.92,3.08,3.15,4.22,2.22,1.14,4.23-.72,5.34-2.89l.34-1.16s0,3.57,2.16,4.02c2.87.59,3.84-2.66,4.24-3.65,0,0-.25,2.83,1.47,3.71,1.73.88,3.19-.16,4.18-3.38,0,0-.59,3.22,1.71,3.62Z"/>
      <path class="cls-3" d="m124.49,627.27c-1.15.03-2.22.62-2.9,1.55-5.62,7.62-15.08,12.16-25.33,10.92-13.48-1.63-23.84-13.16-24.01-26.73-.2-16.04,13.19-28.62,28.93-27.7,7.6.44,14.29,3.95,18.95,9.25.84.95,2.11,1.47,3.37,1.25,1.63-.29,2.11-1.49,2.24-2.42.08-.62-.09-1.24-.49-1.72-.57-.69-1.17-1.34-1.79-1.98,1.12-.56,2.16-1.41,2.98-2.54,2.36-3.27,2.02-7.55-.77-9.56-2.79-2.02-6.96-1-9.32,2.26-.8,1.1-1.28,2.32-1.47,3.52-4.27-2.18-9.09-3.46-14.23-3.57-7.12-.15-13.81,2.04-19.31,5.86-.04-1.01-.27-2.06-.72-3.07-1.65-3.68-5.53-5.52-8.67-4.11-3.14,1.41-4.35,5.53-2.7,9.21,1.06,2.37,3.05,3.97,5.17,4.44-4.12,5.11-6.75,11.48-7.19,18.45-1.14,18.17,12.71,33.78,30.86,34.83,11.5.67,21.95-4.67,28.32-13.29.77-1.04.98-2.45.36-3.59-.38-.7-1.06-1.28-2.25-1.25Z"/>
    </g>
    <g>
      <g>
        <path class="cls-2" d="m175.37,596.41c.19.11.35.25.48.41.13.16.19.35.19.57,0,.18-.05.36-.14.55l-2.32,3.95c-.27.37-.56.55-.86.55-.1,0-.21-.02-.34-.06-.13-.04-.26-.1-.38-.18-1.01-.72-2.08-1.28-3.23-1.68-1.15-.4-2.37-.6-3.66-.6-1.63,0-3.12.31-4.48.92-1.36.62-2.53,1.45-3.52,2.5-.99,1.05-1.76,2.29-2.31,3.71-.55,1.42-.83,2.95-.83,4.58s.28,3.13.83,4.54c.55,1.41,1.32,2.65,2.31,3.7.99,1.05,2.16,1.88,3.52,2.49,1.36.61,2.85.91,4.48.91,1.29,0,2.53-.2,3.7-.6,1.17-.4,2.26-.96,3.25-1.68.13-.1.26-.16.39-.19.14-.03.25-.06.35-.07.27,0,.55.18.84.53l2.37,4c.1.19.14.37.14.53,0,.22-.07.41-.2.55-.14.14-.29.28-.47.41-1.5,1.01-3.12,1.78-4.85,2.34-1.73.55-3.56.83-5.47.83-1.69,0-3.32-.22-4.88-.65-1.56-.43-3.01-1.05-4.37-1.84-1.36-.8-2.59-1.75-3.7-2.86-1.11-1.11-2.06-2.34-2.86-3.69-.8-1.35-1.41-2.8-1.84-4.36-.43-1.56-.65-3.18-.65-4.87s.22-3.32.65-4.88c.43-1.56,1.05-3.02,1.84-4.38.8-1.37,1.75-2.61,2.86-3.72,1.11-1.12,2.34-2.07,3.7-2.86,1.36-.79,2.81-1.4,4.37-1.84,1.56-.44,3.18-.66,4.88-.66,1.9,0,3.7.27,5.41.8,1.71.54,3.31,1.31,4.81,2.31Z"/>
        <path class="cls-2" d="m177,617.88c0-1.08.14-2.13.42-3.13s.67-1.94,1.19-2.81c.51-.87,1.12-1.66,1.84-2.36.71-.71,1.5-1.31,2.37-1.82.87-.51,1.8-.9,2.79-1.18.99-.28,2.03-.42,3.11-.42s2.1.14,3.1.42c1,.28,1.93.67,2.79,1.18.86.51,1.65,1.11,2.36,1.82.71.71,1.33,1.5,1.84,2.36.51.87.91,1.81,1.19,2.81.28,1.01.42,2.05.42,3.13s-.14,2.12-.42,3.12c-.28,1-.67,1.93-1.19,2.79-.51.86-1.12,1.65-1.84,2.36-.71.71-1.5,1.32-2.36,1.83-.86.51-1.79.9-2.79,1.18-1,.28-2.03.42-3.1.42s-2.12-.14-3.11-.42c-.99-.28-1.92-.67-2.79-1.18-.87-.51-1.66-1.12-2.37-1.83s-1.33-1.5-1.84-2.36c-.51-.86-.91-1.79-1.19-2.79s-.42-2.04-.42-3.12Zm5.03,0c0,.95.17,1.85.5,2.7.33.85.8,1.59,1.39,2.22.59.63,1.3,1.13,2.11,1.5.82.37,1.7.55,2.67.55s1.81-.18,2.61-.55c.8-.37,1.5-.87,2.08-1.5.58-.63,1.04-1.37,1.36-2.22.33-.85.49-1.75.49-2.7s-.16-1.84-.49-2.69c-.33-.86-.78-1.61-1.36-2.26-.58-.65-1.28-1.17-2.08-1.55-.8-.39-1.67-.58-2.61-.58s-1.85.19-2.67.58c-.81.39-1.52.9-2.11,1.55-.59.65-1.06,1.4-1.39,2.26s-.5,1.75-.5,2.69Z"/>
        <path class="cls-2" d="m203.44,594.84c0-.75.36-1.13,1.08-1.13h14.97c1.39,0,2.69.26,3.91.78s2.28,1.22,3.18,2.12c.9.89,1.61,1.95,2.13,3.16.52,1.21.78,2.52.78,3.93,0,1.29-.23,2.5-.69,3.61-.46,1.12-1.1,2.1-1.92,2.94.65.48,1.24,1.03,1.77,1.65s.98,1.29,1.36,2.01c.38.72.68,1.48.89,2.29s.32,1.63.32,2.48c0,1.42-.27,2.77-.8,4.05-.54,1.28-1.26,2.4-2.18,3.38-.92.97-2,1.74-3.24,2.31-1.24.57-2.58.85-4,.85h-16.47c-.32,0-.58-.08-.78-.25-.2-.17-.3-.43-.3-.78v-33.4Zm19.13,8.98c0-.61-.11-1.17-.32-1.7-.22-.53-.52-.98-.9-1.36-.38-.38-.84-.68-1.38-.9-.54-.22-1.12-.32-1.76-.32h-7.84v8.67h7.77c.64,0,1.23-.11,1.77-.34s1.01-.53,1.4-.92c.39-.39.7-.85.92-1.39.22-.53.34-1.11.34-1.74Zm1.56,14.68c0-.54-.1-1.07-.29-1.59-.19-.52-.46-.98-.79-1.4-.34-.41-.74-.76-1.2-1.04-.46-.28-.97-.47-1.51-.56-.32-.05-.64-.09-.97-.13-.33-.04-.66-.06-1-.06h-8.01v9.72h8.01c.34,0,.66-.01.98-.04s.64-.07.96-.13c.54-.08,1.05-.26,1.51-.55s.87-.65,1.21-1.08.61-.91.8-1.45c.19-.53.29-1.1.29-1.69Z"/>
        <path class="cls-2" d="m257.06,621.09c-.42,1.31-1.03,2.51-1.82,3.59-.79,1.09-1.82,2.02-3.09,2.8-1.37.84-2.82,1.38-4.37,1.62-1.54.24-3.05.19-4.53-.14s-2.86-.94-4.15-1.82c-1.29-.88-2.36-2.01-3.22-3.41-.56-.9-.98-1.84-1.28-2.82-.29-.98-.46-1.96-.5-2.95s.04-1.97.25-2.94.54-1.9,1-2.78c.46-.88,1.03-1.7,1.73-2.46.7-.76,1.52-1.43,2.46-2.01.77-.47,1.59-.85,2.45-1.12.86-.27,1.74-.45,2.63-.52.89-.07,1.77-.04,2.66.09.89.13,1.75.37,2.57.71,1.13.48,2.14,1.12,3.03,1.93s1.7,1.81,2.44,3c.18.29.32.55.42.76.1.21.13.41.1.6-.03.18-.12.37-.29.55-.17.18-.43.38-.8.61l-13.48,8.3c.58.65,1.23,1.14,1.94,1.47.72.33,1.45.54,2.19.62.75.08,1.48.03,2.2-.14.72-.17,1.38-.44,1.98-.81.46-.28.87-.6,1.23-.95.36-.35.68-.71.95-1.09s.5-.76.69-1.15c.19-.39.33-.76.43-1.12,0,0,0-.02,0-.02.05-.19.11-.35.19-.48.07-.13.17-.24.29-.31.09-.06.21-.09.37-.1.15-.01.33.02.53.09.48.17.88.3,1.21.41.33.1.6.2.82.27.21.08.38.15.51.23.12.08.22.17.29.28.18.28.16.69-.05,1.21Zm-15.18-9.55c-.6.37-1.11.84-1.55,1.4-.43.57-.77,1.18-1.01,1.85-.24.66-.38,1.36-.42,2.08-.04.72.04,1.43.24,2.11l10.76-6.62c-.54-.52-1.14-.93-1.78-1.24-.64-.31-1.31-.5-2.01-.59-.69-.08-1.4-.04-2.12.12-.72.17-1.43.46-2.12.88Z"/>
        <path class="cls-2" d="m283.36,627.73c0,.21-.04.39-.13.53-.09.14-.21.24-.35.32-.14.08-.31.13-.49.16s-.38.04-.58.04h-2.23c-.38,0-.65-.1-.79-.3-.15-.2-.26-.46-.33-.77l-.11-1.52c-.42.42-.88.81-1.38,1.17-.51.36-1.05.68-1.63.95-.58.27-1.2.48-1.86.62s-1.33.22-2.02.22c-1.07,0-2.1-.14-3.1-.42-.99-.28-1.92-.67-2.79-1.18-.87-.51-1.66-1.11-2.36-1.83s-1.31-1.5-1.82-2.37c-.51-.87-.9-1.8-1.18-2.8-.28-1-.42-2.04-.42-3.12s.14-2.12.42-3.12c.28-1,.67-1.93,1.18-2.8.5-.87,1.11-1.66,1.82-2.36.71-.71,1.5-1.31,2.36-1.82.87-.51,1.8-.9,2.79-1.18.99-.28,2.02-.42,3.1-.42.76,0,1.49.08,2.18.24.69.16,1.34.39,1.94.68s1.16.64,1.67,1.05.98.86,1.39,1.35l.25-1.91c.06-.21.12-.39.17-.53.05-.14.12-.25.2-.33.08-.08.18-.14.29-.17.12-.03.27-.04.45-.04h1.78c.19,0,.38.02.57.05.19.04.36.09.52.17.15.08.28.18.37.32.09.14.13.31.13.51v20.61Zm-18.56-10.29c0,.95.17,1.85.5,2.7s.8,1.6,1.39,2.24c.59.64,1.29,1.15,2.1,1.53s1.68.56,2.63.56,1.86-.19,2.7-.56c.84-.37,1.57-.88,2.19-1.53.62-.64,1.11-1.39,1.46-2.24.36-.85.54-1.75.54-2.7s-.18-1.83-.54-2.68c-.36-.85-.85-1.6-1.46-2.24-.62-.64-1.35-1.15-2.19-1.53-.84-.38-1.74-.57-2.7-.57s-1.83.19-2.63.57c-.8.38-1.5.89-2.1,1.53-.59.64-1.06,1.39-1.39,2.24-.33.85-.5,1.75-.5,2.68Z"/>
        <path class="cls-2" d="m286.75,607.7c0-.34.12-.61.35-.79.23-.18.49-.27.76-.27h2.27c.3,0,.53.09.68.27.16.18.27.4.36.66s.14.54.18.85.08.58.13.83c.26-.37.56-.73.88-1.08.33-.35.7-.66,1.12-.94.42-.27.89-.49,1.41-.66.52-.17,1.12-.25,1.78-.25.59,0,1.13.04,1.61.12.48.08.93.2,1.36.36s.86.37,1.28.62c.42.26.86.56,1.34.9.2.13.38.28.53.45.15.17.22.36.22.59-.01.1-.03.2-.05.3s-.07.21-.14.32l-1.46,2.32c-.1.12-.21.21-.33.26s-.23.08-.33.08c-.19,0-.37-.05-.55-.14-.39-.21-.75-.42-1.07-.61-.32-.19-.64-.35-.95-.49-.31-.14-.63-.24-.95-.32-.33-.08-.69-.12-1.1-.12-1.06,0-1.95.34-2.68,1.02-.73.68-1.22,1.61-1.47,2.8v13.45c0,.71-.37,1.07-1.11,1.07h-2.94c-.74,0-1.11-.36-1.11-1.07v-20.54Z"/>
      </g>
      <g>
        <path class="cls-2" d="m240.44,597.17c-.2-.21-.42-.37-.64-.48-.22-.11-.49-.16-.8-.16s-.56.05-.78.16c-.22.11-.41.26-.56.45-.15.19-.26.41-.34.66s-.11.51-.11.77.04.52.13.76.22.45.38.63c.16.18.36.32.58.42.23.1.48.15.77.15.31,0,.57-.05.79-.16.22-.11.42-.27.61-.48l.78.78c-.28.32-.61.54-.99.68-.38.14-.78.21-1.2.21-.45,0-.85-.07-1.22-.22-.37-.15-.69-.35-.96-.61-.27-.26-.47-.58-.62-.95-.15-.37-.22-.78-.22-1.22s.07-.86.22-1.23c.15-.37.35-.69.62-.96.26-.27.58-.48.95-.63.37-.15.78-.23,1.24-.23.42,0,.83.08,1.21.23.39.15.72.38,1,.69l-.83.76Z"/>
        <path class="cls-2" d="m241.9,598.52c0-.42.08-.82.24-1.18.16-.37.37-.69.65-.96s.6-.49.97-.65c.37-.16.78-.24,1.21-.24s.83.08,1.21.24c.37.16.7.38.97.65.28.28.49.6.65.96.16.36.24.76.24,1.18s-.08.82-.24,1.19c-.16.37-.38.69-.65.96-.28.27-.6.49-.97.65s-.78.24-1.21.24-.83-.08-1.21-.24-.7-.37-.97-.65c-.28-.27-.49-.59-.65-.96-.16-.37-.24-.77-.24-1.19Zm1.17,0c0,.29.04.56.13.81s.22.46.38.63c.16.17.36.31.6.41.23.1.5.15.79.15s.56-.05.79-.15c.24-.1.43-.24.6-.41s.29-.39.38-.63.13-.52.13-.81-.04-.56-.13-.81-.22-.46-.38-.63-.36-.31-.6-.41c-.23-.1-.5-.15-.79-.15s-.56.05-.79.15c-.24.1-.44.24-.6.41-.16.17-.29.39-.38.63s-.13.52-.13.81Z"/>
        <path class="cls-2" d="m249.84,596.59h-1.24v-.95h1.24v-1.29c0-.77.15-1.35.44-1.72s.81-.57,1.53-.57c.12,0,.25,0,.38.01.13,0,.28.03.43.07l-.12.97c-.11-.04-.21-.07-.3-.09-.1-.02-.2-.02-.32-.02-.2,0-.37.03-.49.09-.12.06-.22.15-.29.26-.07.11-.11.25-.13.41-.02.16-.03.34-.03.54v1.33h1.3v.95h-1.32v4.82h-1.1v-4.82Z"/>
        <path class="cls-2" d="m253.68,596.59h-1.24v-.95h1.24v-1.29c0-.77.15-1.35.44-1.72s.81-.57,1.53-.57c.12,0,.25,0,.38.01.13,0,.28.03.43.07l-.12.97c-.11-.04-.21-.07-.3-.09-.1-.02-.2-.02-.32-.02-.2,0-.37.03-.49.09-.12.06-.22.15-.29.26-.07.11-.11.25-.13.41-.02.16-.03.34-.03.54v1.33h1.3v.95h-1.32v4.82h-1.1v-4.82Z"/>
        <path class="cls-2" d="m258.14,598.93c0,.25.05.48.16.69.11.21.25.38.43.53.18.15.39.26.62.34.23.08.48.12.73.12.34,0,.64-.08.89-.24.25-.16.48-.37.69-.63l.83.63c-.61.79-1.46,1.18-2.56,1.18-.45,0-.87-.08-1.24-.23-.37-.15-.68-.37-.94-.64-.26-.27-.45-.59-.59-.96-.14-.37-.21-.77-.21-1.2s.07-.83.22-1.2c.15-.37.36-.69.62-.96.26-.27.58-.49.94-.64.36-.15.76-.23,1.19-.23.51,0,.94.09,1.3.27.35.18.64.41.87.7.23.29.39.61.49.97.1.36.15.73.15,1.1v.39h-4.63Zm3.46-.88c0-.24-.05-.47-.12-.67-.07-.2-.17-.38-.31-.53-.14-.15-.31-.27-.52-.35s-.45-.13-.72-.13-.51.05-.74.15c-.22.1-.41.23-.57.4-.15.16-.27.34-.36.54-.09.2-.13.4-.13.59h3.46Z"/>
        <path class="cls-2" d="m264.91,598.93c0,.25.05.48.16.69.11.21.25.38.43.53.18.15.39.26.62.34.23.08.48.12.73.12.34,0,.64-.08.89-.24.25-.16.48-.37.69-.63l.83.63c-.61.79-1.46,1.18-2.56,1.18-.45,0-.87-.08-1.24-.23-.37-.15-.68-.37-.94-.64-.26-.27-.45-.59-.59-.96-.14-.37-.21-.77-.21-1.2s.07-.83.22-1.2c.15-.37.36-.69.62-.96.26-.27.58-.49.94-.64.36-.15.76-.23,1.19-.23.51,0,.94.09,1.3.27.35.18.64.41.87.7.23.29.39.61.49.97.1.36.15.73.15,1.1v.39h-4.63Zm3.46-.88c0-.24-.05-.47-.12-.67-.07-.2-.17-.38-.31-.53-.14-.15-.31-.27-.52-.35s-.45-.13-.72-.13-.51.05-.74.15c-.22.1-.41.23-.57.4-.15.16-.27.34-.36.54-.09.2-.13.4-.13.59h3.46Z"/>
        <path class="cls-2" d="m274.24,592.2h1.1v4.26h.02c.2-.3.47-.54.84-.71s.76-.26,1.17-.26c.45,0,.85.08,1.21.23.36.15.67.37.93.64.26.27.45.59.59.96.14.37.21.77.21,1.2s-.07.83-.21,1.19-.33.69-.59.96c-.26.28-.56.49-.93.65-.36.15-.77.23-1.21.23-.39,0-.77-.09-1.14-.26-.37-.17-.66-.41-.87-.72h-.02v.83h-1.1v-9.21Zm3,8.33c.29,0,.56-.05.79-.15.24-.1.43-.24.6-.41s.29-.39.38-.63.13-.52.13-.81-.04-.56-.13-.81-.22-.46-.38-.63-.36-.31-.6-.41c-.24-.1-.5-.15-.79-.15s-.56.05-.79.15c-.24.1-.44.24-.6.41-.16.17-.29.39-.38.63-.09.25-.13.52-.13.81s.04.56.13.81c.09.25.22.46.38.63.16.17.36.31.6.41.23.1.5.15.79.15Z"/>
        <path class="cls-2" d="m282.51,598.93c0,.25.05.48.16.69.11.21.25.38.43.53.18.15.39.26.62.34.23.08.48.12.73.12.34,0,.64-.08.89-.24.25-.16.48-.37.69-.63l.83.63c-.61.79-1.46,1.18-2.56,1.18-.45,0-.87-.08-1.24-.23-.37-.15-.68-.37-.94-.64-.26-.27-.45-.59-.59-.96-.14-.37-.21-.77-.21-1.2s.07-.83.22-1.2c.15-.37.36-.69.62-.96.26-.27.58-.49.94-.64.36-.15.76-.23,1.19-.23.51,0,.94.09,1.3.27.35.18.64.41.87.7.23.29.39.61.49.97.1.36.15.73.15,1.1v.39h-4.63Zm3.46-.88c0-.24-.05-.47-.12-.67-.07-.2-.17-.38-.31-.53-.14-.15-.31-.27-.52-.35s-.45-.13-.72-.13-.51.05-.74.15c-.22.1-.41.23-.57.4-.15.16-.27.34-.36.54-.09.2-.13.4-.13.59h3.46Z"/>
        <path class="cls-2" d="m288.47,596.34c.31-.28.67-.5,1.07-.64.41-.14.81-.21,1.22-.21s.79.05,1.09.16c.3.11.55.25.75.43.19.18.34.38.43.61.09.23.14.47.14.73v2.95c0,.2,0,.39.01.56,0,.17.02.33.04.49h-.97c-.02-.29-.04-.58-.04-.88h-.02c-.24.37-.53.64-.86.79-.33.15-.72.23-1.16.23-.27,0-.52-.04-.77-.11s-.46-.18-.64-.33c-.18-.15-.33-.33-.43-.54-.11-.22-.16-.46-.16-.75,0-.37.08-.69.25-.94.17-.25.39-.46.68-.61s.63-.27,1.01-.34c.39-.07.8-.1,1.24-.1h.8v-.24c0-.15-.03-.29-.09-.44-.06-.15-.14-.28-.26-.4s-.26-.21-.43-.28c-.17-.07-.37-.1-.61-.1-.21,0-.4.02-.56.06-.16.04-.3.09-.43.15-.13.06-.25.13-.35.21-.11.08-.21.16-.3.23l-.66-.68Zm3.09,2.29c-.26,0-.53.01-.8.04-.27.03-.52.08-.74.16-.22.08-.41.2-.55.34-.14.15-.21.33-.21.56,0,.33.11.57.33.72.22.15.53.22.91.22.3,0,.56-.05.77-.15.21-.1.38-.23.51-.4s.22-.34.28-.54.09-.4.09-.59v-.37h-.58Z"/>
        <path class="cls-2" d="m294.77,595.64h1.1v.89h.02c.07-.15.17-.29.29-.42s.26-.23.41-.32c.15-.09.31-.16.49-.21s.36-.08.54-.08.34.02.49.07l-.05,1.18c-.09-.02-.18-.04-.27-.06-.09-.02-.18-.02-.27-.02-.54,0-.95.15-1.23.45-.28.3-.43.77-.43,1.4v2.9h-1.1v-5.77Z"/>
      </g>
    </g>
  </g>
  <g>
    <g>
      <path class="cls-2" d="m468.43,565.3c-1.64-.44-2.98-1.6-4.01-3.47-.7-1.28-1.07-2.55-1.1-3.81-.03-1.26.28-2.41.92-3.46.64-1.04,1.57-1.9,2.79-2.57.99-.55,2.05-.89,3.17-1.04l.79,2.58c-1.02.08-1.91.32-2.67.74-1.09.6-1.75,1.43-2,2.49-.24,1.06-.04,2.18.61,3.37.66,1.21,1.51,1.96,2.55,2.27,1.04.3,2.15.13,3.33-.52.78-.43,1.46-.97,2.05-1.62l1.61,1.99c-.69.81-1.59,1.53-2.7,2.14-1.91,1.05-3.69,1.36-5.33.92Z"/>
      <path class="cls-2" d="m479.75,561.08c-.91-.22-1.7-.67-2.36-1.35-.67-.68-1.15-1.55-1.46-2.61-.31-1.06-.36-2.06-.17-2.99s.62-1.73,1.27-2.4,1.49-1.16,2.51-1.45c1.02-.3,1.99-.34,2.89-.12.91.21,1.69.66,2.35,1.33.66.68,1.14,1.54,1.44,2.59.31,1.06.37,2.06.18,3.01-.19.94-.61,1.75-1.26,2.43-.65.68-1.48,1.16-2.49,1.45-1.02.3-1.99.33-2.9.11Zm3.65-3.81c.27-.67.27-1.45.02-2.34s-.68-1.54-1.26-1.95c-.58-.41-1.22-.51-1.93-.31-.71.2-1.2.63-1.47,1.29-.27.65-.28,1.43-.02,2.32.26.89.68,1.55,1.26,1.97.58.42,1.23.53,1.94.32.71-.2,1.2-.64,1.46-1.31Z"/>
      <path class="cls-2" d="m488.36,545.43l4.55-.28c1.32-.08,2.38.17,3.19.75.81.58,1.25,1.42,1.32,2.51.08,1.24-.4,2.23-1.44,2.96,1.47.48,2.24,1.45,2.33,2.89.05.82-.11,1.55-.48,2.21-.37.66-.91,1.19-1.61,1.59-.71.4-1.52.63-2.43.68l-4.59.29-.85-13.6Zm4.21,5.29c.68-.04,1.2-.23,1.55-.57.35-.34.52-.78.48-1.34-.06-1.01-.72-1.47-1.97-1.39l-1.29.08.21,3.29,1.02-.06Zm.65,5.78c.74-.05,1.3-.25,1.69-.62.39-.37.57-.83.54-1.41-.03-.52-.24-.91-.61-1.17-.37-.26-.89-.37-1.56-.33l-1.59.1.22,3.51,1.31-.08Z"/>
      <path class="cls-2" d="m501.18,557.55c-.82-1.11-1.1-2.54-.84-4.26.17-1.12.52-2.06,1.06-2.83.54-.77,1.23-1.32,2.06-1.65.83-.33,1.76-.42,2.78-.27,1.51.23,2.6.88,3.26,1.98.66,1.09.86,2.56.59,4.39-.05.31-.09.54-.12.69l-6.88-1.03c.03.74.26,1.32.69,1.77.43.44,1.06.73,1.88.85.5.07,1.03.09,1.59.04.56-.05,1.06-.15,1.49-.31l.13,2.36c-.58.2-1.21.33-1.89.39-.68.06-1.35.04-2.03-.06-1.69-.25-2.94-.93-3.76-2.05Zm6.39-4.51c.05-.59-.09-1.08-.4-1.48-.31-.4-.77-.64-1.38-.73-.58-.09-1.08.01-1.5.29-.42.28-.72.71-.91,1.29l4.19.62Z"/>
      <path class="cls-2" d="m511.65,559.54c-.28-1.09-.13-2.39.42-3.88.68-1.81,1.65-3.03,2.93-3.63,1.28-.61,2.78-.59,4.5.05.97.36,2.05.94,3.24,1.73l-3.62,9.68-2.57-.96.65-1.55-.08-.03c-.56.48-1.13.79-1.73.93-.6.14-1.2.1-1.8-.13-1.02-.38-1.67-1.12-1.95-2.21Zm4.81-.13c.54-.28,1.11-.71,1.7-1.29l1.2-3.22c-.37-.27-.75-.48-1.16-.63-.77-.29-1.44-.24-2.03.14s-1.07,1.08-1.45,2.1c-.3.8-.42,1.48-.37,2.04.06.55.29.91.7,1.06.4.15.86.08,1.41-.2Z"/>
      <path class="cls-2" d="m526.47,555.56l2.48,1.48-.88,1.48.14.08c.7-.39,1.3-.63,1.8-.71.5-.08,1,.03,1.51.33.21.13.37.25.48.39l-1.86,2.51c-.26-.26-.48-.45-.66-.56-.27-.16-.54-.25-.8-.27-.27-.02-.53.02-.8.1-.26.08-.65.22-1.16.4l-3.18,5.3-2.48-1.48,5.42-9.04Z"/>
    </g>
    <g>
      <path class="cls-3" d="m536.94,585.92c2.07-.85,4-2.39,5.4-4.52,3.28-4.99,2.5-11.3-1.76-14.1-4.26-2.8-10.37-1.03-13.65,3.96-.71,1.08-1.22,2.22-1.55,3.38-7.11-4.94-15.62-8.04-24.89-8.58-11.44-.67-22.17,2.69-30.85,8.82-.43-1.56-1.19-3.1-2.31-4.49-3.76-4.64-10.01-5.81-13.97-2.6-3.96,3.2-4.13,9.57-.37,14.21,1.52,1.88,3.45,3.18,5.47,3.86-5.37,7.31-8.78,16.2-9.34,25.94-.99,17.06,6.94,32.57,19.75,42,1.52,1.12,3.59,1.39,5.25.48,1.34-.73,2.37-2.19,1.58-5.06-.25-.92-.84-1.72-1.62-2.28-11.15-8.02-17.97-21.53-16.72-36.32,1.78-21.12,19.94-37.48,41.13-37.06,23.1.46,40.99,19.99,39.66,42.85-.65,11.24-5.84,21.14-13.68,28.04-1.45,1.28-2.23,3.21-1.86,5.11.29,1.49,1.11,2.31,2.02,2.76,1.52.75,3.35.38,4.64-.72,9.72-8.3,16.18-20.39,16.98-34.15.68-11.72-2.85-22.71-9.27-31.5Z"/>
      <circle class="cls-3" cx="483.55" cy="602.97" r="2.8"/>
      <circle class="cls-3" cx="511.35" cy="602.97" r="2.8"/>
      <path class="cls-3" d="m522.01,621s-.45-2.5-1.9-4.34c-.91-1.15-2.53-1.49-3.83-.82-1.93,1-4.29,1.59-6.84,1.59-3.68,0-6.96-1.23-9.13-3.15,1.42-.54,2.39-1.52,2.39-2.65,0-1.71-2.19-3.1-4.89-3.1s-4.89,1.39-4.89,3.1c0,1.21,1.1,2.24,2.68,2.75-2.17,1.86-5.39,3.05-9.01,3.05-2.32,0-4.48-.49-6.3-1.33-1.4-.64-3.05-.57-4.33.28s-2.19,2.09-2.4,3.99c-.5,4.49,2.74,8.36,6.1,9.53,5.17,1.79,4.98-4.52,5.31-6.32,0,0,1.29,4.28,4.38,5.86,3.09,1.58,5.88-1,7.43-4.02l.48-1.62s0,4.97,3.01,5.59c4,.82,5.35-3.69,5.9-5.07,0,0-.35,3.94,2.05,5.16,2.4,1.22,4.44-.23,5.82-4.71,0,0-.82,4.48,2.37,5.03,3.43.6,6.39-4.4,5.61-8.8Z"/>
    </g>
    <g>
      <path class="cls-5" d="m466.01,663.42c-.11-.32-.25-.6-.43-.83-.18-.23-.43-.42-.75-.57-.32-.15-.62-.23-.9-.22-.29,0-.56.06-.81.19-.25.12-.48.3-.69.52-.21.22-.37.47-.51.75-.13.28-.22.57-.24.86-.03.3,0,.58.08.85.08.27.21.51.4.73.19.22.43.4.73.54.32.16.63.23.91.23.29,0,.58-.07.88-.2l.42,1.21c-.46.19-.92.26-1.38.21s-.92-.17-1.36-.39c-.47-.23-.86-.51-1.17-.85-.31-.34-.54-.71-.69-1.12-.15-.41-.2-.85-.17-1.31.03-.46.16-.92.39-1.39.22-.47.51-.86.85-1.18.34-.32.72-.55,1.13-.7.41-.15.85-.21,1.31-.18.46.03.93.16,1.41.39.44.21.83.49,1.15.85.33.35.56.76.7,1.23l-1.25.37Z"/>
      <path class="cls-5" d="m467.65,665.87c.16-.46.4-.86.72-1.2.31-.34.68-.6,1.09-.8.41-.19.85-.3,1.32-.33.47-.03.94.04,1.41.21.47.17.88.41,1.22.73.35.32.62.68.81,1.09.19.41.31.84.34,1.31.03.46-.04.92-.2,1.38-.16.46-.41.86-.72,1.21s-.68.61-1.09.8c-.41.19-.85.3-1.32.33-.47.03-.94-.04-1.41-.21s-.88-.41-1.23-.73c-.35-.32-.62-.68-.81-1.09-.2-.4-.31-.84-.34-1.31-.03-.46.04-.93.2-1.39Zm1.28.46c-.11.32-.17.63-.17.94,0,.3.06.58.17.84s.27.48.49.68c.22.2.49.36.81.48s.63.16.93.14c.3-.02.57-.09.81-.22.24-.13.46-.31.66-.54.19-.24.35-.51.46-.83.11-.32.17-.63.17-.94,0-.31-.06-.59-.17-.84-.11-.25-.27-.48-.49-.68-.22-.2-.49-.36-.81-.47-.32-.12-.63-.16-.93-.14-.3.02-.57.09-.81.22-.25.13-.47.31-.66.55-.19.24-.35.51-.46.83Z"/>
      <path class="cls-5" d="m477.71,666.81l-1.4-.36.27-1.07,1.4.36.37-1.45c.22-.87.55-1.47.99-1.81.44-.34,1.07-.41,1.88-.2.14.03.28.08.43.12.15.05.3.12.47.21l-.42,1.06c-.11-.08-.21-.14-.32-.18-.1-.05-.22-.09-.35-.12-.23-.06-.42-.07-.57-.04-.15.03-.29.1-.4.21s-.2.25-.27.42c-.07.17-.13.37-.19.6l-.38,1.49,1.47.37-.27,1.07-1.48-.38-1.38,5.42-1.23-.32,1.38-5.42Z"/>
      <path class="cls-5" d="m482.63,667.95l-1.42-.26.2-1.08,1.42.26.27-1.47c.16-.88.45-1.5.87-1.87.42-.37,1.04-.48,1.86-.32.14.03.28.06.43.1s.31.1.48.18l-.35,1.08c-.11-.07-.22-.12-.33-.16-.11-.04-.23-.07-.36-.1-.23-.04-.42-.04-.58,0-.15.04-.28.12-.38.24-.1.12-.18.26-.24.44s-.11.38-.15.61l-.28,1.52,1.49.28-.2,1.08-1.5-.28-1.03,5.5-1.25-.23,1.02-5.5Z"/>
      <path class="cls-5" d="m488.06,671.58c-.03.29.01.56.11.81.1.25.25.47.44.66.19.19.42.34.68.46.26.12.54.19.83.22.39.04.74-.02,1.05-.18.31-.15.6-.37.87-.65l.89.82c-.79.84-1.82,1.2-3.08,1.08-.52-.05-.99-.18-1.4-.4-.41-.22-.75-.5-1.01-.84-.27-.34-.46-.73-.58-1.18-.12-.44-.16-.91-.11-1.41.05-.5.18-.95.39-1.36.21-.41.49-.76.82-1.04.34-.28.72-.5,1.16-.63.44-.14.91-.18,1.4-.14.59.06,1.08.21,1.47.45.39.25.7.55.93.91.23.36.38.75.46,1.18.08.43.1.86.06,1.29l-.04.45-5.35-.51Zm4.09-.63c.02-.28,0-.54-.06-.79-.06-.24-.16-.46-.3-.65-.14-.19-.33-.34-.56-.47-.23-.12-.5-.2-.82-.23-.31-.03-.6,0-.87.1-.27.09-.5.23-.7.4-.2.17-.35.37-.48.58-.12.22-.19.44-.21.67l4,.38Z"/>
      <path class="cls-5" d="m496.79,672.15c0,.29.07.56.2.79.13.24.3.44.51.61.21.17.45.29.73.38.27.09.56.13.85.13.4,0,.74-.1,1.03-.29.29-.19.55-.43.79-.74l.97.72c-.69.93-1.68,1.4-2.95,1.42-.53,0-1.01-.07-1.44-.25-.43-.17-.8-.41-1.1-.72-.3-.31-.54-.68-.7-1.11-.17-.43-.25-.89-.26-1.39,0-.5.07-.96.24-1.4.17-.43.4-.81.7-1.13.3-.32.66-.57,1.08-.76.42-.19.88-.28,1.38-.29.59,0,1.1.09,1.51.29.41.2.76.47,1.02.8.27.33.47.7.59,1.12.12.42.19.84.2,1.27v.45s-5.36.09-5.36.09Zm4-1.08c-.01-.28-.06-.54-.15-.77-.08-.23-.21-.44-.37-.61s-.37-.31-.61-.4c-.24-.09-.52-.14-.84-.13-.31,0-.59.07-.85.19-.26.12-.48.28-.65.47-.18.19-.31.4-.41.64s-.14.46-.14.69l4.01-.06Z"/>
      <path class="cls-5" d="m507.81,663.64l1.25-.22.88,4.87h.03c.16-.39.43-.72.81-.99.38-.27.81-.45,1.28-.54.51-.09.99-.09,1.43.02.44.1.84.28,1.19.54.35.26.64.58.87.98.23.39.39.83.48,1.33.09.49.09.96,0,1.41-.08.45-.24.85-.48,1.22s-.54.68-.92.93-.83.42-1.34.51c-.44.08-.9.06-1.35-.06-.46-.12-.84-.33-1.14-.64h-.03s.17.95.17.95l-1.25.23-1.89-10.52Zm5.13,8.9c.33-.06.62-.17.87-.34.25-.16.45-.36.6-.59.15-.23.25-.5.3-.8.05-.3.05-.62-.01-.95-.06-.33-.17-.63-.32-.9-.15-.26-.34-.48-.56-.65-.22-.17-.48-.28-.77-.35-.29-.07-.6-.07-.94-.01-.33.06-.62.17-.87.34s-.45.36-.6.59c-.15.23-.25.5-.3.8-.05.3-.05.62.01.95.06.33.17.63.32.9.15.26.34.48.56.65.22.17.48.28.77.35.29.07.6.07.94.01Z"/>
      <path class="cls-5" d="m519.45,669.12c.09.28.23.51.42.71s.41.34.66.44c.25.1.52.16.81.16.29,0,.57-.03.85-.12.38-.12.68-.31.9-.57.23-.26.41-.57.55-.93l1.14.42c-.41,1.08-1.22,1.81-2.43,2.19-.5.16-.99.21-1.45.17-.46-.04-.88-.17-1.26-.39-.38-.21-.7-.5-.99-.87-.28-.36-.49-.78-.64-1.26-.15-.48-.2-.95-.16-1.41.04-.46.16-.89.36-1.28.2-.39.48-.74.83-1.03.35-.3.77-.52,1.24-.67.57-.18,1.08-.22,1.53-.15.45.08.85.24,1.2.48.35.24.65.55.88.91.24.37.42.76.54,1.17l.13.43-5.13,1.58Zm3.54-2.16c-.09-.27-.21-.5-.36-.7-.15-.2-.32-.36-.53-.48-.2-.12-.44-.19-.69-.21-.26-.02-.54.01-.85.11-.3.09-.55.23-.76.42-.21.19-.38.4-.49.63-.11.23-.19.48-.21.72s0,.48.06.7l3.84-1.18Z"/>
      <path class="cls-5" d="m525.67,663.91c.2-.44.48-.83.85-1.17s.77-.6,1.2-.79c.45-.19.86-.3,1.24-.33.37-.03.7.01.99.11.29.1.54.25.74.46.21.2.37.44.48.71l1.35,3.14c.09.22.18.41.27.59.09.18.17.35.26.5l-1.04.45c-.16-.3-.31-.61-.44-.92h-.03c-.09.52-.27.93-.56,1.25-.29.32-.66.58-1.13.78-.29.12-.57.2-.87.23-.29.03-.57.01-.83-.06-.26-.07-.5-.2-.71-.38-.21-.18-.38-.42-.51-.73-.17-.4-.23-.77-.16-1.11.06-.35.21-.67.45-.97.23-.3.54-.57.92-.83.38-.25.8-.48,1.27-.68l.86-.37-.11-.26c-.07-.16-.16-.3-.29-.43-.13-.13-.28-.23-.45-.3-.18-.07-.37-.11-.58-.1-.21,0-.45.06-.7.17-.23.1-.41.2-.56.32-.15.12-.28.24-.39.36-.11.12-.2.25-.28.39-.07.13-.15.26-.22.39l-1.01-.43Zm4.35,1.03c-.28.12-.55.26-.83.41-.28.16-.52.33-.72.52-.2.19-.34.39-.43.62-.09.22-.07.45.03.69.15.35.38.56.69.61.31.05.66,0,1.07-.18.32-.14.57-.31.75-.51.18-.2.3-.42.37-.66s.08-.47.05-.71c-.03-.24-.09-.46-.18-.67l-.17-.39-.62.27Z"/>
      <path class="cls-5" d="m532.45,659.94l1.12-.6.49.91h.03c-.01-.21.01-.41.07-.6.05-.19.14-.38.24-.55.1-.17.23-.34.39-.49.15-.15.32-.28.5-.38.18-.1.36-.16.54-.19l.6,1.23c-.1.02-.21.05-.31.09-.1.03-.2.07-.29.12-.55.29-.88.68-1.01,1.14-.12.46-.01,1.02.34,1.66l1.6,2.96-1.12.6-3.18-5.9Z"/>
    </g>
  </g>
  <g>
    <g>
      <circle class="cls-5" cx="90.98" cy="176.91" r="2.02"/>
      <circle class="cls-5" cx="110.97" cy="176.91" r="2.02"/>
      <path class="cls-5" d="m114.6,196.19c2.47.43,4.6-3.16,4.03-6.32,0,0-.32-1.8-1.37-3.12-.66-.84-1.85-1.05-2.81-.56-1.38.7-3.05,1.11-4.86,1.11-2.65,0-5-.88-6.56-2.26,1.02-.39,1.72-1.09,1.72-1.91,0-1.23-1.57-2.23-3.52-2.23s-3.52,1-3.52,2.23c0,.87.79,1.61,1.93,1.98-1.56,1.34-3.88,2.19-6.47,2.19-1.67,0-3.22-.35-4.53-.96-1-.46-2.19-.41-3.11.2-.89.59-1.57,1.5-1.73,2.87-.36,3.23,1.97,6.01,4.39,6.85,3.72,1.28,3.58-3.25,3.82-4.54,0,0,.92,3.08,3.15,4.22,2.22,1.14,4.23-.72,5.34-2.89l.34-1.16s0,3.57,2.16,4.02c2.87.59,3.84-2.66,4.24-3.65,0,0-.25,2.83,1.47,3.71,1.73.88,3.19-.16,4.18-3.38,0,0-.59,3.22,1.71,3.62Z"/>
      <path class="cls-5" d="m124.49,199.76c-1.15.03-2.22.62-2.9,1.55-5.62,7.62-15.08,12.16-25.33,10.92-13.48-1.63-23.84-13.16-24.01-26.73-.2-16.04,13.19-28.62,28.93-27.7,7.6.44,14.29,3.95,18.95,9.25.84.95,2.11,1.47,3.37,1.25,1.63-.29,2.11-1.49,2.24-2.42.08-.62-.09-1.24-.49-1.72-.57-.69-1.17-1.34-1.79-1.98,1.12-.56,2.16-1.41,2.98-2.54,2.36-3.27,2.02-7.55-.77-9.56-2.79-2.02-6.96-1-9.32,2.26-.8,1.1-1.28,2.32-1.47,3.52-4.27-2.18-9.09-3.46-14.23-3.57-7.12-.15-13.81,2.04-19.31,5.86-.04-1.01-.27-2.06-.72-3.07-1.65-3.68-5.53-5.52-8.67-4.11-3.14,1.41-4.35,5.53-2.7,9.21,1.06,2.37,3.05,3.97,5.17,4.44-4.12,5.11-6.75,11.48-7.19,18.45-1.14,18.17,12.71,33.78,30.86,34.83,11.5.67,21.95-4.67,28.32-13.29.77-1.04.98-2.45.36-3.59-.38-.7-1.06-1.28-2.25-1.25Z"/>
    </g>
    <g>
      <g>
        <path class="cls-5" d="m175.37,168.91c.19.11.35.25.48.41.13.16.19.35.19.57,0,.18-.05.36-.14.55l-2.32,3.95c-.27.37-.56.55-.86.55-.1,0-.21-.02-.34-.06-.13-.04-.26-.1-.38-.18-1.01-.72-2.08-1.28-3.23-1.68-1.15-.4-2.37-.6-3.66-.6-1.63,0-3.12.31-4.48.92-1.36.62-2.53,1.45-3.52,2.5-.99,1.05-1.76,2.29-2.31,3.71-.55,1.42-.83,2.95-.83,4.58s.28,3.13.83,4.54c.55,1.41,1.32,2.65,2.31,3.7.99,1.05,2.16,1.88,3.52,2.49,1.36.61,2.85.91,4.48.91,1.29,0,2.53-.2,3.7-.6,1.17-.4,2.26-.96,3.25-1.68.13-.1.26-.16.39-.19.14-.03.25-.06.35-.07.27,0,.55.18.84.53l2.37,4c.1.19.14.37.14.53,0,.22-.07.41-.2.55-.14.14-.29.28-.47.41-1.5,1.01-3.12,1.78-4.85,2.34-1.73.55-3.56.83-5.47.83-1.69,0-3.32-.22-4.88-.65-1.56-.43-3.01-1.05-4.37-1.84-1.36-.8-2.59-1.75-3.7-2.86-1.11-1.11-2.06-2.34-2.86-3.69s-1.41-2.8-1.84-4.36c-.43-1.56-.65-3.18-.65-4.87s.22-3.32.65-4.88c.43-1.56,1.05-3.02,1.84-4.38s1.75-2.61,2.86-3.72c1.11-1.12,2.34-2.07,3.7-2.86,1.36-.79,2.81-1.4,4.37-1.84,1.56-.44,3.18-.66,4.88-.66,1.9,0,3.7.27,5.41.8,1.71.54,3.31,1.31,4.81,2.31Z"/>
        <path class="cls-5" d="m177,190.38c0-1.08.14-2.13.42-3.13s.67-1.94,1.19-2.81c.51-.87,1.12-1.66,1.84-2.36.71-.71,1.5-1.31,2.37-1.82.87-.51,1.8-.9,2.79-1.18.99-.28,2.03-.42,3.11-.42s2.1.14,3.1.42c1,.28,1.93.67,2.79,1.18.86.51,1.65,1.11,2.36,1.82.71.71,1.33,1.5,1.84,2.36.51.87.91,1.81,1.19,2.81.28,1.01.42,2.05.42,3.13s-.14,2.12-.42,3.12c-.28,1-.67,1.93-1.19,2.79-.51.86-1.12,1.65-1.84,2.36s-1.5,1.32-2.36,1.83c-.86.51-1.79.9-2.79,1.18-1,.28-2.03.42-3.1.42s-2.12-.14-3.11-.42c-.99-.28-1.92-.67-2.79-1.18-.87-.51-1.66-1.12-2.37-1.83s-1.33-1.5-1.84-2.36c-.51-.86-.91-1.79-1.19-2.79s-.42-2.04-.42-3.12Zm5.03,0c0,.95.17,1.85.5,2.7.33.85.8,1.59,1.39,2.22.59.63,1.3,1.13,2.11,1.5.82.37,1.7.55,2.67.55s1.81-.18,2.61-.55c.8-.37,1.5-.87,2.08-1.5.58-.63,1.04-1.37,1.36-2.22.33-.85.49-1.75.49-2.7s-.16-1.84-.49-2.69c-.33-.86-.78-1.61-1.36-2.26-.58-.65-1.28-1.17-2.08-1.55-.8-.39-1.67-.58-2.61-.58s-1.85.19-2.67.58c-.81.39-1.52.9-2.11,1.55-.59.65-1.06,1.4-1.39,2.26s-.5,1.75-.5,2.69Z"/>
        <path class="cls-5" d="m203.44,167.34c0-.75.36-1.13,1.08-1.13h14.97c1.39,0,2.69.26,3.91.78s2.28,1.22,3.18,2.12c.9.89,1.61,1.95,2.13,3.16.52,1.21.78,2.52.78,3.93,0,1.29-.23,2.5-.69,3.61-.46,1.12-1.1,2.1-1.92,2.94.65.48,1.24,1.03,1.77,1.65s.98,1.29,1.36,2.01c.38.72.68,1.48.89,2.29s.32,1.63.32,2.48c0,1.42-.27,2.77-.8,4.05-.54,1.28-1.26,2.4-2.18,3.38-.92.97-2,1.74-3.24,2.31-1.24.57-2.58.85-4,.85h-16.47c-.32,0-.58-.08-.78-.25-.2-.17-.3-.43-.3-.78v-33.4Zm19.13,8.98c0-.61-.11-1.17-.32-1.7-.22-.53-.52-.98-.9-1.36-.38-.38-.84-.68-1.38-.9-.54-.22-1.12-.32-1.76-.32h-7.84v8.67h7.77c.64,0,1.23-.11,1.77-.34s1.01-.53,1.4-.92c.39-.39.7-.85.92-1.39s.34-1.11.34-1.74Zm1.56,14.68c0-.54-.1-1.07-.29-1.59-.19-.52-.46-.98-.79-1.4-.34-.41-.74-.76-1.2-1.04-.46-.28-.97-.47-1.51-.56-.32-.05-.64-.09-.97-.13-.33-.04-.66-.06-1-.06h-8.01v9.72h8.01c.34,0,.66-.01.98-.04s.64-.07.96-.13c.54-.08,1.05-.26,1.51-.55s.87-.65,1.21-1.08.61-.91.8-1.45c.19-.53.29-1.1.29-1.69Z"/>
        <path class="cls-5" d="m257.06,193.59c-.42,1.31-1.03,2.51-1.82,3.59-.79,1.09-1.82,2.02-3.09,2.8-1.37.84-2.82,1.38-4.37,1.62-1.54.24-3.05.19-4.53-.14s-2.86-.94-4.15-1.82c-1.29-.88-2.36-2.01-3.22-3.41-.56-.9-.98-1.84-1.28-2.82-.29-.98-.46-1.96-.5-2.95s.04-1.97.25-2.94.54-1.9,1-2.78c.46-.88,1.03-1.7,1.73-2.46.7-.76,1.52-1.43,2.46-2.01.77-.47,1.59-.85,2.45-1.12.86-.27,1.74-.45,2.63-.52.89-.07,1.77-.04,2.66.09.89.13,1.75.37,2.57.71,1.13.48,2.14,1.12,3.03,1.93.89.81,1.7,1.81,2.44,3,.18.29.32.55.42.76.1.21.13.41.1.6-.03.18-.12.37-.29.55-.17.18-.43.38-.8.61l-13.48,8.3c.58.65,1.23,1.14,1.94,1.47.72.33,1.45.54,2.19.62.75.08,1.48.03,2.2-.14.72-.17,1.38-.44,1.98-.81.46-.28.87-.6,1.23-.95.36-.35.68-.71.95-1.09s.5-.76.69-1.15c.19-.39.33-.76.43-1.12,0,0,0-.02,0-.02.05-.19.11-.35.19-.48.07-.13.17-.24.29-.31.09-.06.21-.09.37-.1.15-.01.33.02.53.09.48.17.88.3,1.21.41.33.1.6.2.82.27.21.08.38.15.51.23.12.08.22.17.29.28.18.28.16.69-.05,1.21Zm-15.18-9.55c-.6.37-1.11.84-1.55,1.4-.43.57-.77,1.18-1.01,1.85-.24.66-.38,1.36-.42,2.08-.04.72.04,1.43.24,2.11l10.76-6.62c-.54-.52-1.14-.93-1.78-1.24-.64-.31-1.31-.5-2.01-.59-.69-.08-1.4-.04-2.12.12-.72.17-1.43.46-2.12.88Z"/>
        <path class="cls-5" d="m283.36,200.23c0,.21-.04.39-.13.53-.09.14-.21.24-.35.32-.14.08-.31.13-.49.16s-.38.04-.58.04h-2.23c-.38,0-.65-.1-.79-.3-.15-.2-.26-.46-.33-.77l-.11-1.52c-.42.42-.88.81-1.38,1.17-.51.36-1.05.68-1.63.95-.58.27-1.2.48-1.86.62s-1.33.22-2.02.22c-1.07,0-2.1-.14-3.1-.42-.99-.28-1.92-.67-2.79-1.18-.87-.51-1.66-1.11-2.36-1.83s-1.31-1.5-1.82-2.37c-.51-.87-.9-1.8-1.18-2.8-.28-1-.42-2.04-.42-3.12s.14-2.12.42-3.12c.28-1,.67-1.93,1.18-2.8.5-.87,1.11-1.66,1.82-2.36.71-.71,1.5-1.31,2.36-1.82.87-.51,1.8-.9,2.79-1.18.99-.28,2.02-.42,3.1-.42.76,0,1.49.08,2.18.24.69.16,1.34.39,1.94.68s1.16.64,1.67,1.05.98.86,1.39,1.35l.25-1.91c.06-.21.12-.39.17-.53.05-.14.12-.25.2-.33.08-.08.18-.14.29-.17.12-.03.27-.04.45-.04h1.78c.19,0,.38.02.57.05.19.04.36.09.52.17.15.08.28.18.37.32.09.14.13.31.13.51v20.61Zm-18.56-10.29c0,.95.17,1.85.5,2.7s.8,1.6,1.39,2.24c.59.64,1.29,1.15,2.1,1.53s1.68.56,2.63.56,1.86-.19,2.7-.56c.84-.37,1.57-.88,2.19-1.53.62-.64,1.11-1.39,1.46-2.24.36-.85.54-1.75.54-2.7s-.18-1.83-.54-2.68c-.36-.85-.85-1.6-1.46-2.24-.62-.64-1.35-1.15-2.19-1.53-.84-.38-1.74-.57-2.7-.57s-1.83.19-2.63.57c-.8.38-1.5.89-2.1,1.53-.59.64-1.06,1.39-1.39,2.24-.33.85-.5,1.75-.5,2.68Z"/>
        <path class="cls-5" d="m286.75,180.2c0-.34.12-.61.35-.79.23-.18.49-.27.76-.27h2.27c.3,0,.53.09.68.27.16.18.27.4.36.66s.14.54.18.85.08.58.13.83c.26-.37.56-.73.88-1.08.33-.35.7-.66,1.12-.94.42-.27.89-.49,1.41-.66.52-.17,1.12-.25,1.78-.25.59,0,1.13.04,1.61.12.48.08.93.2,1.36.36s.86.37,1.28.62c.42.26.86.56,1.34.9.2.13.38.28.53.45.15.17.22.36.22.59-.01.1-.03.2-.05.3s-.07.21-.14.32l-1.46,2.32c-.1.12-.21.21-.33.26s-.23.08-.33.08c-.19,0-.37-.05-.55-.14-.39-.21-.75-.42-1.07-.61-.32-.19-.64-.35-.95-.49-.31-.14-.63-.24-.95-.32-.33-.08-.69-.12-1.1-.12-1.06,0-1.95.34-2.68,1.02-.73.68-1.22,1.61-1.47,2.8v13.45c0,.71-.37,1.07-1.11,1.07h-2.94c-.74,0-1.11-.36-1.11-1.07v-20.54Z"/>
      </g>
      <g>
        <path class="cls-5" d="m240.44,169.67c-.2-.21-.42-.37-.64-.48-.22-.11-.49-.16-.8-.16s-.56.05-.78.16c-.22.11-.41.26-.56.45-.15.19-.26.41-.34.66s-.11.51-.11.77.04.52.13.76.22.45.38.63c.16.18.36.32.58.42.23.1.48.15.77.15.31,0,.57-.05.79-.16.22-.11.42-.27.61-.48l.78.78c-.28.32-.61.54-.99.68-.38.14-.78.21-1.2.21-.45,0-.85-.07-1.22-.22-.37-.15-.69-.35-.96-.61-.27-.26-.47-.58-.62-.95-.15-.37-.22-.78-.22-1.22s.07-.86.22-1.23c.15-.37.35-.69.62-.96.26-.27.58-.48.95-.63.37-.15.78-.23,1.24-.23.42,0,.83.08,1.21.23.39.15.72.38,1,.69l-.83.76Z"/>
        <path class="cls-5" d="m241.9,171.02c0-.42.08-.82.24-1.18.16-.37.37-.69.65-.96s.6-.49.97-.65c.37-.16.78-.24,1.21-.24s.83.08,1.21.24c.37.16.7.38.97.65.28.28.49.6.65.96.16.36.24.76.24,1.18s-.08.82-.24,1.19c-.16.37-.38.69-.65.96-.28.27-.6.49-.97.65s-.78.24-1.21.24-.83-.08-1.21-.24-.7-.37-.97-.65c-.28-.27-.49-.59-.65-.96-.16-.37-.24-.77-.24-1.19Zm1.17,0c0,.29.04.56.13.81s.22.46.38.63c.16.17.36.31.6.41.23.1.5.15.79.15s.56-.05.79-.15c.24-.1.43-.24.6-.41s.29-.39.38-.63.13-.52.13-.81-.04-.56-.13-.81-.22-.46-.38-.63-.36-.31-.6-.41c-.23-.1-.5-.15-.79-.15s-.56.05-.79.15c-.24.1-.44.24-.6.41-.16.17-.29.39-.38.63s-.13.52-.13.81Z"/>
        <path class="cls-5" d="m249.84,169.09h-1.24v-.95h1.24v-1.29c0-.77.15-1.35.44-1.72s.81-.57,1.53-.57c.12,0,.25,0,.38.01.13,0,.28.03.43.07l-.12.97c-.11-.04-.21-.07-.3-.09-.1-.02-.2-.02-.32-.02-.2,0-.37.03-.49.09-.12.06-.22.15-.29.26-.07.11-.11.25-.13.41-.02.16-.03.34-.03.54v1.33h1.3v.95h-1.32v4.82h-1.1v-4.82Z"/>
        <path class="cls-5" d="m253.68,169.09h-1.24v-.95h1.24v-1.29c0-.77.15-1.35.44-1.72s.81-.57,1.53-.57c.12,0,.25,0,.38.01.13,0,.28.03.43.07l-.12.97c-.11-.04-.21-.07-.3-.09-.1-.02-.2-.02-.32-.02-.2,0-.37.03-.49.09-.12.06-.22.15-.29.26-.07.11-.11.25-.13.41-.02.16-.03.34-.03.54v1.33h1.3v.95h-1.32v4.82h-1.1v-4.82Z"/>
        <path class="cls-5" d="m258.14,171.43c0,.25.05.48.16.69.11.21.25.38.43.53.18.15.39.26.62.34.23.08.48.12.73.12.34,0,.64-.08.89-.24.25-.16.48-.37.69-.63l.83.63c-.61.79-1.46,1.18-2.56,1.18-.45,0-.87-.08-1.24-.23-.37-.15-.68-.37-.94-.64-.26-.27-.45-.59-.59-.96-.14-.37-.21-.77-.21-1.2s.07-.83.22-1.2c.15-.37.36-.69.62-.96.26-.27.58-.49.94-.64.36-.15.76-.23,1.19-.23.51,0,.94.09,1.3.27.35.18.64.41.87.7.23.29.39.61.49.97.1.36.15.73.15,1.1v.39h-4.63Zm3.46-.88c0-.24-.05-.47-.12-.67-.07-.2-.17-.38-.31-.53-.14-.15-.31-.27-.52-.35s-.45-.13-.72-.13-.51.05-.74.15c-.22.1-.41.23-.57.4-.15.16-.27.34-.36.54-.09.2-.13.4-.13.59h3.46Z"/>
        <path class="cls-5" d="m264.91,171.43c0,.25.05.48.16.69.11.21.25.38.43.53.18.15.39.26.62.34.23.08.48.12.73.12.34,0,.64-.08.89-.24.25-.16.48-.37.69-.63l.83.63c-.61.79-1.46,1.18-2.56,1.18-.45,0-.87-.08-1.24-.23-.37-.15-.68-.37-.94-.64-.26-.27-.45-.59-.59-.96-.14-.37-.21-.77-.21-1.2s.07-.83.22-1.2c.15-.37.36-.69.62-.96.26-.27.58-.49.94-.64.36-.15.76-.23,1.19-.23.51,0,.94.09,1.3.27.35.18.64.41.87.7.23.29.39.61.49.97.1.36.15.73.15,1.1v.39h-4.63Zm3.46-.88c0-.24-.05-.47-.12-.67-.07-.2-.17-.38-.31-.53-.14-.15-.31-.27-.52-.35s-.45-.13-.72-.13-.51.05-.74.15c-.22.1-.41.23-.57.4-.15.16-.27.34-.36.54-.09.2-.13.4-.13.59h3.46Z"/>
        <path class="cls-5" d="m274.24,164.7h1.1v4.26h.02c.2-.3.47-.54.84-.71s.76-.26,1.17-.26c.45,0,.85.08,1.21.23.36.15.67.37.93.64.26.27.45.59.59.96.14.37.21.77.21,1.2s-.07.83-.21,1.19-.33.69-.59.96c-.26.28-.56.49-.93.65-.36.15-.77.23-1.21.23-.39,0-.77-.09-1.14-.26-.37-.17-.66-.41-.87-.72h-.02v.83h-1.1v-9.21Zm3,8.33c.29,0,.56-.05.79-.15.24-.1.43-.24.6-.41s.29-.39.38-.63.13-.52.13-.81-.04-.56-.13-.81-.22-.46-.38-.63-.36-.31-.6-.41c-.24-.1-.5-.15-.79-.15s-.56.05-.79.15c-.24.1-.44.24-.6.41-.16.17-.29.39-.38.63-.09.25-.13.52-.13.81s.04.56.13.81c.09.25.22.46.38.63.16.17.36.31.6.41.23.1.5.15.79.15Z"/>
        <path class="cls-5" d="m282.51,171.43c0,.25.05.48.16.69.11.21.25.38.43.53.18.15.39.26.62.34.23.08.48.12.73.12.34,0,.64-.08.89-.24.25-.16.48-.37.69-.63l.83.63c-.61.79-1.46,1.18-2.56,1.18-.45,0-.87-.08-1.24-.23-.37-.15-.68-.37-.94-.64-.26-.27-.45-.59-.59-.96-.14-.37-.21-.77-.21-1.2s.07-.83.22-1.2c.15-.37.36-.69.62-.96.26-.27.58-.49.94-.64.36-.15.76-.23,1.19-.23.51,0,.94.09,1.3.27.35.18.64.41.87.7.23.29.39.61.49.97.1.36.15.73.15,1.1v.39h-4.63Zm3.46-.88c0-.24-.05-.47-.12-.67-.07-.2-.17-.38-.31-.53-.14-.15-.31-.27-.52-.35s-.45-.13-.72-.13-.51.05-.74.15c-.22.1-.41.23-.57.4-.15.16-.27.34-.36.54-.09.2-.13.4-.13.59h3.46Z"/>
        <path class="cls-5" d="m288.47,168.84c.31-.28.67-.5,1.07-.64.41-.14.81-.21,1.22-.21s.79.05,1.09.16c.3.11.55.25.75.43.19.18.34.38.43.61.09.23.14.47.14.73v2.95c0,.2,0,.39.01.56,0,.17.02.33.04.49h-.97c-.02-.29-.04-.58-.04-.88h-.02c-.24.37-.53.64-.86.79-.33.15-.72.23-1.16.23-.27,0-.52-.04-.77-.11s-.46-.18-.64-.33c-.18-.15-.33-.33-.43-.54-.11-.22-.16-.46-.16-.75,0-.37.08-.69.25-.94.17-.25.39-.46.68-.61s.63-.27,1.01-.34c.39-.07.8-.1,1.24-.1h.8v-.24c0-.15-.03-.29-.09-.44-.06-.15-.14-.28-.26-.4s-.26-.21-.43-.28c-.17-.07-.37-.1-.61-.1-.21,0-.4.02-.56.06-.16.04-.3.09-.43.15-.13.06-.25.13-.35.21-.11.08-.21.16-.3.23l-.66-.68Zm3.09,2.29c-.26,0-.53.01-.8.04-.27.03-.52.08-.74.16-.22.08-.41.2-.55.34-.14.15-.21.33-.21.56,0,.33.11.57.33.72.22.15.53.22.91.22.3,0,.56-.05.77-.15.21-.1.38-.23.51-.4s.22-.34.28-.54.09-.4.09-.59v-.37h-.58Z"/>
        <path class="cls-5" d="m294.77,168.14h1.1v.89h.02c.07-.15.17-.29.29-.42s.26-.23.41-.32c.15-.09.31-.16.49-.21s.36-.08.54-.08.34.02.49.07l-.05,1.18c-.09-.02-.18-.04-.27-.06-.09-.02-.18-.02-.27-.02-.54,0-.95.15-1.23.45-.28.3-.43.77-.43,1.4v2.9h-1.1v-5.77Z"/>
      </g>
    </g>
  </g>
  <g>
    <g>
      <path class="cls-5" d="m468.43,137.8c-1.64-.44-2.98-1.6-4.01-3.47-.7-1.28-1.07-2.55-1.1-3.81-.03-1.26.28-2.41.92-3.46.64-1.04,1.57-1.9,2.79-2.57.99-.55,2.05-.89,3.17-1.04l.79,2.58c-1.02.08-1.91.32-2.67.74-1.09.6-1.75,1.43-2,2.49-.24,1.06-.04,2.18.61,3.37.66,1.21,1.51,1.96,2.55,2.27,1.04.3,2.15.13,3.33-.52.78-.43,1.46-.97,2.05-1.62l1.61,1.99c-.69.81-1.59,1.53-2.7,2.14-1.91,1.05-3.69,1.36-5.33.92Z"/>
      <path class="cls-5" d="m479.75,133.57c-.91-.22-1.7-.67-2.36-1.35-.67-.68-1.15-1.55-1.46-2.61-.31-1.06-.36-2.06-.17-2.99s.62-1.73,1.27-2.4,1.49-1.16,2.51-1.45c1.02-.3,1.99-.34,2.89-.12.91.21,1.69.66,2.35,1.33.66.68,1.14,1.54,1.44,2.59.31,1.06.37,2.06.18,3.01-.19.94-.61,1.75-1.26,2.43-.65.68-1.48,1.16-2.49,1.45-1.02.3-1.99.33-2.9.11Zm3.65-3.81c.27-.67.27-1.45.02-2.34s-.68-1.54-1.26-1.95c-.58-.41-1.22-.51-1.93-.31-.71.2-1.2.63-1.47,1.29-.27.65-.28,1.43-.02,2.32.26.89.68,1.55,1.26,1.97.58.42,1.23.53,1.94.32.71-.2,1.2-.64,1.46-1.31Z"/>
      <path class="cls-5" d="m488.36,117.93l4.55-.28c1.32-.08,2.38.17,3.19.75.81.58,1.25,1.42,1.32,2.51.08,1.24-.4,2.23-1.44,2.96,1.47.48,2.24,1.45,2.33,2.89.05.82-.11,1.55-.48,2.21-.37.66-.91,1.19-1.61,1.59-.71.4-1.52.63-2.43.68l-4.59.29-.85-13.6Zm4.21,5.29c.68-.04,1.2-.23,1.55-.57.35-.34.52-.78.48-1.34-.06-1.01-.72-1.47-1.97-1.39l-1.29.08.21,3.29,1.02-.06Zm.65,5.78c.74-.05,1.3-.25,1.69-.62.39-.37.57-.83.54-1.41-.03-.52-.24-.91-.61-1.17-.37-.26-.89-.37-1.56-.33l-1.59.1.22,3.51,1.31-.08Z"/>
      <path class="cls-5" d="m501.18,130.05c-.82-1.11-1.1-2.54-.84-4.26.17-1.12.52-2.06,1.06-2.83.54-.77,1.23-1.32,2.06-1.65.83-.33,1.76-.42,2.78-.27,1.51.23,2.6.88,3.26,1.98.66,1.09.86,2.56.59,4.39-.05.31-.09.54-.12.69l-6.88-1.03c.03.74.26,1.32.69,1.77.43.44,1.06.73,1.88.85.5.07,1.03.09,1.59.04.56-.05,1.06-.15,1.49-.31l.13,2.36c-.58.2-1.21.33-1.89.39-.68.06-1.35.04-2.03-.06-1.69-.25-2.94-.93-3.76-2.05Zm6.39-4.51c.05-.59-.09-1.08-.4-1.48-.31-.4-.77-.64-1.38-.73-.58-.09-1.08.01-1.5.29-.42.28-.72.71-.91,1.29l4.19.62Z"/>
      <path class="cls-5" d="m511.65,132.04c-.28-1.09-.13-2.39.42-3.88.68-1.81,1.65-3.03,2.93-3.63,1.28-.61,2.78-.59,4.5.05.97.36,2.05.94,3.24,1.73l-3.62,9.68-2.57-.96.65-1.55-.08-.03c-.56.48-1.13.79-1.73.93-.6.14-1.2.1-1.8-.13-1.02-.38-1.67-1.12-1.95-2.21Zm4.81-.13c.54-.28,1.11-.71,1.7-1.29l1.2-3.22c-.37-.27-.75-.48-1.16-.63-.77-.29-1.44-.24-2.03.14s-1.07,1.08-1.45,2.1c-.3.8-.42,1.48-.37,2.04.06.55.29.91.7,1.06.4.15.86.08,1.41-.2Z"/>
      <path class="cls-5" d="m526.47,128.06l2.48,1.48-.88,1.48.14.08c.7-.39,1.3-.63,1.8-.71.5-.08,1,.03,1.51.33.21.13.37.25.48.39l-1.86,2.51c-.26-.26-.48-.45-.66-.56-.27-.16-.54-.25-.8-.27-.27-.02-.53.02-.8.1-.26.08-.65.22-1.16.4l-3.18,5.3-2.48-1.48,5.42-9.04Z"/>
    </g>
    <g>
      <path class="cls-5" d="m536.94,158.42c2.07-.85,4-2.39,5.4-4.52,3.28-4.99,2.5-11.3-1.76-14.1-4.26-2.8-10.37-1.03-13.65,3.96-.71,1.08-1.22,2.22-1.55,3.38-7.11-4.94-15.62-8.04-24.89-8.58-11.44-.67-22.17,2.69-30.85,8.82-.43-1.56-1.19-3.1-2.31-4.49-3.76-4.64-10.01-5.81-13.97-2.6-3.96,3.2-4.13,9.57-.37,14.21,1.52,1.88,3.45,3.18,5.47,3.86-5.37,7.31-8.78,16.2-9.34,25.94-.99,17.06,6.94,32.57,19.75,42,1.52,1.12,3.59,1.39,5.25.48,1.34-.73,2.37-2.19,1.58-5.06-.25-.92-.84-1.72-1.62-2.28-11.15-8.02-17.97-21.53-16.72-36.32,1.78-21.12,19.94-37.48,41.13-37.06,23.1.46,40.99,19.99,39.66,42.85-.65,11.24-5.84,21.14-13.68,28.04-1.45,1.28-2.23,3.21-1.86,5.11.29,1.49,1.11,2.31,2.02,2.76,1.52.75,3.35.38,4.64-.72,9.72-8.3,16.18-20.39,16.98-34.15.68-11.72-2.85-22.71-9.27-31.5Z"/>
      <circle class="cls-5" cx="483.55" cy="175.47" r="2.8"/>
      <circle class="cls-5" cx="511.35" cy="175.47" r="2.8"/>
      <path class="cls-5" d="m522.01,193.5s-.45-2.5-1.9-4.34c-.91-1.15-2.53-1.49-3.83-.82-1.93,1-4.29,1.59-6.84,1.59-3.68,0-6.96-1.23-9.13-3.15,1.42-.54,2.39-1.52,2.39-2.65,0-1.71-2.19-3.1-4.89-3.1s-4.89,1.39-4.89,3.1c0,1.21,1.1,2.24,2.68,2.75-2.17,1.86-5.39,3.05-9.01,3.05-2.32,0-4.48-.49-6.3-1.33-1.4-.64-3.05-.57-4.33.28s-2.19,2.09-2.4,3.99c-.5,4.49,2.74,8.36,6.1,9.53,5.17,1.79,4.98-4.52,5.31-6.32,0,0,1.29,4.28,4.38,5.86,3.09,1.58,5.88-1,7.43-4.02l.48-1.62s0,4.97,3.01,5.59c4,.82,5.35-3.69,5.9-5.07,0,0-.35,3.94,2.05,5.16,2.4,1.22,4.44-.23,5.82-4.71,0,0-.82,4.48,2.37,5.03,3.43.6,6.39-4.4,5.61-8.8Z"/>
    </g>
    <g>
      <path class="cls-5" d="m466.01,235.91c-.11-.32-.25-.6-.43-.83-.18-.23-.43-.42-.75-.57-.32-.15-.62-.23-.9-.22-.29,0-.56.06-.81.19-.25.12-.48.3-.69.52-.21.22-.37.47-.51.75-.13.28-.22.57-.24.86-.03.3,0,.58.08.85.08.27.21.51.4.73.19.22.43.4.73.54.32.16.63.23.91.23.29,0,.58-.07.88-.2l.42,1.21c-.46.19-.92.26-1.38.21s-.92-.17-1.36-.39c-.47-.23-.86-.51-1.17-.85-.31-.34-.54-.71-.69-1.12-.15-.41-.2-.85-.17-1.31.03-.46.16-.92.39-1.39.22-.47.51-.86.85-1.18.34-.32.72-.55,1.13-.7.41-.15.85-.21,1.31-.18.46.03.93.16,1.41.39.44.21.83.49,1.15.85.33.35.56.76.7,1.23l-1.25.37Z"/>
      <path class="cls-5" d="m467.65,238.37c.16-.46.4-.86.72-1.2.31-.34.68-.6,1.09-.8.41-.19.85-.3,1.32-.33.47-.03.94.04,1.41.21.47.17.88.41,1.22.73.35.32.62.68.81,1.09.19.41.31.84.34,1.31.03.46-.04.92-.2,1.38-.16.46-.41.86-.72,1.21s-.68.61-1.09.8c-.41.19-.85.3-1.32.33-.47.03-.94-.04-1.41-.21s-.88-.41-1.23-.73c-.35-.32-.62-.68-.81-1.09-.2-.4-.31-.84-.34-1.31-.03-.46.04-.93.2-1.39Zm1.28.46c-.11.32-.17.63-.17.94,0,.3.06.58.17.84s.27.48.49.68c.22.2.49.36.81.48s.63.16.93.14c.3-.02.57-.09.81-.22.24-.13.46-.31.66-.54.19-.24.35-.51.46-.83.11-.32.17-.63.17-.94,0-.31-.06-.59-.17-.84-.11-.25-.27-.48-.49-.68-.22-.2-.49-.36-.81-.47-.32-.12-.63-.16-.93-.14-.3.02-.57.09-.81.22-.25.13-.47.31-.66.55-.19.24-.35.51-.46.83Z"/>
      <path class="cls-5" d="m477.71,239.3l-1.4-.36.27-1.07,1.4.36.37-1.45c.22-.87.55-1.47.99-1.81.44-.34,1.07-.41,1.88-.2.14.03.28.08.43.12.15.05.3.12.47.21l-.42,1.06c-.11-.08-.21-.14-.32-.18-.1-.05-.22-.09-.35-.12-.23-.06-.42-.07-.57-.04-.15.03-.29.1-.4.21s-.2.25-.27.42c-.07.17-.13.37-.19.6l-.38,1.49,1.47.37-.27,1.07-1.48-.38-1.38,5.42-1.23-.32,1.38-5.42Z"/>
      <path class="cls-5" d="m482.63,240.45l-1.42-.26.2-1.08,1.42.26.27-1.47c.16-.88.45-1.5.87-1.87.42-.37,1.04-.48,1.86-.32.14.03.28.06.43.1s.31.1.48.18l-.35,1.08c-.11-.07-.22-.12-.33-.16-.11-.04-.23-.07-.36-.1-.23-.04-.42-.04-.58,0-.15.04-.28.12-.38.24-.1.12-.18.26-.24.44s-.11.38-.15.61l-.28,1.52,1.49.28-.2,1.08-1.5-.28-1.03,5.5-1.25-.23,1.02-5.5Z"/>
      <path class="cls-5" d="m488.06,244.08c-.03.29.01.56.11.81.1.25.25.47.44.66.19.19.42.34.68.46.26.12.54.19.83.22.39.04.74-.02,1.05-.18.31-.15.6-.37.87-.65l.89.82c-.79.84-1.82,1.2-3.08,1.08-.52-.05-.99-.18-1.4-.4-.41-.22-.75-.5-1.01-.84-.27-.34-.46-.73-.58-1.18-.12-.44-.16-.91-.11-1.41.05-.5.18-.95.39-1.36.21-.41.49-.76.82-1.04.34-.28.72-.5,1.16-.63.44-.14.91-.18,1.4-.14.59.06,1.08.21,1.47.45.39.25.7.55.93.91.23.36.38.75.46,1.18.08.43.1.86.06,1.29l-.04.45-5.35-.51Zm4.09-.63c.02-.28,0-.54-.06-.79-.06-.24-.16-.46-.3-.65-.14-.19-.33-.34-.56-.47-.23-.12-.5-.2-.82-.23-.31-.03-.6,0-.87.1-.27.09-.5.23-.7.4-.2.17-.35.37-.48.58-.12.22-.19.44-.21.67l4,.38Z"/>
      <path class="cls-5" d="m496.79,244.65c0,.29.07.56.2.79.13.24.3.44.51.61.21.17.45.29.73.38.27.09.56.13.85.13.4,0,.74-.1,1.03-.29.29-.19.55-.43.79-.74l.97.72c-.69.93-1.68,1.4-2.95,1.42-.53,0-1.01-.07-1.44-.25-.43-.17-.8-.41-1.1-.72-.3-.31-.54-.68-.7-1.11-.17-.43-.25-.89-.26-1.39,0-.5.07-.96.24-1.4.17-.43.4-.81.7-1.13.3-.32.66-.57,1.08-.76.42-.19.88-.28,1.38-.29.59,0,1.1.09,1.51.29.41.2.76.47,1.02.8.27.33.47.7.59,1.12.12.42.19.84.2,1.27v.45s-5.36.09-5.36.09Zm4-1.08c-.01-.28-.06-.54-.15-.77-.08-.23-.21-.44-.37-.61s-.37-.31-.61-.4c-.24-.09-.52-.14-.84-.13-.31,0-.59.07-.85.19-.26.12-.48.28-.65.47-.18.19-.31.4-.41.64s-.14.46-.14.69l4.01-.06Z"/>
      <path class="cls-5" d="m507.81,236.14l1.25-.22.88,4.87h.03c.16-.39.43-.72.81-.99.38-.27.81-.45,1.28-.54.51-.09.99-.09,1.43.02.44.1.84.28,1.19.54.35.26.64.58.87.98.23.39.39.83.48,1.33.09.49.09.96,0,1.41-.08.45-.24.85-.48,1.22s-.54.68-.92.93-.83.42-1.34.51c-.44.08-.9.06-1.35-.06-.46-.12-.84-.33-1.14-.64h-.03s.17.95.17.95l-1.25.23-1.89-10.52Zm5.13,8.9c.33-.06.62-.17.87-.34.25-.16.45-.36.6-.59.15-.23.25-.5.3-.8.05-.3.05-.62-.01-.95-.06-.33-.17-.63-.32-.9-.15-.26-.34-.48-.56-.65-.22-.17-.48-.28-.77-.35-.29-.07-.6-.07-.94-.01-.33.06-.62.17-.87.34s-.45.36-.6.59c-.15.23-.25.5-.3.8-.05.3-.05.62.01.95.06.33.17.63.32.9.15.26.34.48.56.65.22.17.48.28.77.35.29.07.6.07.94.01Z"/>
      <path class="cls-5" d="m519.45,241.62c.09.28.23.51.42.71s.41.34.66.44c.25.1.52.16.81.16.29,0,.57-.03.85-.12.38-.12.68-.31.9-.57.23-.26.41-.57.55-.93l1.14.42c-.41,1.08-1.22,1.81-2.43,2.19-.5.16-.99.21-1.45.17-.46-.04-.88-.17-1.26-.39-.38-.21-.7-.5-.99-.87-.28-.36-.49-.78-.64-1.26-.15-.48-.2-.95-.16-1.41.04-.46.16-.89.36-1.28.2-.39.48-.74.83-1.03.35-.3.77-.52,1.24-.67.57-.18,1.08-.22,1.53-.15.45.08.85.24,1.2.48.35.24.65.55.88.91.24.37.42.76.54,1.17l.13.43-5.13,1.58Zm3.54-2.16c-.09-.27-.21-.5-.36-.7-.15-.2-.32-.36-.53-.48-.2-.12-.44-.19-.69-.21-.26-.02-.54.01-.85.11-.3.09-.55.23-.76.42-.21.19-.38.4-.49.63-.11.23-.19.48-.21.72s0,.48.06.7l3.84-1.18Z"/>
      <path class="cls-5" d="m525.67,236.41c.2-.44.48-.83.85-1.17s.77-.6,1.2-.79c.45-.19.86-.3,1.24-.33.37-.03.7.01.99.11.29.1.54.25.74.46.21.2.37.44.48.71l1.35,3.14c.09.22.18.41.27.59.09.18.17.35.26.5l-1.04.45c-.16-.3-.31-.61-.44-.92h-.03c-.09.52-.27.93-.56,1.25-.29.32-.66.58-1.13.78-.29.12-.57.2-.87.23-.29.03-.57.01-.83-.06-.26-.07-.5-.2-.71-.38-.21-.18-.38-.42-.51-.73-.17-.4-.23-.77-.16-1.11.06-.35.21-.67.45-.97.23-.3.54-.57.92-.83.38-.25.8-.48,1.27-.68l.86-.37-.11-.26c-.07-.16-.16-.3-.29-.43-.13-.13-.28-.23-.45-.3-.18-.07-.37-.11-.58-.1-.21,0-.45.06-.7.17-.23.1-.41.2-.56.32-.15.12-.28.24-.39.36-.11.12-.2.25-.28.39-.07.13-.15.26-.22.39l-1.01-.43Zm4.35,1.03c-.28.12-.55.26-.83.41-.28.16-.52.33-.72.52-.2.19-.34.39-.43.62-.09.22-.07.45.03.69.15.35.38.56.69.61.31.05.66,0,1.07-.18.32-.14.57-.31.75-.51.18-.2.3-.42.37-.66s.08-.47.05-.71c-.03-.24-.09-.46-.18-.67l-.17-.39-.62.27Z"/>
      <path class="cls-5" d="m532.45,232.44l1.12-.6.49.91h.03c-.01-.21.01-.41.07-.6.05-.19.14-.38.24-.55.1-.17.23-.34.39-.49.15-.15.32-.28.5-.38.18-.1.36-.16.54-.19l.6,1.23c-.1.02-.21.05-.31.09-.1.03-.2.07-.29.12-.55.29-.88.68-1.01,1.14-.12.46-.01,1.02.34,1.66l1.6,2.96-1.12.6-3.18-5.9Z"/>
    </g>
  </g>
  <text class="cls-6" transform="translate(80.49 545.13)"><tspan x="0" y="0">without gradient</tspan></text>
</svg>