<?xml version="1.0" encoding="UTF-8"?>
<svg id="Layer_1" data-name="Layer 1" xmlns="http://www.w3.org/2000/svg" xmlns:xlink="http://www.w3.org/1999/xlink" viewBox="0 0 359.78 301.79">
  <defs>
    <style>
      .cls-1 {
        stroke: url(#New_Gradient_Swatch_1-10);
      }

      .cls-1, .cls-2, .cls-3, .cls-4 {
        fill: none;
        stroke-miterlimit: 10;
        stroke-width: 3px;
      }

      .cls-5 {
        fill: #332e2b;
      }

      .cls-6 {
        fill: url(#New_Gradient_Swatch_1);
      }

      .cls-2 {
        stroke: url(#New_Gradient_Swatch_1-8);
      }

      .cls-3 {
        stroke: url(#New_Gradient_Swatch_1-7);
      }

      .cls-4 {
        stroke: url(#New_Gradient_Swatch_1-9);
      }

      .cls-7 {
        fill: url(#New_Gradient_Swatch_1-5);
      }

      .cls-8 {
        fill: url(#New_Gradient_Swatch_1-2);
      }

      .cls-9 {
        fill: url(#New_Gradient_Swatch_1-3);
      }

      .cls-10 {
        fill: url(#New_Gradient_Swatch_1-6);
      }

      .cls-11 {
        fill: url(#New_Gradient_Swatch_1-4);
      }
    </style>
    <linearGradient id="New_Gradient_Swatch_1" data-name="New Gradient Swatch 1" x1="84.23" y1="239.09" x2="122.03" y2="239.09" gradientUnits="userSpaceOnUse">
      <stop offset="0" stop-color="#bc7731"/>
      <stop offset=".49" stop-color="#d6a47c"/>
      <stop offset=".95" stop-color="#7f5936"/>
    </linearGradient>
    <linearGradient id="New_Gradient_Swatch_1-2" data-name="New Gradient Swatch 1" x1="123.15" y1="247.17" x2="153.35" y2="247.17" xlink:href="#New_Gradient_Swatch_1"/>
    <linearGradient id="New_Gradient_Swatch_1-3" data-name="New Gradient Swatch 1" x1="157.26" y1="238.93" x2="193.09" y2="238.93" xlink:href="#New_Gradient_Swatch_1"/>
    <linearGradient id="New_Gradient_Swatch_1-4" data-name="New Gradient Swatch 1" x1="196.82" y1="246.92" x2="226.66" y2="246.92" xlink:href="#New_Gradient_Swatch_1"/>
    <linearGradient id="New_Gradient_Swatch_1-5" data-name="New Gradient Swatch 1" x1="229.96" y1="246.62" x2="260.37" y2="246.62" xlink:href="#New_Gradient_Swatch_1"/>
    <linearGradient id="New_Gradient_Swatch_1-6" data-name="New Gradient Swatch 1" x1="264.74" y1="247.1" x2="285.71" y2="247.1" xlink:href="#New_Gradient_Swatch_1"/>
    <linearGradient id="New_Gradient_Swatch_1-7" data-name="New Gradient Swatch 1" x1="130.54" y1="138.53" x2="180.93" y2="138.53" gradientTransform="translate(-15.97 17.78) rotate(-6.44)" xlink:href="#New_Gradient_Swatch_1"/>
    <linearGradient id="New_Gradient_Swatch_1-8" data-name="New Gradient Swatch 1" x1="195.33" y1="171.85" x2="245.72" y2="171.85" gradientTransform="translate(-15.97 284.01) rotate(6.44) scale(1 -1)" xlink:href="#New_Gradient_Swatch_1"/>
    <linearGradient id="New_Gradient_Swatch_1-9" data-name="New Gradient Swatch 1" x1="129.34" y1="181.07" x2="151.92" y2="181.07" xlink:href="#New_Gradient_Swatch_1"/>
    <linearGradient id="New_Gradient_Swatch_1-10" data-name="New Gradient Swatch 1" x1="29.84" y1="180.07" x2="52.43" y2="180.07" gradientTransform="translate(277.82) rotate(-180) scale(1 -1)" xlink:href="#New_Gradient_Swatch_1"/>
  </defs>
  <g>
    <g>
      <path class="cls-6" d="m121.04,219.48c.25.14.45.32.62.53.16.21.25.45.25.74,0,.23-.06.46-.19.71l-3,5.1c-.35.47-.72.71-1.11.71-.12,0-.27-.03-.43-.08-.17-.05-.33-.13-.49-.23-1.3-.93-2.69-1.65-4.17-2.16-1.48-.51-3.06-.77-4.73-.77-2.1,0-4.03.4-5.78,1.19-1.75.79-3.27,1.87-4.54,3.23-1.28,1.36-2.27,2.96-2.98,4.79-.71,1.83-1.07,3.8-1.07,5.9s.36,4.03,1.07,5.86c.71,1.82,1.71,3.41,2.98,4.77,1.28,1.36,2.79,2.43,4.54,3.21,1.75.78,3.68,1.17,5.78,1.17,1.67,0,3.26-.26,4.77-.77,1.51-.51,2.91-1.24,4.19-2.16.16-.12.33-.21.51-.25.18-.04.32-.07.45-.09.35,0,.71.23,1.08.68l3.06,5.16c.12.25.19.47.19.68,0,.29-.09.53-.26.71-.18.19-.38.36-.6.53-1.94,1.3-4.02,2.3-6.26,3.01-2.24.71-4.59,1.07-7.06,1.07-2.18,0-4.28-.28-6.29-.83-2.01-.56-3.89-1.35-5.64-2.38-1.75-1.03-3.34-2.26-4.77-3.69-1.43-1.43-2.66-3.02-3.69-4.76-1.03-1.74-1.82-3.62-2.38-5.62-.56-2.01-.83-4.11-.83-6.29s.28-4.28.83-6.29c.56-2.01,1.35-3.89,2.38-5.66,1.03-1.76,2.26-3.36,3.69-4.81,1.43-1.44,3.02-2.67,4.77-3.69,1.75-1.02,3.63-1.81,5.64-2.38,2.01-.57,4.11-.85,6.29-.85,2.45,0,4.78.35,6.98,1.04,2.2.69,4.27,1.68,6.21,2.98Z"/>
      <path class="cls-8" d="m123.15,247.18c0-1.4.18-2.74.54-4.04s.87-2.51,1.53-3.63c.66-1.12,1.45-2.14,2.37-3.05.92-.91,1.94-1.7,3.06-2.35,1.12-.65,2.32-1.16,3.6-1.52,1.28-.36,2.62-.54,4.01-.54s2.71.18,4,.54c1.29.36,2.49.87,3.6,1.52,1.11.65,2.13,1.44,3.05,2.35.92.91,1.71,1.93,2.37,3.05.66,1.12,1.17,2.33,1.53,3.63.36,1.3.54,2.64.54,4.04s-.18,2.74-.54,4.03c-.36,1.29-.87,2.49-1.53,3.6-.66,1.11-1.45,2.13-2.37,3.05-.92.92-1.94,1.71-3.05,2.36-1.11.65-2.31,1.16-3.6,1.52-1.29.36-2.62.54-4,.54s-2.73-.18-4.01-.54c-1.28-.36-2.48-.87-3.6-1.52-1.12-.65-2.14-1.44-3.06-2.36-.92-.92-1.71-1.94-2.37-3.05-.66-1.11-1.17-2.31-1.53-3.6s-.54-2.63-.54-4.03Zm6.49,0c0,1.23.21,2.39.64,3.49.43,1.1,1.03,2.05,1.8,2.87.77.81,1.68,1.46,2.73,1.93,1.05.48,2.2.71,3.44.71s2.34-.24,3.37-.71c1.03-.48,1.93-1.12,2.68-1.93.75-.81,1.34-1.77,1.76-2.87.42-1.1.63-2.26.63-3.49s-.21-2.37-.63-3.48c-.42-1.1-1.01-2.08-1.76-2.91-.75-.84-1.65-1.5-2.68-2-1.04-.5-2.16-.75-3.37-.75s-2.39.25-3.44.75c-1.05.5-1.96,1.17-2.73,2-.77.84-1.37,1.81-1.8,2.91s-.64,2.26-.64,3.48Z"/>
      <path class="cls-9" d="m157.26,217.45c0-.97.46-1.45,1.39-1.45h19.32c1.79,0,3.47.34,5.04,1,1.57.67,2.94,1.58,4.1,2.73,1.16,1.15,2.08,2.51,2.75,4.08.67,1.56,1,3.25,1,5.06,0,1.67-.3,3.22-.9,4.66-.6,1.44-1.42,2.71-2.47,3.8.84.62,1.61,1.33,2.29,2.13.68.8,1.26,1.67,1.75,2.59.49.93.87,1.91,1.14,2.95s.41,2.11.41,3.2c0,1.83-.35,3.57-1.03,5.22-.69,1.65-1.63,3.1-2.81,4.35-1.18,1.26-2.58,2.25-4.18,2.98-1.61.73-3.33,1.1-5.16,1.1h-21.25c-.41,0-.75-.11-1-.32-.26-.22-.39-.55-.39-1v-43.08Zm24.68,11.58c0-.78-.14-1.51-.42-2.19-.28-.68-.67-1.27-1.16-1.76-.49-.49-1.09-.88-1.78-1.16-.69-.28-1.45-.42-2.27-.42h-10.12v11.18h10.03c.82,0,1.59-.14,2.29-.43s1.3-.68,1.81-1.19c.5-.5.9-1.1,1.19-1.79.29-.69.43-1.44.43-2.24Zm2.01,18.93c0-.7-.12-1.38-.37-2.05-.25-.67-.59-1.27-1.02-1.81-.43-.54-.95-.98-1.55-1.34-.6-.36-1.25-.6-1.95-.73-.41-.06-.83-.12-1.25-.17-.42-.05-.85-.08-1.28-.08h-10.33v12.54h10.33c.43,0,.86-.02,1.27-.05s.83-.09,1.24-.17c.7-.1,1.35-.34,1.95-.71s1.12-.83,1.56-1.39.79-1.18,1.04-1.87c.25-.69.37-1.42.37-2.18Z"/>
      <path class="cls-11" d="m226.44,251.32c-.55,1.69-1.33,3.23-2.35,4.64-1.02,1.4-2.35,2.61-3.98,3.61-1.76,1.09-3.64,1.78-5.63,2.09-1.99.31-3.94.25-5.85-.19s-3.69-1.21-5.35-2.34c-1.66-1.13-3.05-2.6-4.16-4.4-.72-1.16-1.26-2.37-1.64-3.64-.38-1.26-.6-2.53-.65-3.8s.05-2.54.33-3.8.7-2.45,1.29-3.59c.59-1.14,1.33-2.19,2.24-3.17.9-.98,1.96-1.84,3.18-2.59.99-.61,2.05-1.09,3.16-1.45,1.12-.35,2.25-.58,3.39-.67,1.14-.09,2.29-.05,3.44.11,1.15.17,2.25.47,3.32.91,1.46.62,2.76,1.44,3.91,2.49s2.19,2.33,3.14,3.88c.23.38.41.71.54.98.12.27.17.53.13.77-.03.24-.16.47-.38.71-.22.23-.56.49-1.03.78l-17.38,10.7c.75.84,1.59,1.47,2.51,1.9.92.43,1.87.7,2.83.8.96.1,1.91.04,2.84-.18.93-.22,1.78-.57,2.55-1.04.59-.36,1.12-.77,1.59-1.22.47-.45.88-.92,1.23-1.41s.65-.98.89-1.48c.24-.5.43-.98.56-1.44,0-.01,0-.02,0-.03.07-.24.15-.45.24-.62.09-.17.22-.31.37-.4.12-.07.28-.12.47-.13.2-.01.43.03.68.12.62.21,1.14.39,1.56.52.43.13.78.25,1.06.35.28.1.5.2.66.3.16.1.29.22.37.36.23.37.2.89-.07,1.56Zm-19.59-12.32c-.77.47-1.44,1.08-1.99,1.81-.56.73-.99,1.53-1.3,2.38-.31.86-.49,1.75-.54,2.68-.05.93.06,1.84.31,2.73l13.88-8.54c-.7-.67-1.46-1.2-2.3-1.6-.83-.4-1.69-.65-2.59-.76-.9-.11-1.81-.05-2.74.16-.93.21-1.84.59-2.73,1.14Z"/>
      <path class="cls-7" d="m260.37,259.89c0,.28-.06.5-.17.68-.12.18-.27.31-.45.41-.18.1-.39.17-.63.21s-.49.06-.75.06h-2.88c-.49,0-.83-.13-1.02-.39-.19-.26-.33-.59-.43-.99l-.14-1.96c-.54.54-1.13,1.04-1.78,1.51-.65.47-1.35.87-2.11,1.22-.75.35-1.55.61-2.39.81s-1.71.29-2.6.29c-1.38,0-2.71-.18-3.99-.54-1.28-.36-2.48-.87-3.6-1.52-1.12-.65-2.14-1.44-3.05-2.36s-1.7-1.94-2.35-3.06c-.65-1.12-1.16-2.32-1.52-3.61-.36-1.29-.54-2.63-.54-4.03s.18-2.74.54-4.03c.36-1.29.87-2.49,1.52-3.61.65-1.12,1.43-2.14,2.35-3.05.91-.91,1.93-1.7,3.05-2.35,1.12-.65,2.32-1.16,3.6-1.52,1.28-.36,2.61-.54,3.99-.54.98,0,1.92.1,2.81.31.89.21,1.72.5,2.5.87s1.49.83,2.15,1.36,1.26,1.11,1.8,1.74l.32-2.46c.08-.28.15-.5.22-.68.07-.18.15-.32.25-.43.1-.11.23-.18.38-.22.15-.04.34-.06.58-.06h2.3c.25,0,.49.02.74.07.25.05.47.12.67.22.2.1.36.24.47.41.11.18.17.4.17.66v26.58Zm-23.94-13.28c0,1.23.21,2.39.64,3.49.43,1.1,1.03,2.06,1.8,2.89.77.83,1.67,1.48,2.7,1.97,1.04.48,2.17.73,3.4.73s2.41-.24,3.49-.73c1.08-.48,2.02-1.14,2.82-1.97.8-.83,1.43-1.79,1.89-2.89.46-1.1.69-2.26.69-3.49s-.23-2.37-.69-3.46c-.46-1.1-1.09-2.06-1.89-2.89-.8-.83-1.74-1.49-2.82-1.98-1.08-.49-2.24-.74-3.49-.74s-2.36.25-3.4.74c-1.04.49-1.94,1.15-2.7,1.98-.77.83-1.37,1.79-1.8,2.89-.43,1.1-.64,2.25-.64,3.46Z"/>
      <path class="cls-10" d="m264.74,234.05c0-.44.15-.78.45-1.01.3-.23.63-.35.98-.35h2.93c.38,0,.68.12.88.35.2.23.35.51.46.85s.18.7.23,1.09.1.75.16,1.07c.34-.48.72-.94,1.14-1.39.42-.45.9-.85,1.44-1.21.54-.35,1.14-.64,1.82-.85.68-.21,1.44-.32,2.3-.32.77,0,1.46.05,2.07.15.61.1,1.2.25,1.76.46s1.11.48,1.65.81c.54.33,1.11.72,1.73,1.16.26.17.49.36.68.57.19.22.29.47.29.76-.02.12-.04.25-.07.39s-.09.28-.18.41l-1.89,2.99c-.12.15-.27.26-.43.33s-.3.1-.43.1c-.25,0-.48-.06-.71-.18-.51-.28-.97-.54-1.38-.78-.41-.25-.82-.46-1.22-.63-.4-.18-.81-.31-1.23-.41-.42-.1-.89-.15-1.42-.15-1.37,0-2.52.44-3.46,1.31-.94.87-1.58,2.08-1.9,3.61v17.36c0,.92-.48,1.38-1.43,1.38h-3.79c-.96,0-1.43-.46-1.43-1.38v-26.49Z"/>
    </g>
    <g>
      <path class="cls-5" d="m76.69,58.12c-.76-.79-1.55-1.38-2.38-1.79-.83-.41-1.82-.61-2.97-.61s-2.09.2-2.92.61c-.83.41-1.53.97-2.09,1.68-.56.71-.98,1.53-1.27,2.45-.29.92-.43,1.88-.43,2.88s.17,1.94.5,2.83c.33.89.8,1.67,1.41,2.33.6.66,1.33,1.18,2.18,1.56.84.38,1.8.56,2.86.56,1.15,0,2.13-.2,2.94-.61.82-.41,1.57-1,2.27-1.79l2.9,2.9c-1.06,1.18-2.29,2.03-3.69,2.54-1.41.51-2.9.77-4.47.77-1.66,0-3.18-.27-4.56-.82-1.37-.54-2.56-1.31-3.56-2.29-1-.98-1.77-2.16-2.31-3.54-.54-1.37-.82-2.89-.82-4.56s.27-3.19.82-4.58c.55-1.39,1.31-2.58,2.29-3.58.98-1,2.16-1.77,3.53-2.33,1.38-.56,2.91-.84,4.6-.84,1.57,0,3.08.28,4.51.84,1.43.56,2.68,1.41,3.74,2.56l-3.08,2.81Z"/>
      <path class="cls-5" d="m82.13,63.15c0-1.57.3-3.04.89-4.4.59-1.36,1.39-2.55,2.42-3.58,1.03-1.03,2.24-1.84,3.63-2.42,1.39-.59,2.88-.89,4.49-.89s3.09.3,4.49.89c1.39.59,2.6,1.4,3.63,2.42,1.03,1.03,1.84,2.22,2.42,3.58.59,1.36.89,2.83.89,4.4s-.3,3.04-.89,4.42c-.59,1.38-1.4,2.57-2.42,3.58-1.03,1.01-2.24,1.81-3.63,2.4s-2.88.88-4.49.88-3.1-.29-4.49-.88c-1.39-.59-2.6-1.39-3.63-2.4-1.03-1.01-1.84-2.21-2.42-3.58-.59-1.38-.89-2.85-.89-4.42Zm4.35,0c0,1.09.17,2.09.5,3.01.33.92.8,1.71,1.41,2.36.6.65,1.34,1.16,2.22,1.54.87.38,1.86.56,2.95.56s2.07-.19,2.94-.56c.88-.38,1.62-.89,2.22-1.54s1.07-1.43,1.41-2.36.5-1.93.5-3.01-.17-2.09-.5-3.01-.8-1.71-1.41-2.36c-.6-.65-1.34-1.17-2.22-1.54-.87-.38-1.86-.57-2.94-.57s-2.07.19-2.95.57c-.88.38-1.62.89-2.22,1.54-.6.65-1.07,1.43-1.41,2.36-.33.92-.5,1.93-.5,3.01Z"/>
      <path class="cls-5" d="m111.68,55.94h-4.63v-3.54h4.63v-4.8c0-2.87.55-5.01,1.65-6.41,1.1-1.41,3-2.11,5.69-2.11.45,0,.93.01,1.43.04.5.03,1.04.12,1.61.27l-.45,3.63c-.39-.15-.77-.26-1.13-.32-.37-.06-.76-.09-1.18-.09-.76,0-1.36.11-1.81.34-.45.23-.81.55-1.07.98-.26.42-.42.93-.5,1.52-.08.59-.11,1.26-.11,2.02v4.94h4.85v3.54h-4.89v17.95h-4.08v-17.95Z"/>
      <path class="cls-5" d="m125.96,55.94h-4.63v-3.54h4.63v-4.8c0-2.87.55-5.01,1.65-6.41,1.1-1.41,3-2.11,5.69-2.11.45,0,.93.01,1.43.04.5.03,1.04.12,1.61.27l-.45,3.63c-.39-.15-.77-.26-1.13-.32-.37-.06-.76-.09-1.18-.09-.76,0-1.36.11-1.81.34-.45.23-.81.55-1.07.98-.26.42-.42.93-.5,1.52-.08.59-.11,1.26-.11,2.02v4.94h4.85v3.54h-4.89v17.95h-4.08v-17.95Z"/>
      <path class="cls-5" d="m142.54,64.64c0,.94.2,1.79.61,2.56.41.77.94,1.43,1.61,1.97.66.55,1.43.97,2.31,1.27.87.3,1.78.45,2.72.45,1.27,0,2.37-.3,3.31-.89.94-.59,1.8-1.36,2.59-2.33l3.08,2.36c-2.26,2.93-5.44,4.39-9.52,4.39-1.69,0-3.23-.28-4.6-.86-1.38-.58-2.54-1.37-3.49-2.38-.95-1.01-1.68-2.21-2.2-3.58-.51-1.38-.77-2.86-.77-4.46s.28-3.09.84-4.47c.56-1.37,1.33-2.57,2.31-3.58.98-1.01,2.15-1.81,3.51-2.38,1.36-.58,2.84-.86,4.44-.86,1.9,0,3.51.33,4.83,1,1.31.67,2.39,1.53,3.24,2.61.85,1.07,1.46,2.28,1.84,3.63.38,1.35.57,2.71.57,4.1v1.45h-17.23Zm12.87-3.26c-.03-.91-.17-1.74-.43-2.49-.25-.76-.64-1.41-1.15-1.97-.52-.56-1.15-1-1.93-1.31s-1.67-.48-2.7-.48-1.91.19-2.74.56c-.83.38-1.53.87-2.11,1.48-.58.6-1.02,1.28-1.34,2.02-.32.74-.48,1.47-.48,2.2h12.87Z"/>
      <path class="cls-5" d="m167.74,64.64c0,.94.2,1.79.61,2.56.41.77.94,1.43,1.61,1.97.66.55,1.43.97,2.31,1.27.87.3,1.78.45,2.72.45,1.27,0,2.37-.3,3.31-.89.94-.59,1.8-1.36,2.59-2.33l3.08,2.36c-2.26,2.93-5.44,4.39-9.52,4.39-1.69,0-3.23-.28-4.6-.86-1.38-.58-2.54-1.37-3.49-2.38-.95-1.01-1.68-2.21-2.2-3.58-.51-1.38-.77-2.86-.77-4.46s.28-3.09.84-4.47c.56-1.37,1.33-2.57,2.31-3.58.98-1.01,2.15-1.81,3.51-2.38,1.36-.58,2.84-.86,4.44-.86,1.9,0,3.51.33,4.83,1,1.31.67,2.39,1.53,3.24,2.61.85,1.07,1.46,2.28,1.84,3.63.38,1.35.57,2.71.57,4.1v1.45h-17.23Zm12.87-3.26c-.03-.91-.17-1.74-.43-2.49-.25-.76-.64-1.41-1.15-1.97-.52-.56-1.15-1-1.93-1.31s-1.67-.48-2.7-.48-1.91.19-2.74.56c-.83.38-1.53.87-2.11,1.48-.58.6-1.02,1.28-1.34,2.02-.32.74-.48,1.47-.48,2.2h12.87Z"/>
      <path class="cls-5" d="m202.47,39.62h4.08v15.86h.09c.73-1.12,1.77-2,3.13-2.65,1.36-.65,2.81-.97,4.35-.97,1.66,0,3.16.29,4.51.86,1.35.57,2.49,1.36,3.45,2.38.95,1.01,1.69,2.21,2.2,3.58.51,1.38.77,2.87.77,4.47s-.26,3.08-.77,4.44c-.51,1.36-1.25,2.55-2.2,3.58-.95,1.03-2.1,1.83-3.45,2.4-1.34.58-2.85.86-4.51.86-1.45,0-2.87-.32-4.24-.95-1.38-.63-2.46-1.52-3.24-2.67h-.09v3.08h-4.08v-34.27Zm11.15,31c1.09,0,2.07-.19,2.95-.56.88-.38,1.62-.89,2.22-1.54s1.07-1.43,1.41-2.36c.33-.92.5-1.93.5-3.01s-.17-2.09-.5-3.01c-.33-.92-.8-1.71-1.41-2.36-.6-.65-1.34-1.17-2.22-1.54-.88-.38-1.86-.57-2.95-.57s-2.07.19-2.94.57c-.88.38-1.62.89-2.22,1.54-.6.65-1.07,1.43-1.41,2.36-.34.92-.5,1.93-.5,3.01s.16,2.09.5,3.01c.33.92.8,1.71,1.41,2.36.6.65,1.34,1.16,2.22,1.54.87.38,1.86.56,2.94.56Z"/>
      <path class="cls-5" d="m233.24,64.64c0,.94.2,1.79.61,2.56.41.77.94,1.43,1.61,1.97.66.55,1.43.97,2.31,1.27.87.3,1.78.45,2.72.45,1.27,0,2.37-.3,3.31-.89.94-.59,1.8-1.36,2.59-2.33l3.08,2.36c-2.26,2.93-5.44,4.39-9.52,4.39-1.69,0-3.23-.28-4.6-.86-1.38-.58-2.54-1.37-3.49-2.38-.95-1.01-1.68-2.21-2.2-3.58-.51-1.38-.77-2.86-.77-4.46s.28-3.09.84-4.47c.56-1.37,1.33-2.57,2.31-3.58.98-1.01,2.15-1.81,3.51-2.38,1.36-.58,2.84-.86,4.44-.86,1.9,0,3.51.33,4.83,1,1.31.67,2.39,1.53,3.24,2.61.85,1.07,1.46,2.28,1.84,3.63.38,1.35.57,2.71.57,4.1v1.45h-17.23Zm12.87-3.26c-.03-.91-.17-1.74-.43-2.49-.25-.76-.64-1.41-1.15-1.97-.52-.56-1.15-1-1.93-1.31-.77-.32-1.67-.48-2.7-.48s-1.91.19-2.74.56c-.83.38-1.53.87-2.11,1.48-.58.6-1.02,1.28-1.34,2.02-.32.74-.48,1.47-.48,2.2h12.87Z"/>
      <path class="cls-5" d="m255.45,55.03c1.15-1.05,2.48-1.85,3.99-2.38,1.51-.53,3.02-.79,4.53-.79s2.93.2,4.06.59c1.13.39,2.06.92,2.79,1.59.72.66,1.26,1.43,1.61,2.29.35.86.52,1.76.52,2.7v10.97c0,.76.01,1.45.05,2.08.03.64.07,1.24.13,1.81h-3.63c-.09-1.09-.13-2.18-.13-3.26h-.09c-.91,1.39-1.98,2.37-3.22,2.95-1.24.58-2.67.86-4.31.86-1,0-1.95-.13-2.86-.41s-1.7-.68-2.38-1.22c-.68-.54-1.22-1.22-1.61-2.02-.39-.8-.59-1.73-.59-2.78,0-1.39.31-2.56.93-3.49.62-.93,1.46-1.7,2.54-2.29,1.07-.59,2.33-1.01,3.76-1.27,1.43-.26,2.97-.39,4.6-.39h2.99v-.9c0-.55-.11-1.09-.32-1.63-.21-.54-.53-1.03-.95-1.47s-.95-.79-1.59-1.04c-.63-.25-1.39-.38-2.26-.38-.79,0-1.48.07-2.07.23-.59.15-1.13.34-1.61.57-.48.23-.92.49-1.31.79-.39.3-.77.59-1.13.86l-2.45-2.54Zm11.51,8.52c-.97,0-1.95.06-2.97.16-1.01.11-1.93.31-2.76.61-.83.3-1.51.73-2.04,1.27-.53.55-.79,1.24-.79,2.09,0,1.24.41,2.13,1.25,2.67.83.54,1.95.82,3.38.82,1.12,0,2.07-.19,2.86-.57.79-.38,1.42-.87,1.9-1.47.48-.6.83-1.28,1.04-2.02s.32-1.47.32-2.2v-1.36h-2.18Z"/>
      <path class="cls-5" d="m278.89,52.4h4.08v3.31h.09c.27-.58.63-1.1,1.09-1.56.45-.47.96-.87,1.52-1.2.56-.33,1.17-.6,1.83-.79.66-.2,1.33-.3,2-.3s1.27.09,1.81.27l-.18,4.4c-.33-.09-.66-.17-1-.23-.33-.06-.66-.09-1-.09-2,0-3.52.56-4.58,1.67-1.06,1.12-1.59,2.86-1.59,5.21v10.79h-4.08v-21.49Z"/>
    </g>
  </g>
  <line class="cls-3" x1="172.77" y1="88.72" x2="135.86" y2="187.22"/>
  <line class="cls-2" x1="240.88" y1="187.22" x2="203.98" y2="88.72"/>
  <polyline class="cls-4" points="130.81 169.37 134.87 190.26 150.96 176.71"/>
  <polyline class="cls-1" points="246.5 168.37 242.44 189.26 226.36 175.71"/>
</svg>