<?xml version="1.0" encoding="UTF-8"?>
<svg id="Layer_1" data-name="Layer 1" xmlns="http://www.w3.org/2000/svg" xmlns:xlink="http://www.w3.org/1999/xlink" viewBox="0 0 136.34 182.27">
  <defs>
    <style>
      .cls-1 {
        fill: #7f5936;
      }

      .cls-2 {
        fill: #332e2b;
      }

      .cls-3 {
        fill: #231f20;
      }

      .cls-4 {
        fill: url(#New_Gradient_Swatch_1);
      }
    </style>
    <linearGradient id="New_Gradient_Swatch_1" data-name="New Gradient Swatch 1" x1="19.53" y1="91.37" x2="116.81" y2="91.37" gradientUnits="userSpaceOnUse">
      <stop offset="0" stop-color="#bc7731"/>
      <stop offset=".49" stop-color="#d6a47c"/>
      <stop offset=".95" stop-color="#7f5936"/>
    </linearGradient>
  </defs>
  <g>
    <path class="cls-2" d="m38.95,46.29c-1.64-.44-2.98-1.6-4.01-3.47-.7-1.28-1.07-2.55-1.1-3.81-.03-1.26.28-2.41.92-3.46.64-1.04,1.57-1.9,2.79-2.57.99-.55,2.05-.89,3.17-1.04l.79,2.58c-1.02.08-1.91.32-2.67.74-1.09.6-1.75,1.43-2,2.49-.24,1.06-.04,2.18.61,3.37.66,1.21,1.51,1.96,2.55,2.27,1.04.3,2.15.13,3.33-.52.78-.43,1.46-.97,2.05-1.62l1.61,1.99c-.69.81-1.59,1.53-2.7,2.14-1.91,1.05-3.69,1.36-5.33.92Z"/>
    <path class="cls-2" d="m50.26,42.06c-.91-.22-1.7-.67-2.36-1.35-.67-.68-1.15-1.55-1.46-2.61-.31-1.06-.36-2.06-.17-2.99s.62-1.73,1.27-2.4,1.49-1.16,2.51-1.45c1.02-.3,1.99-.34,2.89-.12.91.21,1.69.66,2.35,1.33.66.68,1.14,1.54,1.44,2.59.31,1.06.37,2.06.18,3.01-.19.94-.61,1.75-1.26,2.43-.65.68-1.48,1.16-2.49,1.45-1.02.3-1.99.33-2.9.11Zm3.65-3.81c.27-.67.27-1.45.02-2.34s-.68-1.54-1.26-1.95c-.58-.41-1.22-.51-1.93-.31-.71.2-1.2.63-1.47,1.29-.27.65-.28,1.43-.02,2.32.26.89.68,1.55,1.26,1.97.58.42,1.23.53,1.94.32.71-.2,1.2-.64,1.46-1.31Z"/>
    <path class="cls-2" d="m58.88,26.41l4.55-.28c1.32-.08,2.38.17,3.19.75.81.58,1.25,1.42,1.32,2.51.08,1.24-.4,2.23-1.44,2.96,1.47.48,2.24,1.45,2.33,2.89.05.82-.11,1.55-.48,2.21-.37.66-.91,1.19-1.61,1.59-.71.4-1.52.63-2.43.68l-4.59.29-.85-13.6Zm4.21,5.29c.68-.04,1.2-.23,1.55-.57.35-.34.52-.78.48-1.34-.06-1.01-.72-1.47-1.97-1.39l-1.29.08.21,3.29,1.02-.06Zm.65,5.78c.74-.05,1.3-.25,1.69-.62.39-.37.57-.83.54-1.41-.03-.52-.24-.91-.61-1.17-.37-.26-.89-.37-1.56-.33l-1.59.1.22,3.51,1.31-.08Z"/>
    <path class="cls-2" d="m71.7,38.54c-.82-1.11-1.1-2.54-.84-4.26.17-1.12.52-2.06,1.06-2.83.54-.77,1.23-1.32,2.06-1.65.83-.33,1.76-.42,2.78-.27,1.51.23,2.6.88,3.26,1.98.66,1.09.86,2.56.59,4.39-.05.31-.09.54-.12.69l-6.88-1.03c.03.74.26,1.32.69,1.77.43.44,1.06.73,1.88.85.5.07,1.03.09,1.59.04.56-.05,1.06-.15,1.49-.31l.13,2.36c-.58.2-1.21.33-1.89.39-.68.06-1.35.04-2.03-.06-1.69-.25-2.94-.93-3.76-2.05Zm6.39-4.51c.05-.59-.09-1.08-.4-1.48-.31-.4-.77-.64-1.38-.73-.58-.09-1.08.01-1.5.29-.42.28-.72.71-.91,1.29l4.19.62Z"/>
    <path class="cls-2" d="m82.16,40.53c-.28-1.09-.13-2.39.42-3.88.68-1.81,1.65-3.03,2.93-3.63,1.28-.61,2.78-.59,4.5.05.97.36,2.05.94,3.24,1.73l-3.62,9.68-2.57-.96.65-1.55-.08-.03c-.56.48-1.13.79-1.73.93-.6.14-1.2.1-1.8-.13-1.02-.38-1.67-1.12-1.95-2.21Zm4.81-.13c.54-.28,1.11-.71,1.7-1.29l1.2-3.22c-.37-.27-.75-.48-1.16-.63-.77-.29-1.44-.24-2.03.14s-1.07,1.08-1.45,2.1c-.3.8-.42,1.48-.37,2.04.06.55.29.91.7,1.06.4.15.86.08,1.41-.2Z"/>
    <path class="cls-2" d="m96.98,36.54l2.48,1.48-.88,1.48.14.08c.7-.39,1.3-.63,1.8-.71.5-.08,1,.03,1.51.33.21.13.37.25.48.39l-1.86,2.51c-.26-.26-.48-.45-.66-.56-.27-.16-.54-.25-.8-.27-.27-.02-.53.02-.8.1-.26.08-.65.22-1.16.4l-3.18,5.3-2.48-1.48,5.42-9.04Z"/>
  </g>
  <g>
    <path class="cls-4" d="m107.45,66.9c2.07-.85,4-2.39,5.4-4.52,3.28-4.99,2.5-11.3-1.76-14.1-4.26-2.8-10.37-1.03-13.65,3.96-.71,1.08-1.22,2.22-1.55,3.38-7.11-4.94-15.62-8.04-24.89-8.58-11.44-.67-22.17,2.69-30.85,8.82-.43-1.56-1.19-3.1-2.31-4.49-3.76-4.64-10.01-5.81-13.97-2.6-3.96,3.2-4.13,9.57-.37,14.21,1.52,1.88,3.45,3.18,5.47,3.86-5.37,7.31-8.78,16.2-9.34,25.94-.99,17.06,6.94,32.57,19.75,42,1.52,1.12,3.59,1.39,5.25.48,1.34-.73,2.37-2.19,1.58-5.06-.25-.92-.84-1.72-1.62-2.28-11.15-8.02-17.97-21.53-16.72-36.32,1.78-21.12,19.94-37.48,41.13-37.06,23.1.46,40.99,19.99,39.66,42.85-.65,11.24-5.84,21.14-13.68,28.04-1.45,1.28-2.23,3.21-1.86,5.11.29,1.49,1.11,2.31,2.02,2.76,1.52.75,3.35.38,4.64-.72,9.72-8.3,16.18-20.39,16.98-34.15.68-11.72-2.85-22.71-9.27-31.5Z"/>
    <circle class="cls-1" cx="54.06" cy="83.95" r="2.8"/>
    <circle class="cls-1" cx="81.87" cy="83.95" r="2.8"/>
    <path class="cls-1" d="m92.53,101.99s-.45-2.5-1.9-4.34c-.91-1.15-2.53-1.49-3.83-.82-1.93,1-4.29,1.59-6.84,1.59-3.68,0-6.96-1.23-9.13-3.15,1.42-.54,2.39-1.52,2.39-2.65,0-1.71-2.19-3.1-4.89-3.1s-4.89,1.39-4.89,3.1c0,1.21,1.1,2.24,2.68,2.75-2.17,1.86-5.39,3.05-9.01,3.05-2.32,0-4.48-.49-6.3-1.33-1.4-.64-3.05-.57-4.33.28-1.24.82-2.19,2.09-2.4,3.99-.5,4.49,2.74,8.36,6.1,9.53,5.17,1.79,4.98-4.52,5.31-6.32,0,0,1.29,4.28,4.38,5.86,3.09,1.58,5.88-1,7.43-4.02l.48-1.62s0,4.97,3.01,5.59c4,.82,5.35-3.69,5.9-5.07,0,0-.35,3.94,2.05,5.16,2.4,1.22,4.44-.23,5.82-4.71,0,0-.82,4.48,2.37,5.03,3.43.6,6.39-4.4,5.61-8.8Z"/>
  </g>
  <g>
    <path class="cls-3" d="m36.52,144.4c-.11-.32-.25-.6-.43-.83-.18-.23-.43-.42-.75-.57-.32-.15-.62-.23-.9-.22-.29,0-.56.06-.81.19-.25.12-.48.3-.69.52-.21.22-.37.47-.51.75-.13.28-.22.57-.24.86-.03.3,0,.58.08.85.08.27.21.51.4.73.19.22.43.4.73.54.32.16.63.23.91.23.29,0,.58-.07.88-.2l.42,1.21c-.46.19-.92.26-1.38.21s-.92-.17-1.36-.39c-.47-.23-.86-.51-1.17-.85-.31-.34-.54-.71-.69-1.12-.15-.41-.2-.85-.17-1.31.03-.46.16-.92.39-1.39.22-.47.51-.86.85-1.18.34-.32.72-.55,1.13-.7.41-.15.85-.21,1.31-.18.46.03.93.16,1.41.39.44.21.83.49,1.15.85.33.35.56.76.7,1.23l-1.25.37Z"/>
    <path class="cls-3" d="m38.16,146.85c.16-.46.4-.86.72-1.2.31-.34.68-.6,1.09-.8.41-.19.85-.3,1.32-.33.47-.03.94.04,1.41.21.47.17.88.41,1.22.73.35.32.62.68.81,1.09.19.41.31.84.34,1.31.03.46-.04.92-.2,1.38-.16.46-.41.86-.72,1.21s-.68.61-1.09.8c-.41.19-.85.3-1.32.33-.47.03-.94-.04-1.41-.21s-.88-.41-1.23-.73c-.35-.32-.62-.68-.81-1.09-.2-.4-.31-.84-.34-1.31-.03-.46.04-.93.2-1.39Zm1.28.46c-.11.32-.17.63-.17.94,0,.3.06.58.17.84s.27.48.49.68c.22.2.49.36.81.48s.63.16.93.14c.3-.02.57-.09.81-.22.24-.13.46-.31.66-.54.19-.24.35-.51.46-.83.11-.32.17-.63.17-.94,0-.31-.06-.59-.17-.84-.11-.25-.27-.48-.49-.68-.22-.2-.49-.36-.81-.47-.32-.12-.63-.16-.93-.14-.3.02-.57.09-.81.22-.25.13-.47.31-.66.55-.19.24-.35.51-.46.83Z"/>
    <path class="cls-3" d="m48.23,147.79l-1.4-.36.27-1.07,1.4.36.37-1.45c.22-.87.55-1.47.99-1.81.44-.34,1.07-.41,1.88-.2.14.03.28.08.43.12.15.05.3.12.47.21l-.42,1.06c-.11-.08-.21-.14-.32-.18-.1-.05-.22-.09-.35-.12-.23-.06-.42-.07-.57-.04-.15.03-.29.1-.4.21s-.2.25-.27.42c-.07.17-.13.37-.19.6l-.38,1.49,1.47.37-.27,1.07-1.48-.38-1.38,5.42-1.23-.32,1.38-5.42Z"/>
    <path class="cls-3" d="m53.15,148.94l-1.42-.26.2-1.08,1.42.26.27-1.47c.16-.88.45-1.5.87-1.87.42-.37,1.04-.48,1.86-.32.14.03.28.06.43.1s.31.1.48.18l-.35,1.08c-.11-.07-.22-.12-.33-.16-.11-.04-.23-.07-.36-.1-.23-.04-.42-.04-.58,0-.15.04-.28.12-.38.24-.1.12-.18.26-.24.44s-.11.38-.15.61l-.28,1.52,1.49.28-.2,1.08-1.5-.28-1.03,5.5-1.25-.23,1.02-5.5Z"/>
    <path class="cls-3" d="m58.58,152.57c-.03.29.01.56.11.81.1.25.25.47.44.66.19.19.42.34.68.46.26.12.54.19.83.22.39.04.74-.02,1.05-.18.31-.15.6-.37.87-.65l.89.82c-.79.84-1.82,1.2-3.08,1.08-.52-.05-.99-.18-1.4-.4-.41-.22-.75-.5-1.01-.84-.27-.34-.46-.73-.58-1.18-.12-.44-.16-.91-.11-1.41.05-.5.18-.95.39-1.36.21-.41.49-.76.82-1.04.34-.28.72-.5,1.16-.63.44-.14.91-.18,1.4-.14.59.06,1.08.21,1.47.45.39.25.7.55.93.91.23.36.38.75.46,1.18.08.43.1.86.06,1.29l-.04.45-5.35-.51Zm4.09-.63c.02-.28,0-.54-.06-.79-.06-.24-.16-.46-.3-.65-.14-.19-.33-.34-.56-.47-.23-.12-.5-.2-.82-.23-.31-.03-.6,0-.87.1-.27.09-.5.23-.7.4-.2.17-.35.37-.48.58-.12.22-.19.44-.21.67l4,.38Z"/>
    <path class="cls-3" d="m67.31,153.14c0,.29.07.56.2.79.13.24.3.44.51.61.21.17.45.29.73.38.27.09.56.13.85.13.4,0,.74-.1,1.03-.29.29-.19.55-.43.79-.74l.97.72c-.69.93-1.68,1.4-2.95,1.42-.53,0-1.01-.07-1.44-.25-.43-.17-.8-.41-1.1-.72-.3-.31-.54-.68-.7-1.11-.17-.43-.25-.89-.26-1.39,0-.5.07-.96.24-1.4.17-.43.4-.81.7-1.13.3-.32.66-.57,1.08-.76.42-.19.88-.28,1.38-.29.59,0,1.1.09,1.51.29.41.2.76.47,1.02.8.27.33.47.7.59,1.12.12.42.19.84.2,1.27v.45s-5.36.09-5.36.09Zm4-1.08c-.01-.28-.06-.54-.15-.77-.08-.23-.21-.44-.37-.61s-.37-.31-.61-.4c-.24-.09-.52-.14-.84-.13-.31,0-.59.07-.85.19-.26.12-.48.28-.65.47-.18.19-.31.4-.41.64s-.14.46-.14.69l4.01-.06Z"/>
    <path class="cls-3" d="m78.32,144.63l1.25-.22.88,4.87h.03c.16-.39.43-.72.81-.99.38-.27.81-.45,1.28-.54.51-.09.99-.09,1.43.02.44.1.84.28,1.19.54.35.26.64.58.87.98.23.39.39.83.48,1.33.09.49.09.96,0,1.41-.08.45-.24.85-.48,1.22s-.54.68-.92.93-.83.42-1.34.51c-.44.08-.9.06-1.35-.06-.46-.12-.84-.33-1.14-.64h-.03s.17.95.17.95l-1.25.23-1.89-10.52Zm5.13,8.9c.33-.06.62-.17.87-.34.25-.16.45-.36.6-.59.15-.23.25-.5.3-.8.05-.3.05-.62-.01-.95-.06-.33-.17-.63-.32-.9-.15-.26-.34-.48-.56-.65-.22-.17-.48-.28-.77-.35-.29-.07-.6-.07-.94-.01-.33.06-.62.17-.87.34s-.45.36-.6.59c-.15.23-.25.5-.3.8-.05.3-.05.62.01.95.06.33.17.63.32.9.15.26.34.48.56.65.22.17.48.28.77.35.29.07.6.07.94.01Z"/>
    <path class="cls-3" d="m89.96,150.11c.09.28.23.51.42.71s.41.34.66.44c.25.1.52.16.81.16.29,0,.57-.03.85-.12.38-.12.68-.31.9-.57.23-.26.41-.57.55-.93l1.14.42c-.41,1.08-1.22,1.81-2.43,2.19-.5.16-.99.21-1.45.17-.46-.04-.88-.17-1.26-.39-.38-.21-.7-.5-.99-.87-.28-.36-.49-.78-.64-1.26-.15-.48-.2-.95-.16-1.41.04-.46.16-.89.36-1.28.2-.39.48-.74.83-1.03.35-.3.77-.52,1.24-.67.57-.18,1.08-.22,1.53-.15.45.08.85.24,1.2.48.35.24.65.55.88.91.24.37.42.76.54,1.17l.13.43-5.13,1.58Zm3.54-2.16c-.09-.27-.21-.5-.36-.7-.15-.2-.32-.36-.53-.48-.2-.12-.44-.19-.69-.21-.26-.02-.54.01-.85.11-.3.09-.55.23-.76.42-.21.19-.38.4-.49.63-.11.23-.19.48-.21.72s0,.48.06.7l3.84-1.18Z"/>
    <path class="cls-3" d="m96.18,144.89c.2-.44.48-.83.85-1.17s.77-.6,1.2-.79c.45-.19.86-.3,1.24-.33.37-.03.7.01.99.11.29.1.54.25.74.46.21.2.37.44.48.71l1.35,3.14c.09.22.18.41.27.59.09.18.17.35.26.5l-1.04.45c-.16-.3-.31-.61-.44-.92h-.03c-.09.52-.27.93-.56,1.25-.29.32-.66.58-1.13.78-.29.12-.57.2-.87.23-.29.03-.57.01-.83-.06-.26-.07-.5-.2-.71-.38-.21-.18-.38-.42-.51-.73-.17-.4-.23-.77-.16-1.11.06-.35.21-.67.45-.97.23-.3.54-.57.92-.83.38-.25.8-.48,1.27-.68l.86-.37-.11-.26c-.07-.16-.16-.3-.29-.43-.13-.13-.28-.23-.45-.3-.18-.07-.37-.11-.58-.1-.21,0-.45.06-.7.17-.23.1-.41.2-.56.32-.15.12-.28.24-.39.36-.11.12-.2.25-.28.39-.07.13-.15.26-.22.39l-1.01-.43Zm4.35,1.03c-.28.12-.55.26-.83.41-.28.16-.52.33-.72.52-.2.19-.34.39-.43.62-.09.22-.07.45.03.69.15.35.38.56.69.61.31.05.66,0,1.07-.18.32-.14.57-.31.75-.51.18-.2.3-.42.37-.66s.08-.47.05-.71c-.03-.24-.09-.46-.18-.67l-.17-.39-.62.27Z"/>
    <path class="cls-3" d="m102.96,140.92l1.12-.6.49.91h.03c-.01-.21.01-.41.07-.6.05-.19.14-.38.24-.55.1-.17.23-.34.39-.49.15-.15.32-.28.5-.38.18-.1.36-.16.54-.19l.6,1.23c-.1.02-.21.05-.31.09-.1.03-.2.07-.29.12-.55.29-.88.68-1.01,1.14-.12.46-.01,1.02.34,1.66l1.6,2.96-1.12.6-3.18-5.9Z"/>
  </g>
</svg>