<?xml version="1.0" encoding="UTF-8"?>
<svg id="Layer_1" data-name="Layer 1" xmlns="http://www.w3.org/2000/svg" xmlns:xlink="http://www.w3.org/1999/xlink" viewBox="0 0 235.87 68.91">
  <defs>
    <style>
      .cls-1 {
        fill: #7f5936;
      }

      .cls-2 {
        fill: #332e2b;
      }

      .cls-3 {
        fill: url(#New_Gradient_Swatch_1);
      }
    </style>
    <linearGradient id="New_Gradient_Swatch_1" data-name="New Gradient Swatch 1" x1="0" y1="34.46" x2="60.85" y2="34.46" gradientUnits="userSpaceOnUse">
      <stop offset="0" stop-color="#bc7731"/>
      <stop offset=".49" stop-color="#d6a47c"/>
      <stop offset=".95" stop-color="#7f5936"/>
    </linearGradient>
  </defs>
  <g>
    <circle class="cls-1" cx="23.85" cy="27.88" r="2.02"/>
    <circle class="cls-1" cx="43.83" cy="27.88" r="2.02"/>
    <path class="cls-1" d="m47.46,47.16c2.47.43,4.6-3.16,4.03-6.32,0,0-.32-1.8-1.37-3.12-.66-.84-1.85-1.05-2.81-.56-1.38.7-3.05,1.11-4.86,1.11-2.65,0-5-.88-6.56-2.26,1.02-.39,1.72-1.09,1.72-1.91,0-1.23-1.57-2.23-3.52-2.23s-3.52,1-3.52,2.23c0,.87.79,1.61,1.93,1.98-1.56,1.34-3.88,2.19-6.47,2.19-1.67,0-3.22-.35-4.53-.96-1-.46-2.19-.41-3.11.2-.89.59-1.57,1.5-1.73,2.87-.36,3.23,1.97,6.01,4.39,6.85,3.72,1.28,3.58-3.25,3.82-4.54,0,0,.92,3.08,3.15,4.22,2.22,1.14,4.23-.72,5.34-2.89l.34-1.16s0,3.57,2.16,4.02c2.87.59,3.84-2.66,4.24-3.65,0,0-.25,2.83,1.47,3.71,1.73.88,3.19-.16,4.18-3.38,0,0-.59,3.22,1.71,3.62Z"/>
    <path class="cls-3" d="m57.36,50.73c-1.15.03-2.22.62-2.9,1.55-5.62,7.62-15.08,12.16-25.33,10.92-13.48-1.63-23.84-13.16-24.01-26.73-.2-16.04,13.19-28.62,28.93-27.7,7.6.44,14.29,3.95,18.95,9.25.84.95,2.11,1.47,3.37,1.25,1.63-.29,2.11-1.49,2.24-2.42.08-.62-.09-1.24-.49-1.72-.57-.69-1.17-1.34-1.79-1.98,1.12-.56,2.16-1.41,2.98-2.54,2.36-3.27,2.02-7.55-.77-9.56-2.79-2.02-6.96-1-9.32,2.26-.8,1.1-1.28,2.32-1.47,3.52-4.27-2.18-9.09-3.46-14.23-3.57-7.12-.15-13.81,2.04-19.31,5.86-.04-1.01-.27-2.06-.72-3.07C11.8,2.36,7.92.52,4.78,1.93,1.65,3.34.44,7.46,2.09,11.14c1.06,2.37,3.05,3.97,5.17,4.44C3.14,20.69.5,27.05.07,34.02c-1.14,18.17,12.71,33.78,30.86,34.83,11.5.67,21.95-4.67,28.32-13.29.77-1.04.98-2.45.36-3.59-.38-.7-1.06-1.28-2.25-1.25Z"/>
  </g>
  <g>
    <g>
      <path class="cls-2" d="m108.23,19.87c.19.11.35.25.48.41.13.16.19.35.19.57,0,.18-.05.36-.14.55l-2.32,3.95c-.27.37-.56.55-.86.55-.1,0-.21-.02-.34-.06-.13-.04-.26-.1-.38-.18-1.01-.72-2.08-1.28-3.23-1.68-1.15-.4-2.37-.6-3.66-.6-1.63,0-3.12.31-4.48.92-1.36.62-2.53,1.45-3.52,2.5-.99,1.05-1.76,2.29-2.31,3.71-.55,1.42-.83,2.95-.83,4.58s.28,3.13.83,4.54c.55,1.41,1.32,2.65,2.31,3.7.99,1.05,2.16,1.88,3.52,2.49,1.36.61,2.85.91,4.48.91,1.29,0,2.53-.2,3.7-.6,1.17-.4,2.26-.96,3.25-1.68.13-.1.26-.16.39-.19.14-.03.25-.06.35-.07.27,0,.55.18.84.53l2.37,4c.1.19.14.37.14.53,0,.22-.07.41-.2.55-.14.14-.29.28-.47.41-1.5,1.01-3.12,1.78-4.85,2.34-1.73.55-3.56.83-5.47.83-1.69,0-3.32-.22-4.88-.65-1.56-.43-3.01-1.05-4.37-1.84-1.36-.8-2.59-1.75-3.7-2.86-1.11-1.11-2.06-2.34-2.86-3.69-.8-1.35-1.41-2.8-1.84-4.36-.43-1.56-.65-3.18-.65-4.87s.22-3.32.65-4.88c.43-1.56,1.05-3.02,1.84-4.38.8-1.37,1.75-2.61,2.86-3.72,1.11-1.12,2.34-2.07,3.7-2.86,1.36-.79,2.81-1.4,4.37-1.84,1.56-.44,3.18-.66,4.88-.66,1.9,0,3.7.27,5.41.8,1.71.54,3.31,1.31,4.81,2.31Z"/>
      <path class="cls-2" d="m109.86,41.35c0-1.08.14-2.13.42-3.13s.67-1.94,1.19-2.81c.51-.87,1.12-1.66,1.84-2.36.71-.71,1.5-1.31,2.37-1.82.87-.51,1.8-.9,2.79-1.18.99-.28,2.03-.42,3.11-.42s2.1.14,3.1.42c1,.28,1.93.67,2.79,1.18.86.51,1.65,1.11,2.36,1.82.71.71,1.33,1.5,1.84,2.36.51.87.91,1.81,1.19,2.81.28,1.01.42,2.05.42,3.13s-.14,2.12-.42,3.12c-.28,1-.67,1.93-1.19,2.79-.51.86-1.12,1.65-1.84,2.36-.71.71-1.5,1.32-2.36,1.83-.86.51-1.79.9-2.79,1.18-1,.28-2.03.42-3.1.42s-2.12-.14-3.11-.42c-.99-.28-1.92-.67-2.79-1.18-.87-.51-1.66-1.12-2.37-1.83s-1.33-1.5-1.84-2.36c-.51-.86-.91-1.79-1.19-2.79s-.42-2.04-.42-3.12Zm5.03,0c0,.95.17,1.85.5,2.7.33.85.8,1.59,1.39,2.22.59.63,1.3,1.13,2.11,1.5.82.37,1.7.55,2.67.55s1.81-.18,2.61-.55c.8-.37,1.5-.87,2.08-1.5.58-.63,1.04-1.37,1.36-2.22.33-.85.49-1.75.49-2.7s-.16-1.84-.49-2.69c-.33-.86-.78-1.61-1.36-2.26-.58-.65-1.28-1.17-2.08-1.55-.8-.39-1.67-.58-2.61-.58s-1.85.19-2.67.58c-.81.39-1.52.9-2.11,1.55-.59.65-1.06,1.4-1.39,2.26s-.5,1.75-.5,2.69Z"/>
      <path class="cls-2" d="m136.31,18.3c0-.75.36-1.13,1.08-1.13h14.97c1.39,0,2.69.26,3.91.78s2.28,1.22,3.18,2.12c.9.89,1.61,1.95,2.13,3.16.52,1.21.78,2.52.78,3.93,0,1.29-.23,2.5-.69,3.61-.46,1.12-1.1,2.1-1.92,2.94.65.48,1.24,1.03,1.77,1.65s.98,1.29,1.36,2.01c.38.72.68,1.48.89,2.29s.32,1.63.32,2.48c0,1.42-.27,2.77-.8,4.05-.54,1.28-1.26,2.4-2.18,3.38-.92.97-2,1.74-3.24,2.31-1.24.57-2.58.85-4,.85h-16.47c-.32,0-.58-.08-.78-.25-.2-.17-.3-.43-.3-.78V18.3Zm19.13,8.98c0-.61-.11-1.17-.32-1.7-.22-.53-.52-.98-.9-1.36-.38-.38-.84-.68-1.38-.9-.54-.22-1.12-.32-1.76-.32h-7.84v8.67h7.77c.64,0,1.23-.11,1.77-.34s1.01-.53,1.4-.92c.39-.39.7-.85.92-1.39.22-.53.34-1.11.34-1.74Zm1.56,14.68c0-.54-.1-1.07-.29-1.59-.19-.52-.46-.98-.79-1.4-.34-.41-.74-.76-1.2-1.04-.46-.28-.97-.47-1.51-.56-.32-.05-.64-.09-.97-.13-.33-.04-.66-.06-1-.06h-8.01v9.72h8.01c.34,0,.66-.01.98-.04s.64-.07.96-.13c.54-.08,1.05-.26,1.51-.55s.87-.65,1.21-1.08.61-.91.8-1.45c.19-.53.29-1.1.29-1.69Z"/>
      <path class="cls-2" d="m189.93,44.56c-.42,1.31-1.03,2.51-1.82,3.59-.79,1.09-1.82,2.02-3.09,2.8-1.37.84-2.82,1.38-4.37,1.62-1.54.24-3.05.19-4.53-.14s-2.86-.94-4.15-1.82c-1.29-.88-2.36-2.01-3.22-3.41-.56-.9-.98-1.84-1.28-2.82-.29-.98-.46-1.96-.5-2.95s.04-1.97.25-2.94.54-1.9,1-2.78c.46-.88,1.03-1.7,1.73-2.46.7-.76,1.52-1.43,2.46-2.01.77-.47,1.59-.85,2.45-1.12.86-.27,1.74-.45,2.63-.52.89-.07,1.77-.04,2.66.09.89.13,1.75.37,2.57.71,1.13.48,2.14,1.12,3.03,1.93s1.7,1.81,2.44,3c.18.29.32.55.42.76.1.21.13.41.1.6-.03.18-.12.37-.29.55-.17.18-.43.38-.8.61l-13.48,8.3c.58.65,1.23,1.14,1.94,1.47.72.33,1.45.54,2.19.62.75.08,1.48.03,2.2-.14.72-.17,1.38-.44,1.98-.81.46-.28.87-.6,1.23-.95.36-.35.68-.71.95-1.09s.5-.76.69-1.15c.19-.39.33-.76.43-1.12,0,0,0-.02,0-.02.05-.19.11-.35.19-.48.07-.13.17-.24.29-.31.09-.06.21-.09.37-.1.15-.01.33.02.53.09.48.17.88.3,1.21.41.33.1.6.2.82.27.21.08.38.15.51.23.12.08.22.17.29.28.18.28.16.69-.05,1.21Zm-15.18-9.55c-.6.37-1.11.84-1.55,1.4-.43.57-.77,1.18-1.01,1.85-.24.66-.38,1.36-.42,2.08-.04.72.04,1.43.24,2.11l10.76-6.62c-.54-.52-1.14-.93-1.78-1.24-.64-.31-1.31-.5-2.01-.59-.69-.08-1.4-.04-2.12.12-.72.17-1.43.46-2.12.88Z"/>
      <path class="cls-2" d="m216.23,51.2c0,.21-.04.39-.13.53-.09.14-.21.24-.35.32-.14.08-.31.13-.49.16s-.38.04-.58.04h-2.23c-.38,0-.65-.1-.79-.3-.15-.2-.26-.46-.33-.77l-.11-1.52c-.42.42-.88.81-1.38,1.17-.51.36-1.05.68-1.63.95-.58.27-1.2.48-1.86.62s-1.33.22-2.02.22c-1.07,0-2.1-.14-3.1-.42-.99-.28-1.92-.67-2.79-1.18-.87-.51-1.66-1.11-2.36-1.83s-1.31-1.5-1.82-2.37c-.51-.87-.9-1.8-1.18-2.8-.28-1-.42-2.04-.42-3.12s.14-2.12.42-3.12c.28-1,.67-1.93,1.18-2.8.5-.87,1.11-1.66,1.82-2.36.71-.71,1.5-1.31,2.36-1.82.87-.51,1.8-.9,2.79-1.18.99-.28,2.02-.42,3.1-.42.76,0,1.49.08,2.18.24.69.16,1.34.39,1.94.68s1.16.64,1.67,1.05.98.86,1.39,1.35l.25-1.91c.06-.21.12-.39.17-.53.05-.14.12-.25.2-.33.08-.08.18-.14.29-.17.12-.03.27-.04.45-.04h1.78c.19,0,.38.02.57.05.19.04.36.09.52.17.15.08.28.18.37.32.09.14.13.31.13.51v20.61Zm-18.56-10.29c0,.95.17,1.85.5,2.7.33.85.8,1.6,1.39,2.24.59.64,1.29,1.15,2.1,1.53s1.68.56,2.63.56,1.86-.19,2.7-.56c.84-.37,1.57-.88,2.19-1.53.62-.64,1.11-1.39,1.46-2.24.36-.85.54-1.75.54-2.7s-.18-1.83-.54-2.68c-.36-.85-.85-1.6-1.46-2.24-.62-.64-1.35-1.15-2.19-1.53-.84-.38-1.74-.57-2.7-.57s-1.83.19-2.63.57c-.8.38-1.5.89-2.1,1.53-.59.64-1.06,1.39-1.39,2.24-.33.85-.5,1.75-.5,2.68Z"/>
      <path class="cls-2" d="m219.62,31.17c0-.34.12-.61.35-.79.23-.18.49-.27.76-.27h2.27c.3,0,.53.09.68.27.16.18.27.4.36.66s.14.54.18.85.08.58.13.83c.26-.37.56-.73.88-1.08.33-.35.7-.66,1.12-.94.42-.27.89-.49,1.41-.66.52-.17,1.12-.25,1.78-.25.59,0,1.13.04,1.61.12.48.08.93.2,1.36.36s.86.37,1.28.62c.42.26.86.56,1.34.9.2.13.38.28.53.45.15.17.22.36.22.59-.01.1-.03.2-.05.3s-.07.21-.14.32l-1.46,2.32c-.1.12-.21.21-.33.26s-.23.08-.33.08c-.19,0-.37-.05-.55-.14-.39-.21-.75-.42-1.07-.61-.32-.19-.64-.35-.95-.49-.31-.14-.63-.24-.95-.32-.33-.08-.69-.12-1.1-.12-1.06,0-1.95.34-2.68,1.02-.73.68-1.22,1.61-1.47,2.8v13.45c0,.71-.37,1.07-1.11,1.07h-2.94c-.74,0-1.11-.36-1.11-1.07v-20.54Z"/>
    </g>
    <g>
      <path class="cls-2" d="m173.3,20.64c-.2-.21-.42-.37-.64-.48-.22-.11-.49-.16-.8-.16s-.56.05-.78.16c-.22.11-.41.26-.56.45-.15.19-.26.41-.34.66s-.11.51-.11.77.04.52.13.76.22.45.38.63c.16.18.36.32.58.42.23.1.48.15.77.15.31,0,.57-.05.79-.16.22-.11.42-.27.61-.48l.78.78c-.28.32-.61.54-.99.68-.38.14-.78.21-1.2.21-.45,0-.85-.07-1.22-.22-.37-.15-.69-.35-.96-.61-.27-.26-.47-.58-.62-.95-.15-.37-.22-.78-.22-1.22s.07-.86.22-1.23c.15-.37.35-.69.62-.96.26-.27.58-.48.95-.63.37-.15.78-.23,1.24-.23.42,0,.83.08,1.21.23.39.15.72.38,1,.69l-.83.76Z"/>
      <path class="cls-2" d="m174.77,21.99c0-.42.08-.82.24-1.18.16-.37.37-.69.65-.96s.6-.49.97-.65c.37-.16.78-.24,1.21-.24s.83.08,1.21.24c.37.16.7.38.97.65.28.28.49.6.65.96.16.36.24.76.24,1.18s-.08.82-.24,1.19c-.16.37-.38.69-.65.96-.28.27-.6.49-.97.65s-.78.24-1.21.24-.83-.08-1.21-.24-.7-.37-.97-.65c-.28-.27-.49-.59-.65-.96-.16-.37-.24-.77-.24-1.19Zm1.17,0c0,.29.04.56.13.81s.22.46.38.63c.16.17.36.31.6.41.23.1.5.15.79.15s.56-.05.79-.15c.24-.1.43-.24.6-.41s.29-.39.38-.63.13-.52.13-.81-.04-.56-.13-.81-.22-.46-.38-.63-.36-.31-.6-.41c-.23-.1-.5-.15-.79-.15s-.56.05-.79.15c-.24.1-.44.24-.6.41-.16.17-.29.39-.38.63s-.13.52-.13.81Z"/>
      <path class="cls-2" d="m182.71,20.05h-1.24v-.95h1.24v-1.29c0-.77.15-1.35.44-1.72s.81-.57,1.53-.57c.12,0,.25,0,.38.01.13,0,.28.03.43.07l-.12.97c-.11-.04-.21-.07-.3-.09-.1-.02-.2-.02-.32-.02-.2,0-.37.03-.49.09-.12.06-.22.15-.29.26-.07.11-.11.25-.13.41-.02.16-.03.34-.03.54v1.33h1.3v.95h-1.32v4.82h-1.1v-4.82Z"/>
      <path class="cls-2" d="m186.54,20.05h-1.24v-.95h1.24v-1.29c0-.77.15-1.35.44-1.72s.81-.57,1.53-.57c.12,0,.25,0,.38.01.13,0,.28.03.43.07l-.12.97c-.11-.04-.21-.07-.3-.09-.1-.02-.2-.02-.32-.02-.2,0-.37.03-.49.09-.12.06-.22.15-.29.26-.07.11-.11.25-.13.41-.02.16-.03.34-.03.54v1.33h1.3v.95h-1.32v4.82h-1.1v-4.82Z"/>
      <path class="cls-2" d="m191,22.39c0,.25.05.48.16.69.11.21.25.38.43.53.18.15.39.26.62.34.23.08.48.12.73.12.34,0,.64-.08.89-.24.25-.16.48-.37.69-.63l.83.63c-.61.79-1.46,1.18-2.56,1.18-.45,0-.87-.08-1.24-.23-.37-.15-.68-.37-.94-.64-.26-.27-.45-.59-.59-.96-.14-.37-.21-.77-.21-1.2s.07-.83.22-1.2c.15-.37.36-.69.62-.96.26-.27.58-.49.94-.64.36-.15.76-.23,1.19-.23.51,0,.94.09,1.3.27.35.18.64.41.87.7.23.29.39.61.49.97.1.36.15.73.15,1.1v.39h-4.63Zm3.46-.88c0-.24-.05-.47-.12-.67-.07-.2-.17-.38-.31-.53-.14-.15-.31-.27-.52-.35s-.45-.13-.72-.13-.51.05-.74.15c-.22.1-.41.23-.57.4-.15.16-.27.34-.36.54-.09.2-.13.4-.13.59h3.46Z"/>
      <path class="cls-2" d="m197.77,22.39c0,.25.05.48.16.69.11.21.25.38.43.53.18.15.39.26.62.34.23.08.48.12.73.12.34,0,.64-.08.89-.24.25-.16.48-.37.69-.63l.83.63c-.61.79-1.46,1.18-2.56,1.18-.45,0-.87-.08-1.24-.23-.37-.15-.68-.37-.94-.64-.26-.27-.45-.59-.59-.96-.14-.37-.21-.77-.21-1.2s.07-.83.22-1.2c.15-.37.36-.69.62-.96.26-.27.58-.49.94-.64.36-.15.76-.23,1.19-.23.51,0,.94.09,1.3.27.35.18.64.41.87.7.23.29.39.61.49.97.1.36.15.73.15,1.1v.39h-4.63Zm3.46-.88c0-.24-.05-.47-.12-.67-.07-.2-.17-.38-.31-.53-.14-.15-.31-.27-.52-.35s-.45-.13-.72-.13-.51.05-.74.15c-.22.1-.41.23-.57.4-.15.16-.27.34-.36.54-.09.2-.13.4-.13.59h3.46Z"/>
      <path class="cls-2" d="m207.1,15.67h1.1v4.26h.02c.2-.3.47-.54.84-.71s.76-.26,1.17-.26c.45,0,.85.08,1.21.23.36.15.67.37.93.64.26.27.45.59.59.96.14.37.21.77.21,1.2s-.07.83-.21,1.19-.33.69-.59.96c-.26.28-.56.49-.93.65-.36.15-.77.23-1.21.23-.39,0-.77-.09-1.14-.26-.37-.17-.66-.41-.87-.72h-.02v.83h-1.1v-9.21Zm3,8.33c.29,0,.56-.05.79-.15.24-.1.43-.24.6-.41s.29-.39.38-.63.13-.52.13-.81-.04-.56-.13-.81-.22-.46-.38-.63-.36-.31-.6-.41c-.24-.1-.5-.15-.79-.15s-.56.05-.79.15c-.24.1-.44.24-.6.41-.16.17-.29.39-.38.63-.09.25-.13.52-.13.81s.04.56.13.81c.09.25.22.46.38.63.16.17.36.31.6.41.23.1.5.15.79.15Z"/>
      <path class="cls-2" d="m215.37,22.39c0,.25.05.48.16.69.11.21.25.38.43.53.18.15.39.26.62.34.23.08.48.12.73.12.34,0,.64-.08.89-.24.25-.16.48-.37.69-.63l.83.63c-.61.79-1.46,1.18-2.56,1.18-.45,0-.87-.08-1.24-.23-.37-.15-.68-.37-.94-.64-.26-.27-.45-.59-.59-.96-.14-.37-.21-.77-.21-1.2s.07-.83.22-1.2c.15-.37.36-.69.62-.96.26-.27.58-.49.94-.64.36-.15.76-.23,1.19-.23.51,0,.94.09,1.3.27.35.18.64.41.87.7.23.29.39.61.49.97.1.36.15.73.15,1.1v.39h-4.63Zm3.46-.88c0-.24-.05-.47-.12-.67-.07-.2-.17-.38-.31-.53-.14-.15-.31-.27-.52-.35s-.45-.13-.72-.13-.51.05-.74.15c-.22.1-.41.23-.57.4-.15.16-.27.34-.36.54-.09.2-.13.4-.13.59h3.46Z"/>
      <path class="cls-2" d="m221.34,19.81c.31-.28.67-.5,1.07-.64.41-.14.81-.21,1.22-.21s.79.05,1.09.16c.3.11.55.25.75.43.19.18.34.38.43.61.09.23.14.47.14.73v2.95c0,.2,0,.39.01.56,0,.17.02.33.04.49h-.97c-.02-.29-.04-.58-.04-.88h-.02c-.24.37-.53.64-.86.79-.33.15-.72.23-1.16.23-.27,0-.52-.04-.77-.11s-.46-.18-.64-.33c-.18-.15-.33-.33-.43-.54-.11-.22-.16-.46-.16-.75,0-.37.08-.69.25-.94.17-.25.39-.46.68-.61s.63-.27,1.01-.34c.39-.07.8-.1,1.24-.1h.8v-.24c0-.15-.03-.29-.09-.44-.06-.15-.14-.28-.26-.4s-.26-.21-.43-.28c-.17-.07-.37-.1-.61-.1-.21,0-.4.02-.56.06-.16.04-.3.09-.43.15-.13.06-.25.13-.35.21-.11.08-.21.16-.3.23l-.66-.68Zm3.09,2.29c-.26,0-.53.01-.8.04-.27.03-.52.08-.74.16-.22.08-.41.2-.55.34-.14.15-.21.33-.21.56,0,.33.11.57.33.72.22.15.53.22.91.22.3,0,.56-.05.77-.15.21-.1.38-.23.51-.4s.22-.34.28-.54.09-.4.09-.59v-.37h-.58Z"/>
      <path class="cls-2" d="m227.63,19.1h1.1v.89h.02c.07-.15.17-.29.29-.42s.26-.23.41-.32c.15-.09.31-.16.49-.21s.36-.08.54-.08.34.02.49.07l-.05,1.18c-.09-.02-.18-.04-.27-.06-.09-.02-.18-.02-.27-.02-.54,0-.95.15-1.23.45-.28.3-.43.77-.43,1.4v2.9h-1.1v-5.77Z"/>
    </g>
  </g>
</svg>