<?xml version="1.0" encoding="UTF-8"?>
<svg id="Layer_1" data-name="Layer 1" xmlns="http://www.w3.org/2000/svg" viewBox="0 0 376 323">
  <path d="m77.06,209.76c-1.65-.48-3.26-1.05-4.86-1.68-.18-.07-.79-.34.05.03-.17-.07-.34-.15-.51-.22-.4-.18-.79-.36-1.19-.54-.79-.37-1.58-.77-2.35-1.17-1.57-.83-3.1-1.73-4.59-2.69-.75-.49-1.49-.99-2.23-1.51-.32-.22-.63-.45-.94-.68-.21-.15-.41-.31-.62-.46-.33-.24-.35-.27-.01,0-2.88-2.24-5.58-4.72-8.09-7.37-1.26-1.34-2.48-2.72-3.64-4.14-.29-.36-.57-.72-.86-1.08-.32-.4.06.08.1.13-.16-.21-.32-.42-.47-.63-.55-.73-1.09-1.48-1.61-2.23-2.07-2.98-3.92-6.1-5.51-9.36-.39-.8-.77-1.61-1.13-2.42-.13-.3-.44-1.05-.14-.32-.19-.47-.38-.93-.56-1.4-.63-1.62-1.18-3.27-1.67-4.94-1.16-4.02-1.95-8.18-2.62-12.31-.18-1.1-.35-2.2-.5-3.3.08.62-.07-.53-.09-.7-.08-.63-.15-1.26-.22-1.9-.24-2.21-.43-4.44-.57-6.66-.54-8.75-.29-17.58.87-26.26-.11.85.07-.46.11-.7.07-.49.15-.98.23-1.48.16-.98.33-1.96.52-2.94.38-1.95.82-3.9,1.32-5.82s1.07-3.82,1.72-5.7c.32-.93.66-1.86,1.03-2.78.15-.39.31-.79.48-1.18-.31.74.29-.65.39-.86,1.63-3.6,3.63-6.98,5.95-10.18.09-.12.53-.7.04-.07.12-.15.24-.31.36-.46.28-.35.57-.7.87-1.05.59-.69,1.21-1.37,1.84-2.02,1.27-1.32,2.64-2.53,4.04-3.7.12-.1.67-.53.01-.02.16-.12.31-.24.47-.35.37-.27.74-.54,1.11-.8.75-.52,1.51-1.02,2.29-1.49,1.55-.94,3.17-1.76,4.83-2.5-.8.36.27-.1.53-.21.42-.16.84-.32,1.27-.46.85-.29,1.71-.55,2.57-.78s1.74-.42,2.62-.58c.38-.07.75-.13,1.13-.19-.98.15.38-.03.7-.06,1.78-.16,3.58-.16,5.36,0,.26.02.51.05.77.08.08,0,.72.1.17.02s.06.01.14.03c.23.04.47.08.7.13.82.16,1.63.36,2.43.6s1.58.54,2.36.83c-.74-.27-.11-.04.24.12.43.2.86.42,1.29.64.74.39,1.46.82,2.17,1.27.3.2.6.4.89.6s1.24.97.53.37c1.29,1.08,2.52,2.19,3.64,3.44.28.31.55.63.81.95.11.14.22.28.33.42-.1-.12-.53-.73-.06-.06s.94,1.36,1.36,2.07.81,1.43,1.16,2.17c.17.37.39.94.11.21.16.43.34.87.49,1.31.26.77.48,1.55.66,2.34.08.34.14.68.21,1.02.02.1.14.65.11.69.05-.05-.09-.91-.04-.16.05.82.11,1.62.09,2.44,0,.35-.02.7-.05,1.05-.02.23-.05.47-.06.7,0-.15.15-.99.02-.14-.35,2.32.58,4.95,3.14,5.54,2.34.53,4.91-.7,5.54-3.14.34-1.32.73-2.62,1.18-3.9.23-.66.48-1.31.74-1.95.09-.22.18-.43.27-.65-.45,1.09.17-.36.26-.55,1.22-2.66,2.64-5.22,4.23-7.68.75-1.16,1.53-2.29,2.35-3.4.22-.31.45-.61.68-.91-.62.82.15-.18.23-.29.55-.7,1.12-1.38,1.7-2.06,1.91-2.23,3.96-4.33,6.14-6.3,1.13-1.02,2.3-2,3.49-2.96.98-.79-.72.53.29-.22.2-.15.4-.3.61-.45.71-.52,1.42-1.02,2.15-1.51,2.44-1.64,5-3.11,7.67-4.34.33-.15.66-.29.98-.44-1.02.46.07-.03.24-.1.55-.22,1.1-.43,1.66-.62,1.42-.5,2.87-.94,4.34-1.28.56-.13,1.11-.25,1.67-.35.33-.06.67-.11,1-.17,1.14-.21-1.01.09.14-.02,1.28-.13,2.56-.22,3.85-.22,1.36,0,2.73.07,4.09.18.61.05,1.23.11,1.84.17.38.04.75.08,1.13.12.2.02,1.84.24.71.08,3.02.41,6.02.95,8.99,1.63,2.82.64,5.59,1.43,8.3,2.44.33.12.66.25.98.38.09.03,1.36.55.44.17.72.3,1.44.63,2.15.97,1.31.63,2.6,1.32,3.85,2.06,1.13.67,2.23,1.4,3.3,2.17.17.12.33.25.5.37.87.63-.76-.63.05.04.52.43,1.05.85,1.55,1.3,1.52,1.34,2.93,2.79,4.23,4.34.23.28.46.57.69.85.53.65-.68-.91-.19-.25.12.16.24.32.36.48.43.59.85,1.19,1.26,1.8.87,1.31,1.67,2.67,2.4,4.06.34.64.66,1.29.97,1.95.14.3.28.6.41.9.11.24.21.48.32.73-.2-.47-.19-.46,0,.03,2.31,5.91,3.71,12,4.67,18.26-.14-.95-.03-.27,0-.07.05.37.09.74.14,1.11.09.73.17,1.46.24,2.2.14,1.41.25,2.82.33,4.23.2,3.24.26,6.5.26,9.75,0,7.7-.46,15.41-1.48,23.04.03-.21.1-.71-.03.23-.07.48-.14.95-.21,1.43-.14.95-.29,1.9-.45,2.85-.32,1.9-.67,3.79-1.06,5.68-.66,3.2-1.4,6.37-2.36,9.5-.89,2.91-1.92,5.77-3.08,8.58-.05.11-.56,1.31-.15.37-.1.24-.21.48-.31.72-.32.73-.64,1.45-.98,2.17-.67,1.45-1.38,2.89-2.12,4.3-1.47,2.83-3.08,5.59-4.83,8.26-.86,1.3-1.75,2.58-2.68,3.84-.15.21-.31.41-.46.61-.76,1.02.57-.69-.23.29-.55.68-1.1,1.36-1.67,2.03-1.84,2.14-3.83,4.12-5.97,5.95-.79.68-1.59,1.35-2.39,2.01-.45.37-.9.73-1.35,1.1-.25.2-.82.86-.02.02-.19.2-.5.38-.72.54-2.05,1.53-4.2,2.93-6.45,4.16-1.2.66-2.43,1.27-3.69,1.82-.21.09-1,.43-.14.07-.36.15-.72.3-1.08.44-.88.35-1.78.67-2.68.97-4.48,1.51-9.15,2.53-13.79,3.4-1.25.23-2.5.45-3.75.65-.56.09-1.12.17-1.68.26-.35.05-.69.1-1.04.15-.51.07-.47.07.13-.02-.24.03-.48.06-.72.09-3.16.4-6.33.7-9.5.91-6.57.43-13.16.45-19.74.12-3.24-.16-6.48-.41-9.71-.73-1.57-.16-3.14-.34-4.71-.53-.44-.05-.88-.11-1.31-.17-1.45-.19.89.13-.57-.08-1.05-.15-2.1-.3-3.15-.46-3.62-.56-7.23-1.22-10.82-1.95-2.3-.47-4.97.66-5.54,3.14-.51,2.24.68,5.03,3.14,5.54,25.77,5.26,52.62,6.41,78.35.27,6.17-1.48,12.22-3.58,17.72-6.78,4.51-2.62,8.61-5.94,12.51-9.39,4.76-4.21,8.71-9.38,12.11-14.72,3.63-5.7,6.6-11.79,9.09-18.07,5.46-13.72,7.59-28.8,8.32-43.47.67-13.4.24-27.25-3.42-40.24-2.87-10.17-8.04-20.03-16.38-26.75-10.16-8.19-22.74-11.54-35.48-13.08-5.9-.71-11.72-.7-17.51.82s-11.61,4.38-16.65,7.86c-10.52,7.26-19.58,17.49-24.76,29.24-1.23,2.78-2.3,5.61-3.06,8.55l8.68,2.39c1.27-8.3-1.23-16.01-6.41-22.52-4.67-5.87-11.83-10.31-19.26-11.55-17.11-2.84-33.44,6.9-42.75,20.84-9.91,14.84-12.58,33.83-12.64,51.31-.03,9.71.95,19.43,2.86,28.95,1.6,8,4.22,15.6,8.3,22.7,8.01,13.93,20.41,25.7,35.34,31.84,1.7.7,3.44,1.31,5.2,1.82,2.26.66,5-.8,5.54-3.14s-.72-4.83-3.14-5.54h0Z"/>
  <path d="m127.14,122.41c-1.09,2.64-2.2,5.44-1.79,8.27s2.97,5.55,5.78,5.05c1.77-.32,3.11-1.78,4.06-3.31,1.11-1.79,1.88-3.8,2.25-5.88.27-1.53.31-3.18-.38-4.58-.75-1.5-2.26-2.3-3.81-2.94-1.73-.71-4.6.58-5.45,2.03"/>
  <path d="m75.77,130.18c.02-2.86.09-5.87,1.56-8.32s4.9-3.96,7.29-2.4c1.51.98,2.18,2.85,2.46,4.63.33,2.09.26,4.23-.21,6.29-.35,1.52-.95,3.06-2.13,4.07-1.28,1.09-2.97,1.24-4.65,1.22-1.87-.02-4.01-2.32-4.24-3.99"/>
  <path d="m60.29,155.99c4.52,5.99,10.64,9.81,17.49,12.66,6.09,2.54,12.5,4.28,19.03,5.24,13.62,2,27.61,1.02,40.74-3.23,7.28-2.35,14.3-5.64,20.7-9.84,1.96-1.29,2.98-4.04,1.61-6.16-1.26-1.96-4.05-3-6.16-1.61-2.7,1.78-5.51,3.39-8.41,4.83-1.33.66-2.67,1.28-4.03,1.86.91-.39-.32.13-.42.17-.25.1-.5.2-.75.3-.88.35-1.76.68-2.65.99-2.92,1.04-5.9,1.91-8.91,2.62-1.44.34-2.9.64-4.35.9-.8.14-1.59.28-2.39.4-.4.06-.8.12-1.2.17,1-.13-.19.02-.41.04-6.29.74-12.67.78-18.96.11-.4-.04-.8-.09-1.2-.14.02,0-1.29-.17-.6-.08s-.63-.1-.6-.09c-.4-.06-.8-.12-1.2-.19-1.59-.27-3.18-.58-4.76-.94-3.02-.69-6-1.56-8.92-2.59-.89-.32-1.77-.65-2.64-1-.1-.04-1.33-.55-.41-.16-.37-.16-.74-.32-1.11-.49-1.59-.72-3.15-1.51-4.66-2.4-.8-.48-1.59-.98-2.36-1.52-.33-.23-.65-.46-.97-.71.75.57-.34-.3-.48-.42-.65-.56-1.28-1.15-1.88-1.77-.28-.29-.55-.58-.81-.88-.11-.13-1.12-1.4-.55-.64-1.41-1.87-3.95-3.04-6.16-1.61-1.85,1.19-3.13,4.15-1.61,6.16h0Z"/>
  <path d="m217.64,274.37c-1.65-.48-3.26-1.05-4.86-1.68-.18-.07-.79-.34.05.03-.17-.07-.34-.15-.51-.22-.4-.18-.79-.36-1.19-.54-.79-.37-1.58-.77-2.35-1.17-1.57-.83-3.1-1.73-4.59-2.69-.75-.49-1.49-.99-2.23-1.51-.32-.22-.63-.45-.94-.68-.21-.15-.41-.31-.62-.46-.33-.24-.35-.27-.01,0-2.88-2.24-5.58-4.72-8.09-7.37-1.26-1.34-2.48-2.72-3.64-4.14-.29-.36-.57-.72-.86-1.08-.32-.4.06.08.1.13-.16-.21-.32-.42-.47-.63-.55-.73-1.09-1.48-1.61-2.23-2.07-2.98-3.92-6.1-5.51-9.36-.39-.8-.77-1.61-1.13-2.42-.13-.3-.44-1.05-.14-.32-.19-.47-.38-.93-.56-1.4-.63-1.62-1.18-3.27-1.67-4.94-1.16-4.02-1.95-8.18-2.62-12.31-.18-1.1-.35-2.2-.5-3.3.08.62-.07-.53-.09-.7-.08-.63-.15-1.26-.22-1.9-.24-2.21-.43-4.44-.57-6.66-.54-8.75-.29-17.58.87-26.26-.11.85.07-.46.11-.7.07-.49.15-.98.23-1.48.16-.98.33-1.96.52-2.94.38-1.95.82-3.9,1.32-5.82s1.07-3.82,1.72-5.7c.32-.93.66-1.86,1.03-2.78.15-.39.31-.79.48-1.18-.31.74.29-.65.39-.86,1.63-3.6,3.63-6.98,5.95-10.18.09-.12.53-.7.04-.07.12-.15.24-.31.36-.46.28-.35.57-.7.87-1.05.59-.69,1.21-1.37,1.84-2.02,1.27-1.32,2.64-2.53,4.04-3.7.12-.1.67-.53.01-.02.16-.12.31-.24.47-.35.37-.27.74-.54,1.11-.8.75-.52,1.51-1.02,2.29-1.49,1.55-.94,3.17-1.76,4.83-2.5-.8.36.27-.1.53-.21.42-.16.84-.32,1.27-.46.85-.29,1.71-.55,2.57-.78s1.74-.42,2.62-.58c.38-.07.75-.13,1.13-.19-.98.15.38-.03.7-.06,1.78-.16,3.58-.16,5.36,0,.26.02.51.05.77.08.08,0,.72.1.17.02s.06.01.14.03c.23.04.47.08.7.13.82.16,1.63.36,2.43.6s1.58.54,2.36.83c-.74-.27-.11-.04.24.12.43.2.86.42,1.29.64.74.39,1.46.82,2.17,1.27.3.2.6.4.89.6s1.24.97.53.37c1.29,1.08,2.52,2.19,3.64,3.44.28.31.55.63.81.95.11.14.22.28.33.42-.1-.12-.53-.73-.06-.06s.94,1.36,1.36,2.07.81,1.43,1.16,2.17c.17.37.39.94.11.21.16.43.34.87.49,1.31.26.77.48,1.55.66,2.34.08.34.14.68.21,1.02.02.1.14.65.11.69.05-.05-.09-.91-.04-.16.05.82.11,1.62.09,2.44,0,.35-.02.7-.05,1.05-.02.23-.05.47-.06.7,0-.15.15-.99.02-.14-.35,2.32.58,4.95,3.14,5.54,2.34.53,4.91-.7,5.54-3.14.34-1.32.73-2.62,1.18-3.9.23-.66.48-1.31.74-1.95.09-.22.18-.43.27-.65-.45,1.09.17-.36.26-.55,1.22-2.66,2.64-5.22,4.23-7.68.75-1.16,1.53-2.29,2.35-3.4.22-.31.45-.61.68-.91-.62.82.15-.18.23-.29.55-.7,1.12-1.38,1.7-2.06,1.91-2.23,3.96-4.33,6.14-6.3,1.13-1.02,2.3-2,3.49-2.96.98-.79-.72.53.29-.22.2-.15.4-.3.61-.45.71-.52,1.42-1.02,2.15-1.51,2.44-1.64,5-3.11,7.67-4.34.33-.15.66-.29.98-.44-1.02.46.07-.03.24-.1.55-.22,1.1-.43,1.66-.62,1.42-.5,2.87-.94,4.34-1.28.56-.13,1.11-.25,1.67-.35.33-.06.67-.11,1-.17,1.14-.21-1.01.09.14-.02,1.28-.13,2.56-.22,3.85-.22,1.36,0,2.73.07,4.09.18.61.05,1.23.11,1.84.17.38.04.75.08,1.13.12.2.02,1.84.24.71.08,3.02.41,6.02.95,8.99,1.63,2.82.64,5.59,1.43,8.3,2.44.33.12.66.25.98.38.09.03,1.36.55.44.17.72.3,1.44.63,2.15.97,1.31.63,2.6,1.32,3.85,2.06,1.13.67,2.23,1.4,3.3,2.17.17.12.33.25.5.37.87.63-.76-.63.05.04.52.43,1.05.85,1.55,1.3,1.52,1.34,2.93,2.79,4.23,4.34.23.28.46.57.69.85.53.65-.68-.91-.19-.25.12.16.24.32.36.48.43.59.85,1.19,1.26,1.8.87,1.31,1.67,2.67,2.4,4.06.34.64.66,1.29.97,1.95.14.3.28.6.41.9.11.24.21.48.32.73-.2-.47-.19-.46,0,.03,2.31,5.91,3.71,12,4.67,18.26-.14-.95-.03-.27,0-.07.05.37.09.74.14,1.11.09.73.17,1.46.24,2.2.14,1.41.25,2.82.33,4.23.2,3.24.26,6.5.26,9.75,0,7.7-.46,15.41-1.48,23.04.03-.21.1-.71-.03.23-.07.48-.14.95-.21,1.43-.14.95-.29,1.9-.45,2.85-.32,1.9-.67,3.79-1.06,5.68-.66,3.2-1.4,6.37-2.36,9.5-.89,2.91-1.92,5.77-3.08,8.58-.05.11-.56,1.31-.15.37-.1.24-.21.48-.31.72-.32.73-.64,1.45-.98,2.17-.67,1.45-1.38,2.89-2.12,4.3-1.47,2.83-3.08,5.59-4.83,8.26-.86,1.3-1.75,2.58-2.68,3.84-.15.21-.31.41-.46.61-.76,1.02.57-.69-.23.29-.55.68-1.1,1.36-1.67,2.03-1.84,2.14-3.83,4.12-5.97,5.95-.79.68-1.59,1.35-2.39,2.01-.45.37-.9.73-1.35,1.1-.25.2-.82.86-.02.02-.19.2-.5.38-.72.54-2.05,1.53-4.2,2.93-6.45,4.16-1.2.66-2.43,1.27-3.69,1.82-.21.09-1,.43-.14.07-.36.15-.72.3-1.08.44-.88.35-1.78.67-2.68.97-4.48,1.51-9.15,2.53-13.79,3.4-1.25.23-2.5.45-3.75.65-.56.09-1.12.17-1.68.26-.35.05-.69.1-1.04.15-.51.07-.47.07.13-.02-.24.03-.48.06-.72.09-3.16.4-6.33.7-9.5.91-6.57.43-13.16.45-19.74.12-3.24-.16-6.48-.41-9.71-.73-1.57-.16-3.14-.34-4.71-.53-.44-.05-.88-.11-1.31-.17-1.45-.19.89.13-.57-.08-1.05-.15-2.1-.3-3.15-.46-3.62-.56-7.23-1.22-10.82-1.95-2.3-.47-4.97.66-5.54,3.14-.51,2.24.68,5.03,3.14,5.54,25.77,5.26,52.62,6.41,78.35.27,6.17-1.48,12.22-3.58,17.72-6.78,4.51-2.62,8.61-5.94,12.51-9.39,4.76-4.21,8.71-9.38,12.11-14.72,3.63-5.7,6.6-11.79,9.09-18.07,5.46-13.72,7.59-28.8,8.32-43.47.67-13.4.24-27.25-3.42-40.24-2.87-10.17-8.04-20.03-16.38-26.75-10.16-8.19-22.74-11.54-35.48-13.08-5.9-.71-11.72-.7-17.51.82s-11.61,4.38-16.65,7.86c-10.52,7.26-19.58,17.49-24.76,29.24-1.23,2.78-2.3,5.61-3.06,8.55l8.68,2.39c1.27-8.3-1.23-16.01-6.41-22.52-4.67-5.87-11.83-10.31-19.26-11.55-17.11-2.84-33.44,6.9-42.75,20.84-9.91,14.84-12.58,33.83-12.64,51.31-.03,9.71.95,19.43,2.86,28.95,1.6,8,4.22,15.6,8.3,22.7,8.01,13.93,20.41,25.7,35.34,31.84,1.7.7,3.44,1.31,5.2,1.82,2.26.66,5-.8,5.54-3.14s-.72-4.83-3.14-5.54h0Z"/>
  <path d="m267.73,187.02c-1.09,2.64-2.2,5.44-1.79,8.27s2.97,5.55,5.78,5.05c1.77-.32,3.11-1.78,4.06-3.31,1.11-1.79,1.88-3.8,2.25-5.88.27-1.53.31-3.18-.38-4.58-.75-1.5-2.26-2.3-3.81-2.94-1.73-.71-4.6.58-5.45,2.03"/>
  <path d="m216.36,194.79c.02-2.86.09-5.87,1.56-8.32s4.9-3.96,7.29-2.4c1.51.98,2.18,2.85,2.46,4.63.33,2.09.26,4.23-.21,6.29-.35,1.52-.95,3.06-2.13,4.07-1.28,1.09-2.97,1.24-4.65,1.22-1.87-.02-4.01-2.32-4.24-3.99"/>
  <path d="m200.88,220.6c4.52,5.99,10.64,9.81,17.49,12.66,6.09,2.54,12.5,4.28,19.03,5.24,13.62,2,27.61,1.02,40.74-3.23,7.28-2.35,14.3-5.64,20.7-9.84,1.96-1.29,2.98-4.04,1.61-6.16-1.26-1.96-4.05-3-6.16-1.61-2.7,1.78-5.51,3.39-8.41,4.83-1.33.66-2.67,1.28-4.03,1.86.91-.39-.32.13-.42.17-.25.1-.5.2-.75.3-.88.35-1.76.68-2.65.99-2.92,1.04-5.9,1.91-8.91,2.62-1.44.34-2.9.64-4.35.9-.8.14-1.59.28-2.39.4-.4.06-.8.12-1.2.17,1-.13-.19.02-.41.04-6.29.74-12.67.78-18.96.11-.4-.04-.8-.09-1.2-.14.02,0-1.29-.17-.6-.08s-.63-.1-.6-.09c-.4-.06-.8-.12-1.2-.19-1.59-.27-3.18-.58-4.76-.94-3.02-.69-6-1.56-8.92-2.59-.89-.32-1.77-.65-2.64-1-.1-.04-1.33-.55-.41-.16-.37-.16-.74-.32-1.11-.49-1.59-.72-3.15-1.51-4.66-2.4-.8-.48-1.59-.98-2.36-1.52-.33-.23-.65-.46-.97-.71.75.57-.34-.3-.48-.42-.65-.56-1.28-1.15-1.88-1.77-.28-.29-.55-.58-.81-.88-.11-.13-1.12-1.4-.55-.64-1.41-1.87-3.95-3.04-6.16-1.61-1.85,1.19-3.13,4.15-1.61,6.16h0Z"/>
</svg>