<?xml version="1.0" encoding="UTF-8"?>
<svg id="Layer_1" data-name="Layer 1" xmlns="http://www.w3.org/2000/svg" viewBox="0 0 465.89 459.63">
  <defs>
    <style>
      .cls-1 {
        fill: #efd32e;
      }

      .cls-2 {
        fill: #eab3b3;
      }

      .cls-3 {
        fill: #fff4e6;
      }

      .cls-4 {
        fill: #295976;
      }
    </style>
  </defs>
  <g>
    <circle class="cls-3" cx="193.4" cy="265.95" r="155.01"/>
    <path class="cls-4" d="m193.4,425.66c-88.06,0-159.71-71.65-159.71-159.71S105.33,106.24,193.4,106.24s159.71,71.65,159.71,159.71-71.65,159.71-159.71,159.71Zm0-310.02c-82.88,0-150.31,67.43-150.31,150.31s67.43,150.31,150.31,150.31,150.31-67.43,150.31-150.31-67.43-150.31-150.31-150.31Z"/>
  </g>
  <path class="cls-4" d="m451.05,309.44c-3.3-24.73-12.49-105.18-17.24-122.5-10.85-39.57-38.56-26.93-44.92-28.85-11.71-3.53-18.17-7.59-30.8-15.84-1.35-.88-3.35-2.63-4.39-3.86-7.7-9.03-9.79-11.1-15.23-15.78-.04-.05-2.74-2.65-2.78-2.7-12.45-14.01-72.56-31.91-90.69-37.41-18.13-5.49-111.05-23.94-157.21,21.12,0,0-6.46,4.81-16.29,14.59-9.83,9.79-16.07,19.37-16.07,19.37-9.16,15.08-13.7,27.58-15.69,34.15h0s-7.93,19.01-5.74,42.91c1.88,20.51-1.35,72.73-3.64,85.72-2.71,15.37-19.71,50-25.76,66.21-6.04,16.21-7.83,35.44,5.36,50.83,13.19,15.39,32.01,17.03,49.04,15.39,0,0,24.73-2.47,33.38-10.17,7.2-6.4,10.44-15.39,9.07-21.98-1.29-6.19-9.68-17.23-15.39-22.39-5-4.53-20.88-18.13-26.51-43.82-5.63-25.69-10.1-27.75-9.38-71.43.41-24.74,1.16-40.17,1.73-48.91,11.56,8.67,29.31,12.61,50.19,12.61,12.57,0,24.4-2.78,34.73-7.67,13.18,12.93,31.21,20.92,51.13,20.92,17.32,0,33.2-6.06,45.72-16.13,13.4,15.86,33.41,25.95,55.79,25.95,7.1,0,13.95-1.06,20.44-2.96,1.62,1.18,3.22,2.65,6.52,4.64,6.75,4.07,10.25,21.35,3.32,34.11-1.61,2.97-11.74,16.8-12.93,18.64-3.09,4.81,1.35,1.69,0,3.16-2.41,2.6-.55,3.57,2.47,2.06,1.29-.64,4.98-1.74,8.79-2.78,4.8-1.31,9.25,3.02,8.01,7.84-2.42,9.41-.62,23.07-4.12,29.32-5.22,9.34-24.86,32.05-24.87,32.07,0,0-3.06,4.4-3.06,4.4-8.11,11.67-14.88,23.17-19.74,39.31-4.81,15.97,12.56,27.27,36.3,32.25,22.83,4.79,62.99,10.92,91.01,5.98,22.19-3.92,46.71-15.94,59.89-39.56,13.19-23.63-7.14-84.07-10.44-108.8Z"/>
  <path class="cls-3" d="m294.81,334.87c2.75,12.79,13.78,22.65,26.08,19.43,14.71-3.85,23.99-24.77,20.31-37.32-3.8-12.94-16.97-17.24-29.59-12.99-12.06,4.06-19.55,18.09-16.8,30.88Z"/>
  <g>
    <rect class="cls-1" x="361.5" y="44.96" width="31.54" height="29.14" rx="14.57" ry="14.57" transform="translate(6.9 -33.77) rotate(5.17)"/>
    <path class="cls-4" d="m378.49,78.55c-.58,0-1.16-.03-1.74-.08l-2.38-.22c-5.03-.46-9.58-2.84-12.82-6.72-3.23-3.88-4.76-8.78-4.31-13.81.46-5.03,2.84-9.58,6.72-12.82,3.88-3.23,8.77-4.77,13.81-4.31l2.39.22c10.38.94,18.07,10.15,17.13,20.54-.46,5.03-2.85,9.58-6.72,12.82-3.43,2.86-7.66,4.39-12.07,4.39Zm-2.44-29.36c-2.39,0-4.68.83-6.54,2.37-2.1,1.75-3.39,4.22-3.64,6.94-.25,2.72.58,5.38,2.33,7.48,1.75,2.1,4.22,3.39,6.94,3.64h0l2.38.22c2.73.26,5.37-.58,7.47-2.33,2.1-1.75,3.39-4.21,3.64-6.94.25-2.72-.58-5.38-2.33-7.48-1.75-2.1-4.22-3.39-6.94-3.64l-2.39-.22c-.31-.03-.63-.04-.94-.04Z"/>
  </g>
  <g>
    <path class="cls-1" d="m135.38,82.23s-1.37-10.58,6.87-22.53c8.24-11.95,29.95-34.34,57.97-44.51,28.31-10.27,73.56-13.7,105.64-7.28,28.85,5.77,42.45,12.78,51.51,35.03,8.81,21.62,28.12,31.96,41.3,38.95.89.47,7.16,4.54,8,5.1,5.45,3.59,17.72,14.19,22.4,26.01,6.32,15.94,7.14,40.39-5.22,56.57-9.58,12.53-43.82-.93-62.78-13.71-18.96-12.78-50.14-39.26-67.17-48.63-16.32-8.97-49.54-27.13-105.5-19.58-1.08.15-17.66,2.88-21.22,3.3-7.23.85-28.53,2.18-31.8-8.72Z"/>
    <path class="cls-4" d="m410.74,179.32c-17.1,0-40.27-11.46-52.28-19.55-7.88-5.31-17.57-12.74-27.83-20.62-14.37-11.03-29.24-22.43-38.99-27.8-15.58-8.57-48-26.42-102.61-19.03-.36.05-2.05.32-4.35.69-5.72.92-14.37,2.31-16.96,2.61-9.65,1.13-32.57,2.23-36.85-12.04l-.16-.74c-.07-.5-1.5-12.52,7.66-25.81,8.34-12.09,30.41-35.44,60.24-46.26C228.1.08,274.6-3.13,306.78,3.3c28.54,5.71,44.87,13.13,54.95,37.86,8.21,20.16,26.83,30.04,39.15,36.58,1.24.66,8.32,5.28,8.39,5.32,4.89,3.22,18.78,14.57,24.19,28.2,6.72,16.96,7.76,43.33-5.86,61.15-3.78,4.94-9.8,6.89-16.85,6.89Zm-196.34-98.16c41.84,0,68.02,14.39,81.77,21.96,10.38,5.71,25.53,17.33,40.18,28.57,10.14,7.78,19.72,15.13,27.36,20.28,20.24,13.64,49.91,23.25,56.41,14.75,10.89-14.26,10.55-36.94,4.59-51.98-4-10.09-14.77-19.96-20.62-23.81-1.3-.85-6.83-4.43-7.65-4.88-13.49-7.16-33.92-18.01-43.43-41.32-7.77-19.07-18.55-26.29-48.08-32.19-30.72-6.15-75.04-3.1-103.11,7.09-27.66,10.03-48.53,32.35-55.71,42.76-6.25,9.06-6.22,17-6.1,18.88,2.16,5.35,15.18,6.38,26.62,5.03,2.38-.28,11.26-1.7,16.56-2.56,2.45-.39,4.26-.68,4.59-.73,9.49-1.28,18.36-1.84,26.62-1.84Z"/>
  </g>
  <path class="cls-4" d="m125.63,273.5c3.95,0,7.74-3.47,7.55-7.55s-3.32-7.55-7.55-7.55c-3.95,0-7.74,3.47-7.55,7.55s3.32,7.55,7.55,7.55h0Z"/>
  <path class="cls-4" d="m233.87,279.57c3.95,0,7.74-3.47,7.55-7.55s-3.32-7.55-7.55-7.55c-3.95,0-7.74,3.47-7.55,7.55s3.32,7.55,7.55,7.55h0Z"/>
  <path class="cls-4" d="m148.95,328.75c2.15,4.01,6.58,6.73,10.51,8.77s8.26,3.54,12.7,4.23c10.99,1.71,20.52-2.6,29.16-9.13,1.87-1.41,2.84-3.74,1.56-5.93-1.07-1.84-4.05-2.98-5.93-1.56-6.58,4.97-13.92,9.36-22.47,8.25-3.46-.45-7-1.56-9.82-2.95s-6.79-3.42-8.2-6.06c-2.64-4.92-10.13-.55-7.49,4.38h0Z"/>
  <path class="cls-3" d="m150.05,154.38c-.7,15.48,3.98,31.29,13.19,43.77,2.08,2.82,5.92,4.52,9.19,2.41,2.79-1.8,4.64-6.16,2.41-9.19-2.03-2.75-3.85-5.65-5.41-8.69-.42-.81-.81-1.63-1.19-2.46-.19-.41-.38-.83-.56-1.25.23.55.2.46-.11-.29-.6-1.6-1.19-3.2-1.69-4.84-.5-1.63-.93-3.29-1.29-4.96-.19-.89-.37-1.78-.52-2.68-.08-.45-.15-.9-.22-1.35.07.54.07.58.01.09-.44-3.51-.54-7.04-.38-10.57.16-3.51-3.2-6.87-6.71-6.71-3.77.17-6.54,2.95-6.71,6.71h0Z"/>
  <path class="cls-3" d="m232.19,166.83c2.05,12.9,6.72,25.4,13.49,36.58,1.82,3,6.11,4.39,9.19,2.41,3.02-1.95,4.35-5.97,2.41-9.19-1.62-2.67-3.12-5.41-4.48-8.23-.63-1.31-1.24-2.64-1.81-3.98.53,1.25-.42-1.07-.5-1.29-.26-.68-.52-1.36-.77-2.05-2.1-5.78-3.61-11.75-4.58-17.82-.55-3.48-5.07-5.72-8.26-4.69-3.78,1.22-5.28,4.53-4.69,8.26h0Z"/>
  <path class="cls-3" d="m311.65,192.03c2.05,12.9,6.72,25.4,13.49,36.58,1.82,3,6.11,4.39,9.19,2.41,3.02-1.95,4.35-5.97,2.41-9.19-1.62-2.67-3.12-5.41-4.48-8.23-.63-1.31-1.24-2.64-1.81-3.98.53,1.25-.42-1.07-.5-1.29-.26-.68-.52-1.36-.77-2.05-2.1-5.78-3.61-11.75-4.58-17.82-.55-3.48-5.07-5.72-8.26-4.69-3.78,1.22-5.28,4.53-4.69,8.26h0Z"/>
  <path class="cls-2" d="m256.6,325.42h.05c1.12-.28,1.7-.84,1.73-1.68,0-.31-.13-.61-.4-.89-.26-.28-1.25-.95-2.96-2-1.43-.9-2.47-1.66-3.12-2.28-.9-.87-1.72-2.05-2.47-3.54-.96-1.96-1.44-3.95-1.44-5.97,0-2.92,1.15-5.53,3.45-7.83,2.55-2.55,5.59-3.82,9.14-3.82,2.05,0,3.9.48,5.55,1.44,1.03.62,2.13,1.77,3.31,3.45.5.75.76,1.44.79,2.1.03.78-.34,1.73-1.12,2.84l.05.05c-1,1.4-2.04,2.1-3.12,2.1-.37,0-.89-.08-1.54-.23-1-.25-1.57-1.12-1.73-2.61-.06-.59-.51-.89-1.35-.89-.43,0-.82.11-1.16.33-.34.62-.51,1.24-.51,1.86,0,1.06.5,1.94,1.49,2.66,3.67,2.61,5.83,4.23,6.48,4.85,2.33,2.21,3.57,4.52,3.73,6.94.03.59.08,1.38.14,2.38.06,4.01-2.35,7.13-7.24,9.37-1.84.84-3.58,1.26-5.23,1.26-.25,0-.59-.03-1.03-.09l-.09-.05c-5.98-.96-9.2-3.22-9.67-6.76-.13-.81-.21-1.37-.26-1.7-.05-.33-.07-.43-.07-.3,0-.84.25-1.57.75-2.19.5-.62,1.06-.93,1.69-.93.28,0,1.11.37,2.48,1.1,1.37.73,2.33,1.1,2.86,1.1.22,0,.48-.03.8-.09l.05.05Z"/>
  <path class="cls-2" d="m90.97,293.06h.05c.96-1.3,2.44-1.96,4.43-1.96,2.39,0,3.96.89,4.71,2.66.06.81.09,1.46.09,1.96,0,.62-.06,1.83-.19,3.63-.12,1.8-.19,2.87-.19,3.22.12.28.33.42.61.42.25,0,.42-.12.51-.37-.03-.03-.05-.14-.05-.33,0-1.4.56-3.42,1.68-6.06,1.34-3.17,2.83-4.99,4.47-5.45,3.51-.22,5.87.76,7.08,2.94.43.78.65,1.69.65,2.75,0,2.86-1.01,5.84-3.03,8.95-.68,1.03-1.69,2.56-3.03,4.61.43.72,1.19,2.02,2.28,3.92,2.08,3.76,3.12,6.71,3.12,8.85,0,1.65-.47,3.09-1.4,4.33-.68.93-1.85,1.48-3.49,1.63-1.49.16-3.28-1.51-5.36-4.99-1.52-2.52-2.53-4.61-3.03-6.29-.12-.12-.43-.26-.93-.42l-.33.33c.34,1.99.51,3.56.51,4.71,0,1.99-.37,3.56-1.12,4.71-1.21.93-2.7,1.4-4.47,1.4-1.46,0-2.66-.36-3.59-1.07-2.21-1.68-3.29-6.52-3.26-14.54,0-4.38.33-8.62,1-12.7s1.42-6.36,2.26-6.83Z"/>
</svg>