<?xml version="1.0" encoding="UTF-8"?><svg id="Layer_1" xmlns="http://www.w3.org/2000/svg" viewBox="0 0 602 382.84"><defs><style>.cls-1{fill:#f6e9d4;}.cls-2{fill:#f9efe4;}.cls-3{fill:#f8ede1;}.cls-4{fill:#f8ecdb;}.cls-5{fill:#f8eee3;}.cls-6{fill:#f8eee2;}.cls-7{fill:#e4be47;}.cls-8{fill:#423d3b;}.cls-9{fill:#453f3a;}.cls-10{fill:#3f3c3b;}.cls-11{fill:#536b51;}.cls-12{fill:#47423b;}</style></defs><g><path class="cls-7" d="M171.13,255.02c-3.67,1.93-5.19,2.95-8.11,3.74-5.2,1.42-10.19,3.61-15.56,4.36-4.27,.6-7.82,1.31-12.85,1.66-3.24,.54-5.71,.73-8.56,1.14-3.61,.52-7.22,.33-10.77,.36-7.96,.09-15.99-.33-23.76-2.3-4.86-1.24-9.73-2.43-14.33-4.73-2.41-1.06-4.8-2.37-6.7-3.53-3.36-2.05-5.58-3.58-7.99-5.26-1.91-1.43-3.6-2.97-5.01-4.53-2.37-2.45-4.22-4.53-5.71-7.9-1.42-3.21-2.37-7.78-2.64-11.06-.4-4.94-.1-6.78,.08-9,.61-6.08,2.01-8.94,2.37-9.72,2.57-5.79,6.54-10.98,10.64-15.86,1.92-2.29,4.15-4.33,6.28-6.41,3.75-3.65,6.11-8.26,9.26-12.3,4.37-5.6,6.78-12.42,11.36-17.89,1.01-1.2,1.92-2.58,3.18-3.4,1.74-1.13,1.66-2.27,.9-3.86-1.28-2.65-1.71-5.51-1.84-8.41-.08-1.69,.03-3.36,.64-4.98,1.44-3.76,5.3-4.45,7.87-1.33,2.22,2.69,3.2,5.88,3.53,9.31,.22,2.26,.23,2.2,2.27,1.63,4.85-1.34,9.66-2.85,14.58-3.85,6.12-1.24,12.34-1.37,18.56-.59,.12,.01,.23,.07,.35,.09,4.91,.71,5.04,.57,4.75-4.28-.18-3.06,.14-5.85,2.83-8.08,3.79-3.13,7.1-2.55,9.08,1.99,1.48,3.4,1.54,6.93,.91,10.51-.06,.35-.17,.7-.23,1.06-.68,3.58-.66,3.54,2.76,5.17,4.85,2.31,8.91,5.58,12.41,9.71,6.05,7.12,10.56,15.37,16.78,22.34,3.31,3.71,5.39,8.03,7.44,12.57,3.63,8,4.88,16.2,4.77,24.8-.02,1.86-.68,5.63-.96,7.38-1.24,7.74-5.33,11.9-10.63,17.57-4.14,4.43-8.73,8.23-13.78,11.52-1.18,.87-1.82,1.15-2.73,1.59h.01c-.55,.39-1.45,.76-1.45,.76Z"/><path class="cls-10" d="M123.9,225.1c-4.69,.65-9.55-.64-14.43-2.04-2.65-.76-4.71-2.37-6.81-3.95-.71-.53-1.4-1.52-.75-2.54,.76-1.2,1.75-.78,2.84-.28,3.91,1.81,7.9,3.35,12.19,4.17,2.13,.41,4.05-.34,6.08-.15,7.62,.7,14.81-.75,21.58-4.31,.86-.45,1.67-.94,2.7-.9,.85,.04,1.76-.09,2.2,.85,.39,.84,.08,1.7-.42,2.37-.49,.66-1.12,1.29-1.82,1.7-5.27,3.13-11.06,4.56-17.11,5.03-1.91,.15-3.85,.02-6.24,.02Z"/><path class="cls-8" d="M122.77,208.13c-2.26-.03-4.25-1.77-4.14-3.62,.1-1.73,2.41-3.77,4.25-3.76,2.43,.02,4.38,1.67,4.47,3.8,.08,1.88-2.13,3.61-4.58,3.58Z"/><path class="cls-12" d="M147.78,188.02c.01,2.85-.81,4.07-2.79,4.14-1.92,.06-3.61-1.38-3.45-3.28,.28-3.33,1.07-4.77,3.19-4.72,2.15,.05,3.04,1.12,3.05,3.87Z"/><path class="cls-5" d="M146.37,173.35c1.7,.02,2.66,.58,3.18,1.86,.57,1.43,.22,2.42-1.3,2.72-2.24,.43-4.51,.66-6.78,.92-.62,.07-1.22-.14-1.4-.85-.23-.88-.12-1.79,.68-2.26,1.86-1.11,3.82-2.04,5.63-2.39Z"/><path class="cls-4" d="M159.49,201.53c-.1,1.35-.81,2.7-2,3.8-.79,.73-1.66,.84-2.65,.33-.93-.48-1.71-1.17-1.55-2.2,.21-1.39,.24-2.91,1.29-4.04,.82-.89,1.75-1.91,3.07-1.41,1.35,.52,1.82,1.81,1.84,3.52Z"/><path class="cls-2" d="M108.46,179.76c-2.39-.05-4.19-1.11-6.08-1.78-1.06-.38-.91-1.59,.29-2.11,2.57-1.1,5.1-.95,7.5,.56,.62,.39,1.19,.92,1.16,1.69-.04,1.04-.99,1.23-1.75,1.5-.44,.16-.94,.12-1.12,.14Z"/><path class="cls-9" d="M107.46,189.81c-.05,2.3-1.08,3.72-2.62,3.63-1.57-.09-2.66-1.64-2.62-3.71,.04-2.13,1.14-3.56,2.75-3.59,1.61-.03,2.54,1.35,2.48,3.67Z"/><path class="cls-6" d="M163.18,201.38c.42-.91,.89-2.28,1.65-3.47,.78-1.2,2.14-1.17,2.97,0,.78,1.1,1.21,2.35,.51,3.68-.74,1.4-1.74,2.63-3.32,3.03-1.19,.3-2.07-1.13-1.81-3.23Z"/><path class="cls-1" d="M95.54,203.98c-.04,1.48-1.88,3.6-3.07,3.53-1.24-.07-2.59-1.47-2.53-2.61,.09-1.82,1.76-3.94,3.1-3.93,1.24,0,2.54,1.57,2.51,3.02Z"/><path class="cls-3" d="M87.75,206.38c-.77,1.25-1.77,2.01-3.21,1.14-1.27-.77-1.47-2.62-.61-4.1,1.42-2.45,2.16-2.58,4.67-.82,.33,.83,.37,1.66,0,2.5l.03-.04c-.6,.24-.39,1.02-.88,1.33Z"/><path class="cls-1" d="M88.6,205.08c0-.83,0-1.66,0-2.49,.88,.83,.92,1.66,0,2.49Z"/><path class="cls-1" d="M87.75,206.38c.04-.61,.23-1.12,.88-1.33-.03,.61-.32,1.06-.88,1.33Z"/></g><g><path class="cls-11" d="M231.6,191.28c.18-.92,.6-1.89,1.28-2.92,.67-1.03,1.62-1.97,2.82-2.84,1.2-.86,2.69-1.57,4.45-2.11,1.76-.54,3.82-.81,6.17-.81,3.88,.05,6.89,1,9.03,2.84,2.14,1.84,3.63,4.25,4.45,7.22,.29-1.03,.79-2.12,1.5-3.29,.71-1.16,1.69-2.24,2.95-3.24,1.26-1,2.8-1.84,4.63-2.51,1.82-.68,3.97-1.01,6.43-1.01,2.88,0,5.26,.51,7.14,1.54,1.88,1.03,3.38,2.42,4.5,4.18,1.12,1.76,1.88,3.83,2.29,6.21,.41,2.38,.62,4.92,.62,7.63v17.93c0,.49-.16,.89-.49,1.22-.32,.32-.75,.49-1.28,.49s-.96-.16-1.28-.49c-.32-.33-.48-.73-.48-1.22v-17.85c0-2.27-.13-4.42-.4-6.45-.26-2.03-.81-3.8-1.63-5.31-.82-1.51-2-2.7-3.52-3.57-1.53-.86-3.53-1.3-5.99-1.3s-4.48,.45-6.21,1.34c-1.73,.89-3.17,2.08-4.32,3.57-1.15,1.49-2,3.23-2.56,5.23-.56,2-.87,4.14-.92,6.41v17.93c0,.49-.16,.89-.49,1.22-.32,.32-.75,.49-1.28,.49s-.96-.16-1.28-.49c-.32-.33-.48-.73-.48-1.22v-17.85c0-2.27-.13-4.42-.4-6.45-.26-2.03-.79-3.8-1.59-5.31-.79-1.51-1.94-2.7-3.44-3.57-1.5-.86-3.48-1.3-5.95-1.3s-4.51,.46-6.3,1.38c-1.79,.92-3.28,2.15-4.45,3.69-1.18,1.54-2.06,3.33-2.64,5.35-.59,2.03-.88,4.15-.88,6.37v17.68c0,.49-.16,.89-.48,1.22-.32,.32-.75,.49-1.28,.49s-.96-.16-1.28-.49c-.32-.33-.48-.73-.48-1.22v-36.59c0-.59,.32-.89,.97-.89,.88,0,1.53,.46,1.94,1.38,.41,.92,.62,2.41,.62,4.46v2.84Z"/><path class="cls-11" d="M298.31,202.15c0-2.7,.56-5.25,1.67-7.63,1.12-2.38,2.64-4.46,4.58-6.25,1.94-1.79,4.2-3.19,6.79-4.22,2.58-1.03,5.34-1.54,8.28-1.54s5.7,.51,8.28,1.54c2.58,1.03,4.85,2.43,6.79,4.22,1.94,1.78,3.47,3.87,4.58,6.25,1.12,2.38,1.67,4.92,1.67,7.63s-.56,5.25-1.67,7.62c-1.12,2.38-2.64,4.46-4.58,6.25-1.94,1.79-4.2,3.19-6.79,4.22-2.59,1.03-5.35,1.54-8.28,1.54s-5.7-.51-8.28-1.54c-2.59-1.03-4.85-2.43-6.79-4.22-1.94-1.78-3.47-3.87-4.58-6.25-1.12-2.38-1.67-4.92-1.67-7.62Zm3.7,0c0,2.27,.45,4.42,1.37,6.45,.91,2.03,2.16,3.8,3.75,5.31,1.59,1.51,3.45,2.7,5.6,3.57s4.45,1.3,6.92,1.3,4.77-.43,6.92-1.3,4.01-2.05,5.6-3.57c1.59-1.51,2.83-3.29,3.75-5.31,.91-2.03,1.37-4.18,1.37-6.45s-.46-4.42-1.37-6.45c-.91-2.03-2.16-3.8-3.75-5.31-1.59-1.51-3.45-2.7-5.6-3.57-2.14-.86-4.45-1.3-6.92-1.3s-4.77,.43-6.92,1.3c-2.14,.87-4.01,2.06-5.6,3.57-1.59,1.51-2.83,3.29-3.75,5.31-.91,2.03-1.37,4.18-1.37,6.45Z"/><path class="cls-11" d="M349.08,202.15c0-2.7,.56-5.25,1.67-7.63,1.12-2.38,2.64-4.46,4.58-6.25,1.94-1.79,4.2-3.19,6.79-4.22,2.58-1.03,5.34-1.54,8.28-1.54s5.7,.51,8.28,1.54c2.58,1.03,4.85,2.43,6.79,4.22,1.94,1.78,3.47,3.87,4.58,6.25,1.12,2.38,1.67,4.92,1.67,7.63s-.56,5.25-1.67,7.62c-1.12,2.38-2.64,4.46-4.58,6.25-1.94,1.79-4.2,3.19-6.79,4.22-2.59,1.03-5.35,1.54-8.28,1.54s-5.7-.51-8.28-1.54c-2.59-1.03-4.85-2.43-6.79-4.22-1.94-1.78-3.47-3.87-4.58-6.25-1.12-2.38-1.67-4.92-1.67-7.62Zm3.7,0c0,2.27,.45,4.42,1.37,6.45,.91,2.03,2.16,3.8,3.75,5.31,1.59,1.51,3.45,2.7,5.6,3.57s4.45,1.3,6.92,1.3,4.77-.43,6.92-1.3,4.01-2.05,5.6-3.57c1.59-1.51,2.83-3.29,3.75-5.31,.91-2.03,1.37-4.18,1.37-6.45s-.46-4.42-1.37-6.45c-.91-2.03-2.16-3.8-3.75-5.31-1.59-1.51-3.45-2.7-5.6-3.57-2.14-.86-4.45-1.3-6.92-1.3s-4.77,.43-6.92,1.3c-2.14,.87-4.01,2.06-5.6,3.57-1.59,1.51-2.83,3.29-3.75,5.31-.91,2.03-1.37,4.18-1.37,6.45Z"/><path class="cls-11" d="M441.08,211.48c-.53,1.35-1.4,2.65-2.6,3.89-1.21,1.24-2.64,2.35-4.32,3.33-1.67,.97-3.51,1.74-5.51,2.31-2,.57-4.08,.85-6.26,.85-2.94,0-5.66-.51-8.15-1.54-2.5-1.03-4.66-2.43-6.48-4.22-1.82-1.78-3.25-3.87-4.27-6.25-1.03-2.38-1.54-4.92-1.54-7.62s.51-5.24,1.54-7.63c1.03-2.38,2.45-4.46,4.27-6.25,1.82-1.78,3.98-3.19,6.48-4.22,2.5-1.03,5.21-1.54,8.15-1.54,2.41,0,4.66,.35,6.74,1.05,2.08,.7,3.95,1.58,5.6,2.64,1.64,1.05,3.01,2.18,4.1,3.37,1.09,1.19,1.83,2.3,2.25,3.33v-21.17c0-.43,.18-.81,.53-1.14,.35-.33,.76-.49,1.23-.49s.88,.16,1.23,.49c.35,.32,.53,.7,.53,1.14v49.08c0,.6-.32,.89-.97,.89-.88,0-1.53-.46-1.94-1.38-.41-.92-.62-2.41-.62-4.46v-4.46Zm-35.34-9.25c0,2.27,.4,4.42,1.19,6.45s1.92,3.8,3.39,5.31c1.47,1.51,3.23,2.7,5.29,3.57,2.06,.87,4.32,1.3,6.79,1.3s4.83-.43,7.09-1.3c2.26-.87,4.23-2.05,5.9-3.57,1.67-1.51,3.01-3.29,4.01-5.31s1.5-4.18,1.5-6.45-.52-4.34-1.54-6.37c-1.03-2.03-2.39-3.8-4.1-5.31-1.71-1.51-3.67-2.72-5.9-3.61-2.23-.89-4.55-1.34-6.96-1.34s-4.73,.43-6.79,1.3c-2.06,.87-3.82,2.06-5.29,3.57-1.47,1.51-2.6,3.29-3.39,5.31-.79,2.03-1.19,4.18-1.19,6.45Z"/><path class="cls-11" d="M492.28,211.48c-.53,1.3-1.4,2.57-2.6,3.81-1.21,1.24-2.63,2.35-4.27,3.33-1.65,.97-3.48,1.76-5.51,2.35-2.03,.6-4.13,.89-6.3,.89-2.94,0-5.66-.51-8.15-1.54-2.5-1.03-4.66-2.43-6.48-4.22-1.82-1.78-3.25-3.87-4.27-6.25-1.03-2.38-1.54-4.92-1.54-7.62s.51-5.24,1.54-7.63c1.03-2.38,2.45-4.46,4.27-6.25,1.82-1.78,3.98-3.19,6.48-4.22,2.5-1.03,5.21-1.54,8.15-1.54,2.41,0,4.66,.35,6.74,1.05,2.08,.7,3.95,1.58,5.6,2.64,1.64,1.05,3.01,2.18,4.1,3.37,1.09,1.19,1.84,2.3,2.25,3.33v-4.46c0-2.05,.21-3.54,.62-4.46,.41-.92,1.06-1.38,1.94-1.38,.65,0,.97,.3,.97,.89v37.31c0,.6-.32,.89-.97,.89-.88,0-1.53-.46-1.94-1.38-.41-.92-.62-2.41-.62-4.46v-4.46Zm-35.34-9.25c0,2.27,.4,4.42,1.19,6.45,.79,2.03,1.92,3.8,3.39,5.31,1.47,1.51,3.23,2.7,5.29,3.57s4.32,1.3,6.79,1.3,4.83-.43,7.09-1.3c2.26-.87,4.23-2.05,5.9-3.57,1.67-1.51,3.01-3.29,4.01-5.31,1-2.03,1.5-4.18,1.5-6.45s-.51-4.34-1.54-6.37c-1.03-2.03-2.39-3.8-4.1-5.31-1.7-1.51-3.67-2.72-5.9-3.61-2.23-.89-4.55-1.34-6.96-1.34s-4.73,.43-6.79,1.3c-2.06,.87-3.82,2.06-5.29,3.57-1.47,1.51-2.6,3.29-3.39,5.31-.79,2.03-1.19,4.18-1.19,6.45Z"/><path class="cls-11" d="M520.66,234.68c.23-.43,.59-.72,1.06-.85,.47-.14,.94-.09,1.41,.12,2.23,.59,4.32,.89,6.26,.89,2.17,0,4.23-.33,6.17-.97,1.94-.65,3.64-1.59,5.11-2.83,1.47-1.24,2.61-2.76,3.44-4.57,.82-1.81,1.23-3.87,1.23-6.18v-8.81c-.53,1.35-1.4,2.65-2.6,3.89-1.21,1.24-2.64,2.35-4.32,3.33-1.67,.97-3.51,1.74-5.51,2.31-2,.57-4.08,.85-6.26,.85-2.94,0-5.66-.51-8.15-1.54-2.5-1.03-4.66-2.43-6.48-4.22-1.82-1.78-3.25-3.87-4.27-6.25-1.03-2.38-1.54-4.92-1.54-7.62v-17.85c0-1.19,.62-1.79,1.85-1.79s1.85,.6,1.85,1.79v17.85c0,2.27,.4,4.42,1.19,6.45,.79,2.03,1.92,3.8,3.39,5.31,1.47,1.51,3.23,2.7,5.29,3.57s4.32,1.3,6.79,1.3,4.83-.43,7.09-1.3c2.26-.87,4.24-2.05,5.95-3.57,1.7-1.51,3.05-3.29,4.05-5.31,1-2.03,1.5-4.18,1.5-6.45v-17.85c0-1.19,.62-1.79,1.85-1.79s1.85,.6,1.85,1.79v35.94c0,2.65-.48,5.07-1.45,7.26-.97,2.19-2.32,4.06-4.05,5.6-1.73,1.54-3.8,2.74-6.21,3.61-2.41,.86-5.02,1.3-7.84,1.3-1.18,0-2.35-.07-3.53-.21-1.18-.14-2.41-.38-3.7-.71-.76-.22-1.25-.58-1.45-1.08-.21-.5-.19-.97,.04-1.41Z"/></g></svg>