<?xml version="1.0" encoding="UTF-8"?>
<svg id="Layer_1" data-name="Layer 1" xmlns="http://www.w3.org/2000/svg" viewBox="0 0 126.38 117.42">
  <defs>
    <style>
      .cls-1 {
        fill: #e8eff1;
      }

      .cls-2 {
        fill: #f1faf1;
      }

      .cls-3 {
        fill: #8eb4d3;
      }

      .cls-4 {
        fill: #3e3c3e;
      }

      .cls-5 {
        fill: #5ba3c3;
      }

      .cls-6 {
        fill: #474a43;
      }
    </style>
  </defs>
  <path class="cls-3" d="m61.79,117.21c-5.63.02-10.7.49-15.77-.06-2.89-.32-5.77-.57-8.63-1.16-4.63-.96-9.05-2.59-13.52-4.05-1.03-.34-1.93-1.07-2.87-1.65-.85-.54-1.59-1.32-2.51-1.66-3.25-1.2-5.61-3.73-8.49-5.47-.43-.26-.87-.57-1.16-.96-1.88-2.61-4.05-5.07-5.48-7.91C.81,89.23-.19,83.8.03,78.04c.21-5.46,2.62-10,5.12-14.53,1.5-2.71,2.97-5.5,5.2-7.75,1.69-1.7,3.43-3.35,5.08-5.08,3.89-4.1,6.81-8.92,10.01-13.54,2.69-3.88,4.23-8.47,7.48-11.99.41-.44.62-1.15,1.1-1.42,3.14-1.75,2.84-4.17,1.77-7.05-1.02-2.75-1.41-5.67-.41-8.56.45-1.29.66-2.85,2.55-2.96,1.81-.11,3.4.23,4.5,1.85,1.44,2.12,2.36,4.4,2.53,7,.14,2.21.21,2.2,2.29,1.6,4.04-1.17,8.14-2.14,12.21-3.16,2.44-.61,5.1-.8,7.72-.65,3.42.18,6.86-.1,10.27.35,1.11.15,1.49-.25,1.47-1.26-.02-1.41-.06-2.82-.07-4.23-.03-3.27,1.99-5.13,4.64-6.42,1.87-.91,4.61.84,5.51,3.42.98,2.82,1.01,5.72.52,8.63-.08.49-.2.98-.31,1.47-.37,1.61.15,2.63,1.73,3.35,2.09.95,4.14,1.96,5.98,3.46,5.14,4.18,8.85,9.44,12.34,14.97,1.7,2.7,3.92,5.08,5.93,7.59,2.19,2.74,4.39,5.43,6.01,8.62,3.19,6.28,4.66,13,5.1,19.9.17,2.59.13,5.4-.84,8.03-1.35,3.65-1.71,7.65-4.19,10.89-4.12,5.36-8.45,10.44-14.24,14.19-2.53,1.64-5.2,3.07-7.65,4.82-1.55,1.11-3.41,1.24-5.07,1.76-7.26,2.28-14.52,4.63-22.29,4.78-3.59.07-7.11,1.38-10.22,1.12v-.03Zm11.2-39.3c.65-.18,1.56.19,1.89-.61.35-.86-.18-1.54-.87-2.05-.08-.06-.16-.13-.25-.17-2.79-1.14-5.2-3.04-8.12-3.94-1.42-.44-2.49-.48-3.89.4-2.04,1.29-3.99,2.71-5.94,4.11-.98.71-2.72,1.68-1.82,2.95.85,1.2,2.42.06,3.48-.64,1.33-.89,2.6-1.9,3.8-2.97,1.42-1.26,2.84-1.24,4.41-.37,1.58.87,3.17,1.72,4.77,2.54.79.41,1.56.97,2.55.76h0Zm-27.28-27.43c2.01-.21,4.49-.98,6.9-1.98.87-.36,1.67-.95,1.19-2.06-.42-.97-1.32-.75-2.09-.54s-1.54.47-2.27.8c-1.66.75-3.42,1.1-5.19,1.46-.97.2-2.67-.41-2.54,1.2.1,1.25,1.73.98,2.79,1.12.2.03.4,0,1.22,0h-.01Zm33.74-1.21c.5-.05,1.63.1,2.64-.46.59-.33,1.41-.53,1.24-1.44-.16-.85-.87-.96-1.61-.99-1.98-.08-4,.29-5.95-.34-.74-.24-1.41-.27-1.69.63-.24.77.08,1.36.74,1.78,1.24.8,2.63.86,4.63.81h0Zm-1.23,11.56v.9c-.03.93.43,1.5,1.26,1.84.97.4,1.51-.28,2.05-.85,1.03-1.08,1.3-3.55.57-4.79-.92-1.55-2.36-1.55-3.28,0-.54.9-.65,1.89-.6,2.91Zm4.79,8.62c0-1.2-1.29-2.4-2.57-2.4-1.35,0-2.55,1.78-2.58,3.85-.02,1.16,1.01,2.06,2.4,2.1,1.59.05,2.77-1.47,2.75-3.54h0Zm-39.9.67c-.03,1.98.54,2.83,1.89,2.8,1.24-.03,2.24-1.33,2.33-3.04.08-1.48-.91-2.85-2.06-2.87-1.2,0-2.13,1.32-2.16,3.11h0Zm4.14-9.26c.02-1.01-1.32-2.75-2.14-2.77-1.07-.02-1.56.78-1.91,1.65-.19.46-.41.96-.43,1.44-.04,1.19.42,2.24,1.62,2.59,1.3.38,2.1-.3,2.43-1.59.12-.49.31-.95.43-1.32h0Zm15.87,5.59c.3-.03.59-.04.89-.08,1.82-.25,2.58-.88,2.4-1.98-.16-1.01-1.37-1.75-2.8-1.67-.39.02-.79.1-1.15.25-.9.38-2.01.71-1.82,1.99.21,1.38,1.29,1.59,2.47,1.49h0Zm-11.64-10.96c-.88-1.94-2.11-1.95-3.41-1.44-1.26.5-2.2,1.3-1.8,3.09,1.69-.65,3.19-1.4,5.21-1.66h0Zm43.59,9.23c-1-.08-1.99.98-2.09,2.21-.09,1.03.39,1.78,1.37,2.01.85.2,1.96-1.1,1.98-2.21.02-.96-.24-1.77-1.26-2h0Zm-17.94-11.95c-.34.07-.63.1-.91.18-.51.16-.88.51-.9,1.05-.03.68.53.72,1.02.74.83.03,1.51.45,2.2.82.8.43,1.3.22,1.6-.62.28-.8.02-1.41-.73-1.67-.74-.26-1.53-.35-2.27-.51h-.01Zm14.96,13.43c-.11-.71-.5-1.55-1.62-1.46-1.15.1-1.33,1.03-1.29,2.02.05,1.03.44,1.85,1.58,1.76,1.17-.1,1.29-1.09,1.32-2.32h.01Zm-50.18,3.27c-.11-1.02-.42-1.89-1.59-1.83-1.02.05-1.24.9-1.27,1.75-.04,1.17.84,2.43,1.54,2.21,1-.32,1.16-1.26,1.32-2.12h0Zm26.71-24.69c-.87.13-1.13.77-1.2,1.5-.1,1.05.87,2.33,1.64,2.13,1.01-.26.88-1.27.98-1.99.13-.94-.57-1.42-1.43-1.65h0Zm-32.67,26.29c.98,0,1.32-.76,1.4-1.53.09-.94-.28-1.77-1.41-1.85-.67-.05-1.1.3-1.24.99-.21,1.03.41,2.28,1.26,2.4h-.01Zm30.64-24.25c-.13-.6-.2-1.48-1.23-1.53-.98-.04-.97.78-1,1.46-.04.92.43,1.56,1.35,1.55.7,0,.86-.67.87-1.48h.01Z"/>
  <path class="cls-6" d="m73.01,77.9c-.99.22-1.75-.35-2.54-.76-1.61-.82-3.2-1.67-4.77-2.54-1.57-.87-2.99-.89-4.41.37-1.2,1.07-2.47,2.08-3.8,2.97-1.06.71-2.63,1.84-3.48.64-.89-1.27.84-2.24,1.82-2.95,1.95-1.4,3.89-2.82,5.94-4.11,1.4-.88,2.47-.84,3.89-.4,2.92.89,5.33,2.8,8.12,3.94.09.04.17.11.25.17.69.52,1.22,1.2.87,2.05-.33.8-1.24.43-1.89.61h0Z"/>
  <path class="cls-2" d="m45.73,50.48c-.81,0-1.02.02-1.22,0-1.05-.14-2.69.13-2.79-1.12-.13-1.61,1.57-1.01,2.54-1.2,1.77-.36,3.53-.71,5.19-1.46.73-.33,1.49-.59,2.27-.8.77-.21,1.68-.43,2.09.54.48,1.12-.33,1.7-1.19,2.06-2.41,1-4.89,1.77-6.9,1.98h.01Z"/>
  <path class="cls-2" d="m79.47,49.28c-1.99.04-3.39-.02-4.63-.81-.66-.42-.97-1.01-.74-1.78.28-.91.95-.87,1.69-.63,1.95.63,3.96.26,5.95.34.75.03,1.45.13,1.61.99.17.92-.65,1.12-1.24,1.44-1.01.56-2.14.41-2.64.46h0Z"/>
  <path class="cls-5" d="m78.24,60.83c-.05-1.02.06-2,.6-2.91.92-1.54,2.36-1.54,3.28,0,.74,1.23.47,3.71-.57,4.79-.54.57-1.08,1.25-2.05.85-.83-.34-1.3-.91-1.26-1.84.01-.3,0-.6,0-.9Z"/>
  <path class="cls-5" d="m83.03,69.45c.02,2.07-1.16,3.59-2.75,3.54-1.39-.04-2.42-.94-2.4-2.1.03-2.07,1.23-3.85,2.58-3.85,1.28,0,2.56,1.2,2.57,2.4h0Z"/>
  <path class="cls-5" d="m43.13,70.13c.03-1.79.96-3.12,2.16-3.11,1.15,0,2.13,1.39,2.06,2.87-.09,1.72-1.09,3.02-2.33,3.04-1.35.03-1.92-.82-1.89-2.8h0Z"/>
  <path class="cls-5" d="m47.27,60.87c-.12.37-.31.84-.43,1.32-.33,1.29-1.13,1.96-2.43,1.59-1.21-.35-1.66-1.39-1.62-2.59.02-.49.24-.98.43-1.44.35-.87.84-1.67,1.91-1.65.82.02,2.16,1.76,2.14,2.77h0Z"/>
  <path class="cls-4" d="m63.13,66.45c-1.18.1-2.26-.11-2.47-1.49-.19-1.29.91-1.61,1.82-1.99.36-.15.76-.23,1.15-.25,1.43-.08,2.64.66,2.8,1.67.17,1.1-.59,1.73-2.4,1.98-.29.04-.59.05-.89.08h0Z"/>
  <path class="cls-6" d="m51.49,55.5c-2.02.26-3.52,1.01-5.21,1.66-.4-1.79.54-2.6,1.8-3.09,1.3-.51,2.53-.51,3.41,1.44h0Z"/>
  <path class="cls-1" d="m95.08,64.72c1.02.23,1.28,1.04,1.26,2-.03,1.11-1.14,2.41-1.98,2.21-.98-.23-1.45-.98-1.37-2.01.1-1.22,1.09-2.29,2.09-2.21h0Z"/>
  <path class="cls-6" d="m77.14,52.77c.74.16,1.53.25,2.27.51.76.27,1.02.87.73,1.67-.3.84-.8,1.05-1.6.62-.69-.37-1.37-.79-2.2-.82-.5-.02-1.05-.06-1.02-.74.02-.54.39-.89.9-1.05.28-.09.57-.12.91-.18h.01Z"/>
  <path class="cls-1" d="m92.1,66.2c-.04,1.23-.16,2.22-1.32,2.32-1.14.09-1.53-.73-1.58-1.76-.05-.99.13-1.93,1.29-2.02,1.12-.09,1.51.75,1.62,1.46h-.01Z"/>
  <path class="cls-1" d="m41.92,69.47c-.16.86-.32,1.8-1.32,2.12-.71.22-1.58-1.04-1.54-2.21.03-.84.25-1.69,1.27-1.75,1.17-.06,1.48.81,1.59,1.83h0Z"/>
  <path class="cls-1" d="m68.63,44.79c.86.23,1.56.71,1.43,1.65-.1.72.03,1.73-.98,1.99-.77.2-1.74-1.08-1.64-2.13.07-.74.33-1.37,1.2-1.5h0Z"/>
  <path class="cls-1" d="m35.96,71.07c-.85-.12-1.46-1.37-1.26-2.4.14-.69.57-1.03,1.24-.99,1.14.08,1.5.91,1.41,1.85-.07.78-.42,1.54-1.4,1.53h.01Z"/>
  <path class="cls-1" d="m66.61,46.83c0,.8-.17,1.46-.87,1.48-.93.02-1.39-.63-1.35-1.55.03-.68.02-1.5,1-1.46,1.02.05,1.1.93,1.23,1.53h-.01Z"/>
</svg>