<?xml version="1.0" encoding="UTF-8"?>
<svg id="Layer_1" data-name="Layer 1" xmlns="http://www.w3.org/2000/svg" viewBox="0 0 126.55 117.42">
  <defs>
    <style>
      .cls-1 {
        fill: #f1faf1;
      }

      .cls-2 {
        fill: #a5d3a0;
      }

      .cls-3 {
        fill: #474a43;
      }
    </style>
  </defs>
  <path class="cls-2" d="m45.65,16.11c5.93-1.65,11.59-3.43,17.41-4.32,3.76-.57,7.64-.41,11.45.08.5.06.99.21,1.48.25,3.07.25,3.11.14,2.88-2.9-.21-2.77.17-5.28,2.32-7.48,2.9-2.96,6.21-2.05,7.94,2.04,1.41,3.33,1.2,6.66.39,10.06-.54,2.28-.49,2.27,1.45,3.14,4.46,2.01,8.27,4.77,11.39,8.67,4.87,6.11,8.98,12.78,14.03,18.74,2.03,2.4,3.81,4.89,5.14,7.74,3.46,7.38,5.3,15.08,4.98,23.28-.07,1.78-.71,3.35-1.23,4.96-1.07,3.31-1.3,6.98-3.6,9.81-3.03,3.74-5.74,7.71-9.61,10.77-3.48,2.76-7.05,5.33-10.87,7.57-2.98,1.75-6.14,2.98-9.55,3.44-1.35.18-2.33,1.05-3.64,1.36-5.58,1.31-11.12,2.55-16.88,2.99-5,.38-9.98,1.08-15.02,1.11-10.2.06-20.12-1.09-29.78-4.82-3.61-1.4-6.93-3.3-10.08-5.21-4.04-2.44-8.27-5.11-10.45-9.94-.72-1.6-2.34-3.01-2.97-4.79-.92-2.59-2.22-5.13-2.16-7.96.03-1.55-.5-2.97-.61-4.48-.29-3.82.49-7.42,2.1-10.81,2.28-4.81,4.84-9.46,8.31-13.56,1.82-2.15,3.9-4.05,5.84-6.06,2.9-3.01,4.93-6.56,7.34-9.88,1.18-1.62,2.1-3.42,3.46-4.93.46-.51.83-1.16,1.08-1.8,1.63-4.22,4.38-7.68,7.46-10.87,1.24-1.28,1.61-2.35.83-3.99-1.23-2.6-1.47-5.42-1.32-8.27.05-.91.18-1.78.55-2.64,1.35-3.08,4.54-3.51,6.6-.8,1.28,1.68,2.41,3.46,2.59,5.7.09,1.18.46,2.35.75,3.77v.03Zm23.01,63.88v-.09c1.6,0,3.2.05,4.8,0,2.29-.08,3.34-.74,3.07-1.94-.41-1.89-2.01-1.47-3.19-1.3-5.17.74-10.41.39-15.58.97-1,.11-1.99.17-2.96.47-.84.26-1.6.6-1.38,1.61.19.85,1.05.8,1.75.82.5,0,1-.02,1.5-.04,4-.16,7.99-.32,11.99-.49h0Zm-4.92-16.29c-1.43.2-2.74.04-3.81,1.08-1.55,1.51-1.37,3.32.68,3.91,2.37.69,4.75.59,6.9-.93.71-.5.81-1,.5-1.78-.64-1.6-2.12-2.4-4.27-2.29h0Zm17.01-23.14c-2.55.1-4.69.43-6.24,2.3-.41.49-.61,1.03-.26,1.64.36.63.9.65,1.54.5,2.03-.49,4.06-.98,6.1-1.41.83-.18,1.63-.32,1.59-1.38-.03-.97-.73-1.36-1.57-1.52-.48-.1-.99-.1-1.17-.11v-.02Zm-34.96,5.51c1.14,0,2.25,0,3.35,0,.65,0,1.22-.26,1.46-.87.27-.67-.21-1.13-.67-1.54-1.93-1.7-6.99-1.48-8.71.38-.7.76-.34,1.22.44,1.59,1.34.65,2.78.23,4.12.44h.01Zm.45,10.28c.23-.02.63-.04,1.03-.11.84-.15,1.58-.46,1.62-1.45.04-.98-.62-1.43-1.47-1.6-.88-.17-1.78-.27-2.67,0-.61.17-1.17.4-1.28,1.09-.13.77.28,1.34.87,1.77.52.38,1.13.32,1.9.32h0Zm-9.05,11.63c.29-1.2-.26-1.78-1.31-1.96-1.47-.24-2.77.84-2.91,2.37-.1,1.12.77,2.21,1.86,2.36,1.35.18,2.15-.78,2.36-2.77h0Zm54.29-.47c.92.06,2.3-1.72,2.33-3.08.03-1.19-.61-1.84-1.79-1.92-1.24-.08-2.27,1.09-2.29,2.56-.02,1.15.87,2.39,1.75,2.44h0Zm-11.82-12.63c.53-.1,1.02-.25,1.51-.29,1.08-.1,1.71-.7,1.71-1.74,0-1.21-.95-1.41-1.91-1.39-.6,0-1.21.05-1.79.2-.9.24-1.81.61-1.58,1.81.21,1.12,1.21,1.21,2.05,1.41h0Zm20.63,9c0-.92-.6-1.67-1.69-1.9-1.06-.22-2.14,1.17-2.15,2.71,0,1,.36,1.76,1.45,1.93,1.17.18,2.29-1.02,2.4-2.74h-.01Zm-56.7,4.29c-.04-1.39-.98-2.62-1.84-2.43-1.1.25-1.6,1.11-1.66,2.17-.06,1.14.97,2.33,1.9,2.22,1.23-.14,1.58-1.02,1.6-1.96Z"/>
  <path class="cls-3" d="m68.66,79.99c-4,.16-7.99.32-11.99.49-.5.02-1,.06-1.5.04-.7-.02-1.55.04-1.75-.82-.23-1,.53-1.35,1.38-1.61.97-.3,1.96-.36,2.96-.47,5.18-.58,10.41-.23,15.58-.97,1.18-.17,2.78-.59,3.19,1.3.26,1.2-.78,1.86-3.07,1.94-1.6.06-3.2,0-4.8,0v.09h0Z"/>
  <path class="cls-3" d="m63.74,63.71c2.15-.11,3.63.69,4.27,2.29.31.78.22,1.27-.5,1.78-2.15,1.52-4.53,1.62-6.9.93-2.05-.6-2.23-2.4-.68-3.91,1.07-1.04,2.38-.88,3.81-1.08h0Z"/>
  <path class="cls-1" d="m80.75,40.56c.19.02.69.02,1.17.11.83.17,1.54.56,1.57,1.52.03,1.07-.76,1.21-1.59,1.38-2.04.43-4.07.92-6.1,1.41-.64.16-1.18.13-1.54-.5-.35-.61-.15-1.15.26-1.64,1.55-1.86,3.69-2.2,6.24-2.3v.02Z"/>
  <path class="cls-1" d="m45.78,46.06c-1.34-.21-2.78.21-4.12-.44-.78-.38-1.15-.83-.44-1.59,1.72-1.86,6.78-2.08,8.71-.38.46.4.94.87.67,1.54-.24.61-.82.86-1.46.87-1.1,0-2.21,0-3.35,0h-.01Z"/>
  <path class="cls-3" d="m46.23,56.35c-.76,0-1.38.06-1.9-.32-.59-.43-1.01-1-.87-1.77.12-.69.68-.92,1.28-1.09.9-.25,1.79-.16,2.67,0,.85.16,1.51.62,1.47,1.6-.04.99-.78,1.31-1.62,1.45-.39.07-.79.09-1.03.11h0Z"/>
  <path class="cls-1" d="m37.18,67.99c-.21,1.99-1.01,2.95-2.36,2.77-1.1-.15-1.96-1.24-1.86-2.36.13-1.53,1.43-2.61,2.91-2.37,1.06.17,1.61.76,1.31,1.96h0Z"/>
  <path class="cls-1" d="m91.46,67.52c-.88-.06-1.76-1.29-1.75-2.44.02-1.47,1.05-2.64,2.29-2.56,1.18.08,1.82.73,1.79,1.92-.03,1.36-1.41,3.14-2.33,3.08h0Z"/>
  <path class="cls-3" d="m79.64,54.88c-.85-.19-1.84-.29-2.05-1.41-.23-1.2.67-1.57,1.58-1.81.58-.15,1.19-.19,1.79-.2.97-.02,1.91.18,1.91,1.39,0,1.04-.63,1.64-1.71,1.74-.5.04-.99.19-1.51.29h0Z"/>
  <path class="cls-1" d="m100.28,63.89c-.1,1.73-1.22,2.92-2.4,2.74-1.09-.17-1.46-.93-1.45-1.93.01-1.54,1.09-2.93,2.15-2.71,1.09.23,1.68.97,1.69,1.9h.01Z"/>
  <path class="cls-1" d="m43.58,68.18c-.02.95-.37,1.82-1.6,1.96-.93.11-1.97-1.08-1.9-2.22.06-1.07.56-1.93,1.66-2.17.86-.19,1.8,1.04,1.84,2.43Z"/>
</svg>