<?xml version="1.0" encoding="UTF-8"?>
<svg id="Layer_1" data-name="Layer 1" xmlns="http://www.w3.org/2000/svg" viewBox="0 0 575.86 458.51">
  <defs>
    <style>
      .cls-1 {
        fill: #ebafb1;
      }

      .cls-2 {
        fill: #e8a66b;
      }

      .cls-3 {
        fill: #e8eff1;
      }

      .cls-4 {
        fill: #fffaf5;
      }

      .cls-5 {
        fill: #f1faf1;
      }

      .cls-6 {
        fill: #fef1e1;
      }

      .cls-7 {
        fill: #e6bf49;
      }

      .cls-8 {
        fill: #6b9096;
      }

      .cls-9 {
        fill: #8eb4d3;
      }

      .cls-10 {
        fill: #a5d3a0;
      }

      .cls-11 {
        fill: #e27055;
      }

      .cls-12 {
        fill: #3e3c3e;
      }

      .cls-13 {
        fill: #5ba3c3;
      }

      .cls-14 {
        fill: #4a423c;
      }

      .cls-15 {
        fill: #474a43;
      }

      .cls-16 {
        fill: #504546;
      }
    </style>
  </defs>
  <g>
    <path class="cls-10" d="m251.4,279.29c5.93-1.65,11.59-3.43,17.41-4.32,3.76-.57,7.64-.41,11.45.08.5.06.99.21,1.48.25,3.07.25,3.11.14,2.88-2.9-.21-2.77.17-5.28,2.32-7.48,2.9-2.96,6.21-2.05,7.94,2.04,1.41,3.33,1.2,6.66.39,10.06-.54,2.28-.49,2.27,1.45,3.14,4.46,2.01,8.27,4.77,11.39,8.67,4.87,6.11,8.98,12.78,14.03,18.74,2.03,2.4,3.81,4.89,5.14,7.74,3.46,7.38,5.3,15.08,4.98,23.28-.07,1.78-.71,3.35-1.23,4.96-1.07,3.31-1.3,6.98-3.6,9.81-3.03,3.74-5.74,7.71-9.61,10.77-3.48,2.76-7.05,5.33-10.87,7.57-2.98,1.75-6.14,2.98-9.55,3.44-1.35.18-2.33,1.05-3.64,1.36-5.58,1.31-11.12,2.55-16.88,2.99-5,.38-9.98,1.08-15.02,1.11-10.2.06-20.12-1.09-29.78-4.82-3.61-1.4-6.93-3.3-10.08-5.21-4.04-2.44-8.27-5.11-10.45-9.94-.72-1.6-2.34-3.01-2.97-4.79-.92-2.59-2.22-5.13-2.16-7.96.03-1.55-.5-2.97-.61-4.48-.29-3.82.49-7.42,2.1-10.81,2.28-4.81,4.84-9.46,8.31-13.56,1.82-2.15,3.9-4.05,5.84-6.06,2.9-3.01,4.93-6.56,7.34-9.88,1.18-1.62,2.1-3.42,3.46-4.93.46-.51.83-1.16,1.08-1.8,1.63-4.22,4.38-7.68,7.46-10.87,1.24-1.28,1.61-2.35.83-3.99-1.23-2.6-1.47-5.42-1.32-8.27.05-.91.18-1.78.55-2.64,1.35-3.08,4.54-3.51,6.6-.8,1.28,1.68,2.41,3.46,2.59,5.7.09,1.18.46,2.35.75,3.77Zm23.01,63.88s0-.06,0-.09c1.6,0,3.2.05,4.8-.01,2.29-.08,3.34-.74,3.07-1.94-.41-1.89-2.01-1.47-3.19-1.3-5.17.74-10.41.39-15.58.97-1,.11-1.99.17-2.96.47-.84.26-1.6.6-1.38,1.61.19.85,1.05.8,1.75.82.5.01,1-.02,1.5-.04,4-.16,7.99-.32,11.99-.49Zm-4.92-16.29c-1.43.2-2.74.04-3.81,1.08-1.55,1.51-1.37,3.32.68,3.91,2.37.69,4.75.59,6.9-.93.71-.5.81-1,.5-1.78-.64-1.6-2.12-2.4-4.27-2.29Zm17.01-23.15c-2.55.1-4.69.43-6.24,2.3-.41.49-.61,1.03-.26,1.64.36.63.9.65,1.54.5,2.03-.49,4.06-.98,6.1-1.41.83-.18,1.63-.32,1.59-1.38-.03-.97-.73-1.36-1.57-1.52-.48-.1-.99-.1-1.17-.11Zm-34.97,5.51c1.14,0,2.25.01,3.35,0,.65,0,1.22-.26,1.46-.87.27-.67-.21-1.13-.67-1.54-1.93-1.7-6.99-1.48-8.71.38-.7.76-.34,1.22.44,1.59,1.34.65,2.78.23,4.12.44Zm.45,10.28c.23-.02.63-.04,1.03-.11.84-.15,1.58-.46,1.62-1.45.04-.98-.62-1.43-1.47-1.6-.88-.17-1.78-.27-2.67-.01-.61.17-1.17.4-1.28,1.09-.13.77.28,1.34.87,1.77.52.38,1.13.32,1.9.32Zm-9.05,11.64c.29-1.2-.26-1.78-1.31-1.96-1.47-.24-2.77.84-2.91,2.37-.1,1.12.77,2.21,1.86,2.36,1.35.18,2.15-.78,2.36-2.77Zm54.29-.47c.92.06,2.3-1.72,2.33-3.08.03-1.19-.61-1.84-1.79-1.92-1.24-.08-2.27,1.09-2.29,2.56-.02,1.15.87,2.39,1.75,2.44Zm-11.82-12.63c.53-.1,1.02-.25,1.51-.29,1.08-.1,1.71-.7,1.71-1.74,0-1.21-.95-1.41-1.91-1.39-.6.01-1.21.05-1.79.2-.9.24-1.81.61-1.58,1.81.21,1.12,1.21,1.21,2.05,1.41Zm20.63,9c0-.92-.6-1.67-1.69-1.9-1.06-.22-2.14,1.17-2.15,2.71,0,1,.36,1.76,1.45,1.93,1.17.18,2.29-1.02,2.4-2.74Zm-56.7,4.29c-.04-1.39-.98-2.62-1.84-2.43-1.1.25-1.6,1.11-1.66,2.17-.06,1.14.97,2.33,1.9,2.22,1.23-.14,1.58-1.02,1.6-1.96Z"/>
    <path class="cls-15" d="m274.41,343.17c-4,.16-7.99.32-11.99.49-.5.02-1,.06-1.5.04-.7-.02-1.55.04-1.75-.82-.23-1,.53-1.35,1.38-1.61.97-.3,1.96-.36,2.96-.47,5.18-.58,10.41-.23,15.58-.97,1.18-.17,2.78-.59,3.19,1.3.26,1.2-.78,1.86-3.07,1.94-1.6.06-3.2.01-4.8.01,0,.03,0,.06,0,.09Z"/>
    <path class="cls-15" d="m269.49,326.88c2.15-.11,3.63.69,4.27,2.29.31.78.22,1.27-.5,1.78-2.15,1.52-4.53,1.62-6.9.93-2.05-.6-2.23-2.4-.68-3.91,1.07-1.04,2.38-.88,3.81-1.08Z"/>
    <path class="cls-5" d="m286.5,303.73c.19.02.69.02,1.17.11.83.17,1.54.56,1.57,1.52.03,1.07-.76,1.21-1.59,1.38-2.04.43-4.07.92-6.1,1.41-.64.16-1.18.13-1.54-.5-.35-.61-.15-1.15.26-1.64,1.55-1.86,3.69-2.2,6.24-2.3Z"/>
    <path class="cls-5" d="m251.53,309.24c-1.34-.21-2.78.21-4.12-.44-.78-.38-1.15-.83-.44-1.59,1.72-1.86,6.78-2.08,8.71-.38.46.4.94.87.67,1.54-.24.61-.82.86-1.46.87-1.1.01-2.21,0-3.35,0Z"/>
    <path class="cls-15" d="m251.98,319.52c-.76,0-1.38.06-1.9-.32-.59-.43-1.01-1-.87-1.77.12-.69.68-.92,1.28-1.09.9-.25,1.79-.16,2.67.01.85.16,1.51.62,1.47,1.6-.04.99-.78,1.31-1.62,1.45-.39.07-.79.09-1.03.11Z"/>
    <path class="cls-5" d="m242.93,331.17c-.21,1.99-1.01,2.95-2.36,2.77-1.1-.15-1.96-1.24-1.86-2.36.13-1.53,1.43-2.61,2.91-2.37,1.06.17,1.61.76,1.31,1.96Z"/>
    <path class="cls-5" d="m297.22,330.69c-.88-.06-1.76-1.29-1.75-2.44.02-1.47,1.05-2.64,2.29-2.56,1.18.08,1.82.73,1.79,1.92-.03,1.36-1.41,3.14-2.33,3.08Z"/>
    <path class="cls-15" d="m285.4,318.06c-.85-.19-1.84-.29-2.05-1.41-.23-1.2.67-1.57,1.58-1.81.58-.15,1.19-.19,1.79-.2.97-.02,1.91.18,1.91,1.39,0,1.04-.63,1.64-1.71,1.74-.5.04-.99.19-1.51.29Z"/>
    <path class="cls-5" d="m306.03,327.06c-.1,1.73-1.22,2.92-2.4,2.74-1.09-.17-1.46-.93-1.45-1.93.01-1.54,1.09-2.93,2.15-2.71,1.09.23,1.68.97,1.69,1.9Z"/>
    <path class="cls-5" d="m249.34,331.35c-.02.95-.37,1.82-1.6,1.96-.93.11-1.97-1.08-1.9-2.22.06-1.07.56-1.93,1.66-2.17.86-.19,1.8,1.04,1.84,2.43Z"/>
  </g>
  <g>
    <path class="cls-9" d="m449.98,208.22c-5.63.02-10.7.49-15.77-.06-2.89-.32-5.77-.57-8.63-1.16-4.63-.96-9.05-2.59-13.52-4.05-1.03-.34-1.93-1.07-2.87-1.65-.85-.54-1.59-1.32-2.51-1.66-3.25-1.2-5.61-3.73-8.49-5.47-.43-.26-.87-.57-1.16-.96-1.88-2.61-4.05-5.07-5.48-7.91-2.55-5.06-3.55-10.49-3.33-16.25.21-5.46,2.62-10,5.12-14.53,1.5-2.71,2.97-5.5,5.2-7.75,1.69-1.7,3.43-3.35,5.08-5.08,3.89-4.1,6.81-8.92,10.01-13.54,2.69-3.88,4.23-8.47,7.48-11.99.41-.44.62-1.15,1.1-1.42,3.14-1.75,2.84-4.17,1.77-7.05-1.02-2.75-1.41-5.67-.41-8.56.45-1.29.66-2.85,2.55-2.96,1.81-.11,3.4.23,4.5,1.85,1.44,2.12,2.36,4.4,2.53,7,.14,2.21.21,2.2,2.29,1.6,4.04-1.17,8.14-2.14,12.21-3.16,2.44-.61,5.1-.8,7.72-.65,3.42.18,6.86-.1,10.27.35,1.11.15,1.49-.25,1.47-1.26-.02-1.41-.06-2.82-.07-4.23-.03-3.27,1.99-5.13,4.64-6.42,1.87-.91,4.61.84,5.51,3.42.98,2.82,1.01,5.72.52,8.63-.08.49-.2.98-.31,1.47-.37,1.61.15,2.63,1.73,3.35,2.09.95,4.14,1.96,5.98,3.46,5.14,4.18,8.85,9.44,12.34,14.97,1.7,2.7,3.92,5.08,5.93,7.59,2.19,2.74,4.39,5.43,6.01,8.62,3.19,6.28,4.66,13,5.1,19.9.17,2.59.13,5.4-.84,8.03-1.35,3.65-1.71,7.65-4.19,10.89-4.12,5.36-8.45,10.44-14.24,14.19-2.53,1.64-5.2,3.07-7.65,4.82-1.55,1.11-3.41,1.24-5.07,1.76-7.26,2.28-14.52,4.63-22.29,4.78-3.59.07-7.11,1.38-10.22,1.12Zm11.21-39.3c.65-.18,1.56.19,1.89-.61.35-.86-.18-1.54-.87-2.05-.08-.06-.16-.13-.25-.17-2.79-1.14-5.2-3.04-8.12-3.94-1.42-.44-2.49-.48-3.89.4-2.04,1.29-3.99,2.71-5.94,4.11-.98.71-2.72,1.68-1.82,2.95.85,1.2,2.42.06,3.48-.64,1.33-.89,2.6-1.9,3.8-2.97,1.42-1.26,2.84-1.24,4.41-.37,1.58.87,3.17,1.72,4.77,2.54.79.41,1.56.97,2.55.76Zm-27.28-27.42c2.01-.21,4.49-.98,6.9-1.98.87-.36,1.67-.95,1.19-2.06-.42-.97-1.32-.75-2.09-.54-.77.21-1.54.47-2.27.8-1.66.75-3.42,1.1-5.19,1.46-.97.2-2.67-.41-2.54,1.2.1,1.25,1.73.98,2.79,1.12.2.03.4,0,1.22,0Zm33.74-1.21c.5-.05,1.63.1,2.64-.46.59-.33,1.41-.53,1.24-1.44-.16-.85-.87-.96-1.61-.99-1.98-.08-4,.29-5.95-.34-.74-.24-1.41-.27-1.69.63-.24.77.08,1.36.74,1.78,1.24.8,2.63.86,4.63.81Zm-1.23,11.55c0,.3,0,.6,0,.9-.03.93.43,1.5,1.26,1.84.97.4,1.51-.28,2.05-.85,1.03-1.08,1.3-3.55.57-4.79-.92-1.55-2.36-1.55-3.28-.01-.54.9-.65,1.89-.6,2.91Zm4.79,8.62c0-1.2-1.29-2.4-2.57-2.4-1.35,0-2.55,1.78-2.58,3.85-.02,1.16,1.01,2.06,2.4,2.1,1.59.05,2.77-1.47,2.75-3.54Zm-39.9.68c-.03,1.98.54,2.83,1.89,2.8,1.24-.03,2.24-1.33,2.33-3.04.08-1.48-.91-2.85-2.06-2.87-1.2-.01-2.13,1.32-2.16,3.11Zm4.14-9.26c.02-1.01-1.32-2.75-2.14-2.77-1.07-.02-1.56.78-1.91,1.65-.19.46-.41.96-.43,1.44-.04,1.19.42,2.24,1.62,2.59,1.3.38,2.1-.3,2.43-1.59.12-.49.31-.95.43-1.32Zm15.87,5.59c.3-.03.59-.04.89-.08,1.82-.25,2.58-.88,2.4-1.98-.16-1.01-1.37-1.75-2.8-1.67-.39.02-.79.1-1.15.25-.9.38-2.01.71-1.82,1.99.21,1.38,1.29,1.59,2.47,1.49Zm-11.64-10.96c-.88-1.94-2.11-1.95-3.41-1.44-1.26.5-2.2,1.3-1.8,3.09,1.69-.65,3.19-1.4,5.21-1.66Zm43.59,9.22c-1-.08-1.99.98-2.09,2.21-.09,1.03.39,1.78,1.37,2.01.85.2,1.96-1.1,1.98-2.21.02-.96-.24-1.77-1.26-2Zm-17.94-11.94c-.34.07-.63.1-.91.18-.51.16-.88.51-.9,1.05-.03.68.53.72,1.02.74.83.03,1.51.45,2.2.82.8.43,1.3.22,1.6-.62.28-.8.02-1.41-.73-1.67-.74-.26-1.53-.35-2.27-.51Zm14.96,13.42c-.11-.71-.5-1.55-1.62-1.46-1.15.1-1.33,1.03-1.29,2.02.05,1.03.44,1.85,1.58,1.76,1.17-.1,1.29-1.09,1.32-2.32Zm-50.18,3.27c-.11-1.02-.42-1.89-1.59-1.83-1.02.05-1.24.9-1.27,1.75-.04,1.17.84,2.43,1.54,2.21,1-.32,1.16-1.26,1.32-2.12Zm26.71-24.68c-.87.13-1.13.77-1.2,1.5-.1,1.05.87,2.33,1.64,2.13,1.01-.26.88-1.27.98-1.99.13-.94-.57-1.42-1.43-1.65Zm-32.67,26.28c.98,0,1.32-.76,1.4-1.53.09-.94-.28-1.77-1.41-1.85-.67-.05-1.1.3-1.24.99-.21,1.03.41,2.28,1.26,2.4Zm30.64-24.24c-.13-.6-.2-1.48-1.23-1.53-.98-.04-.97.78-1,1.46-.04.92.43,1.56,1.35,1.55.7-.01.86-.67.87-1.48Z"/>
    <path class="cls-15" d="m461.2,168.91c-.99.22-1.75-.35-2.54-.76-1.61-.82-3.2-1.67-4.77-2.54-1.57-.87-2.99-.89-4.41.37-1.2,1.07-2.47,2.08-3.8,2.97-1.06.71-2.63,1.84-3.48.64-.89-1.27.84-2.24,1.82-2.95,1.95-1.4,3.89-2.82,5.94-4.11,1.4-.88,2.47-.84,3.89-.4,2.92.89,5.33,2.8,8.12,3.94.09.04.17.11.25.17.69.52,1.22,1.2.87,2.05-.33.8-1.24.43-1.89.61Z"/>
    <path class="cls-5" d="m433.92,141.49c-.81,0-1.02.02-1.22,0-1.05-.14-2.69.13-2.79-1.12-.13-1.61,1.57-1.01,2.54-1.2,1.77-.36,3.53-.71,5.19-1.46.73-.33,1.49-.59,2.27-.8.77-.21,1.68-.43,2.09.54.48,1.12-.33,1.7-1.19,2.06-2.41,1-4.89,1.77-6.9,1.98Z"/>
    <path class="cls-5" d="m467.66,140.29c-1.99.04-3.39-.02-4.63-.81-.66-.42-.97-1.01-.74-1.78.28-.91.95-.87,1.69-.63,1.95.63,3.96.26,5.95.34.75.03,1.45.13,1.61.99.17.92-.65,1.12-1.24,1.44-1.01.56-2.14.41-2.64.46Z"/>
    <path class="cls-13" d="m466.43,151.84c-.05-1.02.06-2,.6-2.91.92-1.54,2.36-1.54,3.28.01.74,1.23.47,3.71-.57,4.79-.54.57-1.08,1.25-2.05.85-.83-.34-1.3-.91-1.26-1.84.01-.3,0-.6,0-.9Z"/>
    <path class="cls-13" d="m471.22,160.46c.02,2.07-1.16,3.59-2.75,3.54-1.39-.04-2.42-.94-2.4-2.1.03-2.07,1.23-3.85,2.58-3.85,1.28,0,2.56,1.2,2.57,2.4Z"/>
    <path class="cls-13" d="m431.32,161.14c.03-1.79.96-3.12,2.16-3.11,1.15.01,2.13,1.39,2.06,2.87-.09,1.72-1.09,3.02-2.33,3.04-1.35.03-1.92-.82-1.89-2.8Z"/>
    <path class="cls-13" d="m435.46,151.88c-.12.37-.31.84-.43,1.32-.33,1.29-1.13,1.96-2.43,1.59-1.21-.35-1.66-1.39-1.62-2.59.02-.49.24-.98.43-1.44.35-.87.84-1.67,1.91-1.65.82.02,2.16,1.76,2.14,2.77Z"/>
    <path class="cls-12" d="m451.32,157.46c-1.18.1-2.26-.11-2.47-1.49-.19-1.29.91-1.61,1.82-1.99.36-.15.76-.23,1.15-.25,1.43-.08,2.64.66,2.8,1.67.17,1.1-.59,1.73-2.4,1.98-.29.04-.59.05-.89.08Z"/>
    <path class="cls-15" d="m439.68,146.51c-2.02.26-3.52,1.01-5.21,1.66-.4-1.79.54-2.6,1.8-3.09,1.3-.51,2.53-.51,3.41,1.44Z"/>
    <path class="cls-3" d="m483.27,155.73c1.02.23,1.28,1.04,1.26,2-.03,1.11-1.14,2.41-1.98,2.21-.98-.23-1.45-.98-1.37-2.01.1-1.22,1.09-2.29,2.09-2.21Z"/>
    <path class="cls-15" d="m465.33,143.78c.74.16,1.53.25,2.27.51.76.27,1.02.87.73,1.67-.3.84-.8,1.05-1.6.62-.69-.37-1.37-.79-2.2-.82-.5-.02-1.05-.06-1.02-.74.02-.54.39-.89.9-1.05.28-.09.57-.12.91-.18Z"/>
    <path class="cls-3" d="m480.29,157.21c-.04,1.23-.16,2.22-1.32,2.32-1.14.09-1.53-.73-1.58-1.76-.05-.99.13-1.93,1.29-2.02,1.12-.09,1.51.75,1.62,1.46Z"/>
    <path class="cls-3" d="m430.11,160.48c-.16.86-.32,1.8-1.32,2.12-.71.22-1.58-1.04-1.54-2.21.03-.84.25-1.69,1.27-1.75,1.17-.06,1.48.81,1.59,1.83Z"/>
    <path class="cls-3" d="m456.82,135.8c.86.23,1.56.71,1.43,1.65-.1.72.03,1.73-.98,1.99-.77.2-1.74-1.08-1.64-2.13.07-.74.33-1.37,1.2-1.5Z"/>
    <path class="cls-3" d="m424.15,162.08c-.85-.12-1.46-1.37-1.26-2.4.14-.69.57-1.03,1.24-.99,1.14.08,1.5.91,1.41,1.85-.07.78-.42,1.54-1.4,1.53Z"/>
    <path class="cls-3" d="m454.8,137.84c0,.8-.17,1.46-.87,1.48-.93.02-1.39-.63-1.35-1.55.03-.68.02-1.5,1-1.46,1.02.05,1.1.93,1.23,1.53Z"/>
  </g>
  <g>
    <path class="cls-8" d="m460.93,275.4c0-1.93.04-3.63,0-5.32-.09-2.85,1.5-4.75,3.64-6.2,2.3-1.56,5.04-.24,6.4,2.91,1.2,2.78,1.01,5.69.74,8.6-.03.29-.19.57-.25.87q-.65,3.02,2.31,4.45c4.53,2.17,8.2,5.34,11.34,9.27,4.61,5.76,8.34,12.17,13.21,17.73,1.99,2.26,3.95,4.59,4.9,7.47,1.06,3.2,3.25,5.94,3.63,9.41.38,3.39,1.48,6.68,1.55,10.11.07,3.64-.22,7.28-1.69,10.62-.62,1.43-.63,2.9-1.13,4.32-1.37,3.83-4.09,6.66-6.61,9.64-5.08,6.01-11.55,10.23-18.38,13.96-1.5.82-3.23,1.07-4.83,1.57-5.81,1.83-11.65,3.85-17.73,4.29-5.91.43-11.73,1.7-17.72,1.47-4.06-.16-8.14.15-12.21-.17-6.62-.53-12.93-2.2-19.25-4.3-3.92-1.3-6.77-4.32-10.73-5.24-3.52-3.24-8.23-5.15-10.36-10.01-.71-1.62-2.27-2.99-2.99-4.79-1.8-4.49-2.59-9.13-2.65-13.97-.08-6.11,2.73-11.12,5.69-16.09,1.18-1.98,2.38-3.94,3.76-5.8,1.87-2.52,4.25-4.54,6.42-6.72,3.02-3.03,5.08-6.69,7.53-10.08,2.27-3.16,4.28-6.5,6.09-9.99,1.65-3.18,3.86-6.15,6.73-8.42.86-.68.83-1.15.5-1.99-.85-2.16-1.34-4.4-1.75-6.69-.32-1.77,0-3.42.42-5.06.36-1.36.92-2.74,2.6-3,1.65-.26,2.99.41,4.02,1.62,1.82,2.13,2.71,4.65,2.93,7.45.17,2.23.19,2.16,2.48,1.52,4.13-1.16,8.24-2.54,12.46-3.24,6.01-.99,12.11-.64,18.18-.12.2.02.4-.03.77-.06Zm-15.44,65.24c-2.38-.35-4.64.1-6.66,1.33-3,1.82-2.86,5.33.21,6.94,1.25.66,2.59,1.08,3.99,1.29,4.75.72,9.34-.09,13.83-1.59,2.32-.78,3.11-3.46,1.69-5.49-1.52-2.17-6.73-3.17-9.25-1.78-1.19-.68-2.75.71-3.81-.7Zm18.36-32.24c.37-.04.96-.07,1.56-.16.86-.13,1.57-.51,1.58-1.49,0-1.01-.74-1.3-1.61-1.42-2.57-.36-5.17-.44-7.72-.99-.77-.17-1.7.04-1.92,1.01-.18.84.59,1.23,1.19,1.54,2.09,1.09,4.41,1.21,6.92,1.52Zm-38.1,1.59c2.28.03,4.35-.65,6.33-1.67.9-.46,1.57-1.02,1.18-2.09-.44-1.19-1.56-.94-2.3-.6-1.91.89-3.87,1.62-5.88,2.23-.6.18-1.15.57-.96,1.3.21.79.92.98,1.62.84Zm20.29,15.45c-2.09.06-3.29.95-3.26,2.2.03,1.51,1.63,2.7,3.43,2.48.58-.07,1.16-.3,1.72-.5.83-.3,1.95-.47,1.98-1.53.03-1.25-.96-1.87-2.11-2.17-.67-.17-1.34-.36-1.75-.48Zm12.6-11.71c.4,1.33,1.61,2.1,2.58,3.07.63.62,1.37.85,2.13.27.74-.56.72-1.35.49-2.16-.39-1.36-1.68-1.9-2.58-2.79-.45-.44-1.01-.65-1.6-.22-.58.43-1,.95-1.02,1.83Zm-25.53.59c.05-1.1-.44-1.68-1.58-1.66-1.58.03-3.29,1.97-3.25,3.69.03,1.08.63,1.64,1.67,1.72,1.48.11,3.13-1.88,3.15-3.75Zm45.16,11.17c-.21-1.1-.35-2.16-1.66-2.31-1.02-.12-1.99,1.2-1.93,2.59.04.97,1.12,2.09,1.96,1.9,1.18-.26,1.39-1.3,1.63-2.18Zm-57.34,2.06c-.25,1.13.19,1.8,1.28,1.98,1.11.18,2.3-.88,2.16-1.97-.13-1.1-.94-1.89-1.94-2.01-1.37-.16-1.55.95-1.5,2.01Zm49.36-3.75c-1.11.29-1.42,1.18-1.36,2.24.05.94,1.18,1.81,2.09,1.63,1.11-.22,1.27-1.12,1.26-2.05-.02-1.22-.77-1.73-1.98-1.81Zm-41.01,3.41c.12-1.1-.75-1.85-1.59-2.05-.95-.23-1.1.94-1.28,1.65-.25.98.11,1.84,1.13,2.07,1.18.27,1.46-.7,1.74-1.68Z"/>
    <path class="cls-12" d="m449.29,341.34c2.52-1.39,7.73-.38,9.25,1.78,1.42,2.04.64,4.72-1.69,5.49-4.49,1.5-9.08,2.31-13.83,1.59-1.4-.21-2.74-.63-3.99-1.29-3.06-1.61-3.2-5.12-.21-6.94,2.03-1.23,4.28-1.68,6.66-1.33-.54.8-1.42,1.53-.87,2.65.64,1.3,1.65.63,2.57.39.08-.02.19.06.29.05q2-.07,1.81-2.39Z"/>
    <path class="cls-3" d="m463.85,308.4c-2.51-.31-4.83-.42-6.92-1.52-.6-.31-1.37-.7-1.19-1.54.21-.97,1.15-1.18,1.92-1.01,2.55.56,5.15.64,7.72.99.87.12,1.61.41,1.61,1.42,0,.97-.72,1.36-1.58,1.49-.59.09-1.19.13-1.56.16Z"/>
    <path class="cls-3" d="m425.75,309.99c-.71.14-1.41-.05-1.62-.84-.19-.72.36-1.12.96-1.3,2.01-.61,3.97-1.34,5.88-2.23.74-.34,1.86-.59,2.3.6.39,1.07-.28,1.63-1.18,2.09-1.98,1.02-4.05,1.7-6.33,1.67Z"/>
    <path class="cls-12" d="m446.04,325.44c.42.11,1.08.3,1.75.48,1.15.3,2.13.92,2.11,2.17-.02,1.06-1.15,1.23-1.98,1.53-.56.2-1.13.43-1.72.5-1.8.21-3.4-.97-3.43-2.48-.03-1.26,1.17-2.14,3.26-2.2Z"/>
    <path class="cls-12" d="m458.64,313.74c.02-.87.44-1.4,1.02-1.83.6-.44,1.15-.22,1.6.22.91.89,2.2,1.42,2.58,2.79.23.81.25,1.61-.49,2.16-.76.58-1.51.35-2.13-.27-.97-.97-2.18-1.74-2.58-3.07Z"/>
    <path class="cls-12" d="m433.11,314.33c-.03,1.87-1.68,3.86-3.16,3.75-1.04-.08-1.64-.64-1.67-1.72-.05-1.73,1.66-3.66,3.25-3.69,1.14-.02,1.63.56,1.58,1.66Z"/>
    <path class="cls-3" d="m478.28,325.5c-.25.88-.45,1.93-1.63,2.18-.84.18-1.92-.93-1.96-1.9-.06-1.39.91-2.71,1.93-2.59,1.31.16,1.45,1.21,1.66,2.31Z"/>
    <path class="cls-3" d="m449.29,341.34q.19,2.32-1.81,2.39c-.1,0-.2-.08-.29-.05-.92.24-1.93.91-2.57-.39-.55-1.12.32-1.85.87-2.65,1.05,1.4,2.62.02,3.8.7Z"/>
    <path class="cls-3" d="m420.94,327.56c-.05-1.06.13-2.17,1.5-2.01,1,.12,1.81.91,1.94,2.01.13,1.1-1.05,2.15-2.16,1.97-1.08-.17-1.53-.85-1.28-1.98Z"/>
    <path class="cls-3" d="m470.3,323.82c1.21.09,1.96.6,1.98,1.81.02.93-.14,1.83-1.26,2.05-.91.18-2.04-.69-2.09-1.63-.05-1.05.25-1.95,1.36-2.24Z"/>
    <path class="cls-3" d="m429.28,327.23c-.29.98-.56,1.95-1.74,1.68-1.02-.23-1.38-1.1-1.13-2.07.18-.72.33-1.88,1.28-1.65.84.2,1.71.95,1.59,2.05Z"/>
  </g>
  <g>
    <path class="cls-2" d="m98.67,380.48c-4.83.17-9.86.26-14.86-.1-6.43-.47-12.7-1.77-18.67-4.31-1.01-.43-2.1-.69-3.17-.95-2.06-.49-3.26-2.39-5.13-3.12-3.18-1.25-5.95-3.28-8.4-5.43-4.14-3.62-7.12-8.16-8.76-13.64-1.14-3.81-1.58-7.59-1.75-11.49-.14-3.24.84-6.2,2.14-8.98,2.21-4.71,4.81-9.25,8.17-13.27,1.03-1.23,2.15-2.42,3.35-3.47,5-4.38,8.09-10.21,11.92-15.47,2.78-3.82,4.25-8.43,7.46-12.01.87-.97,1.57-2.15,2.63-2.87,1.42-.96,1.38-1.98.78-3.36-1.1-2.53-1.46-5.22-1.44-7.96,0-.4.04-.81.08-1.21.25-2.52,1.48-4.51,3.11-4.71,2.2-.27,3.46,1.14,4.68,2.74,1.62,2.12,2.01,4.58,2.31,7.08.15,1.27.6,1.38,1.79,1.03,4.03-1.2,8.06-2.57,12.19-3.22,3.09-.49,6.21-1.05,9.48-.78,2.87.24,5.8.34,8.71.32,1.5-.01,1.93-.52,1.63-2.02-.69-3.48-.08-6.59,2.91-8.93,2.14-1.68,3.59-1.56,5.48.38,2.84,2.92,2.92,6.5,2.46,10.16-.19,1.46-1.06,3.02-.53,4.35.53,1.32,2.37,1.35,3.62,1.96,2.49,1.21,4.55,2.98,6.52,4.84,3.73,3.52,6.83,7.56,9.53,11.92,2.34,3.76,5.26,7.09,8.03,10.51,2.13,2.62,3.59,5.5,5.07,8.49,2.13,4.31,3,8.9,3.87,13.52.96,5.06.55,10.05-1.24,14.82-.5,1.34-.71,2.7-1.1,4.02-1.16,3.93-3.9,6.79-6.44,9.74-5.19,6.02-11.54,10.7-18.67,14.06-4.31,2.03-9.05,3.24-13.75,4.25-4.31.93-8.6,1.99-13.08,2-3.1,0-6.1,1.27-9.26,1.13-.5-.02-1.01,0-1.69,0Zm23.86-30.6c-.02-1-.15-1.79-.86-2.34-1.19-.92-2.34-1.9-3.59-2.72-4.36-2.86-9.12-4.98-13.76-7.33-2.06-1.04-3.77-.68-5.63.34-4.15,2.25-7.77,5.29-11.81,7.7-.95.57-1.6,1.52-2.12,2.51-.38.72-.26,1.39.29,1.93.54.52,1.22.73,1.93.29.34-.21.63-.5.96-.72,4.03-2.62,8.04-5.28,12.3-7.5.81-.42,1.49-.87,2.51-.42,5.33,2.35,10.77,4.48,15.26,8.34.77.66,1.47,1.39,2.56,1.47,1.22.08,1.9-.46,1.97-1.54Zm-1.46-43.62c.05-1.02-1.09-1.54-2.22-.88-2.82,1.67-5.61,3.41-8.38,5.18-.69.44-1.21,1.19-.7,2.04.47.78,1.23.43,1.87.14,3.09-1.42,5.92-3.29,8.73-5.19.43-.29.6-.78.69-1.29Zm-36.96.82c-.51.03-.71.23-.78.55-.12.51-.12,1.08.3,1.39,2.66,1.96,5.39,3.83,8.51,5.03.61.23,1.21.22,1.54-.45.31-.64-.05-1.18-.46-1.62-.27-.28-.64-.47-.99-.66-2.39-1.28-4.78-2.55-7.17-3.82-.35-.18-.72-.32-.94-.41Zm38.59,9.02c.03-1.24-1.06-2.23-2.38-2.14-1.58.11-3.69,2.37-3.61,3.92.05.96.38,1.81,1.48,1.98,1.68.27,4.46-2.08,4.5-3.76Zm-20.49,11.6c-1.77.01-3.12.83-3.5,2.05-.26.82-.24,1.64.51,2.16,1.24.85,2.53.99,3.93.23,1.07-.58,1.92-1.31,1.58-2.54-.34-1.22-1.25-2.03-2.52-1.91Zm-18.54-12.54c-1.26.02-2.23.89-2.18,1.99.06,1.25,2.45,3.16,4,3.19,1.28.03,2.07-.79,2-2.08-.09-1.66-1.9-3.12-3.83-3.1Zm-3.46,13.79c0-1.4-.75-2.4-1.83-2.25-1.41.2-1.59,1.37-1.65,2.49-.07,1.07.21,2.06,1.48,2.24,1.11.16,2-1,2-2.48Zm-5.54-.28c0-1.32-.86-2.36-1.7-2.27-.77.08-1.76,1.95-1.71,3.21.04.97.66,1.39,1.52,1.52.42.07.8-.17,1.02-.5.44-.66.85-1.35.87-1.96Zm54.58-1.33c-.13-.5.26-1.77-1.11-1.64-1.25.11-1.69,1.21-1.76,2.37-.06.92.3,1.53,1.33,1.53,1.36,0,1.61-.86,1.54-2.26Zm2.48.33c-.07,1.01.04,1.75.88,1.9.99.17,1.4-.48,1.51-1.39.05-.39.16-.77.2-1.17.07-.71.07-1.53-.7-1.77-.95-.3-1.42.46-1.7,1.24-.16.45-.16.97-.2,1.18Z"/>
    <path class="cls-14" d="m122.53,349.88c-.07,1.08-.75,1.62-1.97,1.54-1.09-.07-1.79-.8-2.56-1.47-4.49-3.87-9.93-6-15.26-8.34-1.02-.45-1.7,0-2.51.42-4.27,2.23-8.27,4.89-12.3,7.5-.33.22-.62.51-.96.72-.71.44-1.39.23-1.93-.29-.55-.53-.67-1.21-.29-1.93.53-.99,1.17-1.94,2.12-2.51,4.04-2.41,7.66-5.45,11.81-7.7,1.86-1.01,3.58-1.38,5.63-.34,4.64,2.35,9.39,4.48,13.76,7.33,1.25.82,2.4,1.8,3.59,2.72.71.55.84,1.34.86,2.34Z"/>
    <path class="cls-6" d="m121.07,306.26c-.09.5-.26.99-.69,1.29-2.81,1.9-5.64,3.77-8.73,5.19-.64.29-1.4.65-1.87-.14-.51-.84.01-1.6.7-2.04,2.76-1.77,5.55-3.51,8.38-5.18,1.13-.67,2.26-.14,2.22.88Z"/>
    <path class="cls-4" d="m84.11,307.08c.22.1.6.23.94.41,2.39,1.27,4.78,2.54,7.17,3.82.35.19.73.38.99.66.41.44.77.98.46,1.62-.33.68-.93.69-1.54.45-3.12-1.19-5.85-3.06-8.51-5.03-.42-.31-.43-.88-.3-1.39.08-.32.27-.52.78-.55Z"/>
    <path class="cls-14" d="m122.7,316.1c-.04,1.69-2.82,4.03-4.5,3.76-1.11-.18-1.43-1.02-1.48-1.98-.08-1.55,2.03-3.81,3.61-3.92,1.32-.09,2.41.89,2.38,2.14Z"/>
    <path class="cls-14" d="m102.21,327.7c1.27-.13,2.18.69,2.52,1.91.34,1.23-.51,1.96-1.58,2.54-1.4.76-2.7.62-3.93-.23-.76-.52-.77-1.34-.51-2.16.39-1.22,1.73-2.04,3.5-2.05Z"/>
    <path class="cls-14" d="m83.68,315.16c1.93-.02,3.74,1.44,3.83,3.1.07,1.29-.72,2.11-2,2.08-1.55-.03-3.95-1.94-4-3.19-.05-1.1.91-1.98,2.18-1.99Z"/>
    <path class="cls-6" d="m80.22,328.95c0,1.48-.89,2.64-2,2.48-1.27-.18-1.55-1.17-1.48-2.24.07-1.11.25-2.29,1.65-2.49,1.08-.15,1.83.85,1.83,2.25Z"/>
    <path class="cls-6" d="m74.68,328.68c-.02.62-.44,1.3-.87,1.96-.22.33-.6.56-1.02.5-.86-.13-1.48-.55-1.52-1.52-.05-1.26.94-3.13,1.71-3.21.84-.09,1.71.96,1.7,2.27Z"/>
    <path class="cls-6" d="m129.26,327.34c.07,1.4-.19,2.27-1.54,2.26-1.03,0-1.39-.61-1.33-1.53.08-1.16.51-2.26,1.76-2.37,1.37-.13.98,1.15,1.11,1.64Z"/>
    <path class="cls-6" d="m131.74,327.68c.03-.22.03-.73.2-1.18.27-.77.75-1.54,1.7-1.24.77.24.77,1.06.7,1.77-.04.39-.15.77-.2,1.17-.11.9-.53,1.56-1.51,1.39-.84-.15-.95-.89-.88-1.9Z"/>
  </g>
  <g>
    <path class="cls-7" d="m104.49,208.29c-4.69.07-9.69.36-14.66-.12-6.4-.62-12.55-2.16-18.7-4.18-4.02-1.32-6.97-4.38-11.01-5.36-3.44-3.17-8.18-4.91-10.18-9.73-.73-1.77-2.43-3.1-3.15-5.06-2.3-6.29-3.74-12.69-2.06-19.32.92-3.67,2.59-7.11,4.67-10.31,1.2-1.85,2.18-3.87,3.55-5.58,1.69-2.11,3.56-4.12,5.58-5.91,3.14-2.77,5.22-6.35,7.67-9.64,1.73-2.33,3.3-4.79,4.92-7.21.34-.5.67-1.02.89-1.57,1.76-4.37,4.55-8.04,7.85-11.32,1.07-1.06,1.18-1.92.61-3.18-1.26-2.82-1.6-5.8-1.38-8.86.04-.6.07-1.23.26-1.79.5-1.45,1.13-2.92,2.85-3.22,1.65-.3,2.94.56,3.96,1.75,1.89,2.22,2.8,4.83,3.04,7.73.15,1.8.21,1.7,2.03,1.22,6.07-1.59,12.08-3.53,18.4-3.95,2.18-.15,4.39.05,6.58.13,1.51.05,3.01.23,4.52.24,2.41.03,2.31,0,2.15-2.52-.17-2.81-.13-5.48,2.29-7.73,3.54-3.31,5.76-1.82,7.74,1.77,1.45,2.63,1.42,5.6.82,8.54-.02.1-.08.19-.1.28q-.78,3.58,2.43,5.16c4.39,2.19,8,5.3,11.08,9.13,4.58,5.69,8.08,12.2,13.11,17.51,3.57,3.76,5.67,8.37,7.36,13,2.28,6.22,3.37,12.83,2.71,19.57-.15,1.51-.95,2.83-1.23,4.33-1.54,8.11-6.59,14.03-12.48,19.35-4.04,3.66-8.65,6.51-13.39,9.19-1.96,1.11-4.15,1.41-6.21,2.15-5.48,1.97-11.16,3.47-16.93,4.05-5.09.51-10.15,1.6-15.6,1.45Zm2.21-34.1c6.57-.01,12.98-.81,18.83-4.2.99-.58,1.8-1.29,2.18-2.39.41-1.19-.12-1.99-1.37-2.09-1.04-.08-1.94.3-2.84.82-6.83,3.97-14.41,4.03-21.93,3.83-3.91-.1-7.58-1.78-11.13-3.44-.95-.44-1.89-1.18-2.67-.15-.9,1.19.2,2.14,1,2.75,1.75,1.32,3.57,2.46,5.77,3.12,3.99,1.19,7.98,1.99,12.16,1.74Zm-28.96-18.43c-.52-.47-.88-.82-1.27-1.13-.96-.75-1.93-1.11-2.94-.06-1.3,1.34-1.6,2.81-.81,4.03.88,1.37,1.65,1.48,2.95.44.6-.48.72-1.53,1.75-1.49,2.37,1.98,3.16,2.12,4.27.76,1.09-1.33,1.07-3.18-.03-4.09-.98-.81-1.9-.47-3.92,1.53Zm27.58,4.12c2.01.03,3.83-1.42,3.83-3.02,0-1.72-1.59-3.12-3.66-3.22-1.68-.08-3.7,1.69-3.7,3.24,0,1.53,1.7,2.97,3.53,3Zm20.85-16.92c-.01-2.34-.65-3.13-2.56-3.19-1.68-.05-2.74,1.48-2.68,3.88.04,1.54,1.33,2.94,2.77,2.99,1.66.07,2.49-1.17,2.47-3.68Zm-1.22-12.28c-1.29-.02-2.9.85-4.47,1.75-.91.53-1.05,1.48-.66,2.39.36.83,1.19.7,1.85.48,1.47-.5,3-.36,4.49-.58,1.1-.16,1.9-.65,1.77-1.98-.15-1.44-.91-2.13-2.98-2.07Zm10.96,22.76c-.16-.64-.17-2.05-1.62-2.36-1.23-.26-2.04.7-2.67,1.63-.63.94-.76,2.08-.88,3.17-.11,1.03.75,1.56,1.51,2.08.92.62,1.52-.03,2.11-.55,1.04-.9,1.65-2.02,1.54-3.98Zm-42.79-17.27c1.13-.02,2.26-.02,2.59-1.2.33-1.2-.68-1.78-1.57-2.22-2-.99-4.04-.86-6.07-.02-.39.16-.76.37-.78.8-.03.54.3,1,.8,1.15,1.71.53,3.31,1.41,5.04,1.5Zm-.53,8.23c.02-1.87-.85-3.14-2.13-3.1-1.3.04-2.26,1.28-2.34,3.02-.08,1.88.95,3.32,2.34,3.28,1.16-.03,2.11-1.45,2.13-3.2Zm48.88,5.98c-.22.11-.51.21-.74.39-1.02.75-2.01,3.73-1.68,4.97.26.98.96,1.24,1.85,1.05,1.81-.39,3.27-3.07,2.61-4.81-.34-.9-.94-1.53-2.05-1.6Z"/>
    <path class="cls-14" d="m106.7,174.2c-4.18.25-8.17-.55-12.16-1.74-2.2-.66-4.03-1.8-5.77-3.12-.8-.61-1.9-1.55-1-2.75.78-1.04,1.72-.3,2.67.15,3.55,1.66,7.22,3.34,11.13,3.44,7.52.2,15.1.14,21.93-3.83.9-.52,1.8-.9,2.84-.82,1.26.1,1.78.89,1.37,2.09-.37,1.1-1.18,1.81-2.18,2.39-5.84,3.38-12.26,4.18-18.83,4.2Z"/>
    <path class="cls-6" d="m77.74,155.77c2.02-2.01,2.94-2.34,3.92-1.53,1.1.91,1.11,2.76.03,4.09-1.11,1.36-1.9,1.22-4.27-.76-1.03-.04-1.15,1.01-1.75,1.49-1.3,1.03-2.07.93-2.95-.44-.79-1.22-.49-2.69.81-4.03,1.01-1.04,1.98-.69,2.94.06.39.31.75.67,1.27,1.13Z"/>
    <path class="cls-14" d="m105.32,159.89c-1.83-.02-3.53-1.46-3.53-3,0-1.56,2.02-3.32,3.7-3.24,2.07.1,3.66,1.5,3.66,3.22,0,1.6-1.83,3.04-3.83,3.02Z"/>
    <path class="cls-14" d="m126.18,142.97c.01,2.51-.81,3.75-2.47,3.68-1.43-.06-2.73-1.46-2.77-2.99-.06-2.4,1-3.93,2.68-3.88,1.91.06,2.55.85,2.56,3.19Z"/>
    <path class="cls-6" d="m124.96,130.69c2.07-.06,2.83.63,2.98,2.07.13,1.33-.67,1.81-1.77,1.98-1.49.22-3.02.08-4.49.58-.66.23-1.49.35-1.85-.48-.4-.91-.26-1.86.66-2.39,1.57-.91,3.18-1.77,4.47-1.75Z"/>
    <path class="cls-6" d="m135.91,153.46c.11,1.96-.5,3.08-1.54,3.98-.59.52-1.19,1.17-2.11.55-.77-.52-1.63-1.05-1.51-2.08.12-1.08.25-2.23.88-3.17.63-.93,1.44-1.9,2.67-1.63,1.44.31,1.45,1.71,1.62,2.36Z"/>
    <path class="cls-6" d="m93.12,136.19c-1.73-.09-3.33-.97-5.04-1.5-.5-.15-.83-.61-.8-1.15.02-.43.4-.64.78-.8,2.03-.83,4.07-.97,6.07.02.89.44,1.91,1.01,1.57,2.22-.33,1.18-1.46,1.18-2.59,1.2Z"/>
    <path class="cls-14" d="m92.59,144.42c-.02,1.75-.96,3.17-2.13,3.2-1.39.03-2.42-1.41-2.34-3.28.07-1.74,1.04-2.98,2.34-3.02,1.28-.04,2.15,1.23,2.13,3.1Z"/>
    <path class="cls-6" d="m141.48,150.4c1.1.07,1.71.7,2.05,1.6.65,1.74-.8,4.42-2.61,4.81-.89.19-1.59-.07-1.85-1.05-.33-1.24.65-4.22,1.68-4.97.23-.17.52-.27.74-.39Z"/>
  </g>
  <g>
    <path class="cls-1" d="m257.3,107.11c4.64-1.26,8.92-2.73,13.33-3.52,3.07-.55,6.21-1.11,9.44-.75,2.97.32,5.99.14,8.99.2,1.53.03,1.86-.57,1.54-2.06-.75-3.51.1-6.56,3.04-8.87,2.14-1.68,3.61-1.54,5.44.5,2.57,2.86,2.98,6.25,2.55,9.87-.03.29-.25.57-.28.86-.46,4.25-1.68,3.47,2.77,5.5,4.36,1.99,7.88,5.27,10.78,9.06,4.42,5.78,8.36,11.96,13.07,17.49,3.22,3.78,5.16,8.06,7.12,12.43.45,1,.72,2.09.97,3.16,1.09,4.69,2.24,9.35,2.08,14.26-.09,2.79-1.09,5.3-1.7,7.91-.22.93-.64,1.84-.83,2.83-.48,2.52-1.7,4.75-3.24,6.76-5.9,7.71-13.17,13.83-21.9,18.05-2.09,1.01-4.44,1.68-6.8,2.22-2.7.61-5.26,1.96-8.03,2.39-4.05.63-8.01,2.02-12.19,1.73-.1,0-.21-.02-.3,0-5.11,1.42-10.38,1.34-15.58,1.3-4.19-.03-8.39.02-12.6-.43-4.24-.45-8.31-1.53-12.32-2.76-3.88-1.19-7.75-2.44-11.26-4.79-3.35-2.24-6.85-4.31-10.13-6.68-.49-.35-1.05-.71-1.34-1.2-1.86-3.21-4.64-5.91-5.84-9.44-.81-2.4-1.82-4.8-1.94-7.45-.1-2.2-.53-4.37-.54-6.6-.01-3.41,1.2-6.44,2.46-9.49,1.58-3.83,4.06-7.12,6.23-10.6,1.44-2.31,3.49-4.19,5.53-5.97,3.16-2.76,5.33-6.26,7.76-9.58,1.9-2.59,3.65-5.29,5.43-7.97,1.17-1.76,1.55-3.92,2.89-5.62,1.86-2.36,3.26-5.12,5.72-6.97,1.15-.87,1.16-1.9.64-2.93-1.46-2.89-1.64-5.97-1.52-9.1.02-.5,0-1.03.15-1.5.52-1.57,1.26-3.1,3.03-3.48,1.65-.35,2.96.62,3.9,1.85,1.22,1.58,2.5,3.14,2.64,5.33.08,1.28.51,2.54.84,4.03Zm42.69,47.89c.03.82.2,1.56.78,2.21,2.52,2.83,7.72,3.17,10.65.67,2.85-2.43,3.29-7.64,1.03-10.57-2.81-3.63-8.48-2.96-10.9-1.07-1.95,1.53-2.9,4.97-2.03,7.19.16.52.32,1.04.48,1.56Zm-47.28-1.08c1.27-.25,2.28-.85,2.33-2.26.03-.93-.7-1.34-1.59-1.39-.82-5.49-4.5-8.45-9.18-7.39-3.99.9-6.47,3.99-6,7.46.62,4.52,4.56,8.13,8.61,7.58,2.5-.33,4.95-1.12,5.83-4Zm30.52,16.17c5.41-.32,11.75-1.18,17.54-4.37,1.58-.87,2.04-1.84,1.34-3.13-.84-1.57-1.88-.52-2.79-.06-3.7,1.9-7.55,3.16-11.7,3.76-5.68.82-11.33.8-17.02.34-5.32-.43-10.58-.99-15.56-3.16-1.53-.67-2.7-1.67-3.92-2.71-.37-.32-.93-.56-1.4-.26-.5.32-.32.89-.22,1.38.23,1.06.99,1.73,1.77,2.37,2.07,1.69,4.52,2.6,7.03,3.35,7.8,2.33,15.81,2.56,24.92,2.5Zm-26.27-28.82c-.32.05-.74.06-1.11.19-.78.29-2.08.12-1.93,1.43.12,1.04,1.11,1.4,2.06,1.38,1.42-.02,2.81.1,4.21.31.64.1,1.24-.14,1.4-.84.15-.67-.22-1.17-.78-1.5-1.16-.69-2.45-.87-3.85-.97Zm35.31,4.91c.47.03,1.37.06,2.27.14.66.05,1.25-.06,1.47-.74.22-.68-.19-1.13-.72-1.5-1.46-1.03-5.32-.82-6.6.39-.38.36-.62.84-.47,1.35.16.57.67.69,1.21.64.8-.08,1.6-.16,2.85-.28Zm-2.27-6.89c1.55.24,3.15-.66,4.87-.6.61.02,1.28-.11,1.28-.9,0-.71-.64-1-1.21-1.16-2.21-.63-4.37-.13-6.49.46-.75.21-1.61.69-1.34,1.67.24.86,1.15.55,1.82.58.3.02.6-.02,1.08-.04Zm-30.84-6.07c-.9.09-1.8.13-2.69.28-.51.09-.92.43-.9,1.03.02.59.45.98.95.99,2.31.04,4.58.44,6.86.73.48.06,1.05.02,1.25-.57.25-.74-.31-1.07-.82-1.39-1.43-.89-3.01-1.05-4.64-1.07Zm16.42,22.27c1.48.08,3-.88,3.05-1.92.04-.91-1.33-2.12-2.52-2.24-1.41-.14-2.78.82-2.93,2.03-.13,1.12.92,2.05,2.41,2.12Zm21.73-2.9c-.08-.64-.49-1.05-1.18-1.05-.99,0-1.41.68-1.48,1.57-.06.67.21,1.19.96,1.27.84.1,1.72-.81,1.69-1.8Z"/>
    <path class="cls-16" d="m283.22,170.09c-9.1.07-17.12-.17-24.92-2.5-2.52-.75-4.96-1.66-7.03-3.35-.78-.64-1.54-1.31-1.77-2.37-.1-.49-.28-1.06.22-1.38.47-.3,1.03-.05,1.4.26,1.21,1.04,2.39,2.04,3.92,2.71,4.98,2.17,10.24,2.74,15.56,3.16,5.69.46,11.34.48,17.02-.34,4.15-.6,8-1.86,11.7-3.76.9-.46,1.94-1.51,2.79.06.7,1.29.24,2.26-1.34,3.13-5.79,3.19-12.13,4.05-17.54,4.37Z"/>
    <path class="cls-11" d="m252.71,153.92c-.88,2.88-3.33,3.67-5.83,4-4.05.54-8-3.07-8.61-7.58-.48-3.47,2-6.56,6-7.46,4.68-1.06,8.36,1.9,9.18,7.39-.88,1.09-1.93,2.14-.74,3.65Zm-2.63-3.52c-.21-.36-.16-1.17-.97-1.06-1.15.16-1.54,1.09-1.69,2.11-.1.68.23,1.22.94,1.17,1.22-.09,1.52-1.05,1.72-2.22Z"/>
    <path class="cls-11" d="m299.51,153.44c-.87-2.22.08-5.66,2.03-7.19,2.42-1.9,8.08-2.57,10.9,1.07,2.26,2.92,1.82,8.14-1.03,10.57-2.93,2.5-8.13,2.16-10.65-.67-.58-.65-.75-1.39-.78-2.21,1.8-.85,2.47-2.15,1.82-3.48-.19-.39-.43-.64-.88-.61-.4.02-.78.13-.87.6-.13.66-.03,1.38-.55,1.93Z"/>
    <path class="cls-16" d="m256.96,141.27c1.39.11,2.69.29,3.85.97.56.33.93.83.78,1.5-.16.7-.76.94-1.4.84-1.4-.22-2.79-.34-4.21-.31-.95.02-1.94-.34-2.06-1.38-.15-1.31,1.15-1.14,1.93-1.43.37-.14.79-.14,1.11-.19Z"/>
    <path class="cls-16" d="m292.27,146.19c-1.24.12-2.05.2-2.85.28-.54.05-1.05-.07-1.21-.64-.15-.51.09-.99.47-1.35,1.29-1.21,5.14-1.42,6.6-.39.53.37.94.82.72,1.5-.22.68-.81.79-1.47.74-.9-.07-1.8-.11-2.27-.14Z"/>
    <path class="cls-4" d="m290,139.3c-.48.02-.78.06-1.08.04-.66-.04-1.57.27-1.82-.58-.27-.97.59-1.46,1.34-1.67,2.12-.59,4.28-1.09,6.49-.46.57.16,1.21.45,1.21,1.16,0,.8-.67.93-1.28.9-1.72-.06-3.31.84-4.87.6Z"/>
    <path class="cls-4" d="m259.16,133.22c1.63.02,3.22.18,4.64,1.07.52.32,1.07.65.82,1.39-.2.59-.77.63-1.25.57-2.28-.29-4.55-.69-6.86-.73-.5,0-.93-.4-.95-.99-.02-.6.4-.94.9-1.03.88-.15,1.79-.19,2.69-.28Z"/>
    <path class="cls-16" d="m275.58,155.49c-1.49-.08-2.54-1-2.41-2.12.15-1.22,1.52-2.17,2.93-2.03,1.2.12,2.56,1.33,2.52,2.24-.04,1.03-1.56,1.99-3.05,1.92Z"/>
    <path class="cls-6" d="m252.71,153.92c-1.19-1.51-.14-2.56.74-3.65.9.05,1.63.46,1.59,1.39-.05,1.4-1.06,2.01-2.33,2.26Z"/>
    <path class="cls-6" d="m299.51,153.44c.52-.55.42-1.27.55-1.93.09-.47.47-.58.87-.6.44-.03.69.23.88.61.65,1.33-.02,2.63-1.82,3.48-.16-.52-.32-1.04-.48-1.56Z"/>
    <path class="cls-6" d="m297.31,152.59c.03.99-.85,1.89-1.69,1.8-.75-.09-1.02-.6-.96-1.27.08-.89.49-1.56,1.48-1.57.69,0,1.1.41,1.18,1.05Z"/>
    <path class="cls-6" d="m250.07,150.4c-.2,1.17-.5,2.13-1.72,2.22-.71.05-1.04-.49-.94-1.17.15-1.02.54-1.95,1.69-2.11.81-.11.76.7.97,1.06Z"/>
  </g>
</svg>