<?xml version="1.0" encoding="UTF-8"?>
<svg id="Layer_1" data-name="Layer 1" xmlns="http://www.w3.org/2000/svg" viewBox="0 0 636.51 393.03">
  <defs>
    <style>
      .cls-1 {
        letter-spacing: -.09em;
      }

      .cls-2 {
        letter-spacing: 0em;
      }

      .cls-3 {
        fill: #e6e3e0;
      }

      .cls-4 {
        fill: #edeade;
      }

      .cls-5 {
        fill: #91998e;
      }

      .cls-6 {
        fill: #677f70;
      }

      .cls-7, .cls-8, .cls-9, .cls-10 {
        fill: #d7bc5f;
      }

      .cls-11, .cls-12, .cls-13, .cls-14 {
        fill: #cba89b;
      }

      .cls-15 {
        fill: #233422;
      }

      .cls-16, .cls-17, .cls-18, .cls-19 {
        fill: #536b51;
      }

      .cls-20 {
        fill: #888b74;
      }

      .cls-21 {
        letter-spacing: -.01em;
      }

      .cls-22 {
        letter-spacing: -.02em;
      }

      .cls-23 {
        fill: #fff;
      }

      .cls-23, .cls-24, .cls-12, .cls-17, .cls-8 {
        font-size: 18px;
      }

      .cls-23, .cls-24, .cls-12, .cls-17, .cls-8, .cls-25, .cls-18, .cls-13, .cls-9, .cls-26, .cls-19, .cls-14, .cls-10 {
        font-family: Rubik-Medium, Rubik;
        font-weight: 500;
      }

      .cls-24, .cls-25, .cls-26 {
        fill: #58595b;
      }

      .cls-27 {
        letter-spacing: 0em;
      }

      .cls-28 {
        letter-spacing: 0em;
      }

      .cls-29 {
        letter-spacing: -.01em;
      }

      .cls-30 {
        letter-spacing: -.02em;
      }

      .cls-25, .cls-18, .cls-13, .cls-9 {
        font-size: 14px;
      }

      .cls-31 {
        letter-spacing: -.02em;
      }

      .cls-32 {
        letter-spacing: -.01em;
      }

      .cls-26, .cls-19, .cls-14, .cls-10 {
        font-size: 9.74px;
      }
    </style>
  </defs>
  <path class="cls-16" d="m166.33,114.16c-2.03,1.07-2.87,1.63-4.48,2.07-2.87.78-5.64,2-8.6,2.41-2.36.33-4.33.72-7.1.92-1.79.3-3.16.41-4.74.63-1.99.29-3.99.18-5.96.2-4.4.05-8.84-.18-13.14-1.27-2.69-.68-5.38-1.34-7.92-2.62-1.33-.59-2.65-1.31-3.71-1.95-1.86-1.14-3.09-1.98-4.42-2.91-1.06-.79-1.99-1.64-2.77-2.5-1.31-1.36-2.33-2.51-3.16-4.37-.79-1.77-1.31-4.3-1.46-6.12-.22-2.73-.06-3.75.05-4.97.34-3.36,1.11-4.95,1.31-5.38,1.42-3.2,3.61-6.07,5.88-8.77,1.06-1.27,2.29-2.39,3.47-3.54,2.07-2.02,3.38-4.57,5.12-6.8,2.42-3.09,3.75-6.87,6.28-9.89.56-.67,1.06-1.42,1.76-1.88.96-.63.92-1.25.5-2.13-.71-1.46-.94-3.05-1.02-4.65-.04-.93.01-1.86.36-2.75.8-2.08,2.93-2.46,4.35-.74,1.23,1.49,1.77,3.25,1.95,5.15.12,1.25.13,1.22,1.26.9,2.68-.74,5.34-1.58,8.06-2.13,3.38-.69,6.82-.76,10.26-.33.07,0,.13.04.19.05,2.71.4,2.79.32,2.63-2.37-.1-1.69.08-3.24,1.57-4.47,2.09-1.73,3.93-1.41,5.02,1.1.82,1.88.85,3.83.5,5.81-.03.2-.09.39-.13.58-.38,1.98-.37,1.96,1.53,2.86,2.68,1.28,4.93,3.09,6.86,5.37,3.34,3.94,5.84,8.5,9.28,12.35,1.83,2.05,2.98,4.44,4.12,6.95,2,4.42,2.7,8.96,2.64,13.71-.01,1.03-.37,3.11-.53,4.08-.68,4.28-2.95,6.58-5.88,9.71-2.29,2.45-4.83,4.55-7.62,6.37-.65.48-1,.63-1.51.88h0c-.31.22-.8.42-.8.42Z"/>
  <path class="cls-7" d="m304.98,114.16c-2.03,1.07-2.87,1.63-4.48,2.07-2.87.78-5.64,2-8.6,2.41-2.36.33-4.33.72-7.1.92-1.79.3-3.16.41-4.74.63-1.99.29-3.99.18-5.96.2-4.4.05-8.84-.18-13.14-1.27-2.69-.68-5.38-1.34-7.92-2.62-1.33-.59-2.65-1.31-3.71-1.95-1.86-1.14-3.09-1.98-4.42-2.91-1.06-.79-1.99-1.64-2.77-2.5-1.31-1.36-2.33-2.51-3.16-4.37-.79-1.77-1.31-4.3-1.46-6.12-.22-2.73-.06-3.75.05-4.97.34-3.36,1.11-4.95,1.31-5.38,1.42-3.2,3.61-6.07,5.88-8.77,1.06-1.27,2.29-2.39,3.47-3.54,2.07-2.02,3.38-4.57,5.12-6.8,2.42-3.09,3.75-6.87,6.28-9.89.56-.67,1.06-1.42,1.76-1.88.96-.63.92-1.25.5-2.13-.71-1.46-.94-3.05-1.02-4.65-.04-.93.01-1.86.36-2.75.8-2.08,2.93-2.46,4.35-.74,1.23,1.49,1.77,3.25,1.95,5.15.12,1.25.13,1.22,1.26.9,2.68-.74,5.34-1.58,8.06-2.13,3.38-.69,6.82-.76,10.26-.33.07,0,.13.04.19.05,2.71.4,2.79.32,2.63-2.37-.1-1.69.08-3.24,1.57-4.47,2.09-1.73,3.93-1.41,5.02,1.1.82,1.88.85,3.83.5,5.81-.03.2-.09.39-.13.58-.38,1.98-.37,1.96,1.53,2.86,2.68,1.28,4.93,3.09,6.86,5.37,3.34,3.94,5.84,8.5,9.28,12.35,1.83,2.05,2.98,4.44,4.12,6.95,2,4.42,2.7,8.96,2.64,13.71-.01,1.03-.37,3.11-.53,4.08-.68,4.28-2.95,6.58-5.88,9.71-2.29,2.45-4.83,4.55-7.62,6.37-.65.48-1,.63-1.51.88h0c-.31.22-.8.42-.8.42Z"/>
  <path class="cls-4" d="m447.5,114.16c-2.03,1.07-2.87,1.63-4.48,2.07-2.87.78-5.64,2-8.6,2.41-2.36.33-4.33.72-7.1.92-1.79.3-3.16.41-4.74.63-1.99.29-3.99.18-5.96.2-4.4.05-8.84-.18-13.14-1.27-2.69-.68-5.38-1.34-7.92-2.62-1.33-.59-2.65-1.31-3.71-1.95-1.86-1.14-3.09-1.98-4.42-2.91-1.06-.79-1.99-1.64-2.77-2.5-1.31-1.36-2.33-2.51-3.16-4.37s-1.31-4.3-1.46-6.12c-.22-2.73-.06-3.75.05-4.97.34-3.36,1.11-4.95,1.31-5.38,1.42-3.2,3.61-6.07,5.88-8.77,1.06-1.27,2.29-2.39,3.47-3.54,2.07-2.02,3.38-4.57,5.12-6.8,2.42-3.09,3.75-6.87,6.28-9.89.56-.67,1.06-1.42,1.76-1.88.96-.63.92-1.25.5-2.13-.71-1.46-.94-3.05-1.02-4.65-.04-.93.01-1.86.36-2.75.8-2.08,2.93-2.46,4.35-.74,1.23,1.49,1.77,3.25,1.95,5.15.12,1.25.13,1.22,1.26.9,2.68-.74,5.34-1.58,8.06-2.13,3.38-.69,6.82-.76,10.26-.33.07,0,.13.04.19.05,2.71.4,2.79.32,2.63-2.37-.1-1.69.08-3.24,1.57-4.47,2.09-1.73,3.93-1.41,5.02,1.1.82,1.88.85,3.83.5,5.81-.03.2-.09.39-.13.58-.38,1.98-.37,1.96,1.53,2.86,2.68,1.28,4.93,3.09,6.86,5.37,3.34,3.94,5.84,8.5,9.28,12.35,1.83,2.05,2.98,4.44,4.12,6.95,2,4.42,2.7,8.96,2.64,13.71-.01,1.03-.37,3.11-.53,4.08-.68,4.28-2.95,6.58-5.88,9.71-2.29,2.45-4.83,4.55-7.62,6.37-.65.48-1,.63-1.51.88h0c-.31.22-.8.42-.8.42Z"/>
  <path class="cls-11" d="m578.68,114.16c-2.03,1.07-2.87,1.63-4.48,2.07-2.87.78-5.64,2-8.6,2.41-2.36.33-4.33.72-7.1.92-1.79.3-3.16.41-4.74.63-1.99.29-3.99.18-5.96.2-4.4.05-8.84-.18-13.14-1.27-2.69-.68-5.38-1.34-7.92-2.62-1.33-.59-2.65-1.31-3.71-1.95-1.86-1.14-3.09-1.98-4.42-2.91-1.06-.79-1.99-1.64-2.77-2.5-1.31-1.36-2.33-2.51-3.16-4.37-.79-1.77-1.31-4.3-1.46-6.12-.22-2.73-.06-3.75.05-4.97.34-3.36,1.11-4.95,1.31-5.38,1.42-3.2,3.61-6.07,5.88-8.77,1.06-1.27,2.29-2.39,3.47-3.54,2.07-2.02,3.38-4.57,5.12-6.8,2.42-3.09,3.75-6.87,6.28-9.89.56-.67,1.06-1.42,1.76-1.88.96-.63.92-1.25.5-2.13-.71-1.46-.94-3.05-1.02-4.65-.04-.93.01-1.86.36-2.75.8-2.08,2.93-2.46,4.35-.74,1.23,1.49,1.77,3.25,1.95,5.15.12,1.25.13,1.22,1.26.9,2.68-.74,5.34-1.58,8.06-2.13,3.38-.69,6.82-.76,10.26-.33.07,0,.13.04.19.05,2.71.4,2.79.32,2.63-2.37-.1-1.69.08-3.24,1.57-4.47,2.09-1.73,3.93-1.41,5.02,1.1.82,1.88.85,3.83.5,5.81-.03.2-.09.39-.13.58-.38,1.98-.37,1.96,1.53,2.86,2.68,1.28,4.93,3.09,6.86,5.37,3.34,3.94,5.84,8.5,9.28,12.35,1.83,2.05,2.98,4.44,4.12,6.95,2,4.42,2.7,8.96,2.64,13.71-.01,1.03-.37,3.11-.53,4.08-.68,4.28-2.95,6.58-5.88,9.71-2.29,2.45-4.83,4.55-7.62,6.37-.65.48-1,.63-1.51.88h0c-.31.22-.8.42-.8.42Z"/>
  <text class="cls-17" transform="translate(102 170.55)"><tspan x="0" y="0">#536B</tspan><tspan class="cls-29" x="58.57" y="0">5</tspan><tspan x="69.53" y="0">1</tspan></text>
  <text class="cls-18" transform="translate(120.55 145.99)"><tspan x="0" y="0">G</tspan><tspan class="cls-27" x="9.8" y="0">r</tspan><tspan x="15.54" y="0">een</tspan></text>
  <text class="cls-9" transform="translate(257.85 145.99)"><tspan class="cls-1" x="0" y="0">Y</tspan><tspan x="8.09" y="0">ell</tspan><tspan class="cls-32" x="23.59" y="0">o</tspan><tspan class="cls-30" x="31.67" y="0">w</tspan></text>
  <text class="cls-25" transform="translate(391.31 145.99)"><tspan x="0" y="0">O</tspan><tspan class="cls-22" x="9.73" y="0">ff</tspan><tspan class="cls-21" x="19.91" y="0"> </tspan><tspan x="22.95" y="0">White</tspan></text>
  <text class="cls-13" transform="translate(537.91 145.99)"><tspan x="0" y="0">Pin</tspan><tspan class="cls-28" x="21.66" y="0">k</tspan></text>
  <text class="cls-18" transform="translate(110.06 193.08)"><tspan x="0" y="0" xml:space="preserve">R     G     B</tspan></text>
  <text class="cls-19" transform="translate(109.85 208.58)"><tspan x="0" y="0" xml:space="preserve">83     107     81</tspan></text>
  <text class="cls-10" transform="translate(245.24 208.58)"><tspan x="0" y="0" xml:space="preserve">215     188     95</tspan></text>
  <text class="cls-26" transform="translate(383.72 208.69)"><tspan x="0" y="0" xml:space="preserve">237     234     222</tspan></text>
  <text class="cls-14" transform="translate(515.82 208.69)"><tspan x="0" y="0" xml:space="preserve">203     168     155</tspan></text>
  <text class="cls-9" transform="translate(248.71 193.08)"><tspan x="0" y="0" xml:space="preserve">R     G     B</tspan></text>
  <text class="cls-25" transform="translate(391.23 193.08)"><tspan x="0" y="0" xml:space="preserve">R     G     B</tspan></text>
  <text class="cls-13" transform="translate(522.41 193.08)"><tspan x="0" y="0" xml:space="preserve">R     G     B</tspan></text>
  <text class="cls-8" transform="translate(238.55 170.55)"><tspan x="0" y="0">#D7BC5</tspan><tspan class="cls-31" x="70.69" y="0">F</tspan></text>
  <text class="cls-24" transform="translate(379.98 170.55)"><tspan x="0" y="0">#EDEADE</tspan></text>
  <text class="cls-12" transform="translate(510.74 170.55)"><tspan x="0" y="0">#C</tspan><tspan class="cls-2" x="24.75" y="0">B</tspan><tspan x="36.94" y="0">A89B</tspan></text>
  <rect class="cls-6" x="12.89" y="68.4" width="66.2" height="26.47" transform="translate(127.62 35.65) rotate(90)"/>
  <text class="cls-23" transform="translate(52.43 102.22) rotate(-90)"><tspan x="0" y="0">Main</tspan></text>
  <rect class="cls-6" x="2.61" y="295.79" width="86.9" height="26.47" transform="translate(355.09 262.97) rotate(90)"/>
  <text class="cls-23" transform="translate(52.36 341.32) rotate(-90)"><tspan x="0" y="0">Second</tspan></text>
  <rect class="cls-20" x="392.03" y="280.96" width="59.71" height="59.71" rx="29.86" ry="29.86"/>
  <rect class="cls-3" x="110.86" y="280.96" width="59.71" height="59.71" rx="29.86" ry="29.86"/>
  <rect class="cls-15" x="523.21" y="280.96" width="59.71" height="59.71" rx="29.86" ry="29.86"/>
  <rect class="cls-5" x="249.51" y="280.96" width="59.71" height="59.71" rx="29.86" ry="29.86"/>
</svg>