<?xml version="1.0" encoding="UTF-8"?>
<svg id="Layer_1" data-name="Layer 1" xmlns="http://www.w3.org/2000/svg" viewBox="0 0 126.55 117.49">
  <defs>
    <style>
      .cls-1 {
        fill: #ebafb1;
      }

      .cls-2 {
        fill: #fffaf5;
      }

      .cls-3 {
        fill: #fef1e1;
      }

      .cls-4 {
        fill: #e27055;
      }

      .cls-5 {
        fill: #504546;
      }
    </style>
  </defs>
  <path class="cls-1" d="m45.7,16.16c4.64-1.26,8.92-2.73,13.33-3.52,3.07-.55,6.21-1.11,9.44-.75,2.97.32,5.99.14,8.99.2,1.53.03,1.86-.57,1.54-2.06-.75-3.51.1-6.56,3.04-8.87,2.14-1.68,3.61-1.54,5.44.5,2.57,2.86,2.98,6.25,2.55,9.87-.03.29-.25.57-.28.86-.46,4.25-1.68,3.47,2.77,5.5,4.36,1.99,7.88,5.27,10.78,9.06,4.42,5.78,8.36,11.96,13.07,17.49,3.22,3.78,5.16,8.06,7.12,12.43.45,1,.72,2.09.97,3.16,1.09,4.69,2.24,9.35,2.08,14.26-.09,2.79-1.09,5.3-1.7,7.91-.22.93-.64,1.84-.83,2.83-.48,2.52-1.7,4.75-3.24,6.76-5.9,7.71-13.17,13.83-21.9,18.05-2.09,1.01-4.44,1.68-6.8,2.22-2.7.61-5.26,1.96-8.03,2.39-4.05.63-8.01,2.02-12.19,1.73-.1,0-.21-.02-.3,0-5.11,1.42-10.38,1.34-15.58,1.3-4.19-.03-8.39.02-12.6-.43-4.24-.45-8.31-1.53-12.32-2.76-3.88-1.19-7.75-2.44-11.26-4.79-3.35-2.24-6.85-4.31-10.13-6.68-.49-.35-1.05-.71-1.34-1.2-1.86-3.21-4.64-5.91-5.84-9.44-.81-2.4-1.82-4.8-1.94-7.45C.44,82.53.01,80.36,0,78.13c0-3.41,1.2-6.44,2.46-9.49,1.58-3.83,4.06-7.12,6.23-10.6,1.44-2.31,3.49-4.19,5.53-5.97,3.16-2.76,5.33-6.26,7.76-9.58,1.9-2.59,3.65-5.29,5.43-7.97,1.17-1.76,1.55-3.92,2.89-5.62,1.86-2.36,3.26-5.12,5.72-6.97,1.15-.87,1.16-1.9.64-2.93-1.46-2.89-1.64-5.97-1.52-9.1.02-.5,0-1.03.15-1.5.52-1.57,1.26-3.1,3.03-3.48,1.65-.35,2.96.62,3.9,1.85,1.22,1.58,2.5,3.14,2.64,5.33.08,1.28.51,2.54.84,4.03v.03Zm42.69,47.89c.03.82.2,1.56.78,2.21,2.52,2.83,7.72,3.17,10.65.67,2.85-2.43,3.29-7.64,1.03-10.57-2.81-3.63-8.48-2.96-10.9-1.07-1.95,1.53-2.9,4.97-2.03,7.19.16.52.32,1.04.48,1.56h-.01Zm-47.28-1.07c1.27-.25,2.28-.85,2.33-2.26.03-.93-.7-1.34-1.59-1.39-.82-5.49-4.5-8.45-9.18-7.39-3.99.9-6.47,3.99-6,7.46.62,4.52,4.56,8.13,8.61,7.58,2.5-.33,4.95-1.12,5.83-4h0Zm30.52,16.17c5.41-.32,11.75-1.18,17.54-4.37,1.58-.87,2.04-1.84,1.34-3.13-.84-1.57-1.88-.52-2.79-.06-3.7,1.9-7.55,3.16-11.7,3.76-5.68.82-11.33.8-17.02.34-5.32-.43-10.58-.99-15.56-3.16-1.53-.67-2.7-1.67-3.92-2.71-.37-.32-.93-.56-1.4-.26-.5.32-.32.89-.22,1.38.23,1.06.99,1.73,1.77,2.37,2.07,1.69,4.52,2.6,7.03,3.35,7.8,2.33,15.81,2.56,24.92,2.5h0Zm-26.27-28.83c-.32.05-.74.06-1.11.19-.78.29-2.08.12-1.93,1.43.12,1.04,1.11,1.4,2.06,1.38,1.42-.02,2.81.1,4.21.31.64.1,1.24-.14,1.4-.84.15-.67-.22-1.17-.78-1.5-1.16-.69-2.45-.87-3.85-.97Zm35.31,4.91c.47.03,1.37.06,2.27.14.66.05,1.25-.06,1.47-.74.22-.68-.19-1.13-.72-1.5-1.46-1.03-5.32-.82-6.6.39-.38.36-.62.84-.47,1.35.16.57.67.69,1.21.64.8-.08,1.6-.16,2.85-.28h0Zm-2.27-6.89c1.55.24,3.15-.66,4.87-.6.61.02,1.28-.11,1.28-.9,0-.71-.64-1-1.21-1.16-2.21-.63-4.37-.13-6.49.46-.75.21-1.61.69-1.34,1.67.24.86,1.15.55,1.82.58.3.02.6-.02,1.08-.04h-.01Zm-30.84-6.08c-.9.09-1.8.13-2.69.28-.51.09-.92.43-.9,1.03.02.59.45.98.95.99,2.31.04,4.58.44,6.86.73.48.06,1.05.02,1.25-.57.25-.74-.31-1.07-.82-1.39-1.43-.89-3.01-1.05-4.64-1.07h0Zm16.42,22.27c1.48.08,3-.88,3.05-1.92.04-.91-1.33-2.12-2.52-2.24-1.41-.14-2.78.82-2.93,2.03-.13,1.12.92,2.05,2.41,2.12h-.01Zm21.73-2.89c-.08-.64-.49-1.05-1.18-1.05-.99,0-1.41.68-1.48,1.57-.06.67.21,1.19.96,1.27.84.1,1.72-.81,1.69-1.8h.01Z"/>
  <path class="cls-5" d="m71.62,79.14c-9.1.07-17.12-.17-24.92-2.5-2.52-.75-4.96-1.66-7.03-3.35-.78-.64-1.54-1.31-1.77-2.37-.1-.49-.28-1.06.22-1.38.47-.3,1.03-.05,1.4.26,1.21,1.04,2.39,2.04,3.92,2.71,4.98,2.17,10.24,2.74,15.56,3.16,5.69.46,11.34.48,17.02-.34,4.15-.6,8-1.86,11.7-3.76.9-.46,1.94-1.51,2.79.06.7,1.29.24,2.26-1.34,3.13-5.79,3.19-12.13,4.05-17.54,4.37h0Z"/>
  <path class="cls-4" d="m41.11,62.97c-.88,2.88-3.33,3.67-5.83,4-4.05.54-8-3.07-8.61-7.58-.48-3.47,2-6.56,6-7.46,4.68-1.06,8.36,1.9,9.18,7.39-.88,1.09-1.93,2.14-.74,3.65h0Zm-2.63-3.52c-.21-.36-.16-1.17-.97-1.06-1.15.16-1.54,1.09-1.69,2.11-.1.68.23,1.22.94,1.17,1.22-.09,1.52-1.05,1.72-2.22Z"/>
  <path class="cls-4" d="m87.91,62.49c-.87-2.22.08-5.66,2.03-7.19,2.42-1.9,8.08-2.57,10.9,1.07,2.26,2.92,1.82,8.14-1.03,10.57-2.93,2.5-8.13,2.16-10.65-.67-.58-.65-.75-1.39-.78-2.21,1.8-.85,2.47-2.15,1.82-3.48-.19-.39-.43-.64-.88-.61-.4.02-.78.13-.87.6-.13.66-.03,1.38-.55,1.93h0Z"/>
  <path class="cls-5" d="m45.36,50.32c1.39.11,2.69.29,3.85.97.56.33.93.83.78,1.5-.16.7-.76.94-1.4.84-1.4-.22-2.79-.34-4.21-.31-.95.02-1.94-.34-2.06-1.38-.15-1.31,1.15-1.14,1.93-1.43.37-.14.79-.14,1.11-.19Z"/>
  <path class="cls-5" d="m80.67,55.24c-1.24.12-2.05.2-2.85.28-.54.05-1.05-.07-1.21-.64-.15-.51.09-.99.47-1.35,1.29-1.21,5.14-1.42,6.6-.39.53.37.94.82.72,1.5s-.81.79-1.47.74c-.9-.07-1.8-.11-2.27-.14h0Z"/>
  <path class="cls-2" d="m78.4,48.35c-.48.02-.78.06-1.08.04-.66-.04-1.57.27-1.82-.58-.27-.97.59-1.46,1.34-1.67,2.12-.59,4.28-1.09,6.49-.46.57.16,1.21.45,1.21,1.16,0,.8-.67.93-1.28.9-1.72-.06-3.31.84-4.87.6h.01Z"/>
  <path class="cls-2" d="m47.56,42.27c1.63.02,3.22.18,4.64,1.07.52.32,1.07.65.82,1.39-.2.59-.77.63-1.25.57-2.28-.29-4.55-.69-6.86-.73-.5,0-.93-.4-.95-.99-.02-.6.4-.94.9-1.03.88-.15,1.79-.19,2.69-.28h0Z"/>
  <path class="cls-5" d="m63.98,64.54c-1.49-.08-2.54-1-2.41-2.12.15-1.22,1.52-2.17,2.93-2.03,1.2.12,2.56,1.33,2.52,2.24-.04,1.03-1.56,1.99-3.05,1.92h.01Z"/>
  <path class="cls-3" d="m41.11,62.97c-1.19-1.51-.14-2.56.74-3.65.9.05,1.63.46,1.59,1.39-.05,1.4-1.06,2.01-2.33,2.26Z"/>
  <path class="cls-3" d="m87.91,62.49c.52-.55.42-1.27.55-1.93.09-.47.47-.58.87-.6.44-.03.69.23.88.61.65,1.33-.02,2.63-1.82,3.48-.16-.52-.32-1.04-.48-1.56h0Z"/>
  <path class="cls-3" d="m85.71,61.64c.03.99-.85,1.89-1.69,1.8-.75-.09-1.02-.6-.96-1.27.08-.89.49-1.56,1.48-1.57.69,0,1.1.41,1.18,1.05h-.01Z"/>
  <path class="cls-3" d="m38.47,59.45c-.2,1.17-.5,2.13-1.72,2.22-.71.05-1.04-.49-.94-1.17.15-1.02.54-1.95,1.69-2.11.81-.11.76.7.97,1.06Z"/>
</svg>