<?xml version="1.0" encoding="UTF-8"?><svg id="Layer_1" xmlns="http://www.w3.org/2000/svg" viewBox="0 0 602 602"><defs><style>.cls-1{fill:#f6e9d4;}.cls-2{fill:#f9efe4;}.cls-3{fill:#f8ede1;}.cls-4{fill:#f8ecdb;}.cls-5{fill:#f8eee3;}.cls-6{fill:#f8eee2;}.cls-7{fill:#e4be47;}.cls-8{fill:#423d3b;}.cls-9{fill:#453f3a;}.cls-10{fill:#3f3c3b;}.cls-11{fill:#536b51;}.cls-12{fill:#47423b;}</style></defs><g><path class="cls-7" d="M404.88,378.22c-8.05,4.23-11.4,6.46-17.8,8.21-11.41,3.11-22.37,7.93-34.15,9.58-9.37,1.31-17.17,2.88-28.19,3.65-7.12,1.2-12.54,1.61-18.8,2.51-7.92,1.13-15.85,.71-23.65,.8-17.47,.19-35.1-.72-52.15-5.05-10.67-2.71-21.35-5.33-31.45-10.39-5.29-2.33-10.53-5.19-14.72-7.75-7.39-4.51-12.26-7.86-17.54-11.54-4.2-3.13-7.89-6.51-11.01-9.94-5.21-5.38-9.26-9.94-12.54-17.34-3.12-7.04-5.2-17.08-5.79-24.28-.88-10.84-.23-14.89,.18-19.74,1.33-13.34,4.41-19.63,5.2-21.34,5.64-12.71,14.35-24.1,23.35-34.81,4.22-5.02,9.1-9.5,13.79-14.06,8.23-8.02,13.4-18.13,20.33-27,9.59-12.28,14.88-27.26,24.93-39.27,2.21-2.64,4.22-5.65,6.98-7.46,3.81-2.49,3.65-4.98,1.97-8.46-2.81-5.81-3.75-12.09-4.05-18.47-.17-3.71,.06-7.38,1.41-10.93,3.16-8.26,11.62-9.76,17.28-2.92,4.88,5.9,7.03,12.91,7.75,20.43,.47,4.96,.5,4.83,4.99,3.59,10.64-2.94,21.2-6.27,32-8.46,13.42-2.73,27.09-3,40.73-1.29,.26,.03,.51,.16,.77,.2,10.78,1.57,11.06,1.25,10.43-9.39-.4-6.72,.3-12.85,6.21-17.74,8.31-6.88,15.58-5.59,19.93,4.36,3.25,7.46,3.39,15.21,1.99,23.07-.14,.78-.36,1.54-.51,2.32-1.5,7.86-1.45,7.77,6.07,11.35,10.65,5.07,19.55,12.25,27.24,21.3,13.27,15.63,23.18,33.73,36.83,49.04,7.26,8.14,11.82,17.62,16.34,27.59,7.96,17.56,10.71,35.57,10.46,54.43-.05,4.09-1.49,12.35-2.1,16.21-2.71,16.98-11.7,26.12-23.32,38.56-9.09,9.72-19.16,18.07-30.25,25.3-2.59,1.92-3.99,2.52-5.98,3.48l.02-.02c-1.21,.88-3.18,1.69-3.18,1.69Z"/><path class="cls-10" d="M301.21,312.55c-10.29,1.44-20.96-1.41-31.68-4.47-5.81-1.66-10.34-5.2-14.94-8.66-1.56-1.17-3.06-3.34-1.65-5.57,1.67-2.63,3.85-1.7,6.22-.61,8.59,3.97,17.34,7.36,26.77,9.16,4.68,.89,8.9-.74,13.34-.33,16.72,1.53,32.51-1.66,47.36-9.47,1.88-.99,3.67-2.06,5.92-1.97,1.85,.08,3.87-.2,4.83,1.87,.86,1.85,.19,3.73-.92,5.2-1.09,1.44-2.46,2.82-4.01,3.74-11.56,6.88-24.28,10-37.55,11.05-4.2,.33-8.45,.05-13.69,.05Z"/><path class="cls-8" d="M298.74,275.31c-4.96-.06-9.33-3.89-9.09-7.96,.22-3.8,5.29-8.28,9.33-8.25,5.34,.04,9.62,3.67,9.82,8.34,.18,4.13-4.67,7.93-10.05,7.86Z"/><path class="cls-12" d="M353.64,231.17c.03,6.25-1.78,8.94-6.13,9.08-4.22,.14-7.92-3.04-7.57-7.21,.61-7.32,2.34-10.47,7.01-10.36,4.72,.11,6.67,2.45,6.7,8.49Z"/><path class="cls-5" d="M350.53,198.97c3.74,.03,5.84,1.27,6.97,4.08,1.26,3.13,.49,5.31-2.86,5.96-4.91,.95-9.91,1.44-14.88,2.02-1.35,.16-2.67-.3-3.08-1.86-.5-1.93-.26-3.93,1.49-4.97,4.09-2.43,8.38-4.47,12.35-5.24Z"/><path class="cls-4" d="M379.33,260.81c-.21,2.96-1.77,5.92-4.38,8.34-1.72,1.6-3.63,1.85-5.81,.73-2.04-1.06-3.75-2.58-3.41-4.83,.46-3.05,.53-6.38,2.83-8.87,1.8-1.96,3.84-4.2,6.73-3.09,2.96,1.14,4,3.96,4.04,7.72Z"/><path class="cls-2" d="M267.33,213.04c-5.25-.11-9.19-2.44-13.35-3.92-2.32-.83-2-3.49,.64-4.62,5.63-2.43,11.2-2.09,16.46,1.23,1.36,.86,2.61,2.01,2.54,3.71-.09,2.27-2.17,2.7-3.83,3.29-.96,.34-2.06,.27-2.46,.31Z"/><path class="cls-9" d="M265.14,235.1c-.12,5.05-2.36,8.16-5.74,7.96-3.45-.21-5.84-3.59-5.74-8.14,.1-4.66,2.51-7.81,6.04-7.87,3.53-.06,5.57,2.96,5.45,8.05Z"/><path class="cls-6" d="M387.43,260.5c.92-2,1.96-5.01,3.63-7.61,1.7-2.64,4.71-2.56,6.51-.02,1.71,2.41,2.66,5.15,1.12,8.07-1.62,3.07-3.81,5.78-7.28,6.66-2.6,.66-4.55-2.48-3.98-7.1Z"/><path class="cls-1" d="M238.96,266.2c-.08,3.26-4.12,7.9-6.74,7.74-2.72-.16-5.68-3.22-5.56-5.73,.19-3.98,3.86-8.64,6.8-8.63,2.72,0,5.58,3.44,5.5,6.62Z"/><path class="cls-3" d="M221.87,271.46c-1.68,2.74-3.9,4.42-7.05,2.5-2.78-1.69-3.23-5.75-1.34-9.01,3.12-5.38,4.73-5.66,10.26-1.81,.72,1.83,.8,3.65,0,5.48l.07-.09c-1.31,.54-.86,2.23-1.93,2.93Z"/><path class="cls-1" d="M223.73,268.62c0-1.82,0-3.65,0-5.48,1.92,1.82,2.02,3.65,0,5.48Z"/><path class="cls-1" d="M221.87,271.46c.09-1.34,.51-2.46,1.93-2.93-.08,1.35-.71,2.33-1.93,2.93Z"/></g><g><path class="cls-11" d="M144.23,404.26c.71-.77,1.69-1.45,2.95-2.02,1.25-.58,2.71-.92,4.37-1.03,1.66-.11,3.49,.1,5.49,.63,2,.53,4.12,1.49,6.36,2.88,3.66,2.35,5.97,5.04,6.92,8.06,.95,3.02,.94,6.19-.04,9.51,.89-.8,2.01-1.55,3.37-2.24,1.36-.69,2.94-1.14,4.73-1.34,1.79-.2,3.76-.09,5.9,.35,2.13,.43,4.38,1.38,6.73,2.85,2.74,1.71,4.7,3.61,5.89,5.7,1.18,2.09,1.78,4.31,1.8,6.64,.02,2.34-.48,4.76-1.5,7.27-1.02,2.51-2.33,5.05-3.93,7.63l-10.62,17.07c-.29,.46-.68,.75-1.18,.87-.5,.12-1,.02-1.51-.29s-.81-.72-.93-1.22c-.12-.5-.03-.98,.26-1.45l10.57-17c1.35-2.16,2.5-4.29,3.44-6.38,.95-2.09,1.48-4.1,1.6-6.03,.11-1.93-.3-3.76-1.24-5.49-.94-1.73-2.59-3.33-4.94-4.79-2.29-1.43-4.53-2.23-6.71-2.41-2.18-.18-4.26,.1-6.23,.84-1.97,.74-3.82,1.89-5.53,3.47-1.72,1.57-3.28,3.42-4.68,5.55l-10.62,17.07c-.29,.46-.68,.75-1.18,.87-.5,.12-1,.02-1.5-.29-.5-.31-.81-.72-.93-1.22s-.03-.98,.26-1.45l10.57-17c1.35-2.16,2.49-4.29,3.44-6.38,.95-2.09,1.5-4.09,1.64-6,.14-1.91-.24-3.72-1.16-5.43-.92-1.71-2.55-3.3-4.9-4.76-2.29-1.43-4.57-2.23-6.82-2.42s-4.39,.11-6.43,.88c-2.03,.77-3.93,1.95-5.69,3.53-1.76,1.58-3.3,3.43-4.61,5.54l-10.48,16.84c-.29,.46-.68,.75-1.18,.87-.5,.12-1,.02-1.51-.29-.5-.31-.81-.72-.93-1.22-.12-.5-.03-.98,.26-1.45l21.68-34.84c.35-.57,.83-.66,1.45-.28,.84,.52,1.18,1.34,1.03,2.46-.15,1.12-.84,2.66-2.06,4.61l-1.68,2.7Z"/><path class="cls-11" d="M207.02,453.48c.81-2.92,2.18-5.5,4.11-7.73,1.92-2.23,4.2-4.02,6.83-5.37,2.63-1.34,5.5-2.18,8.6-2.51,3.1-.33,6.24-.05,9.42,.83,3.17,.89,6,2.27,8.48,4.16,2.48,1.89,4.5,4.09,6.06,6.6,1.56,2.51,2.58,5.22,3.07,8.13,.49,2.91,.32,5.82-.49,8.74-.82,2.92-2.19,5.5-4.11,7.73-1.92,2.24-4.2,4.02-6.83,5.37-2.63,1.34-5.5,2.18-8.6,2.51-3.1,.33-6.24,.05-9.41-.83-3.17-.89-6-2.27-8.48-4.16-2.48-1.89-4.5-4.09-6.06-6.6-1.56-2.51-2.58-5.22-3.07-8.13-.49-2.91-.33-5.82,.49-8.74Zm4,1.12c-.68,2.45-.84,4.91-.47,7.38,.37,2.47,1.19,4.76,2.44,6.87,1.26,2.12,2.91,3.96,4.97,5.54,2.06,1.58,4.42,2.75,7.08,3.49,2.67,.75,5.29,.97,7.87,.68,2.58-.29,4.95-1.01,7.12-2.17,2.17-1.16,4.05-2.69,5.65-4.61,1.6-1.92,2.74-4.1,3.42-6.55,.69-2.45,.84-4.91,.47-7.38-.38-2.47-1.19-4.75-2.45-6.87-1.26-2.11-2.91-3.96-4.97-5.54-2.06-1.58-4.42-2.74-7.08-3.49-2.67-.74-5.29-.97-7.86-.68-2.58,.29-4.95,1.01-7.12,2.17-2.17,1.16-4.05,2.69-5.65,4.61-1.6,1.92-2.73,4.1-3.42,6.55Z"/><path class="cls-11" d="M265.96,468.34c.11-3.03,.84-5.86,2.19-8.48,1.35-2.62,3.15-4.89,5.39-6.81,2.25-1.92,4.84-3.4,7.78-4.45,2.94-1.04,6.05-1.51,9.35-1.38,3.29,.12,6.37,.81,9.22,2.07,2.85,1.26,5.33,2.93,7.43,5.01,2.1,2.08,3.72,4.48,4.88,7.19,1.15,2.71,1.67,5.59,1.56,8.62-.11,3.03-.84,5.86-2.19,8.48-1.35,2.62-3.15,4.89-5.4,6.81-2.25,1.92-4.84,3.4-7.78,4.45-2.94,1.05-6.06,1.51-9.35,1.38-3.29-.12-6.37-.81-9.22-2.07-2.86-1.26-5.33-2.93-7.43-5.01-2.1-2.08-3.73-4.48-4.88-7.19-1.15-2.71-1.67-5.58-1.56-8.62Zm4.15,.15c-.09,2.55,.33,4.97,1.26,7.29,.94,2.31,2.26,4.35,3.98,6.11,1.71,1.76,3.76,3.17,6.12,4.23,2.37,1.06,4.93,1.64,7.7,1.74,2.77,.1,5.37-.29,7.81-1.17,2.44-.88,4.58-2.14,6.42-3.77,1.84-1.63,3.31-3.57,4.42-5.8,1.1-2.23,1.7-4.62,1.8-7.17,.09-2.55-.33-4.97-1.26-7.29-.94-2.31-2.26-4.35-3.98-6.11-1.71-1.76-3.76-3.17-6.12-4.23-2.37-1.06-4.94-1.64-7.7-1.74-2.77-.1-5.37,.29-7.81,1.17-2.44,.88-4.58,2.14-6.42,3.77-1.84,1.63-3.31,3.57-4.42,5.8-1.11,2.24-1.7,4.63-1.8,7.17Z"/><path class="cls-11" d="M374.52,469.74c-.26,1.61-.89,3.24-1.92,4.89s-2.33,3.21-3.93,4.68c-1.6,1.47-3.43,2.75-5.48,3.85-2.05,1.1-4.27,1.91-6.65,2.43-3.22,.71-6.32,.79-9.3,.27-2.98-.52-5.69-1.55-8.11-3.07-2.42-1.52-4.49-3.46-6.18-5.82-1.7-2.36-2.87-5.02-3.52-7.98s-.7-5.87-.14-8.72c.55-2.85,1.62-5.48,3.18-7.87,1.57-2.39,3.59-4.45,6.08-6.18,2.49-1.72,5.34-2.94,8.56-3.64,2.64-.58,5.18-.73,7.64-.46,2.45,.27,4.71,.79,6.76,1.55,2.05,.76,3.82,1.66,5.3,2.71,1.48,1.04,2.56,2.08,3.26,3.1l-5.04-23.02-.04-.18c-.1-.47,0-.93,.31-1.37,.31-.44,.72-.72,1.23-.83,.51-.11,1-.03,1.47,.24,.46,.27,.75,.64,.85,1.12l11.78,53.77c.14,.65-.14,1.05-.85,1.21-.97,.21-1.79-.14-2.46-1.04s-1.25-2.49-1.75-4.74l-1.07-4.89Zm-40.94-1.65c.54,2.49,1.5,4.75,2.85,6.78,1.36,2.03,3.02,3.7,4.99,5.01,1.97,1.31,4.19,2.19,6.65,2.64s5.04,.38,7.75-.21c2.7-.59,5.19-1.63,7.46-3.13,2.27-1.49,4.14-3.27,5.61-5.33,1.47-2.06,2.51-4.32,3.12-6.78,.61-2.46,.64-4.94,.09-7.43-.53-2.43-1.6-4.63-3.22-6.61-1.61-1.98-3.53-3.59-5.76-4.84-2.23-1.25-4.68-2.1-7.34-2.54-2.66-.44-5.31-.37-7.95,.2-2.7,.59-5.08,1.61-7.12,3.05-2.05,1.44-3.69,3.17-4.94,5.18-1.25,2.01-2.06,4.22-2.44,6.64-.38,2.41-.3,4.86,.24,7.35Z"/><path class="cls-11" d="M433.04,444.73c.1,1.57-.15,3.28-.75,5.12-.6,1.85-1.5,3.66-2.68,5.45-1.18,1.79-2.65,3.48-4.4,5.07-1.75,1.59-3.73,2.92-5.92,3.99-2.96,1.44-5.96,2.25-8.98,2.44-3.02,.19-5.89-.17-8.6-1.08-2.71-.91-5.17-2.31-7.37-4.21-2.2-1.9-3.97-4.21-5.29-6.94-1.33-2.73-2.05-5.54-2.18-8.45-.13-2.9,.29-5.7,1.25-8.4,.96-2.69,2.45-5.17,4.47-7.43,2.01-2.26,4.5-4.11,7.47-5.55,2.43-1.18,4.87-1.93,7.32-2.24,2.45-.31,4.76-.34,6.94-.08,2.18,.26,4.1,.72,5.79,1.39,1.68,.67,2.98,1.42,3.9,2.25l-2.19-4.5c-1.01-2.07-1.53-3.67-1.57-4.8-.04-1.13,.39-1.91,1.28-2.34,.65-.32,1.12-.17,1.42,.42l18.29,37.64c.29,.6,.11,1.06-.54,1.38-.89,.43-1.77,.29-2.63-.44-.87-.72-1.8-2.12-2.81-4.2l-2.19-4.5Zm-40.18,8c1.11,2.29,2.57,4.27,4.36,5.92,1.79,1.66,3.8,2.89,6.03,3.7,2.22,.81,4.58,1.14,7.08,1.01,2.5-.13,4.99-.81,7.48-2.02,2.49-1.21,4.66-2.81,6.52-4.79,1.86-1.98,3.26-4.15,4.21-6.5,.95-2.35,1.43-4.79,1.44-7.33,.01-2.54-.54-4.95-1.65-7.24-1.09-2.24-2.65-4.13-4.68-5.67-2.03-1.54-4.28-2.66-6.74-3.35-2.46-.69-5.04-.94-7.73-.75-2.69,.2-5.25,.88-7.68,2.06-2.49,1.21-4.56,2.76-6.21,4.63-1.65,1.88-2.85,3.95-3.58,6.19-.74,2.25-1.01,4.59-.82,7.02s.85,4.8,1.96,7.09Z"/><path class="cls-11" d="M481.53,442.37c-.11-.54-.02-1.04,.29-1.5,.3-.46,.74-.76,1.3-.92,2.34-1.11,4.34-2.36,6-3.77,1.86-1.58,3.39-3.34,4.58-5.3,1.19-1.96,1.96-4,2.33-6.13,.36-2.13,.24-4.26-.37-6.4-.61-2.14-1.75-4.21-3.42-6.19l-6.38-7.54c.53,1.54,.72,3.28,.6,5.22-.13,1.94-.56,3.93-1.29,5.98-.73,2.05-1.74,4.04-3.04,5.97-1.3,1.93-2.88,3.69-4.74,5.26-2.52,2.13-5.21,3.66-8.1,4.59-2.88,.93-5.75,1.29-8.6,1.08-2.85-.21-5.58-.96-8.19-2.25-2.6-1.29-4.88-3.09-6.84-5.41l-12.93-15.28c-.86-1.02-.77-1.98,.29-2.87,1.06-.89,2.02-.83,2.88,.19l12.93,15.28c1.65,1.95,3.54,3.5,5.69,4.66,2.15,1.16,4.4,1.86,6.75,2.09,2.35,.23,4.72-.02,7.11-.78,2.39-.75,4.64-2.02,6.75-3.8s3.82-3.87,5.13-6.25c1.31-2.38,2.14-4.83,2.51-7.37,.36-2.53,.24-5.03-.38-7.49-.62-2.46-1.74-4.66-3.39-6.61l-3.88-4.58-9.05-10.7c-.86-1.02-.76-1.98,.29-2.87,1.06-.89,2.02-.83,2.88,.19l24.51,28.96,.12,.14,1.41,1.67c1.92,2.27,3.26,4.69,4.02,7.27,.76,2.58,.95,5.16,.58,7.73-.37,2.58-1.27,5.11-2.7,7.59-1.44,2.49-3.36,4.75-5.78,6.79-1.01,.85-2.06,1.64-3.17,2.38-1.11,.73-2.33,1.42-3.68,2.08-.82,.36-1.49,.41-2.03,.13-.54-.28-.87-.69-.98-1.24Z"/></g></svg>