<?xml version="1.0" encoding="UTF-8"?>
<svg id="Layer_1" data-name="Layer 1" xmlns="http://www.w3.org/2000/svg" viewBox="0 0 126.51 117.48">
  <defs>
    <style>
      .cls-1 {
        fill: #fef1e1;
      }

      .cls-2 {
        fill: #e6bf49;
      }

      .cls-3 {
        fill: #4a423c;
      }
    </style>
  </defs>
  <path class="cls-2" d="m60.49,117.33c-4.69.07-9.69.36-14.66-.12-6.4-.62-12.55-2.16-18.7-4.18-4.02-1.32-6.97-4.38-11.01-5.36-3.44-3.17-8.18-4.91-10.18-9.73-.73-1.77-2.43-3.1-3.15-5.06-2.3-6.29-3.74-12.69-2.06-19.32.92-3.67,2.59-7.11,4.67-10.31,1.2-1.85,2.18-3.87,3.55-5.58,1.69-2.11,3.56-4.12,5.58-5.91,3.14-2.77,5.22-6.35,7.67-9.64,1.73-2.33,3.3-4.79,4.92-7.21.34-.5.67-1.02.89-1.57,1.76-4.37,4.55-8.04,7.85-11.32,1.07-1.06,1.18-1.92.61-3.18-1.26-2.82-1.6-5.8-1.38-8.86.04-.6.07-1.23.26-1.79.5-1.45,1.13-2.92,2.85-3.22,1.65-.3,2.94.56,3.96,1.75,1.89,2.22,2.8,4.83,3.04,7.73.15,1.8.21,1.7,2.03,1.22,6.07-1.59,12.08-3.53,18.4-3.95,2.18-.15,4.39.05,6.58.13,1.51.05,3.01.23,4.52.24,2.41.03,2.31,0,2.15-2.52-.17-2.81-.13-5.48,2.29-7.73,3.54-3.31,5.76-1.82,7.74,1.77,1.45,2.63,1.42,5.6.82,8.54-.02.1-.08.19-.1.28-.52,2.39.29,4.11,2.43,5.16,4.39,2.19,8,5.3,11.08,9.13,4.58,5.69,8.08,12.2,13.11,17.51,3.57,3.76,5.67,8.37,7.36,13,2.28,6.22,3.37,12.83,2.71,19.57-.15,1.51-.95,2.83-1.23,4.33-1.54,8.11-6.59,14.03-12.48,19.35-4.04,3.66-8.65,6.51-13.39,9.19-1.96,1.11-4.15,1.41-6.21,2.15-5.48,1.97-11.16,3.47-16.93,4.05-5.09.51-10.15,1.6-15.6,1.45h0Zm2.21-34.09c6.57,0,12.98-.81,18.83-4.2.99-.58,1.8-1.29,2.18-2.39.41-1.19-.12-1.99-1.37-2.09-1.04-.08-1.94.3-2.84.82-6.83,3.97-14.41,4.03-21.93,3.83-3.91-.1-7.58-1.78-11.13-3.44-.95-.44-1.89-1.18-2.67-.15-.9,1.19.2,2.14,1,2.75,1.75,1.32,3.57,2.46,5.77,3.12,3.99,1.19,7.98,1.99,12.16,1.74h0Zm-28.96-18.42c-.52-.47-.88-.82-1.27-1.13-.96-.75-1.93-1.11-2.94-.06-1.3,1.34-1.6,2.81-.81,4.03.88,1.37,1.65,1.48,2.95.44.6-.48.72-1.53,1.75-1.49,2.37,1.98,3.16,2.12,4.27.76,1.09-1.33,1.07-3.18-.03-4.09-.98-.81-1.9-.47-3.92,1.53h0Zm27.58,4.13c2.01.03,3.83-1.42,3.83-3.02,0-1.72-1.59-3.12-3.66-3.22-1.68-.08-3.7,1.69-3.7,3.24s1.7,2.97,3.53,3Zm20.85-16.92c-.01-2.34-.65-3.13-2.56-3.19-1.68-.05-2.74,1.48-2.68,3.88.04,1.54,1.33,2.94,2.77,2.99,1.66.07,2.49-1.17,2.47-3.68h0Zm-1.22-12.28c-1.29-.02-2.9.85-4.47,1.75-.91.53-1.05,1.48-.66,2.39.36.83,1.19.7,1.85.48,1.47-.5,3-.36,4.49-.58,1.1-.16,1.9-.65,1.77-1.98-.15-1.44-.91-2.13-2.98-2.07h0Zm10.96,22.77c-.16-.64-.17-2.05-1.62-2.36-1.23-.26-2.04.7-2.67,1.63-.63.94-.76,2.08-.88,3.17-.11,1.03.75,1.56,1.51,2.08.92.62,1.52-.03,2.11-.55,1.04-.9,1.65-2.02,1.54-3.98h.01Zm-42.79-17.26c1.13-.02,2.26-.02,2.59-1.2.33-1.2-.68-1.78-1.57-2.22-2-.99-4.04-.86-6.07-.02-.39.16-.76.37-.78.8-.03.54.3,1,.8,1.15,1.71.53,3.31,1.41,5.04,1.5h-.01Zm-.53,8.22c.02-1.87-.85-3.14-2.13-3.1-1.3.04-2.26,1.28-2.34,3.02-.08,1.88.95,3.32,2.34,3.28,1.16-.03,2.11-1.45,2.13-3.2Zm48.88,5.98c-.22.11-.51.21-.74.39-1.02.75-2.01,3.73-1.68,4.97.26.98.96,1.24,1.85,1.05,1.81-.39,3.27-3.07,2.61-4.81-.34-.9-.94-1.53-2.05-1.6h0Z"/>
  <path class="cls-3" d="m62.7,83.24c-4.18.25-8.17-.55-12.16-1.74-2.2-.66-4.03-1.8-5.77-3.12-.8-.61-1.9-1.55-1-2.75.78-1.04,1.72-.3,2.67.15,3.55,1.66,7.22,3.34,11.13,3.44,7.52.2,15.1.14,21.93-3.83.9-.52,1.8-.9,2.84-.82,1.26.1,1.78.89,1.37,2.09-.37,1.1-1.18,1.81-2.18,2.39-5.84,3.38-12.26,4.18-18.83,4.2h0Z"/>
  <path class="cls-1" d="m33.74,64.81c2.02-2.01,2.94-2.34,3.92-1.53,1.1.91,1.11,2.76.03,4.09-1.11,1.36-1.9,1.22-4.27-.76-1.03-.04-1.15,1.01-1.75,1.49-1.3,1.03-2.07.93-2.95-.44-.79-1.22-.49-2.69.81-4.03,1.01-1.04,1.98-.69,2.94.06.39.31.75.67,1.27,1.13h0Z"/>
  <path class="cls-3" d="m61.32,68.93c-1.83-.02-3.53-1.46-3.53-3s2.02-3.32,3.7-3.24c2.07.1,3.66,1.5,3.66,3.22,0,1.6-1.83,3.04-3.83,3.02Z"/>
  <path class="cls-3" d="m82.18,52.01c.01,2.51-.81,3.75-2.47,3.68-1.43-.06-2.73-1.46-2.77-2.99-.06-2.4,1-3.93,2.68-3.88,1.91.06,2.55.85,2.56,3.19h0Z"/>
  <path class="cls-1" d="m80.96,39.73c2.07-.06,2.83.63,2.98,2.07.13,1.33-.67,1.81-1.77,1.98-1.49.22-3.02.08-4.49.58-.66.23-1.49.35-1.85-.48-.4-.91-.26-1.86.66-2.39,1.57-.91,3.18-1.77,4.47-1.75h0Z"/>
  <path class="cls-1" d="m91.91,62.5c.11,1.96-.5,3.08-1.54,3.98-.59.52-1.19,1.17-2.11.55-.77-.52-1.63-1.05-1.51-2.08.12-1.08.25-2.23.88-3.17.63-.93,1.44-1.9,2.67-1.63,1.44.31,1.45,1.71,1.62,2.36h-.01Z"/>
  <path class="cls-1" d="m49.12,45.23c-1.73-.09-3.33-.97-5.04-1.5-.5-.15-.83-.61-.8-1.15.02-.43.4-.64.78-.8,2.03-.83,4.07-.97,6.07.02.89.44,1.91,1.01,1.57,2.22-.33,1.18-1.46,1.18-2.59,1.2h.01Z"/>
  <path class="cls-3" d="m48.59,53.46c-.02,1.75-.96,3.17-2.13,3.2-1.39.03-2.42-1.41-2.34-3.28.07-1.74,1.04-2.98,2.34-3.02,1.28-.04,2.15,1.23,2.13,3.1Z"/>
  <path class="cls-1" d="m97.48,59.44c1.1.07,1.71.7,2.05,1.6.65,1.74-.8,4.42-2.61,4.81-.89.19-1.59-.07-1.85-1.05-.33-1.24.65-4.22,1.68-4.97.23-.17.52-.27.74-.39h0Z"/>
</svg>