<?xml version="1.0" encoding="UTF-8"?>
<svg id="Layer_1" data-name="Layer 1" xmlns="http://www.w3.org/2000/svg" viewBox="0 0 247.86 223.44">
  <defs>
    <style>
      .cls-1 {
        fill: #fff;
      }

      .cls-2 {
        fill: #e8e8e2;
      }

      .cls-3 {
        fill: #f1f2f2;
      }

      .cls-4 {
        fill: #a4d09d;
      }

      .cls-5 {
        fill: #cba89b;
      }

      .cls-6 {
        fill: #d8d1c5;
      }

      .cls-7 {
        fill: #536f78;
      }
    </style>
  </defs>
  <g>
    <path class="cls-1" d="m13.9,204.46v-5.79l-6.15-8.88c-.63-.94-.23-1.67.89-1.67h2.45c.73,0,1.24.28,1.64.91l3.49,5.69,3.52-5.69c.38-.63.91-.91,1.64-.91h2.43c1.11,0,1.49.73.83,1.67l-6.1,8.8v5.87c0,.89-.48,1.37-1.37,1.37h-1.92c-.89,0-1.37-.48-1.37-1.37Z"/>
    <path class="cls-1" d="m23.24,199.25c0-3.79,3.11-6.86,7.44-6.86s7.44,3.06,7.44,6.86-3.09,6.86-7.44,6.86-7.44-3.06-7.44-6.86Zm10.63,0c0-1.87-1.37-3.24-3.19-3.24s-3.16,1.39-3.16,3.24,1.34,3.26,3.16,3.26,3.19-1.39,3.19-3.26Z"/>
    <path class="cls-1" d="m40.01,200.32v-6.27c0-.89.48-1.37,1.37-1.37h1.82c.89,0,1.37.48,1.37,1.37v5.89c0,1.42.48,2.58,1.82,2.58s2.15-1.14,2.15-2.88v-5.59c0-.89.48-1.37,1.37-1.37h1.82c.88,0,1.37.48,1.37,1.37v10.42c0,.89-.48,1.37-1.37,1.37h-1.82c-.89,0-1.37-.48-1.37-1.37v-.48c-.68,1.32-1.97,2.12-3.85,2.12-3.79,0-4.68-3.16-4.68-5.79Z"/>
    <path class="cls-1" d="m55.89,204.46v-10.42c0-.89.48-1.37,1.37-1.37h1.67c.86,0,1.37.48,1.37,1.37v1.47c.43-2.55,2.43-3.11,3.34-3.11.03,0,.33,0,.38.03.66,0,.78.56.78,1.04v2.28c0,.76-.4,1.09-.99,1.01-.23-.03-.41-.03-.61-.03-1.82,0-2.76,1.21-2.76,3.57v4.17c0,.89-.48,1.37-1.37,1.37h-1.82c-.89,0-1.37-.48-1.37-1.37Z"/>
    <path class="cls-1" d="m71.55,204.39l1.39-14.98c.08-.83.56-1.29,1.42-1.29h2.1c.76,0,1.27.33,1.57,1.06l4.02,9.97,4.05-9.97c.3-.73.78-1.06,1.57-1.06h2.1c.83,0,1.34.46,1.39,1.29l1.39,14.98c.1.94-.38,1.44-1.29,1.44h-1.9c-.86,0-1.37-.46-1.42-1.29l-.68-8.2-3.24,8.22c-.28.76-.78,1.09-1.57,1.09h-.78c-.78,0-1.29-.33-1.57-1.09l-3.24-8.22-.68,8.2c-.08.83-.58,1.29-1.44,1.29h-1.87c-.91,0-1.39-.51-1.32-1.44Z"/>
    <path class="cls-1" d="m94.19,199.25c0-3.79,3.11-6.86,7.44-6.86s7.44,3.06,7.44,6.86-3.09,6.86-7.44,6.86-7.44-3.06-7.44-6.86Zm10.63,0c0-1.87-1.37-3.24-3.19-3.24s-3.16,1.39-3.16,3.24,1.34,3.26,3.16,3.26,3.19-1.39,3.19-3.26Z"/>
    <path class="cls-1" d="m110.35,199.25c0-3.79,3.11-6.86,7.44-6.86s7.44,3.06,7.44,6.86-3.09,6.86-7.44,6.86-7.44-3.06-7.44-6.86Zm10.63,0c0-1.87-1.37-3.24-3.19-3.24s-3.16,1.39-3.16,3.24,1.34,3.26,3.16,3.26,3.19-1.39,3.19-3.26Z"/>
    <path class="cls-1" d="m126.57,199.25c0-3.92,2.66-6.86,6.27-6.86,1.7,0,3.14.71,3.97,2.05v-5.54c0-.89.48-1.37,1.37-1.37h1.82c.89,0,1.37.48,1.37,1.37v15.56c0,.89-.48,1.37-1.37,1.37h-1.82c-.89,0-1.37-.48-1.37-1.37v-.38c-.83,1.32-2.28,2.02-3.97,2.02-3.62,0-6.27-2.93-6.27-6.86Zm10.32,0c-.03-1.87-1.14-3.31-2.91-3.31s-2.86,1.47-2.86,3.31,1.09,3.31,2.86,3.31,2.88-1.44,2.91-3.31Z"/>
    <path class="cls-1" d="m163.14,189.49v1.24c0,.89-.48,1.37-1.37,1.37h-3.72v12.37c0,.89-.48,1.37-1.37,1.37h-1.82c-.89,0-1.37-.48-1.37-1.37v-12.37h-3.62c-.89,0-1.37-.48-1.37-1.37v-1.24c0-.89.48-1.37,1.37-1.37h11.89c.89,0,1.37.48,1.37,1.37Z"/>
    <path class="cls-1" d="m163.8,204.46v-10.42c0-.89.48-1.37,1.37-1.37h1.67c.86,0,1.37.48,1.37,1.37v1.47c.43-2.55,2.43-3.11,3.34-3.11.03,0,.33,0,.38.03.66,0,.78.56.78,1.04v2.28c0,.76-.41,1.09-.99,1.01-.23-.03-.4-.03-.61-.03-1.82,0-2.76,1.21-2.76,3.57v4.17c0,.89-.48,1.37-1.37,1.37h-1.82c-.89,0-1.37-.48-1.37-1.37Z"/>
    <path class="cls-1" d="m173.54,199.25c0-3.92,2.66-6.86,6.25-6.86,1.72,0,3.16.71,4,2.05v-.4c0-.89.48-1.37,1.37-1.37h1.82c.88,0,1.37.48,1.37,1.37v10.42c0,.89-.48,1.37-1.37,1.37h-1.82c-.88,0-1.37-.48-1.37-1.37v-.38c-.83,1.32-2.28,2.02-4,2.02-3.59,0-6.25-2.93-6.25-6.86Zm10.3,0c0-1.87-1.11-3.31-2.88-3.31s-2.86,1.47-2.86,3.31,1.06,3.31,2.86,3.31,2.88-1.44,2.88-3.31Z"/>
    <path class="cls-1" d="m190.38,199.3c0-3.82,3.06-6.91,7.64-6.91,1.37,0,2.91.33,4.28,1.11.76.48.79,1.21.23,1.92l-.53.63c-.51.68-1.09.68-1.9.3-.71-.33-1.42-.38-1.8-.38-1.95,0-3.36,1.37-3.36,3.26s1.42,3.26,3.36,3.26c.38,0,1.09-.05,1.8-.38.81-.38,1.42-.38,1.92.3l.51.63c.56.71.48,1.49-.38,1.97-1.29.76-2.81,1.06-4.12,1.06-4.53,0-7.64-3.04-7.64-6.81Z"/>
    <path class="cls-1" d="m211.2,202.82l-1.49-2.99v4.63c0,.89-.48,1.37-1.37,1.37h-1.82c-.89,0-1.37-.48-1.37-1.37v-15.56c0-.89.48-1.37,1.37-1.37h1.82c.89,0,1.37.48,1.37,1.37v9.08l2.91-4.43c.41-.61.89-.88,1.62-.88h2.05c1.14,0,1.52.73.83,1.67l-3.31,4.43,1.49,2.48c.56.94,1.09,1.16,1.72,1.16.13,0,.38-.03.61-.1.56-.13.94-.05,1.19.46l.61,1.27c.23.51.1,1.01-.53,1.34-1.01.56-2.02.73-2.88.73-2.23,0-3.72-1.04-4.81-3.29Z"/>
    <path class="cls-1" d="m219.52,199.3c0-3.64,2.68-6.91,7.29-6.91,3.95,0,7.03,2.38,7.11,6.58.03.79-.53,1.11-1.39,1.11h-8.73c0,1.16,1.34,2.53,3.74,2.53.76,0,1.67-.15,2.61-.66.76-.38,1.39-.33,1.9.33l.35.46c.53.66.51,1.44-.28,1.97-1.49,1.01-3.26,1.39-4.93,1.39-4.81,0-7.67-3.04-7.67-6.81Zm10.22-1.49c-.2-1.52-1.59-2.12-2.91-2.12s-2.71.63-2.96,2.12h5.87Z"/>
    <path class="cls-1" d="m235.92,204.46v-10.42c0-.89.48-1.37,1.37-1.37h1.67c.86,0,1.37.48,1.37,1.37v1.47c.43-2.55,2.43-3.11,3.34-3.11.03,0,.33,0,.38.03.66,0,.78.56.78,1.04v2.28c0,.76-.41,1.09-.99,1.01-.23-.03-.4-.03-.61-.03-1.82,0-2.76,1.21-2.76,3.57v4.17c0,.89-.48,1.37-1.37,1.37h-1.82c-.89,0-1.37-.48-1.37-1.37Z"/>
  </g>
  <g>
    <g>
      <rect class="cls-2" x="11.95" y="6.63" width="228.38" height="165.48" rx="41.52" ry="41.52"/>
      <path class="cls-5" d="m48.34,6.63h156.39c19.64,0,35.59,15.95,35.59,35.59v8.48c0,.86-.7,1.56-1.56,1.56H13.5c-.86,0-1.56-.7-1.56-1.56v-7.68C11.95,22.94,28.26,6.63,48.34,6.63Z"/>
      <rect class="cls-3" x="82.79" y="26.82" width="86.7" height="10.22" rx="5.11" ry="5.11"/>
      <rect class="cls-6" x="38.59" y="94.4" width="15.02" height="15.02" rx="6.36" ry="6.36"/>
      <rect class="cls-6" x="38.59" y="68.55" width="15.02" height="15.02" rx="6.36" ry="6.36"/>
      <rect class="cls-6" x="38.59" y="121.59" width="15.02" height="15.02" rx="6.36" ry="6.36"/>
      <rect class="cls-6" x="70.73" y="94.4" width="15.02" height="15.02" rx="6.36" ry="6.36"/>
      <rect class="cls-6" x="70.73" y="68.55" width="15.02" height="15.02" rx="6.36" ry="6.36"/>
      <rect class="cls-6" x="70.73" y="121.59" width="15.02" height="15.02" rx="6.36" ry="6.36"/>
      <rect class="cls-6" x="102.38" y="94.4" width="15.02" height="15.02" rx="6.36" ry="6.36"/>
      <rect class="cls-6" x="102.38" y="68.55" width="15.02" height="15.02" rx="6.36" ry="6.36"/>
      <rect class="cls-6" x="102.38" y="121.59" width="15.02" height="15.02" rx="6.36" ry="6.36"/>
      <rect class="cls-6" x="135.96" y="94.4" width="15.02" height="15.02" rx="6.36" ry="6.36"/>
      <rect class="cls-6" x="135.96" y="68.55" width="15.02" height="15.02" rx="6.36" ry="6.36"/>
      <rect class="cls-6" x="135.96" y="121.59" width="15.02" height="15.02" rx="6.36" ry="6.36"/>
      <rect class="cls-6" x="169.79" y="94.4" width="15.02" height="15.02" rx="6.36" ry="6.36"/>
      <rect class="cls-6" x="169.79" y="68.55" width="15.02" height="15.02" rx="6.36" ry="6.36"/>
      <rect class="cls-6" x="169.79" y="121.59" width="15.02" height="15.02" rx="6.36" ry="6.36"/>
      <rect class="cls-6" x="202.28" y="94.4" width="15.02" height="15.02" rx="6.36" ry="6.36"/>
      <rect class="cls-6" x="202.28" y="68.55" width="15.02" height="15.02" rx="6.36" ry="6.36"/>
      <rect class="cls-6" x="202.28" y="121.59" width="15.02" height="15.02" rx="6.36" ry="6.36"/>
    </g>
    <path class="cls-7" d="m146.68,79.44c-.41.21-.57.33-.9.41-.58.16-1.13.4-1.72.48-.47.07-.87.15-1.42.18-.36.06-.63.08-.95.13-.4.06-.8.04-1.19.04-.88,0-1.77-.04-2.63-.25-.54-.14-1.08-.27-1.59-.52-.27-.12-.53-.26-.74-.39-.37-.23-.62-.4-.88-.58-.21-.16-.4-.33-.56-.5-.26-.27-.47-.5-.63-.87s-.26-.86-.29-1.22c-.04-.55-.01-.75,0-1,.07-.67.22-.99.26-1.08.28-.64.72-1.22,1.18-1.76.21-.25.46-.48.7-.71.41-.4.68-.91,1.03-1.36.48-.62.75-1.37,1.26-1.98.11-.13.21-.29.35-.38.19-.13.18-.25.1-.43-.14-.29-.19-.61-.2-.93,0-.19,0-.37.07-.55.16-.42.59-.49.87-.15.25.3.35.65.39,1.03.02.25.03.24.25.18.54-.15,1.07-.32,1.61-.43.68-.14,1.37-.15,2.05-.07.01,0,.03,0,.04,0,.54.08.56.06.53-.47-.02-.34.02-.65.31-.89.42-.35.79-.28,1.01.22.16.38.17.77.1,1.16,0,.04-.02.08-.03.12-.08.4-.07.39.31.57.54.26.99.62,1.37,1.07.67.79,1.17,1.7,1.86,2.47.37.41.6.89.82,1.39.4.89.54,1.79.53,2.75,0,.21-.08.62-.11.82-.14.86-.59,1.32-1.18,1.94-.46.49-.97.91-1.53,1.28-.13.1-.2.13-.3.18h0c-.06.04-.16.08-.16.08Z"/>
    <path class="cls-4" d="m175.91,80.11c-.41.21-.57.33-.9.41-.58.16-1.13.4-1.72.48-.47.07-.87.15-1.42.18-.36.06-.63.08-.95.13-.4.06-.8.04-1.19.04-.88,0-1.77-.04-2.63-.25-.54-.14-1.08-.27-1.59-.52-.27-.12-.53-.26-.74-.39-.37-.23-.62-.4-.88-.58-.21-.16-.4-.33-.56-.5-.26-.27-.47-.5-.63-.87s-.26-.86-.29-1.22c-.04-.55-.01-.75,0-1,.07-.67.22-.99.26-1.08.28-.64.72-1.22,1.18-1.76.21-.25.46-.48.7-.71.41-.4.68-.91,1.03-1.36.48-.62.75-1.37,1.26-1.98.11-.13.21-.29.35-.38.19-.13.18-.25.1-.43-.14-.29-.19-.61-.2-.93,0-.19,0-.37.07-.55.16-.42.59-.49.87-.15.25.3.35.65.39,1.03.02.25.03.24.25.18.54-.15,1.07-.32,1.61-.43.68-.14,1.37-.15,2.05-.07.01,0,.03,0,.04,0,.54.08.56.06.53-.47-.02-.34.02-.65.31-.89.42-.35.79-.28,1.01.22.16.38.17.77.1,1.16,0,.04-.02.08-.03.12-.08.4-.07.39.31.57.54.26.99.62,1.37,1.07.67.79,1.17,1.7,1.86,2.47.37.41.6.89.82,1.39.4.89.54,1.79.53,2.75,0,.21-.08.62-.11.82-.14.86-.59,1.32-1.18,1.94-.46.49-.97.91-1.53,1.28-.13.1-.2.13-.3.18h0c-.06.04-.16.08-.16.08Z"/>
    <path class="cls-7" d="m81.44,79.44c-.41.21-.57.33-.9.41-.58.16-1.13.4-1.72.48-.47.07-.87.15-1.42.18-.36.06-.63.08-.95.13-.4.06-.8.04-1.19.04-.88,0-1.77-.04-2.63-.25-.54-.14-1.08-.27-1.59-.52-.27-.12-.53-.26-.74-.39-.37-.23-.62-.4-.88-.58-.21-.16-.4-.33-.56-.5-.26-.27-.47-.5-.63-.87s-.26-.86-.29-1.22c-.04-.55-.01-.75,0-1,.07-.67.22-.99.26-1.08.28-.64.72-1.22,1.18-1.76.21-.25.46-.48.7-.71.41-.4.68-.91,1.03-1.36.48-.62.75-1.37,1.26-1.98.11-.13.21-.29.35-.38.19-.13.18-.25.1-.43-.14-.29-.19-.61-.2-.93,0-.19,0-.37.07-.55.16-.42.59-.49.87-.15.25.3.35.65.39,1.03.02.25.03.24.25.18.54-.15,1.07-.32,1.61-.43.68-.14,1.37-.15,2.05-.07.01,0,.03,0,.04,0,.54.08.56.06.53-.47-.02-.34.02-.65.31-.89.42-.35.79-.28,1.01.22.16.38.17.77.1,1.16,0,.04-.02.08-.03.12-.08.4-.07.39.31.57.54.26.99.62,1.37,1.07.67.79,1.17,1.7,1.86,2.47.37.41.6.89.82,1.39.4.89.54,1.79.53,2.75,0,.21-.08.62-.11.82-.14.86-.59,1.32-1.18,1.94-.46.49-.97.91-1.53,1.28-.13.1-.2.13-.3.18h0c-.06.04-.16.08-.16.08Z"/>
    <path class="cls-4" d="m110.68,80.11c-.41.21-.57.33-.9.41-.58.16-1.13.4-1.72.48-.47.07-.87.15-1.42.18-.36.06-.63.08-.95.13-.4.06-.8.04-1.19.04-.88,0-1.77-.04-2.63-.25-.54-.14-1.08-.27-1.59-.52-.27-.12-.53-.26-.74-.39-.37-.23-.62-.4-.88-.58-.21-.16-.4-.33-.56-.5-.26-.27-.47-.5-.63-.87s-.26-.86-.29-1.22c-.04-.55-.01-.75,0-1,.07-.67.22-.99.26-1.08.28-.64.72-1.22,1.18-1.76.21-.25.46-.48.7-.71.41-.4.68-.91,1.03-1.36.48-.62.75-1.37,1.26-1.98.11-.13.21-.29.35-.38.19-.13.18-.25.1-.43-.14-.29-.19-.61-.2-.93,0-.19,0-.37.07-.55.16-.42.59-.49.87-.15.25.3.35.65.39,1.03.02.25.03.24.25.18.54-.15,1.07-.32,1.61-.43.68-.14,1.37-.15,2.05-.07.01,0,.03,0,.04,0,.54.08.56.06.53-.47-.02-.34.02-.65.31-.89.42-.35.79-.28,1.01.22.16.38.17.77.1,1.16,0,.04-.02.08-.03.12-.08.4-.07.39.31.57.54.26.99.62,1.37,1.07.67.79,1.17,1.7,1.86,2.47.37.41.6.89.82,1.39.4.89.54,1.79.53,2.75,0,.21-.08.62-.11.82-.14.86-.59,1.32-1.18,1.94-.46.49-.97.91-1.53,1.28-.13.1-.2.13-.3.18h0c-.06.04-.16.08-.16.08Z"/>
    <path class="cls-7" d="m114.69,105.21c-.41.21-.57.33-.9.41-.58.16-1.13.4-1.72.48-.47.07-.87.15-1.42.18-.36.06-.63.08-.95.13-.4.06-.8.04-1.19.04-.88,0-1.77-.04-2.63-.25-.54-.14-1.08-.27-1.59-.52-.27-.12-.53-.26-.74-.39-.37-.23-.62-.4-.88-.58-.21-.16-.4-.33-.56-.5-.26-.27-.47-.5-.63-.87s-.26-.86-.29-1.22c-.04-.55-.01-.75,0-1,.07-.67.22-.99.26-1.08.28-.64.72-1.22,1.18-1.76.21-.25.46-.48.7-.71.41-.4.68-.91,1.03-1.36.48-.62.75-1.37,1.26-1.98.11-.13.21-.29.35-.38.19-.13.18-.25.1-.43-.14-.29-.19-.61-.2-.93,0-.19,0-.37.07-.55.16-.42.59-.49.87-.15.25.3.35.65.39,1.03.02.25.03.24.25.18.54-.15,1.07-.32,1.61-.43.68-.14,1.37-.15,2.05-.07.01,0,.03,0,.04,0,.54.08.56.06.53-.47-.02-.34.02-.65.31-.89.42-.35.79-.28,1.01.22.16.38.17.77.1,1.16,0,.04-.02.08-.03.12-.08.4-.07.39.31.57.54.26.99.62,1.37,1.07.67.79,1.17,1.7,1.86,2.47.37.41.6.89.82,1.39.4.89.54,1.79.53,2.75,0,.21-.08.62-.11.82-.14.86-.59,1.32-1.18,1.94-.46.49-.97.91-1.53,1.28-.13.1-.2.13-.3.18h0c-.06.04-.16.08-.16.08Z"/>
    <path class="cls-4" d="m143.92,105.88c-.41.21-.57.33-.9.41-.58.16-1.13.4-1.72.48-.47.07-.87.15-1.42.18-.36.06-.63.08-.95.13-.4.06-.8.04-1.19.04-.88,0-1.77-.04-2.63-.25-.54-.14-1.08-.27-1.59-.52-.27-.12-.53-.26-.74-.39-.37-.23-.62-.4-.88-.58-.21-.16-.4-.33-.56-.5-.26-.27-.47-.5-.63-.87s-.26-.86-.29-1.22c-.04-.55-.01-.75,0-1,.07-.67.22-.99.26-1.08.28-.64.72-1.22,1.18-1.76.21-.25.46-.48.7-.71.41-.4.68-.91,1.03-1.36.48-.62.75-1.37,1.26-1.98.11-.13.21-.29.35-.38.19-.13.18-.25.1-.43-.14-.29-.19-.61-.2-.93,0-.19,0-.37.07-.55.16-.42.59-.49.87-.15.25.3.35.65.39,1.03.02.25.03.24.25.18.54-.15,1.07-.32,1.61-.43.68-.14,1.37-.15,2.05-.07.01,0,.03,0,.04,0,.54.08.56.06.53-.47-.02-.34.02-.65.31-.89.42-.35.79-.28,1.01.22.16.38.17.77.1,1.16,0,.04-.02.08-.03.12-.08.4-.07.39.31.57.54.26.99.62,1.37,1.07.67.79,1.17,1.7,1.86,2.47.37.41.6.89.82,1.39.4.89.54,1.79.53,2.75,0,.21-.08.62-.11.82-.14.86-.59,1.32-1.18,1.94-.46.49-.97.91-1.53,1.28-.13.1-.2.13-.3.18h0c-.06.04-.16.08-.16.08Z"/>
    <path class="cls-7" d="m182.14,131.31c-.41.21-.57.33-.9.41-.58.16-1.13.4-1.72.48-.47.07-.87.15-1.42.18-.36.06-.63.08-.95.13-.4.06-.8.04-1.19.04-.88,0-1.77-.04-2.63-.25-.54-.14-1.08-.27-1.59-.52-.27-.12-.53-.26-.74-.39-.37-.23-.62-.4-.88-.58-.21-.16-.4-.33-.56-.5-.26-.27-.47-.5-.63-.87s-.26-.86-.29-1.22c-.04-.55-.01-.75,0-1,.07-.67.22-.99.26-1.08.28-.64.72-1.22,1.18-1.76.21-.25.46-.48.7-.71.41-.4.68-.91,1.03-1.36.48-.62.75-1.37,1.26-1.98.11-.13.21-.29.35-.38.19-.13.18-.25.1-.43-.14-.29-.19-.61-.2-.93,0-.19,0-.37.07-.55.16-.42.59-.49.87-.15.25.3.35.65.39,1.03.02.25.03.24.25.18.54-.15,1.07-.32,1.61-.43.68-.14,1.37-.15,2.05-.07.01,0,.03,0,.04,0,.54.08.56.06.53-.47-.02-.34.02-.65.31-.89.42-.35.79-.28,1.01.22.16.38.17.77.1,1.16,0,.04-.02.08-.03.12-.08.4-.07.39.31.57.54.26.99.62,1.37,1.07.67.79,1.17,1.7,1.86,2.47.37.41.6.89.82,1.39.4.89.54,1.79.53,2.75,0,.21-.08.62-.11.82-.14.86-.59,1.32-1.18,1.94-.46.49-.97.91-1.53,1.28-.13.1-.2.13-.3.18h0c-.06.04-.16.08-.16.08Z"/>
    <path class="cls-4" d="m211.37,131.98c-.41.21-.57.33-.9.41-.58.16-1.13.4-1.72.48-.47.07-.87.15-1.42.18-.36.06-.63.08-.95.13-.4.06-.8.04-1.19.04-.88,0-1.77-.04-2.63-.25-.54-.14-1.08-.27-1.59-.52-.27-.12-.53-.26-.74-.39-.37-.23-.62-.4-.88-.58-.21-.16-.4-.33-.56-.5-.26-.27-.47-.5-.63-.87s-.26-.86-.29-1.22c-.04-.55-.01-.75,0-1,.07-.67.22-.99.26-1.08.28-.64.72-1.22,1.18-1.76.21-.25.46-.48.7-.71.41-.4.68-.91,1.03-1.36.48-.62.75-1.37,1.26-1.98.11-.13.21-.29.35-.38.19-.13.18-.25.1-.43-.14-.29-.19-.61-.2-.93,0-.19,0-.37.07-.55.16-.42.59-.49.87-.15.25.3.35.65.39,1.03.02.25.03.24.25.18.54-.15,1.07-.32,1.61-.43.68-.14,1.37-.15,2.05-.07.01,0,.03,0,.04,0,.54.08.56.06.53-.47-.02-.34.02-.65.31-.89.42-.35.79-.28,1.01.22.16.38.17.77.1,1.16,0,.04-.02.08-.03.12-.08.4-.07.39.31.57.54.26.99.62,1.37,1.07.67.79,1.17,1.7,1.86,2.47.37.41.6.89.82,1.39.4.89.54,1.79.53,2.75,0,.21-.08.62-.11.82-.14.86-.59,1.32-1.18,1.94-.46.49-.97.91-1.53,1.28-.13.1-.2.13-.3.18h0c-.06.04-.16.08-.16.08Z"/>
  </g>
</svg>