<?xml version="1.0" encoding="UTF-8"?>
<svg id="Layer_1" data-name="Layer 1" xmlns="http://www.w3.org/2000/svg" viewBox="0 0 531.52 145.69">
  <defs>
    <style>
      .cls-1 {
        fill: #edeade;
      }

      .cls-2 {
        fill: #e8e8e2;
      }

      .cls-3 {
        fill: #f1f2f2;
      }

      .cls-4 {
        fill: #91998e;
      }

      .cls-5 {
        fill: #d7bc5f;
      }

      .cls-6 {
        fill: #cba89b;
      }

      .cls-7 {
        fill: #d8d1c5;
      }

      .cls-8 {
        fill: #888b74;
      }
    </style>
  </defs>
  <path class="cls-5" d="m185.15,72.25c-.43-5.75-4.13-10.75-9.57-13.72.1-.78.16-1.61.16-2.46,0-4.66-1.61-8.43-3.6-8.43s-3.59,3.77-3.6,8.43c-1.46-.27-2.98-.41-4.53-.41-1.02,0-2.02.06-3,.18-.05-4.55-1.64-8.2-3.59-8.2s-3.6,3.77-3.6,8.43c0,.59.03,1.17.08,1.73-4.75,2.16-8.39,5.8-10.07,10.17-3.73,3.11-5.98,7.14-5.98,11.56,0,9.8,11.08,17.74,24.74,17.74s24.74-7.94,24.74-17.74c0-2.59-.78-5.05-2.18-7.27Z"/>
  <g>
    <path class="cls-2" d="m297.38,60.24h-59.34c-.23,0-.41-.18-.41-.41v25.01c0,6.04,4.9,10.94,10.94,10.94h38.29c6.04,0,10.94-4.9,10.94-10.94v-25.01c0,.23-.18.41-.41.41Zm-48.78,24.51c0,.93-.75,1.68-1.68,1.68h-.61c-.93,0-1.68-.75-1.68-1.68v-.61c0-.93.75-1.68,1.68-1.68h.61c.93,0,1.68.75,1.68,1.68v.61Zm0-7.16c0,.93-.75,1.68-1.68,1.68h-.61c-.93,0-1.68-.75-1.68-1.68v-.61c0-.93.75-1.68,1.68-1.68h.61c.93,0,1.68.75,1.68,1.68v.61Zm0-6.81c0,.93-.75,1.68-1.68,1.68h-.61c-.93,0-1.68-.75-1.68-1.68v-.61c0-.93.75-1.68,1.68-1.68h.61c.93,0,1.68.75,1.68,1.68v.61Zm8.47,13.97c0,.93-.75,1.68-1.68,1.68h-.61c-.93,0-1.68-.75-1.68-1.68v-.61c0-.93.75-1.68,1.68-1.68h.61c.93,0,1.68.75,1.68,1.68v.61Zm0-7.16c0,.93-.75,1.68-1.68,1.68h-.61c-.93,0-1.68-.75-1.68-1.68v-.61c0-.93.75-1.68,1.68-1.68h.61c.93,0,1.68.75,1.68,1.68v.61Zm0-6.81c0,.93-.75,1.68-1.68,1.68h-.61c-.93,0-1.68-.75-1.68-1.68v-.61c0-.93.75-1.68,1.68-1.68h.61c.93,0,1.68.75,1.68,1.68v.61Zm8.34,13.97c0,.93-.75,1.68-1.68,1.68h-.61c-.93,0-1.68-.75-1.68-1.68v-.61c0-.93.75-1.68,1.68-1.68h.61c.93,0,1.68.75,1.68,1.68v.61Zm0-7.16c0,.93-.75,1.68-1.68,1.68h-.61c-.93,0-1.68-.75-1.68-1.68v-.61c0-.93.75-1.68,1.68-1.68h.61c.93,0,1.68.75,1.68,1.68v.61Zm0-6.81c0,.93-.75,1.68-1.68,1.68h-.61c-.93,0-1.68-.75-1.68-1.68v-.61c0-.93.75-1.68,1.68-1.68h.61c.93,0,1.68.75,1.68,1.68v.61Zm8.85,13.97c0,.93-.75,1.68-1.68,1.68h-.61c-.93,0-1.68-.75-1.68-1.68v-.61c0-.93.75-1.68,1.68-1.68h.61c.93,0,1.68.75,1.68,1.68v.61Zm0-7.16c0,.93-.75,1.68-1.68,1.68h-.61c-.93,0-1.68-.75-1.68-1.68v-.61c0-.93.75-1.68,1.68-1.68h.61c.93,0,1.68.75,1.68,1.68v.61Zm0-6.81c0,.93-.75,1.68-1.68,1.68h-.61c-.93,0-1.68-.75-1.68-1.68v-.61c0-.93.75-1.68,1.68-1.68h.61c.93,0,1.68.75,1.68,1.68v.61Zm8.91,13.97c0,.93-.75,1.68-1.68,1.68h-.61c-.93,0-1.68-.75-1.68-1.68v-.61c0-.93.75-1.68,1.68-1.68h.61c.93,0,1.68.75,1.68,1.68v.61Zm0-7.16c0,.93-.75,1.68-1.68,1.68h-.61c-.93,0-1.68-.75-1.68-1.68v-.61c0-.93.75-1.68,1.68-1.68h.61c.93,0,1.68.75,1.68,1.68v.61Zm0-6.81c0,.93-.75,1.68-1.68,1.68h-.61c-.93,0-1.68-.75-1.68-1.68v-.61c0-.93.75-1.68,1.68-1.68h.61c.93,0,1.68.75,1.68,1.68v.61Zm8.56,13.97c0,.93-.75,1.68-1.68,1.68h-.61c-.93,0-1.68-.75-1.68-1.68v-.61c0-.93.75-1.68,1.68-1.68h.61c.93,0,1.68.75,1.68,1.68v.61Zm0-7.16c0,.93-.75,1.68-1.68,1.68h-.61c-.93,0-1.68-.75-1.68-1.68v-.61c0-.93.75-1.68,1.68-1.68h.61c.93,0,1.68.75,1.68,1.68v.61Zm0-6.81c0,.93-.75,1.68-1.68,1.68h-.61c-.93,0-1.68-.75-1.68-1.68v-.61c0-.93.75-1.68,1.68-1.68h.61c.93,0,1.68.75,1.68,1.68v.61Z"/>
    <path class="cls-6" d="m288.42,49.12h-41.2c-5.3,0-9.59,4.29-9.59,9.59v2.02c0,.23.18.41.41.41h59.34c.23,0,.41-.18.41-.41v-2.23c0-5.18-4.2-9.38-9.38-9.38Zm-10.63,8.01h-20.15c-.74,0-1.35-.6-1.35-1.35s.6-1.35,1.35-1.35h20.15c.74,0,1.35.6,1.35,1.35s-.6,1.35-1.35,1.35Z"/>
    <path class="cls-3" d="m277.78,54.44h-20.15c-.74,0-1.35.6-1.35,1.35s.6,1.35,1.35,1.35h20.15c.74,0,1.35-.6,1.35-1.35s-.6-1.35-1.35-1.35Z"/>
    <rect class="cls-7" x="244.65" y="75.3" width="3.96" height="3.96" rx="1.68" ry="1.68"/>
    <rect class="cls-7" x="244.65" y="68.49" width="3.96" height="3.96" rx="1.68" ry="1.68"/>
    <rect class="cls-7" x="244.65" y="82.46" width="3.96" height="3.96" rx="1.68" ry="1.68"/>
    <rect class="cls-7" x="253.11" y="75.3" width="3.96" height="3.96" rx="1.68" ry="1.68"/>
    <rect class="cls-7" x="253.11" y="68.49" width="3.96" height="3.96" rx="1.68" ry="1.68"/>
    <rect class="cls-7" x="253.11" y="82.46" width="3.96" height="3.96" rx="1.68" ry="1.68"/>
    <rect class="cls-7" x="261.45" y="75.3" width="3.96" height="3.96" rx="1.68" ry="1.68"/>
    <rect class="cls-7" x="261.45" y="68.49" width="3.96" height="3.96" rx="1.68" ry="1.68"/>
    <rect class="cls-7" x="261.45" y="82.46" width="3.96" height="3.96" rx="1.68" ry="1.68"/>
    <rect class="cls-7" x="270.3" y="75.3" width="3.96" height="3.96" rx="1.68" ry="1.68"/>
    <rect class="cls-7" x="270.3" y="68.49" width="3.96" height="3.96" rx="1.68" ry="1.68"/>
    <rect class="cls-7" x="270.3" y="82.46" width="3.96" height="3.96" rx="1.68" ry="1.68"/>
    <rect class="cls-7" x="279.21" y="75.3" width="3.96" height="3.96" rx="1.68" ry="1.68"/>
    <rect class="cls-7" x="279.21" y="68.49" width="3.96" height="3.96" rx="1.68" ry="1.68"/>
    <rect class="cls-7" x="279.21" y="82.46" width="3.96" height="3.96" rx="1.68" ry="1.68"/>
    <rect class="cls-7" x="287.77" y="75.3" width="3.96" height="3.96" rx="1.68" ry="1.68"/>
    <rect class="cls-7" x="287.77" y="68.49" width="3.96" height="3.96" rx="1.68" ry="1.68"/>
    <rect class="cls-7" x="287.77" y="82.46" width="3.96" height="3.96" rx="1.68" ry="1.68"/>
  </g>
  <g>
    <rect class="cls-1" x="343.6" y="44.13" width="55.66" height="55.66"/>
    <rect class="cls-5" x="342.24" y="45.15" width="1.93" height="54.65" rx=".97" ry=".97"/>
    <rect class="cls-5" x="370.9" y="74.25" width="1.93" height="51.09" rx=".97" ry=".97" transform="translate(272.07 471.66) rotate(-90)"/>
    <path class="cls-5" d="m354.29,87.99c2.92-5.2,6.02-10.29,9.3-15.26-.65.08-1.31.17-1.96.25,3.17,3.95,6.34,7.9,9.51,11.85.9,1.12,2.6,4.39,4.46,3.07.87-.61,1.34-1.94,1.86-2.84.62-1.07,1.24-2.15,1.87-3.22,5.1-8.8,10.2-17.59,15.3-26.39.81-1.39-1.35-2.65-2.16-1.26-3.11,5.36-6.22,10.73-9.33,16.09-1.53,2.65-3.07,5.29-4.6,7.94-.75,1.29-1.49,2.57-2.24,3.86-.41.72-.83,1.43-1.24,2.15-.25.43-.78,1.55-.95,1.65l.96-.13c-.37-.11-1-1.25-1.24-1.55l-1.53-1.91c-.97-1.21-1.94-2.42-2.91-3.63-1.99-2.48-3.99-4.97-5.98-7.45-.53-.67-1.56-.35-1.96.25-3.28,4.98-6.38,10.06-9.3,15.26-.79,1.4,1.37,2.67,2.16,1.26h0Z"/>
  </g>
  <path class="cls-8" d="m58.27,93.24h23.21c2.89,0,5.24-2.35,5.24-5.24v-11.46l.78.78c.66.66,1.72.66,2.38,0l2.08-2.08h0c2.13-2.13,2.13-5.61,0-7.74l-16.01-16.01s-.08-.09-.12-.13l-2.08-2.08c-1.04-1.03-2.41-1.6-3.88-1.6s-2.84.57-3.88,1.6l-2.07,2.08s-.08.08-.11.12l-16.02,16.02c-2.13,2.14-2.13,5.61,0,7.74l2.08,2.08c.33.33.76.49,1.19.49s.86-.16,1.19-.49l.78-.78v11.46c0,2.89,2.35,5.24,5.24,5.24Zm15.69-5.84h-8.19v-10.52h8.19v10.52Z"/>
  <g>
    <g>
      <path class="cls-1" d="m496.66,77.58l-2.9-.55c-.9-.17-1.8.31-2.15,1.16-.92,2.22-2.24,4.22-3.92,5.96-.64.66-.73,1.68-.21,2.44l1.66,2.45-4.01,2.72-1.66-2.45c-.52-.76-1.5-1.05-2.35-.7-2.24.92-4.59,1.41-6.99,1.45-.92.01-1.7.67-1.87,1.58l-.55,2.9-4.76-.91.55-2.9c.17-.9-.31-1.8-1.16-2.16-2.22-.92-4.22-2.24-5.97-3.92-.66-.64-1.68-.73-2.44-.21l-2.45,1.66-2.72-4.01,2.45-1.66c.76-.52,1.05-1.5.7-2.34-.92-2.24-1.41-4.59-1.45-6.99-.02-.92-.68-1.7-1.58-1.87l-2.9-.55.91-4.76,2.9.55c.9.17,1.8-.31,2.16-1.16.92-2.22,2.24-4.22,3.92-5.96.64-.66.72-1.68.21-2.44l-1.66-2.44,4.01-2.72,1.66,2.44c.52.76,1.5,1.05,2.35.7,2.24-.92,4.59-1.41,6.99-1.45.92-.01,1.7-.68,1.87-1.58l.55-2.9,4.76.91-.55,2.9c-.17.9.31,1.8,1.16,2.15,2.22.92,4.22,2.24,5.96,3.92.66.64,1.68.73,2.44.21l2.44-1.66,2.72,4.01-2.45,1.66c-.76.52-1.05,1.5-.7,2.35.92,2.24,1.41,4.59,1.45,6.99.02.92.67,1.7,1.58,1.87l2.9.55-.91,4.76Z"/>
      <path class="cls-1" d="m476.39,57.05c-3.66-.7-7.37.07-10.46,2.16-3.08,2.1-5.16,5.27-5.86,8.92-.7,3.66.07,7.37,2.16,10.46,2.09,3.08,5.26,5.16,8.92,5.86h0c.88.17,1.76.25,2.62.25,6.56,0,12.42-4.66,13.7-11.34,1.44-7.55-3.53-14.87-11.09-16.32Z"/>
    </g>
    <g>
      <path class="cls-4" d="m500.2,69.37l-3.31-.63c-.16-1.81-.53-3.59-1.11-5.33l2.79-1.89c.89-.6,1.12-1.81.52-2.7l-4.91-7.22c-.29-.43-.74-.72-1.24-.81-.5-.1-1.03,0-1.45.3l-2.79,1.9c-1.39-1.18-2.91-2.18-4.54-2.99l.63-3.31c.2-1.05-.49-2.07-1.54-2.27l-8.58-1.64c-.51-.1-1.03.01-1.45.3-.43.29-.72.74-.82,1.24l-.63,3.31c-1.81.16-3.59.52-5.32,1.1l-1.9-2.79c-.29-.42-.74-.72-1.24-.82-.51-.1-1.03.01-1.45.3l-7.22,4.91c-.43.29-.72.74-.81,1.24-.1.51,0,1.03.3,1.45l1.9,2.79c-1.18,1.4-2.18,2.92-2.99,4.54l-3.31-.63c-.5-.09-1.03.01-1.45.3-.43.29-.72.74-.82,1.24l-1.64,8.57c-.2,1.05.49,2.07,1.54,2.27l3.31.63c.16,1.81.53,3.59,1.11,5.32l-2.79,1.9c-.43.29-.72.74-.82,1.24-.1.51.01,1.03.3,1.45l4.91,7.22c.29.43.74.72,1.24.82.5.1,1.03-.01,1.45-.3l2.79-1.9c1.39,1.18,2.91,2.18,4.54,2.99l-.63,3.31c-.2,1.05.49,2.07,1.54,2.27l8.58,1.63c.12.02.25.04.36.04.92,0,1.73-.65,1.91-1.58l.63-3.31c1.81-.16,3.59-.53,5.32-1.11l1.9,2.79c.29.43.74.72,1.24.81.51.1,1.03-.01,1.45-.3l7.22-4.91c.89-.6,1.12-1.81.51-2.7l-1.9-2.79c1.18-1.4,2.18-2.92,2.99-4.54l3.31.63c1.05.2,2.07-.49,2.27-1.54l1.64-8.57c.1-.51-.01-1.03-.3-1.46-.29-.43-.74-.72-1.24-.81Zm-3.54,8.21l-2.9-.55c-.9-.17-1.8.31-2.15,1.16-.92,2.22-2.24,4.22-3.92,5.96-.64.66-.73,1.68-.21,2.44l1.66,2.45-4.01,2.72-1.66-2.45c-.52-.76-1.5-1.05-2.35-.7-2.24.92-4.59,1.41-6.99,1.45-.92.01-1.7.67-1.87,1.58l-.55,2.9-4.76-.91.55-2.9c.17-.9-.31-1.8-1.16-2.16-2.22-.92-4.22-2.24-5.97-3.92-.66-.64-1.68-.73-2.44-.21l-2.45,1.66-2.72-4.01,2.45-1.66c.76-.52,1.05-1.5.7-2.34-.92-2.24-1.41-4.59-1.45-6.99-.02-.92-.68-1.7-1.58-1.87l-2.9-.55.91-4.76,2.9.55c.9.17,1.8-.31,2.16-1.16.92-2.22,2.24-4.22,3.92-5.96.64-.66.72-1.68.21-2.44l-1.66-2.44,4.01-2.72,1.66,2.44c.52.76,1.5,1.05,2.35.7,2.24-.92,4.59-1.41,6.99-1.45.92-.01,1.7-.68,1.87-1.58l.55-2.9,4.76.91-.55,2.9c-.17.9.31,1.8,1.16,2.15,2.22.92,4.22,2.24,5.96,3.92.66.64,1.68.73,2.44.21l2.44-1.66,2.72,4.01-2.45,1.66c-.76.52-1.05,1.5-.7,2.35.92,2.24,1.41,4.59,1.45,6.99.02.92.67,1.7,1.58,1.87l2.9.55-.91,4.76Z"/>
      <path class="cls-4" d="m476.39,57.05c-3.66-.7-7.37.07-10.46,2.16-3.08,2.1-5.16,5.27-5.86,8.92-.7,3.66.07,7.37,2.16,10.46,2.09,3.08,5.26,5.16,8.92,5.86h0c.88.17,1.76.25,2.62.25,6.56,0,12.42-4.66,13.7-11.34,1.44-7.55-3.53-14.87-11.09-16.32Zm7.27,15.59c-.5,2.64-2.01,4.93-4.23,6.44-2.22,1.51-4.91,2.06-7.55,1.56h0c-2.64-.51-4.93-2.01-6.44-4.23-1.51-2.22-2.06-4.9-1.56-7.55.5-2.64,2.01-4.93,4.23-6.44,1.69-1.15,3.64-1.74,5.64-1.74.63,0,1.27.06,1.91.18,5.45,1.04,9.04,6.32,8,11.77Z"/>
    </g>
  </g>
</svg>