<?xml version="1.0" encoding="UTF-8"?><svg id="Layer_1" xmlns="http://www.w3.org/2000/svg" viewBox="0 0 1080 1080"><defs><style>.cls-1{fill:#7497c1;}</style></defs><path class="cls-1" d="M117.55,159.55H251.32c22.97,0,44.21,5.74,63.73,17.22,19.52,11.48,35.02,26.98,46.5,46.5,11.48,19.52,17.22,40.86,17.22,64.01s-5.69,44.16-17.08,63.58c-11.39,19.42-26.84,34.83-46.36,46.22-19.52,11.39-40.86,17.08-64.01,17.08H125.3v145.83c0,6.13-2.49,9.19-7.46,9.19h-.29c-5.17,0-7.75-3.06-7.75-9.19V167.31c0-5.17,2.58-7.75,7.75-7.75Zm7.75,238.55h126.02c20.48,0,39.23-4.93,56.26-14.78,17.03-9.85,30.43-23.25,40.19-40.19,9.76-16.94,14.64-35.55,14.64-55.83s-4.88-39.28-14.64-56.41c-9.76-17.12-23.16-30.67-40.19-40.62-17.04-9.95-35.79-14.93-56.26-14.93H125.3v222.76Z"/><path class="cls-1" d="M704.45,569.19h-.26c-4.75,0-7.13-2.9-7.13-8.71v-83.92c-8.8,19.35-21.03,36.59-36.68,51.72-15.66,15.13-33.51,26.92-53.57,35.36-20.06,8.45-41,12.67-62.81,12.67-28.5,0-55.55-7.52-81.15-22.56-25.6-15.04-46.18-35.32-61.75-60.83-15.57-25.51-23.35-53.13-23.35-82.86s7.78-57.48,23.35-83.26c15.57-25.77,36.15-46.27,61.75-61.49,25.6-15.22,52.65-22.83,81.15-22.83,21.64,0,42.49,4.27,62.54,12.8,20.06,8.54,37.96,20.45,53.7,35.76,15.74,15.31,28.01,32.72,36.81,52.25v-89.2c0-2.64,.57-4.75,1.72-6.33,1.14-1.58,2.94-2.38,5.41-2.38h.26c4.75,0,7.13,2.9,7.13,8.71v306.39c0,5.81-2.38,8.71-7.13,8.71Zm-29.42-235.26c-14.69-23.49-33.87-42.18-57.53-56.08-23.66-13.9-48.25-20.85-73.76-20.85s-50.71,6.91-74.02,20.72c-23.31,13.81-42.05,32.46-56.21,55.95-14.16,23.49-21.24,48.95-21.24,76.4s7.08,52.25,21.24,75.47c14.16,23.22,32.9,41.74,56.21,55.55,23.31,13.81,47.98,20.72,74.02,20.72s52.69-6.86,76.27-20.59c23.57-13.72,42.31-32.2,56.21-55.42,13.9-23.22,20.85-48.47,20.85-75.74s-7.35-52.65-22.04-76.13Z"/><path class="cls-1" d="M431.98,566.94h.27c4.57,0,6.86,2.73,6.86,8.18v67.29c6.33-15.66,16.01-28.85,29.03-39.59,13.02-10.73,27.27-18.69,42.75-23.88,15.48-5.19,30.43-7.78,44.86-7.78,12.14,0,24.98,2.42,38.52,7.26,13.55,4.84,25.03,10.51,34.44,17.02,9.41,6.51,14.12,11.88,14.12,16.1,0,1.41-.36,2.47-1.06,3.17l-.26,.27c-1.58,1.94-3.52,2.9-5.8,2.9-1.94,0-3.79-.79-5.54-2.38-23.93-19.88-48.47-29.82-73.63-29.82-18.13,0-36.16,4.27-54.1,12.8-17.95,8.54-32.94,22.26-44.99,41.17-12.05,18.91-18.08,42.88-18.08,71.91v170.48c0,5.63-2.38,8.45-7.13,8.45h-.27c-4.75,0-7.13-2.81-7.13-8.45v-306.91c0-5.45,2.38-8.18,7.13-8.18Z"/><path class="cls-1" d="M965.31,566.94h.27c4.57,0,6.86,2.73,6.86,8.18v306.91c0,5.63-2.29,8.45-6.86,8.45h-.27c-4.58,0-6.86-2.81-6.86-8.45l-.53-52.78c-8.09,14.08-18.74,26.44-31.93,37.08-13.2,10.65-27.54,18.78-43.02,24.41-15.49,5.63-30.53,8.45-45.13,8.45-27.44,0-51.9-6.73-73.36-20.19-21.47-13.46-38.09-31.23-49.88-53.31-11.79-22.08-17.68-45.52-17.68-70.33v-180.24c0-5.45,2.28-8.18,6.86-8.18h.27c4.92,0,7.39,2.73,7.39,8.18v180.24c0,24.98,5.72,47.33,17.16,67.03,11.43,19.71,26.79,35.01,46.05,45.92,19.27,10.91,40.07,16.36,62.41,16.36,18.65,0,37.34-4.75,56.08-14.25,18.74-9.5,34.22-22.91,46.45-40.24,12.23-17.33,18.34-37.16,18.34-59.51v-195.55c0-5.45,2.46-8.18,7.39-8.18Z"/><circle class="cls-1" cx="756.62" cy="864.4" r="26.08"/><circle class="cls-1" cx="704.45" cy="566.08" r="26.08"/><circle class="cls-1" cx="834.69" cy="894.36" r="26.08"/><circle class="cls-1" cx="907.16" cy="868.28" r="26.08"/></svg>