<?xml version="1.0" encoding="UTF-8"?><svg id="Layer_1" xmlns="http://www.w3.org/2000/svg" viewBox="0 0 1080 1080"><defs><style>.cls-1{fill:#fff;}.cls-2{fill:#7497c1;}</style></defs><circle class="cls-2" cx="544.66" cy="540" r="434.9"/><g><path class="cls-1" d="M308.39,305.43h82.48c14.16,0,27.26,3.54,39.29,10.62,12.04,7.08,21.59,16.64,28.67,28.67,7.08,12.04,10.62,25.19,10.62,39.47s-3.51,27.23-10.53,39.2c-7.02,11.98-16.55,21.48-28.58,28.5-12.04,7.02-25.19,10.53-39.47,10.53h-77.7v89.91c0,3.78-1.53,5.66-4.6,5.66h-.18c-3.19,0-4.78-1.89-4.78-5.66v-242.12c0-3.19,1.59-4.78,4.78-4.78Zm4.78,147.08h77.7c12.62,0,24.19-3.04,34.69-9.12,10.5-6.08,18.76-14.34,24.78-24.78,6.02-10.44,9.03-21.92,9.03-34.42s-3.01-24.22-9.03-34.78c-6.02-10.56-14.28-18.91-24.78-25.04-10.5-6.13-22.07-9.2-34.69-9.2h-77.7v137.35Z"/><path class="cls-1" d="M670.25,558h-.16c-2.93,0-4.39-1.79-4.39-5.37v-51.74c-5.43,11.93-12.96,22.56-22.62,31.89-9.66,9.33-20.66,16.6-33.03,21.8-12.37,5.21-25.28,7.81-38.72,7.81-17.57,0-34.25-4.64-50.03-13.91-15.78-9.27-28.47-21.78-38.07-37.5-9.6-15.73-14.4-32.76-14.4-51.09s4.8-35.44,14.4-51.33c9.6-15.89,22.29-28.53,38.07-37.91,15.78-9.38,32.46-14.07,50.03-14.07,13.34,0,26.2,2.63,38.56,7.89,12.37,5.26,23.4,12.61,33.11,22.05,9.71,9.44,17.27,20.18,22.7,32.22v-55c0-1.63,.35-2.93,1.06-3.9,.7-.98,1.81-1.46,3.34-1.46h.16c2.93,0,4.39,1.79,4.39,5.37v188.91c0,3.58-1.46,5.37-4.39,5.37Zm-18.14-145.06c-9.06-14.48-20.88-26.01-35.47-34.58-14.59-8.57-29.75-12.85-45.48-12.85s-31.27,4.26-45.64,12.77c-14.38,8.52-25.93,20.01-34.66,34.49-8.73,14.48-13.1,30.18-13.1,47.1s4.36,32.22,13.1,46.53c8.73,14.32,20.28,25.74,34.66,34.25,14.37,8.52,29.59,12.77,45.64,12.77s32.49-4.23,47.02-12.69c14.53-8.46,26.09-19.85,34.66-34.17,8.57-14.32,12.85-29.88,12.85-46.7s-4.53-32.46-13.59-46.94Z"/><path class="cls-1" d="M502.25,556.61h.16c2.82,0,4.23,1.68,4.23,5.04v41.49c3.9-9.65,9.87-17.79,17.9-24.41,8.03-6.62,16.81-11.52,26.36-14.73,9.54-3.2,18.77-4.8,27.66-4.8,7.48,0,15.4,1.49,23.75,4.47,8.35,2.98,15.43,6.48,21.24,10.49,5.8,4.01,8.71,7.32,8.71,9.92,0,.87-.22,1.52-.65,1.95l-.16,.16c-.98,1.19-2.17,1.79-3.58,1.79-1.2,0-2.33-.49-3.42-1.47-14.75-12.26-29.89-18.39-45.4-18.39-11.18,0-22.29,2.63-33.36,7.89-11.07,5.26-20.31,13.72-27.74,25.38-7.43,11.66-11.15,26.44-11.15,44.34v105.11c0,3.47-1.46,5.21-4.39,5.21h-.16c-2.93,0-4.39-1.73-4.39-5.21v-189.23c0-3.36,1.46-5.04,4.39-5.04Z"/><path class="cls-1" d="M831.09,556.61h.16c2.82,0,4.23,1.68,4.23,5.04v189.23c0,3.47-1.41,5.21-4.23,5.21h-.16c-2.82,0-4.23-1.73-4.23-5.21l-.33-32.54c-4.99,8.68-11.55,16.3-19.69,22.86-8.14,6.56-16.98,11.58-26.52,15.05-9.55,3.47-18.82,5.21-27.82,5.21-16.92,0-32-4.15-45.23-12.45-13.24-8.3-23.49-19.25-30.75-32.87-7.27-13.61-10.9-28.07-10.9-43.36v-111.13c0-3.36,1.41-5.04,4.23-5.04h.16c3.03,0,4.55,1.68,4.55,5.04v111.13c0,15.4,3.53,29.18,10.58,41.33,7.05,12.15,16.52,21.59,28.39,28.31,11.88,6.73,24.71,10.09,38.48,10.09,11.5,0,23.02-2.93,34.58-8.79,11.55-5.86,21.1-14.13,28.64-24.81,7.54-10.68,11.31-22.91,11.31-36.69v-120.57c0-3.36,1.52-5.04,4.56-5.04Z"/><circle class="cls-1" cx="702.41" cy="740.01" r="16.08"/><circle class="cls-1" cx="670.25" cy="556.08" r="16.08"/><circle class="cls-1" cx="750.54" cy="758.49" r="16.08"/><circle class="cls-1" cx="795.23" cy="742.41" r="16.08"/></g></svg>