<?xml version="1.0" encoding="UTF-8"?>
<svg id="Layer_1" data-name="Layer 1" xmlns="http://www.w3.org/2000/svg" viewBox="0 0 1080 428.51">
  <defs>
    <style>
      .cls-1 {
        stroke-width: 0px;
      }
    </style>
  </defs>
  <path class="cls-1" d="m280.84,309.45l-44.24-91.43c-.01-3.91-4.14-15.34-4.97-17.01l-23.45-46.34c-.98-1.95-3.25-2.79-5.19-1.79l-1.87.95c-1.94.99-2.84,3.46-1.86,5.41l23.45,46.34c.83,1.67,7.63,11.72,10.74,14.06l45.85,90.6,1.54-.78Zm-51.83-103.06l-.68.34c-.71.36-4.72-6.43-5.19-7.38l-18.88-37.3c-.47-.95-.2-2.07.51-2.43l.68-.34c.71-.36,1.58.16,2.06,1.11l18.88,37.3c.47.95,3.33,8.34,2.63,8.7Z"/>
  <g>
    <path class="cls-1" d="m190.48,222.1c-.74.69-1.29,1.09-2.02,1.71-4.35,3.73-9.27,6.45-14.44,8.8-11.76,5.22-24.5,7.65-37.35,6.87-36.56-2.32-57.96-34.72-48.41-69.57,11.05-37.31,48.16-59.62,83.32-70.47,44.23-13.12,107.36-15.97,143.43,17.44,9.39,8.9,16.38,20.57,19.07,33.28,5.45,25.74-2.38,53.32-23.46,69.83-9.93,8.1-21.93,12.93-34.11,16.41-10.01,3.24-21.74,6.01-32.46,3.13-2.26-.6-4.11-.92-6.37-2.04-1.97-1-2.76-3.41-1.76-5.38s3.41-2.76,5.38-1.76c.88.45,2.43.85,3.57,1.14,11.26,3.32,22.66-.59,33.68-4.04,15.23-4.42,29.79-12.86,38.87-26.1,9.97-14.15,12.53-32.8,9.09-49.54-2.37-11.26-8.5-21.46-16.8-29.36-34.44-31.4-93.66-28.11-135.95-15.88-36.83,10.93-81.62,39.27-80.41,82.29.32,17.21,11.18,33.29,27.15,39.67,10.66,4.52,22.7,4.77,34.02,2.84,11.18-2.26,22.38-6.62,31-14.23,3.46-3.25,8.23,1.61,4.97,4.97h0Z"/>
    <path class="cls-1" d="m63.85,229.9c14.62-4.74,30.91-2.91,42.44,8.06,7.81,7.98,12.71,17.39,17.94,27,.56,1.17,1.26,2.43,1.79,3.62.64,1.32,1.21,2.71,2.19,3.84,8.1,10.8,19.71,18.84,33.28,20.33,9.51,1.03,19.85.36,28.63-3.59,31.61-15.34,25.79-61.37,26.68-90.83.17-25.66,6.86-52.47,29.39-67.44,1.68-.9,3.03-1.43,4.97-1.51,2.21,0,4,1.79,4,4s-1.79,4-4,4c.19,0,.2-.02.16,0-.05,0-.15.04-.27.08-.34.11-.67.24-.82.32-3.21,2.14-10.27,8.24-13.23,13.18-15.88,23.1-11.74,52.39-12.7,78.91-.88,25.09-5.68,54.35-31.04,66.1-13.09,5.76-30.08,6.13-43.58,1.6-10.55-3.6-19.66-11.02-26.4-19.63-1.23-1.55-2.48-3.25-3.28-5.09-.27-.58-.79-1.73-1.08-2.29-3.37-6.81-7.19-13.56-11.44-19.84-9.34-14.99-25.12-19.32-41.57-14.06-4.38,1.24-6.53-5.2-2.05-6.73h0Z"/>
  </g>
  <g>
    <g>
      <path class="cls-1" d="m304.69,278.81c0-28.02,34.58-39.32,57.17-39.32,1.36,0,1.58,1.13,1.58,2.03v39.1c0,7.68,1.58,14.01,9.94,14.01,11.07,0,18.08-11.53,22.82-20.34l2.03-3.84c.68-1.13,1.58-1.13,2.03-1.13,1.36,0,2.26.9,2.26,2.26,0,.23,0,.68-.23,1.13l-1.58,2.94c-5.65,10.62-14.01,23.5-27.34,23.5-10.4,0-14.46-7.23-14.46-17.63-5.2,9.72-17.63,17.63-30.28,17.63-15.14,0-23.95-8.14-23.95-20.34Zm54.24-12.66v-22.15c-21.69,1.36-49.49,11.53-49.49,34.8,0,9.26,6.78,15.82,19.66,15.82,14.92,0,29.83-13.56,29.83-28.47Z"/>
      <path class="cls-1" d="m373.39,300.65c-8.93,0-14.37-5.11-15.67-14.5-6.55,8.6-18.08,14.5-29.08,14.5-15.7,0-25.45-8.37-25.45-21.84s7.22-23.94,20.89-31.48c10.6-5.85,24.72-9.34,37.79-9.34,1.49,0,3.08.93,3.08,3.53v39.1c0,9,2.37,12.51,8.44,12.51,9.67,0,16.3-9.88,21.5-19.55l2.03-3.83c1.15-1.93,2.81-1.93,3.36-1.93,2.18,0,3.76,1.58,3.76,3.76,0,.31,0,1.03-.38,1.8l-1.6,2.98c-6.01,11.31-14.71,24.29-28.67,24.29Zm-12.96-25.11v5.99c0,10.7,4.36,16.13,12.96,16.13,12.36,0,20.4-12.13,26.02-22.71l1.58-2.94c.05-.1.05-.28.05-.42,0-.53-.23-.76-.76-.76-.35,0-.51,0-.75.4l-1.99,3.77c-3.7,6.87-11.38,21.14-24.15,21.14-10.14,0-11.44-8.29-11.44-15.51v-39.1c0-.28-.03-.45-.06-.53h-.03c-23.12,0-55.67,11.73-55.67,37.82,0,11.62,8.6,18.84,22.45,18.84,11.56,0,23.74-7.08,28.96-16.83l2.82-5.28Zm-31.33,20.59c-13.05,0-21.16-6.64-21.16-17.32s6-20.31,17.36-26.92c8.91-5.19,21.14-8.61,33.54-9.38l1.59-.1v23.74c0,15.41-15.23,29.97-31.33,29.97Zm28.33-50.51c-11.4.93-22.48,4.13-30.63,8.87-10.53,6.13-15.86,14.31-15.86,24.33,0,8.97,6.79,14.32,18.16,14.32,14.56,0,28.33-13.11,28.33-26.97v-20.54Z"/>
    </g>
    <g>
      <path class="cls-1" d="m413.38,281.53v-27.34l-10.85,18.53c-.45.9-1.36,1.13-2.03,1.13-1.36,0-2.26-.9-2.26-2.26,0-.23,0-.9.68-2.03l14.46-24.63v-16.95h-13.11c-1.36,0-2.26-.9-2.26-2.26s.9-2.26,2.26-2.26h13.11v-34.58c0-1.36.9-2.26,2.26-2.26s2.26.9,2.26,2.26v34.58h24.63c1.36,0,2.26.9,2.26,2.26s-.9,2.26-2.26,2.26h-24.63v52.65c0,7.68,1.58,14.01,9.94,14.01,10.62,0,18.98-14.01,22.6-20.34l2.26-3.84c.68-1.13,1.58-1.13,2.03-1.13,1.36,0,2.26.9,2.26,2.26,0,.23,0,.68-.23,1.13l-1.81,2.94c-6.33,10.39-14.24,23.5-27.12,23.5-10.4,0-14.46-7.23-14.46-17.63Z"/>
      <path class="cls-1" d="m427.85,300.65c-10.29,0-15.96-6.79-15.96-19.13v-21.81l-8.05,13.76c-.58,1.16-1.81,1.87-3.33,1.87-2.18,0-3.76-1.58-3.76-3.76,0-.33,0-1.32.89-2.8l14.25-24.27v-15.04h-11.61c-2.18,0-3.76-1.58-3.76-3.76s1.58-3.76,3.76-3.76h11.61v-33.08c0-2.18,1.58-3.76,3.76-3.76s3.76,1.58,3.76,3.76v33.08h23.13c2.18,0,3.76,1.58,3.76,3.76s-1.58,3.76-3.76,3.76h-23.13v51.15c0,9,2.37,12.51,8.44,12.51,10.11,0,18.53-14.74,21.3-19.58l2.27-3.86c1.12-1.87,2.78-1.87,3.33-1.87,2.18,0,3.76,1.58,3.76,3.76,0,.31,0,1.03-.38,1.8l-.06.12-1.9,3.1c-6.52,10.72-14.64,24.06-28.3,24.06Zm-12.96-52v32.88c0,10.7,4.36,16.13,12.96,16.13,11.97,0,19.6-12.54,25.74-22.62l1.87-3.03c.05-.13.05-.3.05-.42,0-.53-.23-.76-.76-.76-.35,0-.51,0-.75.4l-2.25,3.83c-5.16,9.04-13.27,21.08-23.89,21.08s-11.44-8.29-11.44-15.51v-54.15h26.13c.53,0,.76-.23.76-.76s-.23-.76-.76-.76h-26.13v-36.08c0-.53-.23-.76-.76-.76s-.76.23-.76.76v36.08h-14.61c-.53,0-.76.23-.76.76s.23.76.76.76h14.61v18.86l-14.67,24.98c-.22.37-.47.87-.47,1.27,0,.53.23.76.76.76.36,0,.59-.1.69-.3l13.69-23.39Z"/>
    </g>
    <g>
      <path class="cls-1" d="m452.03,269.32c0-17.4,14.24-29.83,31.19-29.83,4.75,0,9.72.68,11.98,1.36,1.81.45,2.26,1.36,2.26,2.26,0,1.36-1.13,2.26-2.26,2.26-1.58,0-4.97-1.36-11.98-1.36-14.01,0-26.44,10.62-26.44,25.31,0,16.95,12.2,25.31,30.06,25.31s27.8-11.75,34.12-22.6l.9-1.58c.68-1.13,1.81-1.13,2.03-1.13,1.36,0,2.26.9,2.26,2.49,0,.23-.23.9-.45,1.36l-1.13,2.03c-.9,1.58-3.16,4.97-6.1,8.59-8.36,9.72-18.08,15.37-31.64,15.37-21.24,0-34.8-10.4-34.8-29.83Z"/>
      <path class="cls-1" d="m486.83,300.65c-22.73,0-36.3-11.71-36.3-31.33,0-17.57,14.36-31.33,32.69-31.33,4.99,0,10.11.73,12.41,1.42,2.89.72,3.33,2.63,3.33,3.7,0,2.07-1.69,3.76-3.76,3.76-.66,0-1.41-.15-2.45-.36-1.96-.4-4.93-.99-9.53-.99-13.75,0-24.94,10.68-24.94,23.81,0,15.13,10.41,23.81,28.56,23.81,13.32,0,24.37-7.35,32.83-21.85l.9-1.57c.73-1.21,1.94-1.89,3.34-1.89,2.21,0,3.76,1.64,3.76,3.99,0,.66-.44,1.69-.61,2.03l-1.16,2.09c-.8,1.4-3.01,4.82-6.25,8.8-9.35,10.87-19.77,15.92-32.8,15.92Zm-3.62-59.66c-16.65,0-29.69,12.44-29.69,28.33,0,18,12.14,28.33,33.3,28.33,12.26,0,21.67-4.58,30.5-14.85,2.69-3.31,4.97-6.65,5.94-8.35l1.12-2.02c.1-.21.22-.56.26-.72-.03-.9-.48-.9-.76-.9-.45,0-.64.21-.75.4l-.89,1.55c-9.04,15.5-20.96,23.35-35.43,23.35-19.76,0-31.56-10.02-31.56-26.81,0-14.78,12.53-26.81,27.94-26.81,4.9,0,8.04.63,10.12,1.05.8.16,1.5.3,1.85.3.31,0,.76-.24.76-.76,0-.18,0-.52-1.12-.8-2.19-.65-7.08-1.31-11.61-1.31Z"/>
    </g>
    <g>
      <path class="cls-1" d="m536.32,296.67v-41.81l-10.4,17.85c-.45.9-1.36,1.13-2.03,1.13-1.36,0-2.26-.9-2.26-2.26,0-.23,0-.9.68-2.03l14.01-23.95v-63.95c0-21.02,4.52-28.02,13.11-28.02,10.62,0,13.11,14.24,13.11,25.08,0,23.5-13.79,54.46-21.69,68.92v15.82c9.04-11.3,20.11-23.95,35.48-23.95,12.65,0,14.01,10.62,14.01,16.5v24.63c0,7.68,1.58,14.01,9.94,14.01,10.62,0,19.21-14.46,22.6-20.34l2.26-3.84c.68-1.13,1.58-1.13,2.03-1.13,1.36,0,2.26.9,2.26,2.26,0,.23,0,.68-.23,1.13l-1.81,2.94c-5.88,9.72-14.24,23.5-27.12,23.5-10.4,0-14.46-7.23-14.46-17.63v-25.54c0-7.68-2.94-11.98-9.49-11.98-15.14,0-27.12,15.37-35.25,26.67v25.99c0,1.36-.9,2.49-2.26,2.49-1.81,0-2.49-1.13-2.49-2.49Zm21.69-117.96c0-9.72-2.26-20.56-8.81-20.56-8.36,0-8.36,17.17-8.36,22.37v57.4c3.84-7.46,17.17-35.48,17.17-59.21Z"/>
      <path class="cls-1" d="m600.27,300.65c-10.29,0-15.96-6.79-15.96-19.13v-25.54c0-9.39-4.56-10.48-7.99-10.48-13.3,0-24.09,12.28-33.75,25.65v25.5c0,2.27-1.62,3.99-3.76,3.99-2.42,0-3.99-1.56-3.99-3.99v-36.25l-7.6,13.05c-.58,1.16-1.81,1.88-3.33,1.88-2.18,0-3.76-1.58-3.76-3.76,0-.33,0-1.32.89-2.8l13.8-23.59v-63.55c0-20.69,4.37-29.52,14.61-29.52,9.28,0,14.61,9.69,14.61,26.58,0,28.13-18.74,63.84-21.69,69.31v11.22c8.96-10.8,19.71-21.23,33.98-21.23,10,0,15.51,6.39,15.51,18v24.63c0,9,2.37,12.51,8.44,12.51,10,0,18.5-14.74,21.3-19.59l2.27-3.85c1.12-1.87,2.78-1.87,3.33-1.87,2.18,0,3.76,1.58,3.76,3.76,0,.31,0,1.03-.38,1.8l-.06.12-1.81,2.94c-5.83,9.64-14.64,24.22-28.4,24.22Zm-23.95-58.14c5.01,0,10.99,2.34,10.99,13.48v25.54c0,10.7,4.36,16.13,12.96,16.13,12.06,0,20.02-13.17,25.83-22.78l1.77-2.87c.05-.13.05-.3.05-.42,0-.53-.23-.76-.76-.76-.35,0-.51,0-.75.4l-2.25,3.83c-3,5.21-12.16,21.08-23.89,21.08-10.14,0-11.44-8.29-11.44-15.51v-24.63c0-9.95-4.21-15-12.51-15-14.39,0-24.84,11.56-34.31,23.39l-2.67,3.34v-20.48l.18-.34c7.99-14.61,21.51-45.42,21.51-68.2,0-7.09-1.13-23.58-11.61-23.58-5.74,0-11.61,3.15-11.61,26.52v64.36l-14.22,24.31c-.22.37-.47.87-.47,1.28,0,.53.23.76.76.76.36,0,.59-.1.69-.3l13.24-22.74v47.37c0,.84.3.99.99.99.6,0,.76-.62.76-.99v-26.47l.28-.39c10.21-14.17,21.69-27.29,36.47-27.29Zm-36.98,1.58v-63.59c0-5.9,0-23.87,9.86-23.87,2.42,0,10.31,1.59,10.31,22.06,0,24.97-14.45,54.27-17.34,59.89l-2.83,5.5Zm9.86-84.46c-3.13,0-6.86,3.62-6.86,20.87v50.9c5.08-10.93,14.17-33.25,14.17-52.7,0-9.49-2.26-19.06-7.31-19.06Z"/>
    </g>
    <g>
      <path class="cls-1" d="m660.55,297.34l-43.39-139.66c-.45-1.13-.45-1.58-.45-1.81,0-1.36.9-2.26,2.26-2.26.45,0,1.81.23,2.26,1.81l41.81,135.82,33.9-73.67c.45-.9,1.13-2.26,2.71-2.26s2.26,1.36,2.71,2.26l33.9,73.67,41.81-135.82c.45-1.58,1.81-1.81,2.26-1.81,1.36,0,2.26.9,2.26,2.03,0,.45-.23,1.13-.45,1.81l-43.39,139.88c-.45,1.13-1.13,1.81-2.26,1.81s-1.58-.45-2.26-1.81l-34.58-74.8-34.58,74.8c-.68,1.36-1.13,1.81-2.26,1.81s-1.81-.68-2.26-1.81Z"/>
      <path class="cls-1" d="m736.48,300.65c-2.11,0-2.93-1.3-3.6-2.64l-33.23-71.9-33.21,71.85c-.69,1.38-1.51,2.68-3.62,2.68-1.16,0-2.74-.48-3.65-2.75l-.04-.11-43.37-139.6c-.47-1.2-.54-1.84-.54-2.31,0-2.18,1.58-3.76,3.76-3.76,1.43,0,3.13.9,3.7,2.9l40.64,132.03,32.26-70.1c.52-1.05,1.57-3.13,4.07-3.13s3.55,2.08,4.05,3.09l32.28,70.15,40.65-132.06c.56-1.97,2.26-2.87,3.69-2.87,2.14,0,3.76,1.52,3.76,3.53,0,.7-.26,1.47-.53,2.28l-43.42,139.97c-.91,2.27-2.49,2.75-3.65,2.75Zm-36.84-81.68l35.94,77.75c.47.94.54.94.9.94.23,0,.51,0,.85-.81l43.37-139.82c.15-.44.38-1.14.38-1.37,0-.39-.39-.53-.76-.53-.18,0-.63.08-.82.72l-42.97,139.6-35.54-77.24c-.47-.95-.79-1.39-1.35-1.39s-.88.44-1.37,1.43l-35.52,77.2-42.96-139.57c-.19-.67-.64-.75-.83-.75-.52,0-.76.23-.76.76,0,.11,0,.39.34,1.25l.04.11,43.37,139.6c.34.81.62.81.85.81.36,0,.43,0,.92-.98l35.92-77.71Z"/>
    </g>
    <g>
      <path class="cls-1" d="m774.5,269.32c0-17.85,12.2-29.83,30.51-29.83,12.88,0,22.82,6.1,27.57,16.04,5.65-1.36,11.07-3.62,15.82-6.55,1.13-.68,1.58-.9,2.26-.9,1.58,0,2.26,1.13,2.26,2.26,0,.9-.45,1.58-1.13,2.03-6.33,3.84-12.2,6.1-17.63,7.46.9,2.94,1.36,6.1,1.36,9.49,0,17.85-12.2,29.83-30.51,29.83s-30.51-11.98-30.51-29.83Zm56.27,0c0-3.16-.45-6.1-1.36-8.81-2.26.45-4.52.45-6.55.45-11.07,0-21.69-3.84-21.69-13.11,0-1.36.23-2.49.9-3.62-13.79,1.36-22.83,11.3-22.83,25.08,0,14.92,10.4,25.31,25.76,25.31s25.76-10.4,25.76-25.31Zm-3.39-13.11c-3.39-6.1-8.59-10.17-16.95-11.75h-.9c-2.03,0-3.62,1.36-3.62,2.94,0,5.65,5.65,9.04,16.95,9.04,1.58,0,3.16,0,4.52-.23Z"/>
      <path class="cls-1" d="m805,300.65c-19.14,0-32.01-12.59-32.01-31.33s12.86-31.33,32.01-31.33c12.8,0,23.06,5.74,28.37,15.8,5.04-1.33,9.93-3.42,14.23-6.08,1.17-.7,1.94-1.13,3.05-1.13,2.47,0,3.76,1.89,3.76,3.76,0,1.34-.64,2.51-1.8,3.28-5.46,3.32-10.89,5.69-16.61,7.27.67,2.65,1,5.47,1,8.43,0,18.74-12.86,31.33-32.01,31.33Zm0-59.66c-17.35,0-29.01,11.38-29.01,28.33s11.66,28.33,29.01,28.33,29.01-11.38,29.01-28.33c0-3.22-.43-6.27-1.29-9.05l-.47-1.51,1.54-.38c5.96-1.49,11.59-3.87,17.21-7.28.35-.24.41-.52.41-.75,0-.76-.49-.76-.76-.76-.25,0-.43.06-1.49.69-4.88,3.02-10.5,5.35-16.24,6.73l-1.18.28-.52-1.1c-4.61-9.65-14.16-15.19-26.22-15.19Zm0,55.14c-16.05,0-27.26-11.02-27.26-26.81,0-14.47,9.72-25.15,24.18-26.58l2.97-.29-1.54,2.56c-.49.82-.69,1.64-.69,2.84,0,8.57,10.88,11.61,20.19,11.61,1.94,0,4.15,0,6.26-.42l1.3-.26.42,1.26c.95,2.85,1.43,5.98,1.43,9.29,0,15.79-11.21,26.81-27.26,26.81Zm-5.2-50.07c-11.66,2.13-19.07,11.03-19.07,23.25,0,14.24,9.75,23.81,24.26,23.81s24.26-9.57,24.26-23.81c0-2.52-.31-4.91-.91-7.12-1.93.26-3.81.26-5.5.26-14.09,0-23.19-5.73-23.19-14.61,0-.64.05-1.23.14-1.79Zm23.05,11.87c-16.05,0-18.45-6.6-18.45-10.54,0-2.45,2.29-4.44,5.12-4.44l1.18.03c8.3,1.57,14.18,5.66,17.98,12.5l1.03,1.86-2.1.35c-1.48.25-3.15.25-4.77.25Zm-13.33-11.98c-1.25,0-2.12.76-2.12,1.44,0,6.56,9.68,7.54,15.45,7.54.65,0,1.32,0,1.96-.02-3.32-4.83-8-7.7-14.53-8.96h-.76Z"/>
    </g>
    <g>
      <path class="cls-1" d="m870.76,282.43c0-7.91,1.81-15.59,3.62-21.69,1.13-3.84,2.03-7.23,2.03-9.27,0-2.26-1.81-5.2-15.14-5.88-1.58,1.36-3.62,2.94-6.33,4.75-1.13.9-3.16,2.26-4.29,2.26-1.36,0-2.26-.9-2.26-2.26,0-.23,0-1.36,1.36-2.26,2.71-1.81,4.97-3.39,7.23-5.2-2.03-2.03-2.94-4.52-2.94-7.46,0-5.2,4.29-8.36,8.14-8.36,3.16,0,7.46,2.03,7.46,7.01,0,3.16-2.03,6.1-4.29,7.91,12.43,1.13,15.59,4.29,15.59,9.27,0,2.49-.68,5.2-1.81,8.81-1.81,5.88-3.62,12.43-3.62,22.37s5.65,12.2,11.75,12.2c12.2,0,21.47-11.07,26.44-20.34l2.03-3.84c.68-1.13,1.58-1.13,2.03-1.13,1.36,0,2.26.9,2.26,2.26,0,.23,0,.68-.23,1.13l-1.58,2.94c-6.1,10.62-16.5,23.5-30.96,23.5-9.04,0-16.5-5.2-16.5-16.72Zm-5.65-47.91c0-1.58-1.36-2.71-2.71-2.71-2.03,0-3.39,1.36-3.39,3.62,0,2.03,1.13,4.07,1.81,4.75,1.81-1.13,4.29-3.39,4.29-5.65Z"/>
      <path class="cls-1" d="m887.26,300.65c-11.1,0-18-6.98-18-18.22,0-6.54,1.2-13.77,3.68-22.12,1.02-3.48,1.97-6.96,1.97-8.84,0-3.08-7.96-4.04-13.13-4.34-1.78,1.49-3.73,2.94-5.96,4.43-1.01.8-3.41,2.55-5.18,2.55-2.18,0-3.76-1.58-3.76-3.76,0-1.37.74-2.65,2.02-3.51,2.46-1.64,4.27-2.91,5.9-4.16-1.51-2.02-2.27-4.45-2.27-7.25,0-6.09,5-9.86,9.64-9.86,4.34,0,8.96,2.98,8.96,8.51,0,2.32-.92,4.7-2.55,6.77,9.79,1.34,13.85,4.46,13.85,10.41,0,2.71-.72,5.55-1.88,9.26-1.87,6.07-3.55,12.32-3.55,21.92,0,7.3,3.26,10.7,10.25,10.7,13.57,0,22.66-14.96,25.12-19.55l2.03-3.83c1.15-1.93,2.81-1.93,3.36-1.93,2.18,0,3.76,1.58,3.76,3.76,0,.31,0,1.03-.39,1.8l-1.6,2.98c-6.38,11.1-17.13,24.29-32.28,24.29Zm-26.51-56.59l.6.03c11.46.58,16.56,2.86,16.56,7.37,0,2.13-.84,5.42-2.09,9.69-2.39,8.07-3.56,15.03-3.56,21.27,0,9.53,5.61,15.22,15,15.22,13.71,0,23.7-12.37,29.66-22.75l1.56-2.9c.05-.1.05-.28.05-.42,0-.53-.23-.76-.76-.76-.35,0-.51,0-.75.4l-2,3.77c-10.24,19.08-22.83,21.14-27.76,21.14-8.67,0-13.25-4.74-13.25-13.7,0-10.01,1.82-16.76,3.68-22.81,1.08-3.44,1.74-6.04,1.74-8.37,0-3.13-1.1-6.58-14.23-7.77l-3.71-.34,2.91-2.33c1.8-1.44,3.73-3.97,3.73-6.74,0-4.04-3.56-5.51-5.96-5.51-3.19,0-6.64,2.62-6.64,6.86,0,2.62.82,4.71,2.5,6.4l1.18,1.19-1.31,1.05c-2.04,1.64-4.17,3.16-7.34,5.27-.31.21-.69.55-.69,1.01,0,.53.23.76.76.76.4,0,1.82-.7,3.36-1.93l.11-.08c2.34-1.56,4.36-3.08,6.18-4.64l.45-.39Zm-.15-1.99l-.84-.84c-.93-.93-2.25-3.35-2.25-5.81,0-3.06,1.96-5.12,4.89-5.12,2.28,0,4.21,1.93,4.21,4.21,0,3.62-4.16,6.4-5,6.92l-1.01.63Zm1.8-8.77c-1.56,0-1.89,1.15-1.89,2.12s.33,1.91.69,2.63c1.32-1.08,2.41-2.45,2.41-3.53,0-.71-.64-1.21-1.21-1.21Z"/>
    </g>
    <g>
      <path class="cls-1" d="m932.23,296.89v-45.65l-12.43,21.47c-.45.9-1.36,1.13-2.03,1.13-1.36,0-2.26-.9-2.26-2.26,0-.23,0-.9.68-2.03l16.04-27.57v-60.34c0-21.02,4.52-28.02,13.11-28.02,10.62,0,13.11,14.24,13.11,25.08,0,22.15-13.79,50.85-21.69,64.4v10.85c5.65-11.3,15.37-14.46,22.15-14.46s13.56,2.71,13.56,10.17c0,9.72-11.75,14.92-22.15,17.63,7.91,3.62,11.98,10.39,15.37,16.27s6.55,11.07,12.88,11.07c10.17,0,18.53-14.46,21.92-20.34l2.26-3.84c.68-1.13,1.58-1.13,2.03-1.13,1.36,0,2.26.9,2.26,2.26,0,.23,0,.68-.23,1.13l-2.26,4.07c-5.42,9.49-13.56,22.37-25.99,22.37-9.04,0-12.65-6.1-16.5-12.88-4.52-7.91-9.49-16.5-24.41-17.4h-.9v28.02c0,1.36-.9,2.26-2.26,2.26s-2.26-.9-2.26-2.26Zm21.69-118.19c0-9.72-2.26-20.56-8.81-20.56-8.36,0-8.36,17.17-8.36,22.37v53.33c3.84-7.01,17.17-33.22,17.17-55.14Zm13.79,70.96c0-4.07-3.84-5.65-8.81-5.65-9.27,0-18.08,6.55-22.15,19.21v.9c1.58.23,3.39.23,5.2.23,9.49,0,25.76-6.1,25.76-14.69Z"/>
      <path class="cls-1" d="m978.56,300.65c-10.07,0-14-6.93-17.8-13.64-4.36-7.63-8.87-15.52-22.51-16.59v26.48c0,2.18-1.58,3.76-3.76,3.76s-3.76-1.58-3.76-3.76v-40.06l-9.63,16.64c-.58,1.16-1.81,1.88-3.33,1.88-2.18,0-3.76-1.58-3.76-3.76,0-.33,0-1.32.89-2.8l15.83-27.2v-59.93c0-20.69,4.37-29.52,14.61-29.52,9.28,0,14.61,9.69,14.61,26.58,0,20.25-11.64,47.47-21.69,64.81v5.11c7.23-9.78,17.39-10.63,20.65-10.63,6.95,0,15.06,3.06,15.06,11.67,0,7.82-6.8,14.03-19.72,18.07,6.43,4.13,10.02,10.36,12.74,15.08,3.6,6.24,6.35,10.32,11.58,10.32,9.32,0,17.53-14.23,20.62-19.59l2.27-3.85c1.12-1.87,2.78-1.87,3.33-1.87,2.18,0,3.76,1.58,3.76,3.76,0,.31,0,1.03-.38,1.8l-2.29,4.13c-4.3,7.52-13.23,23.14-27.3,23.14Zm-43.31-33.28h2.4c15.88.96,21.1,10.1,25.71,18.16,3.69,6.51,6.87,12.12,15.19,12.12,10.84,0,18.27-10.39,24.69-21.62l2.25-4.05c.04-.08.04-.26.04-.4,0-.53-.23-.76-.76-.76-.35,0-.51,0-.75.4l-2.25,3.83c-3.63,6.3-12.16,21.08-23.21,21.08-7.36,0-10.98-6.28-14.18-11.82-3.12-5.41-7-12.14-14.69-15.66l-3.83-1.75,4.08-1.06c9.59-2.5,21.03-7.34,21.03-16.18,0-8.25-10.04-8.67-12.06-8.67-3.28,0-14.48.98-20.8,13.63l-2.84,5.68v-17.61l.2-.35c9.91-16.99,21.49-43.86,21.49-63.65,0-7.09-1.13-23.58-11.61-23.58-5.74,0-11.61,3.15-11.61,26.52v60.74l-.2.35-16.04,27.57c-.22.37-.47.88-.47,1.28,0,.53.23.76.76.76.36,0,.59-.1.69-.3l15.27-26.38v51.23c0,.53.23.76.76.76s.76-.23.76-.76v-29.52Zm6.7-1.52c-1.83,0-3.72,0-5.41-.24l-1.29-.18v-2.44l.07-.22c4.01-12.49,13.05-20.25,23.57-20.25,6.55,0,10.31,2.61,10.31,7.15,0,10.04-17.65,16.19-27.26,16.19Zm-3.47-3.07c1.11.07,2.3.07,3.47.07,4.71,0,10.9-1.56,15.78-3.97,5.39-2.67,8.49-6.03,8.49-9.22,0-3.43-3.98-4.15-7.31-4.15-8.93,0-16.69,6.59-20.42,17.27Zm-3.23-23.09v-59.19c0-5.9,0-23.87,9.86-23.87,2.42,0,10.31,1.59,10.31,22.06,0,23.04-14.46,50.57-17.36,55.86l-2.82,5.13Zm9.86-80.06c-3.13,0-6.86,3.62-6.86,20.87v47.19c5.07-10.23,14.17-31.1,14.17-49,0-9.49-2.26-19.06-7.31-19.06Z"/>
    </g>
  </g>
</svg>