<?xml version="1.0" encoding="UTF-8"?>
<svg id="Layer_1" data-name="Layer 1" xmlns="http://www.w3.org/2000/svg" viewBox="0 0 638.14 638.14">
  <defs>
    <style>
      .cls-1 {
        stroke-width: 0px;
      }
    </style>
  </defs>
  <g>
    <path class="cls-1" d="m400.82,458.16l-62.08-128.3c-.01-5.48-5.8-21.53-6.97-23.87l-32.91-65.02c-1.37-2.74-4.56-3.91-7.28-2.52l-2.62,1.33c-2.72,1.39-3.98,4.86-2.61,7.59l32.91,65.02c1.17,2.34,10.7,16.45,15.06,19.72l64.35,127.14,2.16-1.09Zm-72.73-144.62l-.95.48c-.99.51-6.62-9.03-7.29-10.36l-26.49-52.35c-.67-1.33-.28-2.9.71-3.41l.95-.48c.99-.51,2.22.23,2.89,1.56l26.49,52.35c.67,1.33,4.68,11.7,3.69,12.2Z"/>
    <path class="cls-1" d="m85.87,444.67c-8.74-18.39-13.89-40.19-7.6-62.56,4.11-14.61,12.6-26.22,21.63-29.56l-1.48-4c-10.42,3.86-19.72,16.27-24.26,32.4-6.4,22.76-1.55,44.91,7.01,63.72h4.69Z"/>
    <path class="cls-1" d="m122.87,498.27c-15.45-17.46-28.6-36.98-38.81-58.21h-5.13c10.57,22.47,24.33,43.15,40.61,61.55l3.34-3.33Z"/>
    <path class="cls-1" d="m538.25,200.41c-22.79-39.32-55.61-72.14-94.93-94.93-38.16-22.11-82.44-34.78-129.63-34.78-35.92,0-70.15,7.34-101.28,20.61-32.22,13.73-61.12,33.81-85.11,58.65-8.03,8.31-15.5,17.15-22.37,26.47-2.29,3.1-4.5,6.25-6.65,9.45-2.15,3.2-4.22,6.44-6.23,9.74-.31.51-.59,1.04-.89,1.55h5.53c9.96-16.21,21.61-31.27,34.82-44.83,23.53-24.14,51.8-43.64,83.29-56.97,30.41-12.88,63.84-20,98.9-20,46.34,0,89.82,12.44,127.29,34.15,38.61,22.38,70.84,54.6,93.22,93.22,21.71,37.47,34.15,80.95,34.15,127.29,0,20.39-2.41,40.23-6.97,59.24-4.7,19.63-11.69,38.38-20.65,55.96-9.1,17.85-20.25,34.49-33.12,49.61l3.26,3.26c13.16-15.41,24.56-32.37,33.88-50.56,9.17-17.92,16.33-37.05,21.14-57.07,4.66-19.39,7.14-39.63,7.14-60.44,0-47.19-12.67-91.47-34.78-129.63Z"/>
    <g>
      <path class="cls-1" d="m185.82,511.74c.38.16.66.43.84.81.18.39.18.79,0,1.22-.11.25-.27.45-.49.59-.22.14-.47.26-.75.35-1.87.52-3.5,1.24-4.88,2.17-1.38.93-2.6,2.04-3.65,3.33-1.06,1.29-2,2.73-2.83,4.34-.83,1.6-1.63,3.31-2.39,5.12l-1.99,4.76c-1.3,3.12-2.82,5.97-4.55,8.54-1.73,2.58-3.69,4.64-5.9,6.2s-4.68,2.5-7.41,2.82c-2.74.32-5.78-.22-9.12-1.62-1.51-.63-2.91-1.43-4.21-2.4-1.29-.97-2.44-2.07-3.43-3.3-.99-1.23-1.82-2.57-2.48-4.03-.66-1.46-1.12-2.98-1.37-4.57,0-.12,0-.26,0-.42,0-.16.04-.3.09-.43.15-.35.41-.62.8-.8.38-.18.79-.18,1.22,0,.25.11.46.27.61.5.16.23.27.47.33.74.67,2.91,1.8,5.36,3.37,7.33,1.57,1.97,3.65,3.5,6.24,4.58,2.97,1.24,5.62,1.71,7.95,1.4,2.33-.31,4.43-1.19,6.3-2.65,1.86-1.45,3.52-3.37,4.98-5.75,1.45-2.38,2.78-5,3.98-7.87l2-4.79c.7-1.69,1.51-3.4,2.41-5.13.9-1.74,1.99-3.35,3.25-4.85,1.26-1.5,2.73-2.81,4.39-3.93,1.67-1.12,3.61-1.91,5.85-2.37.12,0,.27,0,.44,0,.17.01.31.04.41.08Zm18.67,18.36c-1.27,3.05-2.99,5.53-5.15,7.45-2.16,1.92-4.65,3.27-7.46,4.06-2.81.79-5.88,1.02-9.2.68-3.32-.34-6.75-1.25-10.3-2.73-.43-.18-.75-.45-.96-.82-.21-.37-.22-.79-.02-1.27.16-.38.43-.65.83-.81.39-.16.79-.16,1.19.01,3.17,1.33,6.22,2.17,9.14,2.54,2.92.36,5.61.23,8.07-.42,2.46-.64,4.63-1.78,6.53-3.41,1.89-1.63,3.4-3.78,4.52-6.45,1.14-2.72,1.55-5.38,1.24-8-.31-2.61-1.24-5.1-2.78-7.46-1.54-2.36-3.65-4.54-6.31-6.54-2.67-2-5.79-3.75-9.36-5.24-3.37-1.41-6.75-2.5-10.14-3.27-3.39-.77-6.68-1.22-9.87-1.38-3.19-.15-6.22,0-9.08.46-2.87.46-5.46,1.19-7.79,2.2-2.33,1.01-4.35,2.28-6.06,3.83-1.71,1.55-3,3.35-3.86,5.41-.76,1.81-1.11,3.53-1.05,5.15.06,1.62.42,3.11,1.08,4.47.66,1.36,1.58,2.54,2.74,3.57,1.17,1.02,2.5,1.84,3.98,2.46,1.76.74,3.41,1.2,4.94,1.4,1.53.2,2.86.26,3.99.21,1.13-.06,2.03-.18,2.7-.36.67-.18,1.04-.28,1.11-.31.39-.16.78-.16,1.16,0s.65.44.82.85c.17.41.17.8.02,1.18-.18.43-.47.71-.88.83-.07.03-.5.16-1.29.39-.79.23-1.87.4-3.22.49-1.36.1-2.94.04-4.74-.18-1.8-.22-3.73-.76-5.8-1.63-1.89-.79-3.56-1.86-5.02-3.21-1.46-1.35-2.59-2.89-3.39-4.63-.8-1.74-1.22-3.62-1.28-5.64-.06-2.02.36-4.1,1.26-6.24.98-2.34,2.41-4.4,4.29-6.17,1.88-1.77,4.09-3.24,6.63-4.41,2.54-1.17,5.36-2.03,8.46-2.58,3.1-.55,6.37-.77,9.81-.65,3.44.12,6.98.59,10.64,1.39,3.66.8,7.31,1.97,10.96,3.5,4,1.67,7.49,3.66,10.46,5.97,2.97,2.31,5.3,4.82,6.98,7.53,1.69,2.72,2.69,5.58,2.99,8.59s-.19,6.08-1.5,9.2Z"/>
      <path class="cls-1" d="m224.05,563.05c-.16.18-.49.57-1,1.16-.51.59-1.13,1.25-1.87,1.98-.74.74-1.58,1.49-2.52,2.26-.94.77-1.93,1.44-2.98,2.01-1.05.57-2.13.98-3.24,1.24-1.11.26-2.21.25-3.29-.04-1.53-.4-2.69-1.23-3.47-2.48-.79-1.25-1.22-2.68-1.31-4.28-1.29,1.27-2.67,2.18-4.15,2.74-1.47.56-2.83.68-4.07.35-.98-.26-1.81-.67-2.51-1.23-.7-.56-1.24-1.24-1.62-2.03-.38-.79-.62-1.66-.69-2.61-.08-.95.02-1.94.29-2.97.54-2.06,1.36-3.78,2.48-5.17,1.11-1.39,2.34-2.47,3.7-3.24,1.36-.77,2.76-1.25,4.2-1.44,1.44-.19,2.77-.12,3.99.2.82.21,1.54.52,2.17.93.63.4,1.15.8,1.57,1.19.42.39.73.73.94,1.03.2.29.32.46.34.49.2.42.25.81.16,1.18-.1.4-.34.71-.71.93-.37.23-.75.29-1.15.18-.42-.11-.74-.35-.95-.71-.04-.07-.13-.2-.28-.39-.15-.19-.36-.41-.63-.65-.28-.24-.62-.48-1.02-.71-.4-.23-.88-.42-1.44-.57-.82-.22-1.74-.26-2.76-.13-1.02.13-2.02.48-2.98,1.06-.97.58-1.87,1.39-2.69,2.43-.82,1.04-1.44,2.36-1.87,3.97-.13.5-.21,1.02-.24,1.57-.03.54.03,1.06.19,1.55.15.49.42.93.8,1.31.38.38.9.66,1.56.83.48.12,1.06.11,1.77-.04.7-.15,1.42-.49,2.17-1,.74-.51,1.47-1.21,2.2-2.09.72-.88,1.36-1.98,1.9-3.31.15-.36.4-.62.76-.8.36-.17.73-.21,1.13-.11.37.1.65.33.86.69.2.36.27.73.2,1.11-.11.51-.24,1.23-.4,2.16-.16.93-.22,1.88-.18,2.85.04.97.25,1.86.63,2.66.38.81,1.06,1.34,2.04,1.59.63.17,1.3.16,2.02-.02.71-.18,1.44-.48,2.18-.89.74-.41,1.48-.91,2.21-1.49.73-.58,1.42-1.19,2.06-1.81.64-.62,1.22-1.23,1.75-1.83.52-.6.97-1.11,1.34-1.55.21-.26.46-.43.75-.52.29-.09.58-.1.87-.03.45.12.77.38.96.78.19.4.24.79.14,1.16-.05.19-.14.36-.26.52Z"/>
      <path class="cls-1" d="m261.23,539.48c-.08.43-.29.74-.63.94-.34.2-.73.26-1.16.18l-20.4-3.79-.08.44c-.3,1.64-.75,3.36-1.33,5.16-.58,1.81-1.26,3.59-2.01,5.35-.76,1.76-1.56,3.46-2.4,5.11-.85,1.65-1.68,3.16-2.51,4.53-.82,1.37-1.6,2.55-2.34,3.54-.74.99-1.37,1.71-1.9,2.17.12,1.3.32,2.52.61,3.67.29,1.15.66,2.18,1.11,3.08.46.9.99,1.65,1.6,2.23.61.59,1.32.95,2.13,1.1.94.17,1.94-.05,3.02-.67,1.07-.62,2.1-1.4,3.1-2.34s1.89-1.91,2.7-2.91c.81-1,1.41-1.81,1.8-2.43.39-.59.92-.83,1.59-.7.46.09.79.31,1.02.69.22.37.3.75.23,1.12-.03.19-.11.37-.23.54-.12.17-.39.57-.82,1.18-.43.61-.98,1.32-1.64,2.11-.66.79-1.41,1.62-2.25,2.48-.84.86-1.74,1.61-2.71,2.26-.97.65-1.97,1.16-3.01,1.52-1.04.36-2.08.45-3.13.25-1.85-.34-3.4-1.26-4.65-2.74-1.25-1.48-2.19-3.4-2.82-5.77-.63-2.36-.94-5.08-.92-8.16.02-3.08.35-6.38,1.01-9.93.16-.88.37-1.92.62-3.11.25-1.19.54-2.44.86-3.75.33-1.31.7-2.66,1.12-4.04.42-1.38.89-2.71,1.41-4l-14.44-2.68c-.43-.08-.77-.27-1.02-.58-.25-.31-.33-.68-.25-1.11s.29-.74.63-.94c.34-.2.73-.26,1.16-.18l15.13,2.81c.45-.92.93-1.74,1.44-2.48s1.06-1.36,1.64-1.86c.58-.5,1.19-.87,1.83-1.1.64-.23,1.31-.28,2-.15.67.12,1.22.4,1.66.83.43.43.77.97,1.01,1.62.24.65.38,1.4.44,2.24.05.84.04,1.76-.03,2.74l20.56,3.82c.43.08.77.27,1.02.58.25.31.33.68.25,1.11Zm-34.95,19.44c1.13-1.62,2.22-3.4,3.26-5.33,1.04-1.93,1.99-3.9,2.84-5.9.86-2.01,1.6-3.99,2.23-5.95.63-1.96,1.1-3.79,1.41-5.48l-4.75-.88c-.68,1.59-1.37,3.6-2.05,6.01-.68,2.41-1.35,5.37-2,8.89-.36,1.96-.62,3.61-.75,4.96-.14,1.35-.2,2.58-.19,3.69Zm9.33-29.4c-.24-.05-.64.15-1.19.59s-1.18,1.3-1.89,2.58l3.86.72c.07-1.15.04-2.07-.09-2.76-.14-.69-.36-1.07-.69-1.13Z"/>
      <path class="cls-1" d="m270.77,569.5c-.2.28-.54.79-1.03,1.53-.49.74-1.12,1.56-1.9,2.47-.78.91-1.69,1.84-2.74,2.79-1.05.95-2.22,1.79-3.51,2.53-1.3.74-2.72,1.31-4.26,1.7-1.54.39-3.18.49-4.92.28-1.54-.18-2.88-.62-4.01-1.32-1.13-.7-2.05-1.6-2.77-2.72-.72-1.12-1.21-2.39-1.48-3.82-.27-1.43-.31-2.99-.11-4.67.19-1.62.6-3.12,1.23-4.49.63-1.37,1.41-2.53,2.33-3.49.92-.96,1.95-1.68,3.08-2.17,1.13-.48,2.29-.66,3.48-.52.89.11,1.69.36,2.38.76.69.4,1.26.89,1.7,1.46.44.57.77,1.19.98,1.85.21.66.28,1.3.21,1.92-.07.6-.21,1.14-.42,1.64-.21.5-.45.93-.73,1.29-.28.37-.58.65-.9.84-.33.2-.64.27-.93.24-.46-.05-.82-.25-1.06-.58s-.35-.71-.3-1.15c.03-.22.1-.4.21-.55.11-.15.24-.31.39-.47.14-.16.28-.37.4-.61.13-.25.21-.57.26-.98.07-.57-.14-1.11-.61-1.64-.47-.52-1.12-.83-1.93-.93-.76-.09-1.51.05-2.26.43s-1.42.92-2.03,1.63c-.61.71-1.13,1.57-1.56,2.58-.44,1.01-.72,2.09-.86,3.26-.13,1.11-.12,2.18.03,3.22.15,1.03.45,1.97.9,2.81.45.84,1.06,1.53,1.83,2.09.77.56,1.73.9,2.86,1.04,1.46.17,2.85.07,4.16-.31,1.31-.38,2.52-.92,3.65-1.61,1.13-.69,2.14-1.47,3.04-2.34.9-.87,1.68-1.7,2.33-2.48.66-.79,1.18-1.48,1.56-2.08.39-.6.62-.98.69-1.13.14-.26.35-.45.62-.57.28-.12.56-.16.86-.12.46.05.81.26,1.06.62.25.36.35.74.3,1.15-.02.16-.1.37-.24.63Z"/>
      <path class="cls-1" d="m273.18,577.33c.47-.91,1.01-1.9,1.62-2.95s1.26-2.14,1.95-3.25c.69-1.11,1.43-2.21,2.2-3.3.77-1.09,1.57-2.12,2.4-3.07.82-.93,1.64-1.59,2.46-1.98.82-.39,1.58-.58,2.29-.56.71.02,1.32.19,1.85.49.52.3.94.71,1.27,1.21.32.5.56,1.08.72,1.74.15.66.22,1.37.19,2.14-.02.63-.11,1.46-.27,2.51-.16,1.05-.26,2.14-.3,3.29-.02.65-.01,1.3.04,1.95.05.64.15,1.22.31,1.73.16.51.41.93.76,1.25.34.33.8.5,1.37.52.65.02,1.32-.14,1.98-.48.67-.35,1.32-.81,1.97-1.41.65-.59,1.27-1.25,1.87-1.98.6-.73,1.14-1.46,1.63-2.2.49-.73.92-1.44,1.3-2.12.38-.68.68-1.25.92-1.71.29-.62.78-.91,1.46-.89.46.02.83.19,1.09.53.26.34.39.7.37,1.08,0,.22-.06.42-.14.61-.12.21-.34.66-.68,1.33-.34.67-.79,1.45-1.35,2.33-.56.88-1.21,1.8-1.96,2.76-.74.96-1.56,1.84-2.44,2.64-.89.8-1.84,1.45-2.85,1.95s-2.07.73-3.16.69c-1.25-.04-2.25-.34-3-.9-.75-.56-1.32-1.25-1.71-2.08-.39-.83-.65-1.76-.77-2.77s-.16-2-.12-2.95c.02-.49.05-1.02.11-1.57.06-.56.13-1.11.2-1.65.07-.54.14-1.05.2-1.53.06-.47.09-.88.1-1.2.03-.85-.07-1.42-.29-1.73-.22-.31-.48-.47-.78-.48-.44-.02-.94.22-1.52.71-.58.48-1.18,1.13-1.83,1.92-.64.8-1.29,1.7-1.93,2.7-.65,1-1.28,2-1.88,2.99-.61.99-1.16,1.93-1.65,2.83-.5.9-.9,1.64-1.22,2.23-.61,1.13-1.22,1.88-1.82,2.25-.6.38-1.13.56-1.59.54-.85-.03-1.48-.38-1.91-1.07-.43-.68-.62-1.5-.59-2.46l.09-2.58c.18-5.15.35-10.07.52-14.74.17-4.67.39-9.02.65-13.04.26-4.02.59-7.65.99-10.9.4-3.25.92-6.01,1.57-8.3.65-2.28,1.44-4.04,2.37-5.26.93-1.22,2.06-1.81,3.4-1.77,1.14.04,2.1.39,2.87,1.04.77.65,1.38,1.53,1.83,2.62.45,1.09.77,2.36.93,3.8.17,1.44.23,2.95.17,4.53-.11,3.22-.51,6.36-1.2,9.44-.69,3.07-1.58,6.07-2.66,8.98-1.08,2.91-2.32,5.74-3.73,8.49-1.4,2.75-2.87,5.42-4.41,8.02-.02.49-.04,1.08-.06,1.76-.02.68-.05,1.36-.07,2.04-.02.68-.04,1.32-.07,1.92-.02.6-.04,1.08-.05,1.43l-.02,1.92Zm.51-15.09c1.23-2.47,2.36-4.88,3.38-7.23,1.02-2.35,1.91-4.71,2.66-7.05.75-2.35,1.36-4.74,1.82-7.16.46-2.43.74-4.96.83-7.61.02-.44.02-1.13.01-2.09,0-.96-.1-1.93-.27-2.92-.17-.99-.46-1.86-.85-2.61-.4-.75-.98-1.14-1.74-1.17-.6-.02-1.13.36-1.6,1.15-.46.79-.88,1.87-1.26,3.23-.37,1.37-.7,2.96-.98,4.78-.28,1.82-.52,3.75-.73,5.79-.21,2.04-.38,4.14-.52,6.29-.14,2.15-.26,4.24-.36,6.27-.1,2.03-.18,3.93-.24,5.7-.06,1.77-.11,3.31-.16,4.62Z"/>
      <path class="cls-1" d="m355.42,578.9c-.19.59-.58.95-1.16,1.07-.48.1-.89.02-1.22-.24-.33-.25-.54-.6-.62-1.02-.01-.05-.11-.61-.29-1.67-.18-1.06-.45-2.49-.81-4.28-.45-2.27-.93-4.7-1.42-7.27-.5-2.57-1.05-5.17-1.65-7.81-.61-2.63-1.3-5.23-2.09-7.8-.79-2.57-1.7-4.99-2.74-7.28-1.04-2.28-2.21-4.36-3.53-6.24-1.32-1.88-2.84-3.43-4.55-4.67-1.72-1.23-3.64-2.08-5.76-2.55-2.12-.47-4.51-.44-7.16.08-2.6.51-4.87,1.43-6.84,2.75-1.96,1.32-3.56,2.89-4.8,4.71-1.24,1.82-2.08,3.82-2.52,6.01-.44,2.19-.44,4.4,0,6.65.39,1.95,1.09,3.69,2.09,5.19,1.01,1.51,2.22,2.75,3.64,3.72,1.42.97,2.97,1.64,4.68,2.01,1.7.37,3.43.38,5.2.03,1.31-.26,2.48-.68,3.51-1.26,1.03-.58,1.88-1.16,2.57-1.74.69-.58,1.21-1.1,1.57-1.54.36-.45.55-.67.57-.68.24-.35.57-.57,1-.66.4-.08.78,0,1.13.22.35.22.56.53.64.94.08.4,0,.78-.23,1.13-.04.06-.29.39-.75.96-.46.58-1.11,1.23-1.97,1.95-.86.73-1.91,1.44-3.15,2.13-1.24.69-2.66,1.2-4.27,1.51-2.22.44-4.38.44-6.49,0-2.1-.44-4.02-1.26-5.76-2.44-1.74-1.18-3.23-2.7-4.47-4.56-1.24-1.85-2.1-3.96-2.57-6.31-.53-2.68-.52-5.31.04-7.89.56-2.58,1.57-4.95,3.04-7.09,1.47-2.14,3.34-3.97,5.61-5.49s4.86-2.57,7.78-3.15c3.77-.75,7.09-.7,9.95.13,2.86.84,5.37,2.22,7.52,4.14,2.15,1.92,3.98,4.27,5.49,7.05s2.8,5.72,3.86,8.85c1.06,3.13,1.96,6.31,2.68,9.54s1.37,6.28,1.94,9.15c.11.54.22,1.11.34,1.73.12.62.24,1.23.35,1.85.11.62.21,1.2.31,1.75s.18,1,.25,1.35l17.02-55.1c.14-.56.52-.9,1.13-1.02.45-.09.85,0,1.2.24.34.25.55.58.63.98.03.13.04.64.05,1.51,0,.87.03,2.03.08,3.47.05,1.44.12,3.1.22,4.98.1,1.89.24,3.91.43,6.07.19,2.16.43,4.4.73,6.72.29,2.32.67,4.62,1.12,6.89.76,3.83,1.63,7.18,2.62,10.06.99,2.88,2.14,5.24,3.45,7.1,1.31,1.85,2.82,3.15,4.51,3.9,1.69.75,3.62.91,5.79.48,1.95-.39,3.73-1.18,5.33-2.37,1.6-1.19,3.02-2.68,4.25-4.45s2.31-3.78,3.23-6.02c.92-2.24,1.68-4.61,2.28-7.11.6-2.5,1.07-5.06,1.4-7.68.33-2.62.52-5.21.59-7.75.07-2.54.01-4.99-.16-7.35-.18-2.36-.45-4.5-.84-6.43-.69-3.48-1.72-6.6-3.09-9.38-1.37-2.77-3.11-4.91-5.21-6.41-.32-.21-.52-.52-.6-.92-.08-.43,0-.82.25-1.18.25-.35.57-.57.98-.65.45-.09.85-.01,1.17.23,1.23.9,2.36,1.96,3.36,3.19,1.01,1.23,1.91,2.61,2.7,4.14.79,1.53,1.48,3.16,2.06,4.91.58,1.75,1.07,3.58,1.45,5.51.58,2.94.94,6.2,1.06,9.78.12,3.58-.02,7.22-.42,10.93-.41,3.71-1.08,7.35-2.02,10.93-.94,3.58-2.21,6.83-3.78,9.74-1.58,2.91-3.47,5.37-5.69,7.39-2.22,2.01-4.78,3.3-7.7,3.88-2.76.55-5.19.38-7.31-.49-2.12-.87-3.98-2.37-5.58-4.48-1.6-2.11-2.98-4.8-4.14-8.04-1.16-3.25-2.15-6.97-2.99-11.17-.35-1.74-.64-3.54-.89-5.41s-.46-3.7-.63-5.51c-.18-1.8-.33-3.54-.45-5.21-.12-1.67-.22-3.18-.29-4.53l-16.21,52.69Z"/>
      <path class="cls-1" d="m445.46,545.68c-.63.26-1.2.44-1.72.54-.06.91-.22,1.8-.48,2.66-.26.86-.64,1.68-1.13,2.44-.49.77-1.11,1.47-1.85,2.1-.74.63-1.61,1.16-2.62,1.58-1.18.49-2.35.74-3.51.73-1.16,0-2.25-.23-3.29-.67-1.04-.44-1.98-1.09-2.82-1.97-.84-.88-1.52-1.94-2.05-3.2-.67-1.61-.97-3.14-.89-4.57.08-1.44.33-2.71.76-3.82.42-1.11.93-2.02,1.53-2.72.59-.71,1.08-1.14,1.45-1.29.43-.18.8-.2,1.1-.06.31.14.54.39.7.77.18.43.18.8,0,1.13-.18.32-.42.67-.74,1.04-.32.37-.63.83-.93,1.39-.3.55-.53,1.19-.69,1.91-.16.72-.21,1.51-.14,2.37.06.86.29,1.76.68,2.69.35.83.8,1.55,1.35,2.17s1.17,1.08,1.87,1.39c.69.32,1.43.48,2.2.5.77.02,1.57-.14,2.37-.48,1.44-.6,2.49-1.43,3.15-2.49.67-1.06,1.03-2.21,1.11-3.45-1.81-.16-3.49-.76-5.05-1.79-1.56-1.04-2.71-2.45-3.45-4.23-.6-1.43-.74-2.75-.43-3.95.31-1.2,1.04-2.03,2.17-2.5.68-.28,1.39-.39,2.13-.31.74.07,1.49.37,2.25.88.76.51,1.51,1.26,2.25,2.25.74.99,1.43,2.26,2.07,3.79.34.81.59,1.69.75,2.66.16-.04.32-.09.47-.15.15-.06.31-.13.49-.21.86-.36,1.58-.78,2.18-1.26.6-.48,1.09-1.04,1.47-1.68.39-.63.67-1.36.85-2.17.18-.81.3-1.72.35-2.72.01-.18.12-.39.31-.64.19-.24.42-.42.67-.52.33-.14.69-.13,1.09.01.4.14.69.43.87.86.08.2.13.44.12.72,0,.28,0,.54-.03.79-.11.93-.31,1.87-.59,2.79-.28.93-.69,1.81-1.25,2.65s-1.24,1.61-2.07,2.31c-.83.7-1.84,1.29-3.04,1.75Zm-10.43-6.82c.2.48.47.96.82,1.43.35.48.76.92,1.24,1.32.48.41,1.01.76,1.6,1.06.58.3,1.21.51,1.88.61-.15-.56-.32-1.09-.53-1.6-.28-.68-.62-1.35-1.02-2.01-.39-.66-.81-1.25-1.25-1.76-.44-.51-.87-.89-1.3-1.14-.43-.25-.83-.3-1.21-.14-.15.06-.31.26-.46.59-.16.33-.08.88.24,1.63Z"/>
      <path class="cls-1" d="m452.99,528.61c.24.71.43,1.38.58,2.03s.26,1.22.35,1.71c.08.49.15.9.19,1.21.04.32.05.5.04.53.04.68-.24,1.18-.85,1.49-.34.17-.72.21-1.14.1-.42-.11-.73-.35-.93-.74-.07-.15-.11-.27-.1-.37.01-.1,0-.28,0-.55-.02-.27-.08-.69-.2-1.28-.12-.58-.34-1.47-.67-2.65-.41.21-.84.42-1.29.62-.45.2-.9.32-1.35.37-.45.05-.88-.02-1.28-.22-.4-.19-.75-.57-1.04-1.12-.21-.41-.38-1.03-.51-1.85-.13-.82-.17-1.67-.13-2.55.04-.88.18-1.69.41-2.44.23-.75.59-1.24,1.07-1.49.56-.29,1.12-.31,1.68-.08.56.23,1.09.6,1.59,1.09.5.5.96,1.05,1.38,1.66.42.61.76,1.16,1,1.65.41-.21.82-.43,1.21-.64.39-.22.77-.42,1.14-.61,1.38-.71,2.6-.95,3.63-.71,1.04.23,1.91,1.04,2.62,2.43.29.56.55,1.16.79,1.8s.47,1.31.71,2.01c.23.69.47,1.37.72,2.04.25.67.53,1.31.84,1.91.45.87.94,1.53,1.47,1.98.53.45,1.07.75,1.61.9.54.15,1.05.19,1.53.11.48-.08.89-.2,1.23-.38,1.04-.54,1.85-1.38,2.43-2.53.57-1.15,1-2.41,1.29-3.76s.46-2.73.54-4.11c.07-1.39.11-2.58.11-3.6,0-.28.09-.54.25-.77.16-.23.36-.41.6-.54.44-.22.85-.26,1.23-.1.39.15.67.4.84.74.12.24.19.49.19.73-.05,1.28-.12,2.74-.22,4.37-.1,1.63-.34,3.23-.73,4.81-.39,1.58-.98,3.05-1.77,4.4-.79,1.36-1.89,2.39-3.3,3.12-.87.45-1.78.71-2.73.78-.95.07-1.86-.06-2.75-.38-.89-.33-1.73-.86-2.54-1.59-.81-.74-1.5-1.67-2.09-2.82-.62-1.21-1.12-2.48-1.49-3.81-.37-1.33-.84-2.54-1.4-3.63-.24-.46-.52-.75-.84-.88-.32-.12-.84,0-1.54.35-.34.17-.71.36-1.11.57-.4.21-.83.44-1.27.7Zm-3.82-1.44c-.09-.17-.21-.39-.36-.66-.16-.27-.32-.53-.49-.78-.17-.25-.34-.45-.5-.62-.16-.16-.28-.23-.35-.19-.07.04-.12.18-.13.41-.02.24-.02.52-.01.83,0,.32.04.65.09.99.05.34.1.62.15.84l1.6-.82Z"/>
      <path class="cls-1" d="m488.25,522.64c.94.64,2.03.93,3.25.89,1.23-.04,2.41-.41,3.54-1.12.35-.22.88-.62,1.61-1.21.72-.59,1.42-1.51,2.08-2.74.66-1.23,1.18-2.84,1.55-4.84.37-1.99.37-4.49.02-7.48-.04-.33,0-.62.13-.88.13-.26.32-.46.58-.62.39-.24.8-.3,1.22-.18s.72.35.93.68c.09.14.16.35.21.64.24,2.2.28,4.27.11,6.22-.17,1.95-.54,3.76-1.11,5.41-.58,1.66-1.34,3.13-2.29,4.41-.95,1.28-2.09,2.34-3.41,3.16-1.04.65-2.12,1.09-3.24,1.34-1.12.24-2.17.3-3.17.17-1-.13-1.9-.42-2.71-.87-.81-.45-1.43-1.03-1.88-1.75-.06-.09-.13-.23-.2-.4-.08-.18-.13-.4-.14-.66-.02-.26.02-.54.11-.84.09-.3.27-.61.55-.94.78-.87,1.44-1.75,1.99-2.66.55-.9.95-1.79,1.21-2.66.26-.87.37-1.71.31-2.53-.06-.81-.31-1.58-.76-2.3-.39-.63-.91-1.01-1.58-1.14-.66-.13-1.29-.01-1.9.36-.63.39-1.11.98-1.44,1.79-.34.8-.57,1.73-.7,2.79s-.16,2.21-.1,3.44c.06,1.23.18,2.48.37,3.74.19,1.26.43,2.49.72,3.67.29,1.19.59,2.26.9,3.22.09.3.19.62.29.98.11.35.16.71.16,1.08,0,.37-.06.71-.18,1.03-.12.32-.37.59-.74.82-.35.22-.77.28-1.28.19-.5-.09-.97-.48-1.4-1.17-.09-.14-.41-.68-.98-1.61s-1.3-2.16-2.2-3.66c-.91-1.51-1.94-3.24-3.11-5.2-1.17-1.96-2.41-4.02-3.74-6.21-1.32-2.18-2.67-4.43-4.05-6.75-1.38-2.32-2.73-4.58-4.06-6.77-1.33-2.19-2.59-4.28-3.77-6.26-1.18-1.98-2.23-3.73-3.15-5.27-.92-1.53-1.67-2.78-2.26-3.75-.59-.97-.94-1.55-1.05-1.73-.23-.37-.28-.76-.15-1.18s.35-.72.68-.93c.37-.23.76-.3,1.17-.22.41.08.73.32.98.72.03.05.31.51.84,1.38.53.88,1.23,2.05,2.12,3.53.88,1.47,1.91,3.19,3.09,5.16,1.18,1.97,2.43,4.06,3.75,6.27,1.33,2.21,2.69,4.49,4.1,6.82,1.41,2.34,2.77,4.62,4.11,6.84,1.33,2.22,2.61,4.34,3.82,6.34,1.21,2.01,2.29,3.78,3.21,5.33-.36-1.41-.66-2.95-.9-4.62-.23-1.67-.3-3.3-.21-4.91.1-1.6.41-3.07.95-4.4.54-1.33,1.41-2.37,2.61-3.12.67-.42,1.37-.68,2.1-.8.73-.12,1.44-.09,2.14.07.7.16,1.34.46,1.95.89.6.43,1.11.98,1.53,1.65.65,1.04,1.01,2.14,1.09,3.3.08,1.16-.05,2.32-.4,3.47-.34,1.16-.84,2.3-1.51,3.42-.67,1.12-1.42,2.17-2.26,3.14Z"/>
    </g>
  </g>
  <g>
    <path class="cls-1" d="m273.02,334.59c-9.98,9.07-22.32,15.09-35.08,19.07-10.5,3.5-21.63,5.01-32.66,5.05-53.33.64-87.24-44.86-73.29-95.98,15.4-51.84,67.07-82.75,115.95-97.84,55.2-16.33,126.72-20.47,178.38,8.38,32.63,18.31,52.02,50.5,49.82,88.24-.65,26.88-13.23,53.23-34.52,69.87-10.44,8.35-22.4,14.51-34.98,18.82-3.55,1.2-8.75,2.79-12.36,3.92-13.93,4.48-29.89,8.33-44.7,4.36-3-.8-5.6-1.26-8.55-2.71-1.97-1-2.75-3.41-1.75-5.38,1-1.97,3.41-2.75,5.38-1.75.59.32,1.43.6,2.38.9,6.7,2.04,13.65,3.12,20.71,2.44,12.03-1.02,24.59-5.62,36.32-9.27,37.08-12.28,63.06-41.58,64.29-81.52,1.47-25.17-7.48-49.27-25.97-66.56-37.73-34.68-93.97-38.03-142.66-32.86-61.83,7.06-140.99,38.24-160.74,102.89-6.59,23.61-1.96,50.63,16.06,67.98,28.09,27.81,78.12,22.57,108.32.81,1.36-1.09,3.66-2.98,4.98-4.08,3.53-2.78,7.79,2.09,4.67,5.23h0Z"/>
    <path class="cls-1" d="m96.74,347.89c20.47-6.49,42.1-4.09,58.16,11.01,3.96,3.75,6.89,7.81,9.76,11.92,5.61,8.23,10.51,16.77,15.09,25.58,2.27,4.18,3.61,8.45,6.8,12.09,11.46,14.76,27.84,25.66,46.58,27.72,13.66,1.48,28.37.52,41-5.14,40.92-19.72,38.06-75.22,38.27-114.05-.28-30.31,1.35-60.63,18.95-86.56,5.85-8.77,13.59-16.12,22.21-21.8,2-.89,3.38-1.48,5.6-1.57,2.21,0,4,1.79,4,4,.03,2.34-2.03,4.05-4.13,4.03-.59.16-1.47.46-1.9.69,0,0,.47-.27.47-.27-7.72,5.24-14.56,11.68-19.64,19.32-22.47,32.66-16.75,74.06-18.04,111.56-1.24,34.66-7.62,75.15-42.64,91.44-17.56,7.87-41.9,8.43-60.03,2.21-15.17-5.18-28.03-15.97-37.54-28.55-2.82-3.51-4.26-7.88-6.39-11.8-4.39-8.5-9.2-16.93-14.57-24.82-2.68-3.89-5.54-7.77-8.68-10.73-13.73-13.26-33.53-15.31-51.27-9.54-4.33,1.26-6.61-5.16-2.05-6.73h0Z"/>
  </g>
</svg>