<?xml version="1.0" encoding="UTF-8"?>
<svg id="Layer_2" data-name="Layer 2" xmlns="http://www.w3.org/2000/svg" viewBox="0 0 1080 1080">
  <defs>
    <style>
      .cls-1 {
        fill: #f3dcad;
      }

      .cls-1, .cls-2, .cls-3, .cls-4, .cls-5, .cls-6, .cls-7, .cls-8, .cls-9, .cls-10, .cls-11, .cls-12, .cls-13, .cls-14, .cls-15, .cls-16, .cls-17, .cls-18 {
        stroke-width: 0px;
      }

      .cls-2 {
        fill: #f9d8d2;
      }

      .cls-3 {
        fill: #f9bbbb;
      }

      .cls-4 {
        fill: #cbccd2;
      }

      .cls-5 {
        fill: #e2bdb5;
      }

      .cls-6 {
        fill: #e2bdb4;
      }

      .cls-7 {
        fill: #666ab2;
      }

      .cls-8 {
        fill: #fff;
      }

      .cls-9 {
        fill: #eea9a7;
      }

      .cls-10 {
        fill: #fffefc;
      }

      .cls-11 {
        fill: #e5a63f;
      }

      .cls-12 {
        fill: #e5dadd;
      }

      .cls-13 {
        fill: #fcfbf2;
      }

      .cls-14 {
        fill: #ffa7c7;
      }

      .cls-15 {
        fill: #fbf6f5;
      }

      .cls-16 {
        fill: #fefefe;
      }

      .cls-17 {
        fill: #f797b2;
      }

      .cls-18 {
        fill: #f4dfba;
      }
    </style>
  </defs>
  <g>
    <path class="cls-7" d="m977.9,663.88c-.06-.14-.18-.28-.37-.4-.02-.03-.04-.06-.06-.08.11.18.3.32.43.49Z"/>
    <path class="cls-7" d="m1044.54,665.09c-10.79-9.2-23.62-13.2-37.83-12.11-10.07.77-19.92,3.03-29.8,5.01-.9-.02-1.8-.05-2.7-.07-8.42-13.95-18-27.03-29.47-38.63-2.3-2.33-3.7-4.53-3.57-7.97.49-14.08-1.11-28.06-2.62-42.02-1.02-9.48-3.52-18.53-8.78-26.63-5.78-8.91-12.8-16.51-23.86-18.15-16.05-2.37-29.38,3.07-39.46,15.82-5.78,7.31-9.44,15.78-12.04,24.71-3.19,10.95-6.44,21.89-8.38,33.15-.53,3.07-1.65,4.45-5.14,4.06-14.2-1.57-28.49-.8-42.73-1.38q-5.31-.22-6.68-5.01c-3.21-11.18-6.93-22.2-11.03-33.07-2.79-7.39-6.08-14.55-10.68-21.08-10.4-14.76-27.68-15.22-39.84-5.88-5.97,4.59-11.12,9.94-15.14,16.33-7.63,12.12-13.85,24.92-18.26,38.57-5.06,15.65-9.99,31.33-15.07,46.97-.57,1.76-.46,4.05-2.69,4.99-6.71-16.09-10.55-32.84-12.86-50.09-2.04-15.2-4.98-30.29-7.79-45.38-3.61-19.4-6.91-38.9-14.18-57.4-2.57-6.55-5.34-13-9.65-18.64-12.16-15.9-30.96-19.29-47.74-8.58-2.03,1.29-3.94,2.78-5.83,4.28-11.17,8.85-18.23,20.73-23.72,33.52-7.45,17.35-13.77,35.12-17.61,53.68-1.14,5.54-1.25,5.47-7.01,4.44-15.99-2.85-32.04-5.05-48.33-4.92-8.87.07-8.81.02-9.88-9.15-2.21-18.79-6.42-37.17-12.03-55.21-2.42-7.78-6.03-15.06-10.5-21.9-6.6-10.12-15.83-13.8-27.73-11.96-11.65,1.8-20.93,7.39-28.52,16.18-7,8.11-11.5,17.58-15.06,27.56-7.87,22.02-12.18,44.8-14.57,68.01-.85,8.27-1.35,16.58-3.24,24.78-6.25,27.17-14.87,53.68-22.16,80.56-.77,2.84-1.13,5.87-2.83,8.67-3.52-2.74-6.2-5.89-8.97-8.95-6.48-7.18-13.1-14.27-21.16-19.67-3.25-2.18-2.91-3.73-1.33-6.74,15.15-28.88,26.53-59.21,34.5-90.83,5.63-22.35,5.66-44.79.36-67.15-3.1-13.1-9.74-23.95-22.22-30.3-7.5-3.82-15.09-3.99-22.83-.57-9,3.97-16.58,9.78-22.97,17.22-11.29,13.16-19.48,28.16-25.31,44.37-12.88,35.8-22.54,72.44-27.38,110.26-.64,5.01-.71,5.03-5.28,5.3-16.24.96-32.19,4-48.07,7.2-5.42,1.09-5.41.16-6.19-4.22-4.98-27.88-11.1-55.5-20.04-82.4-5.13-15.43-11.01-30.58-20.22-44.15-7.3-10.77-16.63-19.2-28.75-24.29-10.73-4.51-20.14-2.35-28.32,5.72-6.4,6.32-10.38,14.13-13.19,22.52-7.31,21.83-7.89,44.02-1.89,66.15,8.42,31.07,22.85,59.28,42.05,85.05,6.04,8.12,12.59,15.8,21.78,20.41-.21,2.66-1.86,4.26-3,6.08-9.74,15.45-18.29,31.48-24.36,48.77-5.16,14.71-10.03,29.49-12.56,44.93-.47,2.88-1.48,4.39-4.71,5.23-10.51,2.74-19.93,7.95-28.57,14.47-7.44,5.62-12.1,13.12-14.42,22.19-3.08,12.03-.26,22.05,9.35,30.14,6.71,5.65,14.49,8.95,22.83,11.22,2.49.68,4.72,1.29,5.92,4.38,8.22,21.15,23.85,34.63,44.6,42.95,27.32,10.95,55.9,16.17,84.94,19.61,14.21,1.68,28.47,1.24,42.7,1.82,22.76.93,45.09-1.78,67.09-7.32,14.26-3.59,28.47-7.67,41.12-15.4,9.9-6.05,20.11-11.63,29.41-18.66,4-3.03,4.06-2.76,7.9.89,10.86,10.3,22.15,20.03,36.57,25.15,12.41,4.4,25,8.15,37.9,10.81,2.14.44,4.31,1.09,6.46,1.09,16.88-.01,33.78.87,50.62-1,15.03-1.67,30.04-3.55,45.06-5.32,12.72-1.49,25.05-4.26,36.3-10.76,2.45-1.42,5.14-2.44,7.75-3.59,12.06-5.32,23.99-10.81,34.17-19.47,6.87-5.85,13.2-12.23,19.19-18.95,2.78-3.12,5.64-6.13,9.09-8.54,2.62-1.83,5.22-2.05,7.97-.32,6.72,4.22,14.29,6.69,21.25,10.42,25.55,13.68,53.13,18.68,81.75,19.47,17.57.48,35.05-.43,52.52-2.3,39.96-4.28,77.61-16.2,113.12-34.66,19.38-10.08,36.72-23.12,50.52-40.46,8.09-10.17,13.78-21.29,15.94-34.19,1.25-7.43,1.25-14.89.84-22.33-.21-3.75.88-6.01,4.06-8.04,9.28-5.94,17.59-13.07,25-21.26,9.21-10.18,15.31-21.91,17.65-35.46,2.14-12.35.53-23.95-9.52-32.52Z"/>
    <path class="cls-18" d="m414.77,865.61c23.62-1.46,47.23-3.03,70.83-4.77,20.76-1.53,41.4-4.27,61.99-7.3,21.03-3.1,41.77-7.8,62.66-11.65,15.08-2.77,30.13-5.72,45.22-8.4,3.01-.53,4.53-1.75,5.32-4.75,4.27-16.21,4.89-32.46.69-48.74-2.06-7.97-3.02-16-1.63-24.12,1.85-10.8,3.97-21.56,6.08-32.31,2.24-11.44,3.56-23.02,3.6-34.63.06-15.9-3.2-31.43-7.71-46.59-6.06-20.38-12.13-40.71-14.76-61.89-1.94-15.67-5.8-31.02-7.53-46.73-1.77-16.03-6.13-31.39-12.84-46.06-1.84-4.02-4.09-7.75-7.44-10.74-7.39-6.61-14.92-7.46-23.49-2.49-6.75,3.91-12.21,9.23-16.64,15.64-7.56,10.94-12.34,23.2-16.89,35.57-4.85,13.19-9.16,26.53-11.28,40.49-.51,3.37-1.36,6.77-5.31,7.45-3.83.66-7.6,1.35-11.68.54-19.6-3.88-39.38-6.27-59.43-5.52-11.08.41-12.71-1.05-13.92-12.28-2.19-20.32-6.1-40.32-11.91-59.92-2.25-7.6-5.5-14.8-10.01-21.37-2.1-3.05-4.74-5.26-8.66-5.07-7.9.39-15.02,2.71-20.84,8.41-5.42,5.3-9.52,11.49-12.45,18.42-8.79,20.75-14.06,42.45-16.38,64.82-1.88,18.12-4.04,36.15-8.96,53.77-5.61,20.06-10.97,40.19-16.34,60.31-4.05,15.21-5.19,30.52-2.5,46.19,2.3,13.41,3.57,26.97,1.58,40.61-.44,3.04-.78,6.09-1.09,9.14-1.72,16.61,1.13,32.84,4.38,48.97,2.82,14.02,7.29,27.53,14.03,40.25,1.92,3.62,3.85,5.86,8.47,5.44,5.44-.5,10.96-.12,16.44-.12l18.42-.57Z"/>
    <path class="cls-13" d="m959.69,663.16c16.37,24.92,27.2,51.96,31.5,81.57.58,3.97-.87,5.91-4.14,7.77-20.68,11.8-42.63,20.59-65.21,27.89-35.51,11.48-71.77,19.97-108.54,26.27-27,4.63-53.98,9.35-81,13.88-17.72,2.97-35.59,5-53.23,8.48-.83.16-1.74.3-2.66-.61-.75-2.63-.08-5.42.59-8.14,3.53-14.4,3.24-28.8-.71-42.97-2.69-9.66-2.33-19.03.06-28.57,5.03-20.08,7.86-40.47,8.07-61.19.05-4.87,1.03-9.55,2.64-14.11,1.57-.68,3.05-.18,4.41.51,11.52,5.82,23.62,5.27,35.89,3.56,15.23-2.13,30.08-5.63,44.01-12.31,17.73-8.51,31.23-21.41,39.82-39.26,1.13-2.35,2.11-4.84,4.36-6.44.63-.34,1.3-.41,1.99-.23,2.4,1.71,2.67,4.64,3.98,6.98,10.93,24.78,29.28,41.82,55.19,49.06,27.19,7.6,53.83,5.41,78.25-10.48,1.44-.94,2.72-2.33,4.72-1.64Z"/>
    <path class="cls-4" d="m201.18,649.73c5.72-2.05,11.68-.97,17.53-1.38,2.4-.17,4.81.1,7.18-.64,4.01-1.25,8.43-6.21,7.98-10.19-1.12-10.05,1.38-19.67,3.38-29.22,6.4-30.51,14.44-60.58,26.13-89.56,4.7-11.65,10.7-22.61,18.59-32.45,4.85-6.06,10.42-11.25,17.51-14.66,7.11-3.42,11.56-2.9,17.44,2.28,4.98,4.38,7.67,10.15,9.3,16.37,1.78,6.79,2.47,13.75,3.15,20.77,2.46,25.68-4.96,49.49-13.06,73.2-7.03,20.59-15.62,40.53-25.76,59.79-.91,1.74-1.74,3.56-2.3,5.43-1.46,4.81-.38,7.45,4.19,9.58,5.44,2.54,10.1,6.09,14.41,10.2,7.63,7.29,15.01,14.88,20.95,23.58,6.91,10.12,10.29,21.6,11.67,33.86,1.61,14.27,1.88,28.36-.71,42.57-1.45,7.98-.41,16.21-.53,24.32-4.02-1.02-2.21-4.45-2.89-6.88-.56-1.98.14-3.7-1.75-5.94-1.53-.54-2.44-1.81-3.53-2.87-7.23-7.04-16.36-6.37-22.45,1.75-2.5,3.34-4.35,7.04-5.59,11.07-.59,1.93-.46,4.65-3.69,4.5-7.41-3-15.47-2.65-23.12-4.62-16.51-4.26-29.31-13.57-38.67-27.52-13.56-20.21-20.83-42.74-23.73-66.84-1.57-13.03-4.04-26-3.86-39.16.08-6.04-5.49-4.62-7.76-7.35Z"/>
    <path class="cls-4" d="m212.36,742.21c-2.64-28.59-4.63-57.26-10.09-85.52-.45-2.35-.41-4.85-2.18-6.77-12.81,1.54-25.69,2.66-38.08,6.62-8.45,2.7-11.9.61-13.25-7.93-5.06-31.9-12.78-63.14-23.56-93.58-4.69-13.24-9.95-26.28-18.25-37.8-5.49-7.61-12.33-13.61-21.04-17.38-4.62-2-8.5-1.04-11.95,2.46-3.6,3.65-6.27,7.9-8.14,12.63-8.67,21.88-8.58,44.08-2.05,66.41,5.51,18.85,13.79,36.54,23.73,53.38,9.14,15.49,18.73,30.7,34.4,40.9,6.12,3.98,7.44,11.47,3.37,16.74-5.95,7.7-10.4,16.26-14.95,24.74-7.58,14.13-13.37,29.02-16.94,44.71-.24,5.74,1.92,10.75,4.91,15.44,6.57,10.34,15.83,17.45,27.02,22.16,6.84-2.22,13.2-1.21,19.22,2.69,1.83,1.18,4.02,1.59,6.22,1.68,12.75,1.88,25.1-.04,36.37-5.97,11.87-6.25,20.39-15.89,23.37-29.45,1.89-8.6,2.69-17.38,1.88-26.17Z"/>
    <path class="cls-13" d="m992.5,766.74c.74,16.91-3.77,30.8-13.87,43.12-13.63,16.63-30.57,29.03-49.6,38.34-34.09,16.67-69.86,27.99-107.93,31.25-13.55,1.16-27.07,2.55-40.67,2-15.31-.62-30.66-1.32-45.69-4.7-14.22-3.2-27.58-8.85-40.19-15.92-6.34-3.55-12.41-8.35-13.95-16.72,7.29-2.36,14.71-3.15,22.04-4.22,49.4-7.28,98.67-15.48,147.59-25.45,40.82-8.31,80.95-19.38,119.11-36.57,5.99-2.7,11.82-5.75,17.73-8.62,1.52-.74,3.07-1.42,5.44-2.51Z"/>
    <path class="cls-10" d="m357.39,881.32c.21,4.79-2.45,7.28-5.72,9.87-21.9,17.33-47.56,24.91-74.53,28.91-32.12,4.77-64.23,3.42-96.34-.79-20.28-2.66-40.15-6.89-59.48-13.61-8.3-2.89-16.4-6.22-23.83-11-8.86-5.7-14.97-12.72-18.82-21.69,92.93,2.85,185.81,2.08,278.71,8.31Z"/>
    <path class="cls-18" d="m385,881.08c2.7-.16,3.75-.26,4.8-.27,31.8-.29,63.47-2.68,95.15-5.2,36.73-2.92,73.11-8.18,109.2-15.62,19.09-3.93,38.3-7.23,57.47-10.79.61-.11,1.28.06,2.2.12.21,2.45-1.22,4.16-2.43,5.83-14.61,20.14-32.62,36.03-56.36,44.6-3.11,1.12-6.07,2.37-8.87,4.18-7.13,4.61-15.17,6.93-23.45,8.1-19.08,2.69-38.12,5.78-57.32,7.54-12.9,1.18-25.86.83-38.79.52-2.59-.06-5.18-.79-7.75-1.33-12.67-2.66-25.05-6.28-37.28-10.54-14.58-5.07-25.37-15.04-36.55-27.14Z"/>
    <path class="cls-11" d="m936.6,632.71s0,0,0,0c-1-2.63-3.39-3.97-5.35-5.68-3.19-2.77-4.7-6.08-4.7-10.37,0-14.47-1.09-28.9-2.47-43.3-1.01-10.48-3.7-20.25-10.96-28.28-2.72-3.01-5.86-5.43-9.96-5.89-10.97-1.25-19.82,2.54-26.11,11.73-2.85,4.17-5.24,8.61-6.76,13.48-4.59,14.64-9.09,29.29-10.78,44.64-.79,7.16-4.63,10.18-11.63,9.15-12.38-1.82-24.84-2.12-37.31-2.32-7.67-.12-15.34-.07-23.01-.17-5.86-.07-9.03-2.8-9.49-8.62-.29-3.75-.79-7.42-1.95-10.96-2.94-8.95-5.74-17.97-9.04-26.78-2.53-6.75-5.11-13.58-9.63-19.37-5.02-6.42-11.07-7.42-17.92-3.08-6.27,3.97-10.69,9.62-14.6,15.8-11.66,18.42-17.9,38.89-23.28,59.78-3.1,12.06-5.98,24.2-11.16,35.67-2.14,4.73-3.43,9.94-3.41,15.31,7.41,4.72,15.46,6.85,24.29,6.92,15.09.12,29.59-3.01,43.96-7.1,17.94-5.1,33.29-14.25,45.74-28.38,6.67-7.57,10.94-16.36,15.09-25.32.58-.33.7-.89.72-1.5.1.58.12,1.18.57,1.64.81,2.22,1.05,4.68,2.74,6.53,1.73,6.43,5.06,12.08,8.95,17.36,14.68,19.93,34.14,32.32,58.67,36.13,9.92,1.54,20,1.92,30.01.49,15.35-2.2,29.86-6.55,41.86-17.03-6.49-11.06-13.92-21.42-23.09-30.45Zm-17.05-50.53c.08.38.17.75.26,1.13-.17-.38-.27-.76-.26-1.13Z"/>
    <path class="cls-8" d="m1005.65,740.17c-4.12-23.53-10.57-45.66-22.25-66.16,13.67-4.98,27.01-6.07,40.58-3.09,12.69,2.79,17.98,10.84,15.72,23.64-1.79,10.15-5.9,19.23-12.78,26.98-6.1,6.86-12.54,13.34-21.27,18.64Z"/>
    <path class="cls-16" d="m71.07,805.43c-7.89,11.73-11.15,25.05-13.12,38.78-.43,3.01-.41,6.08-.62,9.46-6.91-1.17-12.39-4.42-16.96-9.36-2.7-2.91-3.7-6.36-3.04-10.31,1.33-7.92,4.95-14.39,11.6-19.1,6.11-4.33,12.85-7.44,19.51-10.74,1.49-.86,2.74-1.23,2.62,1.26Z"/>
    <path class="cls-15" d="m275.03,860.57c.01-.33,0-.65-.06-.96-2.93-13.62-1.45-27.07,1.55-40.45.87-3.88,2.37-7.57,5.25-10.46,2.55-2.56,6.43-2.95,8.98-1.06,2.49,1.85,3.41,5.03,1.78,8.23-5.28,10.41-5.22,21.6-5.01,32.79.05,2.81.71,5.68,1.52,8.39.67,2.25,1.18,3.67,1.89,4.59.1.13.21.25.32.37h.22-.22c1.11,1.11,2.75,1.29,6,1.46,13.35.71,26.7,1.56,40.06,2.14,6.24.27,12.5.05,18.62.05.52-1.91-.22-3.14-.82-4.21-6.62-11.86-9.55-24.95-12.5-37.99-1.74-7.67-2.79-15.5-4.16-23.26-.08-2.2-.16-4.4-.24-6.6l-.76-.58c-.57-1.14-1.14-1.96-1.9-2.83-.91-1.03-2.69-.29-2.46,1.06.13.75.82.87,2.47,3.45-3.94,3.01-3.88,8.39-7.08,11.97-4.51,5.04-9.85,7.27-16.35,6.01-6.03-1.17-9.08-5.53-10.6-11.23-.61-2.28-.67-4.81-2.48-6.65-.3-1.8-1.43-2.35-3.18-2.62-7.3-1.13-14.68-1.7-21.85-3.77-9.62-2.78-18.25-7.1-25.5-14.12-16.13-15.63-24.4-35.45-29.94-56.62-2.21-8.42-3.18-17.12-4.45-25.75-1.62-11.01-3.04-22.01-3.45-33.12-.31-8.51-.14-8.51-8.86-8.93-.22-.01-.43-.08-.65-.12-.38-.03-.74.03-1.09.19-.62,5.76,1.05,11.28,1.94,16.86,1.92,12.05,3.77,24.09,4.76,36.28.48,5.87.99,11.74,1.5,17.6,1.2,13.89,3.01,27.62,1.34,41.72-1.6,13.53-8.11,23.52-18.63,30.98-11.29,8.01-24.4,10.01-38.02,8.8-1.11-.1-2.07-.37-2.88.53l-.12.61c.25.78.58,1.52,1.05,2.19,4.39,5.16,5.56,11.2,5.31,17.82-.37,10.09-7.25,19.16-16.92,21.81-8.43,2.31-19.47-2.9-24.52-11.57-4.66-8-3.16-19.08,3.36-26.23,2.47-2.7,5.93-4.65,6.84-8.6-.97-2.29-3.27-2.8-5.18-3.74-8.89-4.39-15.48-11.23-20.91-19.35-2.82-4.21-3.35-9.37-5.64-13.79,0,0,0,.03,0,.03-.6.82-.9,2.14-1.07,2.75-3.27,12.05-7.03,24-5.98,36.8.28,3.48-.84,6.86-2.81,9.96-5.11,8.05-8.37,16.9-10.38,26.17-1.06,4.91-1.85,9.91-1.36,15.01.29,3.01,1.37,4.7,4.76,4.87,9.19.46,18.36,1.39,27.55,1.79,26.52,1.16,53.07.17,79.6,1.15,28.05,1.04,56.14,1.3,84.21,1.84,2.35.05,7.13-1.31,7.14-1.64"/>
    <path class="cls-7" d="m548.18,787.66c1.49-1.87,1.62-3.86,2.01-5.78.26-1.28.51-2.6,1.05-3.77,1.5-3.26,4.33-4.84,7.35-4.29,3.26.59,5.57,3.3,5.25,7.26-.42,5.23-1.55,10.4-2.19,15.62-.77,6.28-2.12,12.5-1.12,18.95.59,3.84-1.52,6.93-4.51,7.88-2.99.96-5.97-.66-8.02-4.2-2.05-3.53-1.62-7.5-1.88-13.06-3.83,6.41-7.71,10.69-12.53,14.13-14.33,10.21-27.67,7.43-36.63-7.7-2.25-3.79-3.56-7.98-5.39-12.29-4.55.98-8.23,4.16-12.83,4.76-1.57.2-1.6,1.83-1.87,3.12-.53,2.57-.95,5.18-1.75,7.67-.59,1.85-1.53,3.66-2.61,5.28-2.13,3.22-4.99,4.36-7.78,3.39-3.22-1.11-4.81-3.85-3.98-8.01,1.08-5.36,2.65-10.6,3.11-16.11.53-6.37.76-12.69-.03-19.04-.22-1.75-.52-3.5-.02-5.23.86-2.95,2.49-5.11,5.86-5.35,3.37-.25,5.89,1.29,6.86,4.84.74,2.73.92,5.61,1.31,8.43.27,1.9-.41,3.91.9,6.31,8.42-4.06,17.18-7.38,24.54-13.44,1.69-1.39,2.46-2.99,2.38-5.11-.05-1.32-.14-2.65.02-3.95.86-6.97-.94-11.38-8.37-14.52-10.16-4.29-10.15-16.68-.83-22.72,7.67-4.97,15.82-7.45,24.93-4.41,5.53,1.85,10.01,4.91,10.67,11.17.65,6.13-1.38,11.41-7.15,14.35-3.69,1.88-4.75,4.51-4.6,8.47.2,5.23,1.43,10.48.14,15.73-.46,1.88.68,2.73,2.31,3.33,8.39,3.09,16.65,6.56,25.39,8.27Z"/>
    <path class="cls-9" d="m633.25,723.8c.52,3.98-1.06,7.69-1.87,11.52-3.07,14.59-17.5,19.41-28.21,16.23-7.13-2.11-13.62-4.75-17.49-11.57-2.24-3.95-3.3-8.24-2.08-12.64,2.67-9.66,7.57-17.63,17.32-21.8,5.12-2.19,10.1-2.45,15.22-.25,2.61,1.12,5.35,1.96,7.86,3.26,6.09,3.16,9.98,7.79,9.25,15.24Z"/>
    <path class="cls-9" d="m410.77,706.46c3.79-.46,7.58,1.27,10.69,4.84.99,1.14,2.24,2.09,3.47,2.99,12.01,8.8,10.52,27.69-2.4,35.31-11.97,7.06-26.06,3.99-32.89-4.16-4.18-4.98-6.28-10.32-4.45-16.96.88-3.19,1.79-6.3,3.38-9.19,4.62-8.35,11.52-12.92,22.2-12.83Z"/>
    <path class="cls-3" d="m614.87,525.26c-.45,6.53-2.97,12.39-6.99,17.36-3.92,4.86-11.67,5.98-16.74,3.2-5.52-3.03-8.27-9.69-6.77-16.2,1.31-5.67,3.78-10.67,7.99-14.78,8.15-7.94,18.48-5.15,21.8,5.87.45,1.5.7,2.97.71,4.54Z"/>
    <path class="cls-3" d="m406.77,525.8c-.94-7.85,7.25-15.67,12.77-18.21,4.25-1.96,8.86-.87,11.73,2.82,2.93,3.77,5.54,7.86,6.75,12.58,1.5,5.87-1.4,13.37-6.35,16.81-2.43,1.69-5.08,2.51-8.05,1.77-1.26-.31-2.51-.76-3.79-.94-8.82-1.23-13.12-6.09-13.05-14.85Z"/>
    <path class="cls-7" d="m579.4,676.16c.32,3.27-.61,6.59-2.89,9.47-2.9,3.68-7.13,4.66-11.14,2.67-5.58-2.77-8.95-11.16-6.83-16.97,2-5.46,7.19-8.89,12.1-8,6.38,1.16,9.01,4.87,8.76,12.82Z"/>
    <path class="cls-7" d="m431.85,676.04c-.03-7.01,4.41-9.95,11.61-10.44,5.44-.37,10.25,5.22,10.37,11.34.13,6.66-5.97,13.75-11.69,13.58-5.9-.17-10.37-6.47-10.28-14.48Z"/>
    <path class="cls-7" d="m799.11,725.07c8.06,1.95,16.08-1.25,24.3-1.61,4.63-.2,9.14-.48,13.4,2.09,2.98,1.8,6.46.77,9.69.73,11.76-.12,20.08,5.37,25.57,15.44,6.01,11.01,3.66,21.99-5.94,30.06-5.57,4.69-12.62,5.94-19.04,8.6-2.58,1.07-4.99-.57-7.14-2.35-4.05-3.35-8.28-6.49-12.44-9.72-1.04-.81-2.26-1.96-3.47-.86-2.88,2.63-6.56,4.4-8.48,8.07-3.08,5.9-7.49,8.45-13.79,7.21-11.57-2.28-21.5-7.69-28.61-17.3-8.75-11.83-5.92-26.33,6.45-34.26,5.83-3.74,12.23-5.85,19.5-6.11Z"/>
    <path class="cls-9" d="m950.66,740.12c.05,17.64-13.63,31.66-30.39,31.14-13.12-.41-20.18-10.35-19.58-21.71.91-17.22,11.56-27.96,27.19-30.77,11.19-2.01,23.88,8.84,22.78,21.34Z"/>
    <path class="cls-9" d="m689.72,751.95c-.09-11.17,5.85-18.49,15.32-23.24,3.88-1.95,7.97-2.04,11.6,1.26,2.74,2.49,6.45,3.61,9.06,6.43,5.12,5.53,7.57,11.66,5.52,19.21-.68,2.52-.95,5.17-1.7,7.67-2.32,7.74-8.1,11.99-16.11,11.8-4.38-.1-8.71-.87-12.77-2.57-9.18-3.84-10.9-11.75-10.93-20.55Z"/>
    <path class="cls-7" d="m758.1,743.75c.45,7.19-.07,12.86-1.08,18.48-.58,3.26-1.57,6.4-3.56,9.1-2.26,3.06-5.11,3.96-7.96,2.71-2.95-1.3-4.72-4.11-3.73-7.53,2.74-9.43,2.79-19.02,2.54-28.68-.02-.66-.04-1.32.04-1.97.57-4.76,3.64-7.97,7.39-7.75,3.6.21,6.03,3.11,6.31,7.91.18,3.06.03,6.13.03,7.73Z"/>
    <path class="cls-7" d="m764.98,692.28c.07-5.51,4.49-9.57,10.34-9.49,4.84.07,8.29,3.51,8.24,8.23-.06,5.47-5.09,11.48-9.63,11.51-4.71.03-9.03-4.91-8.96-10.25Z"/>
    <path class="cls-7" d="m868.82,704.09c-4.83.08-8.99-3.76-9.08-8.4-.08-4.66,4.18-8.75,9.4-9.02,4.95-.25,9.06,3.51,9.03,8.25-.04,4.63-4.58,9.09-9.35,9.17Z"/>
    <path class="cls-1" d="m816.16,619.54c.18-.55.39-1.57.54-1.56,1.17.06.75,1.01.76,1.7-.43-.04-.87-.08-1.3-.14Z"/>
    <path class="cls-9" d="m334.19,780.3c2.75,4.63,1.21,9.7,1.52,14.59-1.43,4.83-2.99,9.59-6.34,13.52-4.52,5.31-10.39,7.11-17.08,6.26-5.77-.74-9.47-4.46-11.43-9.65-1.22-3.21-2.32-6.63-1.8-10.23,1.58-5.13,3.03-10.28,6.11-14.84,7.56-11.21,19.56-11.74,27.78-1.11.39.51.83.98,1.25,1.47Z"/>
    <path class="cls-2" d="m273.81,591.29c-.48-2.4.67-4.89,1.4-7.36,5.4-18.42,9.84-37.12,15.92-55.34.55-1.66,1.01-3.39,1.85-4.89,1.58-2.8,5.17-3.76,8.01-2.38,2.96,1.43,4.61,4.47,3.73,7.4-6.13,20.47-11.47,41.16-16.65,61.89-.37,1.46-1.15,2.84-1.87,4.19-1.94,3.63-4.99,5.42-7.74,4.63-3.02-.86-4.57-3.47-4.65-8.14Z"/>
    <path class="cls-7" d="m282.34,773.19c-.03,4.03-3.39,7.29-7.59,7.36-4.25.07-7.63-3.49-7.6-8.01.03-4.44,3.61-8.08,7.76-7.86,3.93.2,7.47,4.25,7.43,8.51Z"/>
    <path class="cls-9" d="m151.28,804.01c8.22,8.08,9.72,22.36,3.11,31.77-1.72,2.45-3.51,4.9-6,6.84-11.33,8.84-24.21,4.51-32.13-4.3-8-8.89-7.95-22.64.28-31.58,2.65-2.89,5.13-5.98,8.58-8.02,6.12-3.93,12.15-2.84,17.86.71,2.27,1.41,4.75,2.13,7.06,3.33,0,0,.06.07.06.07.39.4.78.79,1.18,1.18Z"/>
    <path class="cls-2" d="m122.35,599.12c.56,3.63-1.07,5.66-4.15,6.72-2.84.98-7.45-.66-8.97-3.61-2.2-4.27-4.21-8.66-5.97-13.14-4.96-12.59-10.55-24.96-14.35-37.98-1.65-5.65-.51-8.9,2.9-10.24,3.44-1.35,7.13.25,9.48,5.04,6.06,12.35,11.9,24.82,16.06,38,.92,2.91,2.14,5.73,3.37,8.53.98,2.22,2.15,4.35,1.62,6.68Z"/>
    <path class="cls-7" d="m167.18,783.44c.18-4.42,3.77-8.22,7.72-8.17,3.72.05,7.84,4.01,7.75,7.44-.1,3.83-4.85,8.2-8.85,8.14-3.68-.06-6.78-3.52-6.62-7.41Z"/>
    <path class="cls-7" d="m228.49,797.07c1.69-1.05,1.69-3.02,2.54-4.51,1.88-3.28,4.59-4.55,7.58-3.63,3.27,1,5.25,3.95,5.03,7.58-.18,2.96-1.56,5.53-3.24,7.79-2.11,2.85-2.48,5.82-2.29,9.25.38,6.56.56,13.15.37,19.71-.17,6.01-2.55,9-6.43,9.2-4.11.21-6.68-2.98-7.07-9.26-.3-5.03-.32-10.08-.36-15.11-.03-3.46-1.01-6.29-3.83-8.63-2.16-1.79-4.01-4.07-5.61-6.4-2.24-3.26-1.8-6.63.75-8.89,2.41-2.14,5.31-2.19,8.48-.21,1.46.91,2.28,2.67,4.06,3.12Z"/>
    <path class="cls-4" d="m151.28,804.01c-.39-.39-.79-.79-1.18-1.18.39.39.79.79,1.18,1.18Z"/>
    <path class="cls-5" d="m740.88,601.07c-2.18,0-4.41.26-6.54-.05-7.18-1.04-10.52-7.08-7.18-13.4,3.28-6.2,8.12-11.36,12.54-16.75,2.04-2.49,6.51-1.86,9.51.57,4.9,3.98,5.02,9.95,6.39,15.37.42,1.66.28,3.49.19,5.23-.31,5.74-3.26,8.76-9,9.2-1.96.15-3.93.02-5.9.02,0-.07,0-.13,0-.2Z"/>
    <path class="cls-6" d="m896.43,595.97c-2.59.21-6.46-.37-10.11-1.94-4.66-2-6.14-6.07-3.95-10.71,1.88-3.99,4.86-7.24,7.74-10.48,4.42-4.96,11.19-4.54,14.99.98,2.61,3.79,4.3,8.11,4.68,12.76.52,6.44-2.11,9.2-8.68,9.38-1.09.03-2.18,0-4.66,0Z"/>
    <path class="cls-17" d="m533.95,798.02c-4.48-1.4-8.29-3.96-13.1-4.29.29,5.31,4.58,9.19,2.99,14.3,0,0,0,0,0,0-1.97,1.45-3.86,3.12-6.58,2.78,0,0,0,0,0,0h0c-8.4-2.83-7.74-11.34-10.93-17.44-2.79,5.44.38,12.51,8.39,18.71,4.54,3.03,7.36-.55,10.54-2.75h0s0,0,0,0c4.14-2.71,6.8-6.51,8.69-11.3Z"/>
    <path class="cls-12" d="m816.68,755.16c-4.3,5.11-9.26,7.96-13.8,11.31-1.33.98-2.84,1.12-4.37.51-5.57-2.2-10.72-5.09-14.23-10.12-3.82-5.47-2.85-10.36,2.63-14.09,3.88-2.65,8.18-4.21,12.92-4.09,3.41.09,6.07.76,6.63,5.25.68,5.42,5.25,8.27,10.22,11.23Z"/>
    <path class="cls-12" d="m831.67,754.34c4.34-3.4,6.58-7.52,7.73-12.28.32-1.35,1.2-2.06,2.73-2.34,7.71-1.41,14.87,2.03,17.98,8.8,2.09,4.55,1.31,8.48-2.35,11.82-5.44,4.97-11.4,5.2-17.36.66-2.73-2.08-5.47-4.17-8.72-6.66Z"/>
  </g>
  <g>
    <g>
      <path class="cls-7" d="m266.37,229.55c9.32-1.82,19.04-1.79,29.18.06,10.13,1.86,20.1,6.09,29.91,12.7,11.78,8.34,20.57,19.03,26.37,32.07,5.8,13.04,8.38,26.53,7.74,40.44-.64,13.92-4.68,26.46-12.13,37.64-7.45,11.17-18.51,19.15-33.19,23.93-10.18,2.85-19.1,3.89-26.76,3.13-7.67-.75-13.83-2.31-18.51-4.65,2.08,12.15,3.67,22.49,4.76,31.04,1.09,8.55,1.39,14.02.9,16.42-1.35,4.38-4.51,7.73-9.47,10.03-4.96,2.31-10.29,2.99-15.98,2.04-5.7-.95-10.37-4.18-14.03-9.69-3.2-6.08-7.74-20.81-13.64-44.18-5.9-23.37-10.85-47.45-14.87-72.24-4.02-24.79-4.9-42.43-2.63-52.93,3.09-9.22,7.57-14.36,13.45-15.41,5.88-1.05,11.49.11,16.84,3.47,8.94-6.72,19.63-11.34,32.07-13.87Z"/>
      <path class="cls-7" d="m418.37,268.32c4.46.24,8.4,1.25,11.81,3.02,4.03-1.71,9.71-2.67,17.04-2.89,7.33-.21,15.05.08,23.17.87,5.92.86,10.2,3.47,12.82,7.83,2.62,4.37,3.1,8.82,1.42,13.37-1.68,4.55-5.97,7.53-12.87,8.93-5.31.86-11.39,1.14-18.23.87s-12.79-.75-17.86-1.42c.06,5.44.09,11.27.09,17.49,4.95-.06,9.6.03,13.97.28,4.36.24,7.34.52,8.93.82,5.55,1.22,9.36,3.54,11.4,6.96,2.04,3.42,2.58,7.07,1.6,10.94s-3.17,7.14-6.59,9.8c-3.42,2.66-7.79,3.83-13.1,3.53-1.1-.12-3.66-.3-7.69-.55-2.75-.12-5.71-.27-8.88-.46-.12,6.35-.24,12.33-.37,17.95,6.53-.37,12.87-.58,19-.64,6.14-.06,10.12,0,11.95.18,7.33.86,12.47,2.69,15.43,5.5,2.96,2.81,4.24,5.95,3.84,9.43-.4,3.48-1.97,6.63-4.71,9.43-2.75,2.81-6.2,4.67-10.35,5.59-13.56,2.32-26.81,2.66-39.75,1.01-2.5.98-5.48,1.18-8.93.6s-6.69-2.12-9.71-4.63c-3.02-2.5-5.08-6.17-6.18-10.99-.92-4.82-1.48-12.46-1.7-22.9-.21-10.44-.21-21.55,0-33.34.21-11.78.5-22.1.87-30.96.37-8.85.7-14.1,1.01-15.75.85-3.72,2.44-6.32,4.76-7.78,2.32-1.47,4.91-2.17,7.79-2.11Z"/>
      <path class="cls-7" d="m535.87,153.73c24.29,1.17,46.32,2.55,66.09,4.13,19.76,1.59,32.76,3.04,39.01,4.36,6.01,1.69,10.71,6.65,14.12,14.9,3.41,8.24,3.94,16.86,1.61,25.84-2.34,8.98-8.98,15.44-19.93,19.37-6.87,2.6-24.45,3.15-52.75,1.66,3.76,3.24,6.09,6.78,6.99,10.64.66,4.36.85,14.48.58,30.37-.27,15.89-.74,33.55-1.4,52.98-.67,19.43-1.31,36.77-1.93,52-.63,15.24-1.07,24.38-1.32,27.42-.75,8.87-3.85,15.56-9.28,20.07-5.43,4.51-11.63,6.69-18.58,6.55-6.95-.14-13.06-2.63-18.31-7.46-5.26-4.83-8.09-12.03-8.5-21.59-.06-3.31.23-16.24.89-38.79.65-22.55,1.42-46.97,2.3-73.26s1.79-46.92,2.73-61.89c-30.65-2.36-48.66-4.25-54.03-5.65-7.83-2.15-12.59-7.82-14.27-17-1.68-9.17-.8-18.39,2.63-27.64,3.43-9.25,9.01-14.96,16.72-17.14,4.19-1.19,19.73-1.15,46.63.15Z"/>
      <path class="cls-7" d="m712.04,288.03c3.11.37,5.8,1.6,8.08,3.69s3.5,4.92,3.67,8.51c0,4.36-.96,13.86-2.85,28.5-1.9,14.64-4.15,29.23-6.73,43.76s-4.96,23.78-7.11,27.75c-2.17,3-5.09,4.68-8.77,5.03-3.68.36-7.08-.35-10.2-2.11-3.12-1.76-4.91-4.23-5.37-7.42-.48-6.69.19-16.98,1.99-30.84,1.8-13.86,3.93-27.41,6.37-40.64,2.44-13.23,4.44-22.29,6-27.2,1.22-3.49,3.24-5.96,6.04-7.41,2.8-1.46,5.76-2,8.87-1.62Z"/>
      <path class="cls-7" d="m780.53,292.17c4.63-.79,8.9-.67,12.83.35,3.73-2.69,9.34-5,16.8-6.93,7.47-1.93,15.46-3.43,23.97-4.51,6.27-.5,11.27,1.18,14.98,5.04,3.71,3.87,5.24,8.33,4.58,13.39-.66,5.06-4.37,9.11-11.12,12.16-5.25,2.12-11.42,3.83-18.49,5.14-7.08,1.31-13.3,2.22-18.65,2.71,1.33,5.56,2.72,11.54,4.17,17.92,5.06-1.22,9.86-2.21,14.39-2.98,4.53-.77,7.65-1.18,9.35-1.24,5.99-.04,10.43,1.45,13.32,4.48s4.29,6.65,4.2,10.85c-.1,4.21-1.59,8.07-4.48,11.59-2.89,3.52-7.09,5.75-12.61,6.67-1.16.13-3.83.54-8.02,1.23-2.85.52-5.92,1.05-9.22,1.6,1.36,6.54,2.63,12.71,3.81,18.5,6.62-1.9,13.07-3.6,19.35-5.09,6.28-1.49,10.38-2.36,12.3-2.6,7.72-.83,13.42-.15,17.11,2.04,3.69,2.19,5.74,5.12,6.15,8.78.4,3.66-.48,7.26-2.64,10.78-2.16,3.52-5.27,6.24-9.31,8.15-13.36,5.54-26.88,8.98-40.54,10.3-2.34,1.59-5.35,2.49-9.02,2.69-3.67.21-7.35-.62-11.04-2.48-3.68-1.86-6.65-5.14-8.91-9.83-2.06-4.73-4.43-12.43-7.08-23.09-2.66-10.66-5.25-22.06-7.78-34.2-2.53-12.14-4.64-22.79-6.33-31.96-1.69-9.17-2.57-14.63-2.64-16.4,0-4.02,1.03-7.05,3.07-9.1,2.04-2.05,4.54-3.37,7.5-3.98Z"/>
      <ellipse class="cls-7" cx="359.95" cy="291.28" rx="12.64" ry="10.55" transform="translate(-28.23 38.85) rotate(-5.95)"/>
      <ellipse class="cls-8" cx="305.78" cy="283.22" rx="10.61" ry="13" transform="translate(-55.3 75.05) rotate(-12.84)"/>
    </g>
    <g>
      <path class="cls-14" d="m743.58,242.44c-2.02-9.47-10.04-17.24-20.62-18.8s-20.5,3.57-25.16,12.06c-6.68,1.66-11.87,6.6-12.83,13.09-1.32,8.95,5.9,17.42,16.13,18.93,1.74.26,3.46.28,5.11.12,3.09.86,6.42,1.58,9.93,2.09s6.91.79,10.11.86c1.54.63,3.19,1.1,4.93,1.36,10.23,1.51,19.58-4.53,20.9-13.47.96-6.49-2.59-12.72-8.51-16.23Z"/>
      <ellipse class="cls-14" cx="688.76" cy="225.21" rx="8.45" ry="10.29" transform="translate(-13.66 403.31) rotate(-32.33)"/>
      <ellipse class="cls-14" cx="739.01" cy="212.77" rx="12.93" ry="9.09" transform="translate(216.71 777.21) rotate(-63.28)"/>
      <ellipse class="cls-14" cx="710.58" cy="208.58" rx="9.09" ry="12.93" transform="translate(-25.38 126.13) rotate(-9.97)"/>
      <ellipse class="cls-14" cx="758.22" cy="235.43" rx="10.29" ry="8.45" transform="translate(-8.35 442.04) rotate(-32.33)"/>
    </g>
  </g>
  <path class="cls-14" d="m37.52,368.57c10.44,20.12,23.07,39.04,37.51,56.52,4.01,4.85,8.17,9.58,12.46,14.19,2.14,2.3,6.35,2.33,8.49,0,2.26-2.46,2.29-6.03,0-8.49-3.79-4.06-7.47-8.22-11.04-12.48-1.76-2.1-3.49-4.22-5.2-6.37-.41-.52-.83-1.05-1.24-1.57-.23-.29-1.56-1.88-.56-.71-.91-1.06-1.72-2.24-2.56-3.36-6.62-8.83-12.77-18.01-18.43-27.48-3.19-5.34-6.21-10.78-9.07-16.3-1.45-2.79-5.58-3.85-8.21-2.15-2.84,1.83-3.7,5.22-2.15,8.21h0Z"/>
  <path class="cls-14" d="m84.94,372.81c6.91,12.55,15.14,24.34,24.44,35.24,2.04,2.4,6.41,2.26,8.49,0,2.34-2.55,2.18-5.93,0-8.49-1.13-1.33-2.25-2.67-3.35-4.02-.53-.65-1.05-1.3-1.56-1.95-.28-.36-.56-.72-.84-1.07-.7-.89.41.54-.04-.05-2.06-2.72-4.08-5.47-6.02-8.28-3.88-5.62-7.46-11.45-10.75-17.43-1.51-2.75-5.53-3.88-8.21-2.15s-3.77,5.26-2.15,8.21h0Z"/>
  <path class="cls-14" d="m113.06,326c10.19,27.32,23.05,53.63,38.52,78.35,4.32,6.9,8.84,13.67,13.54,20.31,1.81,2.55,5.32,4.01,8.21,2.15,2.54-1.63,4.09-5.47,2.15-8.21-16.56-23.36-30.76-48.39-42.28-74.6-.79-1.79-1.58-3.59-2.33-5.4.6,1.45,0,.02-.1-.23-.17-.42-.35-.83-.52-1.25-.4-.97-.8-1.95-1.2-2.93-1.53-3.77-3-7.56-4.43-11.38-1.09-2.93-4.11-5.25-7.38-4.19-2.87.93-5.37,4.23-4.19,7.38h0Z"/>
  <path class="cls-14" d="m1023.12,362.51c-5.08,9.8-10.67,19.32-16.75,28.53-3.06,4.63-6.25,9.19-9.55,13.65-.79,1.07-1.59,2.14-2.4,3.2-.36.47-.72.94-1.08,1.41-.66.86.01-.01.12-.16-.26.36-.55.7-.82,1.05-1.73,2.22-3.5,4.41-5.29,6.58-3.96,4.79-8.08,9.47-12.32,14.02-2.14,2.3-2.45,6.24,0,8.49s6.2,2.45,8.49,0c15.44-16.56,29.17-34.78,40.78-54.21,3.23-5.4,6.29-10.91,9.19-16.49,1.44-2.78.81-6.64-2.15-8.21-2.76-1.46-6.67-.82-8.21,2.15h0Z"/>
  <path class="cls-14" d="m975.7,366.75c-3.29,5.98-6.87,11.8-10.75,17.43-1.89,2.75-3.86,5.44-5.88,8.1-.94,1.23.78-.99-.17.23-.28.36-.56.72-.84,1.07-.47.6-.94,1.19-1.42,1.78-1.14,1.42-2.31,2.82-3.49,4.2-2.03,2.39-2.52,6.17,0,8.49,2.24,2.05,6.31,2.55,8.49,0,9.29-10.9,17.53-22.69,24.44-35.24,1.51-2.75.76-6.67-2.15-8.21s-6.59-.78-8.21,2.15h0Z"/>
  <path class="cls-14" d="m946.37,322.81c-1.26,3.39-2.57,6.76-3.92,10.12-.62,1.54-1.25,3.07-1.88,4.6-.17.42-.35.83-.52,1.25-.6,1.43.51-1.19-.1.23-.41.97-.83,1.94-1.25,2.91-2.82,6.5-5.8,12.93-8.94,19.28-6.34,12.83-13.34,25.35-20.95,37.47-4.25,6.77-8.69,13.41-13.3,19.93-1.82,2.57-.54,6.79,2.15,8.21,3.09,1.63,6.27.59,8.21-2.15,16.65-23.49,30.9-48.65,42.47-75.02,3.42-7.79,6.63-15.67,9.6-23.64,1.1-2.95-1.22-6.7-4.19-7.38-3.4-.78-6.2,1.04-7.38,4.19h0Z"/>
</svg>