<?xml version="1.0" encoding="UTF-8"?>
<svg id="Layer_2" data-name="Layer 2" xmlns="http://www.w3.org/2000/svg" viewBox="0 0 1080 1080">
  <defs>
    <style>
      .cls-1 {
        fill: #666ab2;
      }

      .cls-1, .cls-2, .cls-3 {
        stroke-width: 0px;
      }

      .cls-2 {
        fill: #fff;
      }

      .cls-3 {
        fill: #ffa7c7;
      }
    </style>
  </defs>
  <g>
    <path class="cls-1" d="m164.69,436.2c12.79-2.49,26.15-2.46,40.06.08,13.91,2.55,27.6,8.36,41.07,17.44,16.17,11.44,28.24,26.12,36.2,44.03,7.96,17.91,11.5,36.42,10.62,55.52-.88,19.1-6.43,36.33-16.65,51.67-10.22,15.34-25.42,26.29-45.57,32.85-13.97,3.91-26.22,5.34-36.74,4.3-10.53-1.04-18.99-3.17-25.41-6.39,2.85,16.67,5.03,30.87,6.53,42.62,1.5,11.74,1.91,19.25,1.24,22.54-1.86,6.02-6.19,10.61-13,13.78-6.82,3.17-14.13,4.1-21.94,2.8-7.82-1.3-14.24-5.74-19.26-13.31-4.39-8.35-10.63-28.56-18.73-60.65-8.1-32.08-14.9-65.14-20.42-99.18-5.52-34.03-6.72-58.26-3.61-72.67,4.24-12.66,10.39-19.71,18.46-21.15,8.07-1.44,15.78.15,23.12,4.76,12.27-9.23,26.95-15.58,44.02-19.04Z"/>
    <path class="cls-1" d="m373.36,489.42c6.12.34,11.53,1.72,16.22,4.15,5.53-2.35,13.33-3.67,23.39-3.96,10.06-.29,20.66.11,31.81,1.19,8.13,1.18,14,4.76,17.6,10.75,3.6,5.99,4.25,12.11,1.95,18.36-2.31,6.24-8.19,10.33-17.67,12.26-7.29,1.18-15.63,1.57-25.02,1.19s-17.56-1.03-24.52-1.95c.08,7.46.12,15.47.12,24.02,6.79-.08,13.18.04,19.18.38,5.99.34,10.08.71,12.26,1.13,7.62,1.68,12.84,4.86,15.65,9.56,2.81,4.69,3.54,9.7,2.2,15.03s-4.36,9.81-9.05,13.45c-4.7,3.65-10.69,5.26-17.98,4.84-1.51-.17-5.03-.42-10.56-.76-3.77-.17-7.84-.38-12.2-.63-.17,8.72-.34,16.93-.5,24.64,8.97-.5,17.67-.8,26.09-.88,8.42-.08,13.9,0,16.41.25,10.06,1.18,17.12,3.69,21.19,7.54,4.06,3.86,5.82,8.17,5.28,12.95-.54,4.78-2.7,9.1-6.47,12.95-3.77,3.86-8.51,6.41-14.21,7.67-18.61,3.18-36.8,3.65-54.57,1.38-3.44,1.34-7.52,1.62-12.26.82-4.74-.8-9.18-2.91-13.33-6.35-4.15-3.44-6.98-8.47-8.49-15.09-1.26-6.62-2.03-17.1-2.33-31.43-.29-14.33-.29-29.59,0-45.77.29-16.18.69-30.35,1.19-42.5.5-12.15.96-19.36,1.38-21.63,1.17-5.11,3.35-8.68,6.54-10.69,3.18-2.01,6.75-2.97,10.69-2.89Z"/>
    <path class="cls-1" d="m534.68,332.1c33.35,1.6,63.59,3.5,90.73,5.67,27.13,2.18,44.98,4.17,53.55,5.98,8.25,2.32,14.71,9.13,19.39,20.45,4.68,11.32,5.42,23.14,2.21,35.47-3.21,12.33-12.33,21.2-27.36,26.59-9.43,3.57-33.57,4.33-72.42,2.28,5.16,4.44,8.36,9.31,9.6,14.61.9,5.98,1.17,19.88.79,41.69-.38,21.82-1.02,46.06-1.93,72.74-.91,26.68-1.8,50.48-2.65,71.39-.86,20.92-1.46,33.47-1.81,37.64-1.03,12.18-5.28,21.36-12.74,27.55-7.46,6.19-15.96,9.19-25.5,8.99-9.55-.2-17.92-3.61-25.14-10.25-7.22-6.63-11.11-16.51-11.67-29.64-.08-4.55.32-22.29,1.22-53.26.89-30.96,1.94-64.49,3.16-100.58,1.21-36.09,2.46-64.42,3.75-84.97-42.08-3.24-66.81-5.83-74.18-7.76-10.76-2.96-17.28-10.74-19.59-23.34-2.31-12.6-1.1-25.25,3.62-37.94,4.71-12.7,12.37-20.54,22.96-23.53,5.75-1.64,27.09-1.58,64.02.2Z"/>
    <path class="cls-1" d="m776.53,516.49c4.27.51,7.97,2.2,11.09,5.06s4.81,6.75,5.04,11.69c0,5.98-1.31,19.02-3.92,39.12-2.61,20.1-5.69,40.13-9.25,60.08-3.55,19.95-6.81,32.65-9.76,38.09-2.98,4.12-6.99,6.42-12.04,6.91-5.05.49-9.72-.48-14-2.89-4.28-2.42-6.74-5.81-7.38-10.19-.66-9.19.26-23.3,2.74-42.34,2.48-19.03,5.39-37.63,8.75-55.79,3.35-18.16,6.1-30.61,8.24-37.34,1.68-4.79,4.45-8.18,8.29-10.18,3.85-2,7.91-2.74,12.18-2.23Z"/>
    <path class="cls-1" d="m870.57,522.17c6.35-1.08,12.22-.92,17.61.47,5.13-3.7,12.82-6.87,23.07-9.52,10.25-2.65,21.22-4.71,32.91-6.2,8.61-.69,15.47,1.62,20.56,6.92,5.09,5.31,7.19,11.44,6.28,18.38-.91,6.94-6,12.51-15.26,16.7-7.21,2.91-15.67,5.26-25.39,7.06-9.72,1.8-18.26,3.04-25.61,3.72,1.83,7.64,3.74,15.84,5.73,24.61,6.95-1.67,13.53-3.03,19.76-4.08,6.22-1.05,10.51-1.62,12.84-1.7,8.22-.06,14.31,1.99,18.29,6.15,3.98,4.16,5.9,9.13,5.76,14.9-.13,5.77-2.19,11.08-6.15,15.91-3.97,4.83-9.74,7.89-17.32,9.16-1.59.18-5.26.74-11.01,1.69-3.91.71-8.13,1.44-12.66,2.2,1.86,8.98,3.61,17.45,5.23,25.4,9.09-2.61,17.94-4.94,26.56-6.99,8.62-2.05,14.25-3.24,16.89-3.57,10.59-1.14,18.42-.21,23.49,2.8,5.07,3.01,7.88,7.03,8.44,12.05.55,5.03-.65,9.96-3.62,14.8-2.97,4.84-7.23,8.56-12.79,11.18-18.35,7.61-36.9,12.32-55.66,14.15-3.21,2.18-7.34,3.41-12.39,3.7-5.04.29-10.09-.85-15.15-3.41-5.06-2.56-9.13-7.06-12.23-13.5-2.83-6.5-6.08-17.07-9.72-31.7-3.65-14.64-7.2-30.29-10.68-46.95-3.47-16.66-6.37-31.29-8.69-43.88-2.32-12.58-3.53-20.09-3.63-22.51.01-5.52,1.42-9.68,4.21-12.49,2.8-2.81,6.23-4.63,10.29-5.46Z"/>
    <ellipse class="cls-1" cx="293.16" cy="520.94" rx="17.36" ry="14.48" transform="translate(-52.38 33.17) rotate(-5.95)"/>
    <ellipse class="cls-2" cx="218.8" cy="509.88" rx="14.57" ry="17.85" transform="translate(-107.86 61.39) rotate(-12.84)"/>
  </g>
  <g>
    <path class="cls-3" d="m820.51,453.89c-2.77-13.01-13.78-23.67-28.3-25.81-14.52-2.14-28.14,4.9-34.54,16.55-9.17,2.28-16.3,9.06-17.61,17.97-1.81,12.28,8.11,23.92,22.14,25.98,2.39.35,4.74.38,7.02.16,4.24,1.18,8.81,2.17,13.63,2.88,4.82.71,9.48,1.08,13.88,1.18,2.12.86,4.38,1.51,6.77,1.87,14.04,2.07,26.88-6.22,28.69-18.5,1.31-8.91-3.56-17.46-11.69-22.28Z"/>
    <ellipse class="cls-3" cx="745.25" cy="430.23" rx="11.6" ry="14.12" transform="translate(-114.56 465.31) rotate(-32.33)"/>
    <ellipse class="cls-3" cx="814.24" cy="413.16" rx="17.75" ry="12.48" transform="translate(79.12 954.71) rotate(-63.28)"/>
    <ellipse class="cls-3" cx="775.21" cy="407.41" rx="12.48" ry="17.75" transform="translate(-58.81 140.32) rotate(-9.97)"/>
    <ellipse class="cls-3" cx="840.61" cy="444.27" rx="14.12" ry="11.6" transform="translate(-107.28 518.5) rotate(-32.33)"/>
  </g>
</svg>